%TF.GenerationSoftware,KiCad,Pcbnew,(6.0.7-1)-1*%
%TF.CreationDate,2022-12-01T13:22:50-08:00*%
%TF.ProjectId,UrbanSteering,55726261-6e53-4746-9565-72696e672e6b,rev?*%
%TF.SameCoordinates,Original*%
%TF.FileFunction,Drillmap*%
%TF.FilePolarity,Positive*%
%FSLAX45Y45*%
G04 Gerber Fmt 4.5, Leading zero omitted, Abs format (unit mm)*
G04 Created by KiCad (PCBNEW (6.0.7-1)-1) date 2022-12-01 13:22:50*
%MOMM*%
%LPD*%
G01*
G04 APERTURE LIST*
%ADD10C,0.200000*%
%ADD11C,0.050000*%
%ADD12C,0.130000*%
%ADD13C,0.320000*%
%ADD14C,0.340000*%
%ADD15C,0.345440*%
G04 APERTURE END LIST*
D10*
X13200000Y-15000000D02*
X10300000Y-15000000D01*
X13200000Y-15000000D02*
G75*
G03*
X13700000Y-14500000I-5738J505738D01*
G01*
X10500000Y-5000000D02*
G75*
G03*
X10000000Y-5500000I0J-500000D01*
G01*
X10000000Y-14700000D02*
G75*
G03*
X10300000Y-15000000I300000J0D01*
G01*
X23900000Y-15000000D02*
X19400000Y-15000000D01*
X14200000Y-14000000D02*
X18400000Y-14000000D01*
X14200000Y-14000000D02*
G75*
G03*
X13700000Y-14500000I0J-500000D01*
G01*
X10000000Y-14700000D02*
X10000000Y-5500000D01*
X24400000Y-14500000D02*
X24400000Y-5500000D01*
X24400000Y-5500000D02*
G75*
G03*
X23900000Y-5000000I-500000J0D01*
G01*
D11*
X13700000Y-14500000D02*
X13700000Y-14500000D01*
D10*
X18900000Y-14500000D02*
G75*
G03*
X18400000Y-14000000I-500000J0D01*
G01*
X23900000Y-15000000D02*
G75*
G03*
X24400000Y-14500000I0J500000D01*
G01*
X18900000Y-14500000D02*
G75*
G03*
X19400000Y-15000000I500000J0D01*
G01*
X10500000Y-5000000D02*
X23900000Y-5000000D01*
D12*
X10162000Y-8038000D02*
X10292000Y-8168000D01*
X10292000Y-8038000D02*
X10162000Y-8168000D01*
X10162000Y-9308000D02*
X10292000Y-9438000D01*
X10292000Y-9308000D02*
X10162000Y-9438000D01*
X10162000Y-10538000D02*
X10292000Y-10668000D01*
X10292000Y-10538000D02*
X10162000Y-10668000D01*
X10162000Y-11808000D02*
X10292000Y-11938000D01*
X10292000Y-11808000D02*
X10162000Y-11938000D01*
X11432000Y-8038000D02*
X11562000Y-8168000D01*
X11562000Y-8038000D02*
X11432000Y-8168000D01*
X11432000Y-9308000D02*
X11562000Y-9438000D01*
X11562000Y-9308000D02*
X11432000Y-9438000D01*
X11432000Y-10538000D02*
X11562000Y-10668000D01*
X11562000Y-10538000D02*
X11432000Y-10668000D01*
X11432000Y-11808000D02*
X11562000Y-11938000D01*
X11562000Y-11808000D02*
X11432000Y-11938000D01*
X22838000Y-5562000D02*
X22968000Y-5692000D01*
X22968000Y-5562000D02*
X22838000Y-5692000D01*
X22838000Y-6832000D02*
X22968000Y-6962000D01*
X22968000Y-6832000D02*
X22838000Y-6962000D01*
X22838000Y-10562000D02*
X22968000Y-10692000D01*
X22968000Y-10562000D02*
X22838000Y-10692000D01*
X22838000Y-11832000D02*
X22968000Y-11962000D01*
X22968000Y-11832000D02*
X22838000Y-11962000D01*
X22850000Y-8050000D02*
X22980000Y-8180000D01*
X22980000Y-8050000D02*
X22850000Y-8180000D01*
X22850000Y-9320000D02*
X22980000Y-9450000D01*
X22980000Y-9320000D02*
X22850000Y-9450000D01*
X24108000Y-5562000D02*
X24238000Y-5692000D01*
X24238000Y-5562000D02*
X24108000Y-5692000D01*
X24108000Y-6832000D02*
X24238000Y-6962000D01*
X24238000Y-6832000D02*
X24108000Y-6962000D01*
X24108000Y-10562000D02*
X24238000Y-10692000D01*
X24238000Y-10562000D02*
X24108000Y-10692000D01*
X24108000Y-11832000D02*
X24238000Y-11962000D01*
X24238000Y-11832000D02*
X24108000Y-11962000D01*
X24120000Y-8050000D02*
X24250000Y-8180000D01*
X24250000Y-8050000D02*
X24120000Y-8180000D01*
X24120000Y-9320000D02*
X24250000Y-9450000D01*
X24250000Y-9320000D02*
X24120000Y-9450000D01*
D13*
X10460000Y-12675000D02*
G75*
G03*
X10460000Y-12675000I-160000J0D01*
G01*
X10460000Y-14725000D02*
G75*
G03*
X10460000Y-14725000I-160000J0D01*
G01*
X12360000Y-7400000D02*
G75*
G03*
X12360000Y-7400000I-160000J0D01*
G01*
X14660000Y-12000000D02*
G75*
G03*
X14660000Y-12000000I-160000J0D01*
G01*
X20060000Y-12000000D02*
G75*
G03*
X20060000Y-12000000I-160000J0D01*
G01*
X22360000Y-7400000D02*
G75*
G03*
X22360000Y-7400000I-160000J0D01*
G01*
D14*
X16195000Y-13294000D02*
X16195000Y-13634000D01*
X16025000Y-13464000D02*
X16365000Y-13464000D01*
X18227000Y-13294000D02*
X18227000Y-13634000D01*
X18057000Y-13464000D02*
X18397000Y-13464000D01*
D15*
X14483133Y-13586133D02*
X14483133Y-13341867D01*
X14238867Y-13341867D01*
X14238867Y-13586133D01*
X14483133Y-13586133D01*
X15499133Y-13586133D02*
X15499133Y-13341867D01*
X15254867Y-13341867D01*
X15254867Y-13586133D01*
X15499133Y-13586133D01*
D10*
X10247619Y-15320476D02*
X10247619Y-15120476D01*
X10295238Y-15120476D01*
X10323810Y-15130000D01*
X10342857Y-15149048D01*
X10352381Y-15168095D01*
X10361905Y-15206190D01*
X10361905Y-15234762D01*
X10352381Y-15272857D01*
X10342857Y-15291905D01*
X10323810Y-15310952D01*
X10295238Y-15320476D01*
X10247619Y-15320476D01*
X10447619Y-15320476D02*
X10447619Y-15187143D01*
X10447619Y-15225238D02*
X10457143Y-15206190D01*
X10466667Y-15196667D01*
X10485714Y-15187143D01*
X10504762Y-15187143D01*
X10571429Y-15320476D02*
X10571429Y-15187143D01*
X10571429Y-15120476D02*
X10561905Y-15130000D01*
X10571429Y-15139524D01*
X10580952Y-15130000D01*
X10571429Y-15120476D01*
X10571429Y-15139524D01*
X10695238Y-15320476D02*
X10676190Y-15310952D01*
X10666667Y-15291905D01*
X10666667Y-15120476D01*
X10800000Y-15320476D02*
X10780952Y-15310952D01*
X10771429Y-15291905D01*
X10771429Y-15120476D01*
X11028571Y-15320476D02*
X11028571Y-15120476D01*
X11095238Y-15263333D01*
X11161905Y-15120476D01*
X11161905Y-15320476D01*
X11342857Y-15320476D02*
X11342857Y-15215714D01*
X11333333Y-15196667D01*
X11314286Y-15187143D01*
X11276190Y-15187143D01*
X11257143Y-15196667D01*
X11342857Y-15310952D02*
X11323809Y-15320476D01*
X11276190Y-15320476D01*
X11257143Y-15310952D01*
X11247619Y-15291905D01*
X11247619Y-15272857D01*
X11257143Y-15253809D01*
X11276190Y-15244286D01*
X11323809Y-15244286D01*
X11342857Y-15234762D01*
X11438095Y-15187143D02*
X11438095Y-15387143D01*
X11438095Y-15196667D02*
X11457143Y-15187143D01*
X11495238Y-15187143D01*
X11514286Y-15196667D01*
X11523809Y-15206190D01*
X11533333Y-15225238D01*
X11533333Y-15282381D01*
X11523809Y-15301428D01*
X11514286Y-15310952D01*
X11495238Y-15320476D01*
X11457143Y-15320476D01*
X11438095Y-15310952D01*
X11619048Y-15301428D02*
X11628571Y-15310952D01*
X11619048Y-15320476D01*
X11609524Y-15310952D01*
X11619048Y-15301428D01*
X11619048Y-15320476D01*
X11619048Y-15196667D02*
X11628571Y-15206190D01*
X11619048Y-15215714D01*
X11609524Y-15206190D01*
X11619048Y-15196667D01*
X11619048Y-15215714D01*
D12*
X9860000Y-15585000D02*
X9990000Y-15715000D01*
X9990000Y-15585000D02*
X9860000Y-15715000D01*
D10*
X10352381Y-15740476D02*
X10238095Y-15740476D01*
X10295238Y-15740476D02*
X10295238Y-15540476D01*
X10276190Y-15569048D01*
X10257143Y-15588095D01*
X10238095Y-15597619D01*
X10438095Y-15721428D02*
X10447619Y-15730952D01*
X10438095Y-15740476D01*
X10428571Y-15730952D01*
X10438095Y-15721428D01*
X10438095Y-15740476D01*
X10514286Y-15540476D02*
X10638095Y-15540476D01*
X10571429Y-15616667D01*
X10600000Y-15616667D01*
X10619048Y-15626190D01*
X10628571Y-15635714D01*
X10638095Y-15654762D01*
X10638095Y-15702381D01*
X10628571Y-15721428D01*
X10619048Y-15730952D01*
X10600000Y-15740476D01*
X10542857Y-15740476D01*
X10523810Y-15730952D01*
X10514286Y-15721428D01*
X10761905Y-15540476D02*
X10780952Y-15540476D01*
X10800000Y-15550000D01*
X10809524Y-15559524D01*
X10819048Y-15578571D01*
X10828571Y-15616667D01*
X10828571Y-15664286D01*
X10819048Y-15702381D01*
X10809524Y-15721428D01*
X10800000Y-15730952D01*
X10780952Y-15740476D01*
X10761905Y-15740476D01*
X10742857Y-15730952D01*
X10733333Y-15721428D01*
X10723810Y-15702381D01*
X10714286Y-15664286D01*
X10714286Y-15616667D01*
X10723810Y-15578571D01*
X10733333Y-15559524D01*
X10742857Y-15550000D01*
X10761905Y-15540476D01*
X10952381Y-15540476D02*
X10971429Y-15540476D01*
X10990476Y-15550000D01*
X11000000Y-15559524D01*
X11009524Y-15578571D01*
X11019048Y-15616667D01*
X11019048Y-15664286D01*
X11009524Y-15702381D01*
X11000000Y-15721428D01*
X10990476Y-15730952D01*
X10971429Y-15740476D01*
X10952381Y-15740476D01*
X10933333Y-15730952D01*
X10923810Y-15721428D01*
X10914286Y-15702381D01*
X10904762Y-15664286D01*
X10904762Y-15616667D01*
X10914286Y-15578571D01*
X10923810Y-15559524D01*
X10933333Y-15550000D01*
X10952381Y-15540476D01*
X11104762Y-15740476D02*
X11104762Y-15607143D01*
X11104762Y-15626190D02*
X11114286Y-15616667D01*
X11133333Y-15607143D01*
X11161905Y-15607143D01*
X11180952Y-15616667D01*
X11190476Y-15635714D01*
X11190476Y-15740476D01*
X11190476Y-15635714D02*
X11200000Y-15616667D01*
X11219048Y-15607143D01*
X11247619Y-15607143D01*
X11266667Y-15616667D01*
X11276190Y-15635714D01*
X11276190Y-15740476D01*
X11371428Y-15740476D02*
X11371428Y-15607143D01*
X11371428Y-15626190D02*
X11380952Y-15616667D01*
X11400000Y-15607143D01*
X11428571Y-15607143D01*
X11447619Y-15616667D01*
X11457143Y-15635714D01*
X11457143Y-15740476D01*
X11457143Y-15635714D02*
X11466667Y-15616667D01*
X11485714Y-15607143D01*
X11514286Y-15607143D01*
X11533333Y-15616667D01*
X11542857Y-15635714D01*
X11542857Y-15740476D01*
X11933333Y-15530952D02*
X11761905Y-15788095D01*
X12190476Y-15540476D02*
X12209524Y-15540476D01*
X12228571Y-15550000D01*
X12238095Y-15559524D01*
X12247619Y-15578571D01*
X12257143Y-15616667D01*
X12257143Y-15664286D01*
X12247619Y-15702381D01*
X12238095Y-15721428D01*
X12228571Y-15730952D01*
X12209524Y-15740476D01*
X12190476Y-15740476D01*
X12171428Y-15730952D01*
X12161905Y-15721428D01*
X12152381Y-15702381D01*
X12142857Y-15664286D01*
X12142857Y-15616667D01*
X12152381Y-15578571D01*
X12161905Y-15559524D01*
X12171428Y-15550000D01*
X12190476Y-15540476D01*
X12342857Y-15721428D02*
X12352381Y-15730952D01*
X12342857Y-15740476D01*
X12333333Y-15730952D01*
X12342857Y-15721428D01*
X12342857Y-15740476D01*
X12476190Y-15540476D02*
X12495238Y-15540476D01*
X12514286Y-15550000D01*
X12523809Y-15559524D01*
X12533333Y-15578571D01*
X12542857Y-15616667D01*
X12542857Y-15664286D01*
X12533333Y-15702381D01*
X12523809Y-15721428D01*
X12514286Y-15730952D01*
X12495238Y-15740476D01*
X12476190Y-15740476D01*
X12457143Y-15730952D01*
X12447619Y-15721428D01*
X12438095Y-15702381D01*
X12428571Y-15664286D01*
X12428571Y-15616667D01*
X12438095Y-15578571D01*
X12447619Y-15559524D01*
X12457143Y-15550000D01*
X12476190Y-15540476D01*
X12723809Y-15540476D02*
X12628571Y-15540476D01*
X12619048Y-15635714D01*
X12628571Y-15626190D01*
X12647619Y-15616667D01*
X12695238Y-15616667D01*
X12714286Y-15626190D01*
X12723809Y-15635714D01*
X12733333Y-15654762D01*
X12733333Y-15702381D01*
X12723809Y-15721428D01*
X12714286Y-15730952D01*
X12695238Y-15740476D01*
X12647619Y-15740476D01*
X12628571Y-15730952D01*
X12619048Y-15721428D01*
X12923809Y-15740476D02*
X12809524Y-15740476D01*
X12866667Y-15740476D02*
X12866667Y-15540476D01*
X12847619Y-15569048D01*
X12828571Y-15588095D01*
X12809524Y-15597619D01*
X13000000Y-15559524D02*
X13009524Y-15550000D01*
X13028571Y-15540476D01*
X13076190Y-15540476D01*
X13095238Y-15550000D01*
X13104762Y-15559524D01*
X13114286Y-15578571D01*
X13114286Y-15597619D01*
X13104762Y-15626190D01*
X12990476Y-15740476D01*
X13114286Y-15740476D01*
X13190476Y-15540476D02*
X13190476Y-15578571D01*
X13266667Y-15540476D02*
X13266667Y-15578571D01*
X13561905Y-15816667D02*
X13552381Y-15807143D01*
X13533333Y-15778571D01*
X13523809Y-15759524D01*
X13514286Y-15730952D01*
X13504762Y-15683333D01*
X13504762Y-15645238D01*
X13514286Y-15597619D01*
X13523809Y-15569048D01*
X13533333Y-15550000D01*
X13552381Y-15521428D01*
X13561905Y-15511905D01*
X13628571Y-15559524D02*
X13638095Y-15550000D01*
X13657143Y-15540476D01*
X13704762Y-15540476D01*
X13723809Y-15550000D01*
X13733333Y-15559524D01*
X13742857Y-15578571D01*
X13742857Y-15597619D01*
X13733333Y-15626190D01*
X13619048Y-15740476D01*
X13742857Y-15740476D01*
X13866667Y-15540476D02*
X13885714Y-15540476D01*
X13904762Y-15550000D01*
X13914286Y-15559524D01*
X13923809Y-15578571D01*
X13933333Y-15616667D01*
X13933333Y-15664286D01*
X13923809Y-15702381D01*
X13914286Y-15721428D01*
X13904762Y-15730952D01*
X13885714Y-15740476D01*
X13866667Y-15740476D01*
X13847619Y-15730952D01*
X13838095Y-15721428D01*
X13828571Y-15702381D01*
X13819048Y-15664286D01*
X13819048Y-15616667D01*
X13828571Y-15578571D01*
X13838095Y-15559524D01*
X13847619Y-15550000D01*
X13866667Y-15540476D01*
X14171428Y-15740476D02*
X14171428Y-15540476D01*
X14257143Y-15740476D02*
X14257143Y-15635714D01*
X14247619Y-15616667D01*
X14228571Y-15607143D01*
X14200000Y-15607143D01*
X14180952Y-15616667D01*
X14171428Y-15626190D01*
X14380952Y-15740476D02*
X14361905Y-15730952D01*
X14352381Y-15721428D01*
X14342857Y-15702381D01*
X14342857Y-15645238D01*
X14352381Y-15626190D01*
X14361905Y-15616667D01*
X14380952Y-15607143D01*
X14409524Y-15607143D01*
X14428571Y-15616667D01*
X14438095Y-15626190D01*
X14447619Y-15645238D01*
X14447619Y-15702381D01*
X14438095Y-15721428D01*
X14428571Y-15730952D01*
X14409524Y-15740476D01*
X14380952Y-15740476D01*
X14561905Y-15740476D02*
X14542857Y-15730952D01*
X14533333Y-15711905D01*
X14533333Y-15540476D01*
X14714286Y-15730952D02*
X14695238Y-15740476D01*
X14657143Y-15740476D01*
X14638095Y-15730952D01*
X14628571Y-15711905D01*
X14628571Y-15635714D01*
X14638095Y-15616667D01*
X14657143Y-15607143D01*
X14695238Y-15607143D01*
X14714286Y-15616667D01*
X14723809Y-15635714D01*
X14723809Y-15654762D01*
X14628571Y-15673809D01*
X14800000Y-15730952D02*
X14819048Y-15740476D01*
X14857143Y-15740476D01*
X14876190Y-15730952D01*
X14885714Y-15711905D01*
X14885714Y-15702381D01*
X14876190Y-15683333D01*
X14857143Y-15673809D01*
X14828571Y-15673809D01*
X14809524Y-15664286D01*
X14800000Y-15645238D01*
X14800000Y-15635714D01*
X14809524Y-15616667D01*
X14828571Y-15607143D01*
X14857143Y-15607143D01*
X14876190Y-15616667D01*
X14952381Y-15816667D02*
X14961905Y-15807143D01*
X14980952Y-15778571D01*
X14990476Y-15759524D01*
X15000000Y-15730952D01*
X15009524Y-15683333D01*
X15009524Y-15645238D01*
X15000000Y-15597619D01*
X14990476Y-15569048D01*
X14980952Y-15550000D01*
X14961905Y-15521428D01*
X14952381Y-15511905D01*
X15314286Y-15816667D02*
X15304762Y-15807143D01*
X15285714Y-15778571D01*
X15276190Y-15759524D01*
X15266667Y-15730952D01*
X15257143Y-15683333D01*
X15257143Y-15645238D01*
X15266667Y-15597619D01*
X15276190Y-15569048D01*
X15285714Y-15550000D01*
X15304762Y-15521428D01*
X15314286Y-15511905D01*
X15390476Y-15607143D02*
X15390476Y-15740476D01*
X15390476Y-15626190D02*
X15400000Y-15616667D01*
X15419048Y-15607143D01*
X15447619Y-15607143D01*
X15466667Y-15616667D01*
X15476190Y-15635714D01*
X15476190Y-15740476D01*
X15600000Y-15740476D02*
X15580952Y-15730952D01*
X15571428Y-15721428D01*
X15561905Y-15702381D01*
X15561905Y-15645238D01*
X15571428Y-15626190D01*
X15580952Y-15616667D01*
X15600000Y-15607143D01*
X15628571Y-15607143D01*
X15647619Y-15616667D01*
X15657143Y-15626190D01*
X15666667Y-15645238D01*
X15666667Y-15702381D01*
X15657143Y-15721428D01*
X15647619Y-15730952D01*
X15628571Y-15740476D01*
X15600000Y-15740476D01*
X15723809Y-15607143D02*
X15800000Y-15607143D01*
X15752381Y-15540476D02*
X15752381Y-15711905D01*
X15761905Y-15730952D01*
X15780952Y-15740476D01*
X15800000Y-15740476D01*
X16019048Y-15607143D02*
X16019048Y-15807143D01*
X16019048Y-15616667D02*
X16038095Y-15607143D01*
X16076190Y-15607143D01*
X16095238Y-15616667D01*
X16104762Y-15626190D01*
X16114286Y-15645238D01*
X16114286Y-15702381D01*
X16104762Y-15721428D01*
X16095238Y-15730952D01*
X16076190Y-15740476D01*
X16038095Y-15740476D01*
X16019048Y-15730952D01*
X16228571Y-15740476D02*
X16209524Y-15730952D01*
X16200000Y-15711905D01*
X16200000Y-15540476D01*
X16390476Y-15740476D02*
X16390476Y-15635714D01*
X16380952Y-15616667D01*
X16361905Y-15607143D01*
X16323809Y-15607143D01*
X16304762Y-15616667D01*
X16390476Y-15730952D02*
X16371428Y-15740476D01*
X16323809Y-15740476D01*
X16304762Y-15730952D01*
X16295238Y-15711905D01*
X16295238Y-15692857D01*
X16304762Y-15673809D01*
X16323809Y-15664286D01*
X16371428Y-15664286D01*
X16390476Y-15654762D01*
X16457143Y-15607143D02*
X16533333Y-15607143D01*
X16485714Y-15540476D02*
X16485714Y-15711905D01*
X16495238Y-15730952D01*
X16514286Y-15740476D01*
X16533333Y-15740476D01*
X16676190Y-15730952D02*
X16657143Y-15740476D01*
X16619048Y-15740476D01*
X16600000Y-15730952D01*
X16590476Y-15711905D01*
X16590476Y-15635714D01*
X16600000Y-15616667D01*
X16619048Y-15607143D01*
X16657143Y-15607143D01*
X16676190Y-15616667D01*
X16685714Y-15635714D01*
X16685714Y-15654762D01*
X16590476Y-15673809D01*
X16857143Y-15740476D02*
X16857143Y-15540476D01*
X16857143Y-15730952D02*
X16838095Y-15740476D01*
X16800000Y-15740476D01*
X16780952Y-15730952D01*
X16771428Y-15721428D01*
X16761905Y-15702381D01*
X16761905Y-15645238D01*
X16771428Y-15626190D01*
X16780952Y-15616667D01*
X16800000Y-15607143D01*
X16838095Y-15607143D01*
X16857143Y-15616667D01*
X16933333Y-15816667D02*
X16942857Y-15807143D01*
X16961905Y-15778571D01*
X16971429Y-15759524D01*
X16980952Y-15730952D01*
X16990476Y-15683333D01*
X16990476Y-15645238D01*
X16980952Y-15597619D01*
X16971429Y-15569048D01*
X16961905Y-15550000D01*
X16942857Y-15521428D01*
X16933333Y-15511905D01*
X9990000Y-15914000D02*
G75*
G03*
X9990000Y-15914000I-100000J0D01*
G01*
X10228571Y-15804476D02*
X10352381Y-15804476D01*
X10285714Y-15880667D01*
X10314286Y-15880667D01*
X10333333Y-15890190D01*
X10342857Y-15899714D01*
X10352381Y-15918762D01*
X10352381Y-15966381D01*
X10342857Y-15985428D01*
X10333333Y-15994952D01*
X10314286Y-16004476D01*
X10257143Y-16004476D01*
X10238095Y-15994952D01*
X10228571Y-15985428D01*
X10438095Y-15985428D02*
X10447619Y-15994952D01*
X10438095Y-16004476D01*
X10428571Y-15994952D01*
X10438095Y-15985428D01*
X10438095Y-16004476D01*
X10523810Y-15823524D02*
X10533333Y-15814000D01*
X10552381Y-15804476D01*
X10600000Y-15804476D01*
X10619048Y-15814000D01*
X10628571Y-15823524D01*
X10638095Y-15842571D01*
X10638095Y-15861619D01*
X10628571Y-15890190D01*
X10514286Y-16004476D01*
X10638095Y-16004476D01*
X10761905Y-15804476D02*
X10780952Y-15804476D01*
X10800000Y-15814000D01*
X10809524Y-15823524D01*
X10819048Y-15842571D01*
X10828571Y-15880667D01*
X10828571Y-15928286D01*
X10819048Y-15966381D01*
X10809524Y-15985428D01*
X10800000Y-15994952D01*
X10780952Y-16004476D01*
X10761905Y-16004476D01*
X10742857Y-15994952D01*
X10733333Y-15985428D01*
X10723810Y-15966381D01*
X10714286Y-15928286D01*
X10714286Y-15880667D01*
X10723810Y-15842571D01*
X10733333Y-15823524D01*
X10742857Y-15814000D01*
X10761905Y-15804476D01*
X10952381Y-15804476D02*
X10971429Y-15804476D01*
X10990476Y-15814000D01*
X11000000Y-15823524D01*
X11009524Y-15842571D01*
X11019048Y-15880667D01*
X11019048Y-15928286D01*
X11009524Y-15966381D01*
X11000000Y-15985428D01*
X10990476Y-15994952D01*
X10971429Y-16004476D01*
X10952381Y-16004476D01*
X10933333Y-15994952D01*
X10923810Y-15985428D01*
X10914286Y-15966381D01*
X10904762Y-15928286D01*
X10904762Y-15880667D01*
X10914286Y-15842571D01*
X10923810Y-15823524D01*
X10933333Y-15814000D01*
X10952381Y-15804476D01*
X11104762Y-16004476D02*
X11104762Y-15871143D01*
X11104762Y-15890190D02*
X11114286Y-15880667D01*
X11133333Y-15871143D01*
X11161905Y-15871143D01*
X11180952Y-15880667D01*
X11190476Y-15899714D01*
X11190476Y-16004476D01*
X11190476Y-15899714D02*
X11200000Y-15880667D01*
X11219048Y-15871143D01*
X11247619Y-15871143D01*
X11266667Y-15880667D01*
X11276190Y-15899714D01*
X11276190Y-16004476D01*
X11371428Y-16004476D02*
X11371428Y-15871143D01*
X11371428Y-15890190D02*
X11380952Y-15880667D01*
X11400000Y-15871143D01*
X11428571Y-15871143D01*
X11447619Y-15880667D01*
X11457143Y-15899714D01*
X11457143Y-16004476D01*
X11457143Y-15899714D02*
X11466667Y-15880667D01*
X11485714Y-15871143D01*
X11514286Y-15871143D01*
X11533333Y-15880667D01*
X11542857Y-15899714D01*
X11542857Y-16004476D01*
X11933333Y-15794952D02*
X11761905Y-16052095D01*
X12190476Y-15804476D02*
X12209524Y-15804476D01*
X12228571Y-15814000D01*
X12238095Y-15823524D01*
X12247619Y-15842571D01*
X12257143Y-15880667D01*
X12257143Y-15928286D01*
X12247619Y-15966381D01*
X12238095Y-15985428D01*
X12228571Y-15994952D01*
X12209524Y-16004476D01*
X12190476Y-16004476D01*
X12171428Y-15994952D01*
X12161905Y-15985428D01*
X12152381Y-15966381D01*
X12142857Y-15928286D01*
X12142857Y-15880667D01*
X12152381Y-15842571D01*
X12161905Y-15823524D01*
X12171428Y-15814000D01*
X12190476Y-15804476D01*
X12342857Y-15985428D02*
X12352381Y-15994952D01*
X12342857Y-16004476D01*
X12333333Y-15994952D01*
X12342857Y-15985428D01*
X12342857Y-16004476D01*
X12542857Y-16004476D02*
X12428571Y-16004476D01*
X12485714Y-16004476D02*
X12485714Y-15804476D01*
X12466667Y-15833048D01*
X12447619Y-15852095D01*
X12428571Y-15861619D01*
X12619048Y-15823524D02*
X12628571Y-15814000D01*
X12647619Y-15804476D01*
X12695238Y-15804476D01*
X12714286Y-15814000D01*
X12723809Y-15823524D01*
X12733333Y-15842571D01*
X12733333Y-15861619D01*
X12723809Y-15890190D01*
X12609524Y-16004476D01*
X12733333Y-16004476D01*
X12904762Y-15804476D02*
X12866667Y-15804476D01*
X12847619Y-15814000D01*
X12838095Y-15823524D01*
X12819048Y-15852095D01*
X12809524Y-15890190D01*
X12809524Y-15966381D01*
X12819048Y-15985428D01*
X12828571Y-15994952D01*
X12847619Y-16004476D01*
X12885714Y-16004476D01*
X12904762Y-15994952D01*
X12914286Y-15985428D01*
X12923809Y-15966381D01*
X12923809Y-15918762D01*
X12914286Y-15899714D01*
X12904762Y-15890190D01*
X12885714Y-15880667D01*
X12847619Y-15880667D01*
X12828571Y-15890190D01*
X12819048Y-15899714D01*
X12809524Y-15918762D01*
X13047619Y-15804476D02*
X13066667Y-15804476D01*
X13085714Y-15814000D01*
X13095238Y-15823524D01*
X13104762Y-15842571D01*
X13114286Y-15880667D01*
X13114286Y-15928286D01*
X13104762Y-15966381D01*
X13095238Y-15985428D01*
X13085714Y-15994952D01*
X13066667Y-16004476D01*
X13047619Y-16004476D01*
X13028571Y-15994952D01*
X13019048Y-15985428D01*
X13009524Y-15966381D01*
X13000000Y-15928286D01*
X13000000Y-15880667D01*
X13009524Y-15842571D01*
X13019048Y-15823524D01*
X13028571Y-15814000D01*
X13047619Y-15804476D01*
X13190476Y-15804476D02*
X13190476Y-15842571D01*
X13266667Y-15804476D02*
X13266667Y-15842571D01*
X13561905Y-16080667D02*
X13552381Y-16071143D01*
X13533333Y-16042571D01*
X13523809Y-16023524D01*
X13514286Y-15994952D01*
X13504762Y-15947333D01*
X13504762Y-15909238D01*
X13514286Y-15861619D01*
X13523809Y-15833048D01*
X13533333Y-15814000D01*
X13552381Y-15785428D01*
X13561905Y-15775905D01*
X13723809Y-15804476D02*
X13685714Y-15804476D01*
X13666667Y-15814000D01*
X13657143Y-15823524D01*
X13638095Y-15852095D01*
X13628571Y-15890190D01*
X13628571Y-15966381D01*
X13638095Y-15985428D01*
X13647619Y-15994952D01*
X13666667Y-16004476D01*
X13704762Y-16004476D01*
X13723809Y-15994952D01*
X13733333Y-15985428D01*
X13742857Y-15966381D01*
X13742857Y-15918762D01*
X13733333Y-15899714D01*
X13723809Y-15890190D01*
X13704762Y-15880667D01*
X13666667Y-15880667D01*
X13647619Y-15890190D01*
X13638095Y-15899714D01*
X13628571Y-15918762D01*
X13980952Y-16004476D02*
X13980952Y-15804476D01*
X14066667Y-16004476D02*
X14066667Y-15899714D01*
X14057143Y-15880667D01*
X14038095Y-15871143D01*
X14009524Y-15871143D01*
X13990476Y-15880667D01*
X13980952Y-15890190D01*
X14190476Y-16004476D02*
X14171428Y-15994952D01*
X14161905Y-15985428D01*
X14152381Y-15966381D01*
X14152381Y-15909238D01*
X14161905Y-15890190D01*
X14171428Y-15880667D01*
X14190476Y-15871143D01*
X14219048Y-15871143D01*
X14238095Y-15880667D01*
X14247619Y-15890190D01*
X14257143Y-15909238D01*
X14257143Y-15966381D01*
X14247619Y-15985428D01*
X14238095Y-15994952D01*
X14219048Y-16004476D01*
X14190476Y-16004476D01*
X14371428Y-16004476D02*
X14352381Y-15994952D01*
X14342857Y-15975905D01*
X14342857Y-15804476D01*
X14523809Y-15994952D02*
X14504762Y-16004476D01*
X14466667Y-16004476D01*
X14447619Y-15994952D01*
X14438095Y-15975905D01*
X14438095Y-15899714D01*
X14447619Y-15880667D01*
X14466667Y-15871143D01*
X14504762Y-15871143D01*
X14523809Y-15880667D01*
X14533333Y-15899714D01*
X14533333Y-15918762D01*
X14438095Y-15937809D01*
X14609524Y-15994952D02*
X14628571Y-16004476D01*
X14666667Y-16004476D01*
X14685714Y-15994952D01*
X14695238Y-15975905D01*
X14695238Y-15966381D01*
X14685714Y-15947333D01*
X14666667Y-15937809D01*
X14638095Y-15937809D01*
X14619048Y-15928286D01*
X14609524Y-15909238D01*
X14609524Y-15899714D01*
X14619048Y-15880667D01*
X14638095Y-15871143D01*
X14666667Y-15871143D01*
X14685714Y-15880667D01*
X14761905Y-16080667D02*
X14771428Y-16071143D01*
X14790476Y-16042571D01*
X14800000Y-16023524D01*
X14809524Y-15994952D01*
X14819048Y-15947333D01*
X14819048Y-15909238D01*
X14809524Y-15861619D01*
X14800000Y-15833048D01*
X14790476Y-15814000D01*
X14771428Y-15785428D01*
X14761905Y-15775905D01*
X15123809Y-16080667D02*
X15114286Y-16071143D01*
X15095238Y-16042571D01*
X15085714Y-16023524D01*
X15076190Y-15994952D01*
X15066667Y-15947333D01*
X15066667Y-15909238D01*
X15076190Y-15861619D01*
X15085714Y-15833048D01*
X15095238Y-15814000D01*
X15114286Y-15785428D01*
X15123809Y-15775905D01*
X15200000Y-15871143D02*
X15200000Y-16004476D01*
X15200000Y-15890190D02*
X15209524Y-15880667D01*
X15228571Y-15871143D01*
X15257143Y-15871143D01*
X15276190Y-15880667D01*
X15285714Y-15899714D01*
X15285714Y-16004476D01*
X15409524Y-16004476D02*
X15390476Y-15994952D01*
X15380952Y-15985428D01*
X15371428Y-15966381D01*
X15371428Y-15909238D01*
X15380952Y-15890190D01*
X15390476Y-15880667D01*
X15409524Y-15871143D01*
X15438095Y-15871143D01*
X15457143Y-15880667D01*
X15466667Y-15890190D01*
X15476190Y-15909238D01*
X15476190Y-15966381D01*
X15466667Y-15985428D01*
X15457143Y-15994952D01*
X15438095Y-16004476D01*
X15409524Y-16004476D01*
X15533333Y-15871143D02*
X15609524Y-15871143D01*
X15561905Y-15804476D02*
X15561905Y-15975905D01*
X15571428Y-15994952D01*
X15590476Y-16004476D01*
X15609524Y-16004476D01*
X15828571Y-15871143D02*
X15828571Y-16071143D01*
X15828571Y-15880667D02*
X15847619Y-15871143D01*
X15885714Y-15871143D01*
X15904762Y-15880667D01*
X15914286Y-15890190D01*
X15923809Y-15909238D01*
X15923809Y-15966381D01*
X15914286Y-15985428D01*
X15904762Y-15994952D01*
X15885714Y-16004476D01*
X15847619Y-16004476D01*
X15828571Y-15994952D01*
X16038095Y-16004476D02*
X16019048Y-15994952D01*
X16009524Y-15975905D01*
X16009524Y-15804476D01*
X16200000Y-16004476D02*
X16200000Y-15899714D01*
X16190476Y-15880667D01*
X16171428Y-15871143D01*
X16133333Y-15871143D01*
X16114286Y-15880667D01*
X16200000Y-15994952D02*
X16180952Y-16004476D01*
X16133333Y-16004476D01*
X16114286Y-15994952D01*
X16104762Y-15975905D01*
X16104762Y-15956857D01*
X16114286Y-15937809D01*
X16133333Y-15928286D01*
X16180952Y-15928286D01*
X16200000Y-15918762D01*
X16266667Y-15871143D02*
X16342857Y-15871143D01*
X16295238Y-15804476D02*
X16295238Y-15975905D01*
X16304762Y-15994952D01*
X16323809Y-16004476D01*
X16342857Y-16004476D01*
X16485714Y-15994952D02*
X16466667Y-16004476D01*
X16428571Y-16004476D01*
X16409524Y-15994952D01*
X16400000Y-15975905D01*
X16400000Y-15899714D01*
X16409524Y-15880667D01*
X16428571Y-15871143D01*
X16466667Y-15871143D01*
X16485714Y-15880667D01*
X16495238Y-15899714D01*
X16495238Y-15918762D01*
X16400000Y-15937809D01*
X16666667Y-16004476D02*
X16666667Y-15804476D01*
X16666667Y-15994952D02*
X16647619Y-16004476D01*
X16609524Y-16004476D01*
X16590476Y-15994952D01*
X16580952Y-15985428D01*
X16571428Y-15966381D01*
X16571428Y-15909238D01*
X16580952Y-15890190D01*
X16590476Y-15880667D01*
X16609524Y-15871143D01*
X16647619Y-15871143D01*
X16666667Y-15880667D01*
X16742857Y-16080667D02*
X16752381Y-16071143D01*
X16771428Y-16042571D01*
X16780952Y-16023524D01*
X16790476Y-15994952D01*
X16800000Y-15947333D01*
X16800000Y-15909238D01*
X16790476Y-15861619D01*
X16780952Y-15833048D01*
X16771428Y-15814000D01*
X16752381Y-15785428D01*
X16742857Y-15775905D01*
X9890000Y-16134000D02*
X9890000Y-16334000D01*
X9790000Y-16234000D02*
X9990000Y-16234000D01*
X10228571Y-16124476D02*
X10352381Y-16124476D01*
X10285714Y-16200667D01*
X10314286Y-16200667D01*
X10333333Y-16210190D01*
X10342857Y-16219714D01*
X10352381Y-16238762D01*
X10352381Y-16286381D01*
X10342857Y-16305428D01*
X10333333Y-16314952D01*
X10314286Y-16324476D01*
X10257143Y-16324476D01*
X10238095Y-16314952D01*
X10228571Y-16305428D01*
X10438095Y-16305428D02*
X10447619Y-16314952D01*
X10438095Y-16324476D01*
X10428571Y-16314952D01*
X10438095Y-16305428D01*
X10438095Y-16324476D01*
X10619048Y-16191143D02*
X10619048Y-16324476D01*
X10571429Y-16114952D02*
X10523810Y-16257809D01*
X10647619Y-16257809D01*
X10761905Y-16124476D02*
X10780952Y-16124476D01*
X10800000Y-16134000D01*
X10809524Y-16143524D01*
X10819048Y-16162571D01*
X10828571Y-16200667D01*
X10828571Y-16248286D01*
X10819048Y-16286381D01*
X10809524Y-16305428D01*
X10800000Y-16314952D01*
X10780952Y-16324476D01*
X10761905Y-16324476D01*
X10742857Y-16314952D01*
X10733333Y-16305428D01*
X10723810Y-16286381D01*
X10714286Y-16248286D01*
X10714286Y-16200667D01*
X10723810Y-16162571D01*
X10733333Y-16143524D01*
X10742857Y-16134000D01*
X10761905Y-16124476D01*
X10952381Y-16124476D02*
X10971429Y-16124476D01*
X10990476Y-16134000D01*
X11000000Y-16143524D01*
X11009524Y-16162571D01*
X11019048Y-16200667D01*
X11019048Y-16248286D01*
X11009524Y-16286381D01*
X11000000Y-16305428D01*
X10990476Y-16314952D01*
X10971429Y-16324476D01*
X10952381Y-16324476D01*
X10933333Y-16314952D01*
X10923810Y-16305428D01*
X10914286Y-16286381D01*
X10904762Y-16248286D01*
X10904762Y-16200667D01*
X10914286Y-16162571D01*
X10923810Y-16143524D01*
X10933333Y-16134000D01*
X10952381Y-16124476D01*
X11104762Y-16324476D02*
X11104762Y-16191143D01*
X11104762Y-16210190D02*
X11114286Y-16200667D01*
X11133333Y-16191143D01*
X11161905Y-16191143D01*
X11180952Y-16200667D01*
X11190476Y-16219714D01*
X11190476Y-16324476D01*
X11190476Y-16219714D02*
X11200000Y-16200667D01*
X11219048Y-16191143D01*
X11247619Y-16191143D01*
X11266667Y-16200667D01*
X11276190Y-16219714D01*
X11276190Y-16324476D01*
X11371428Y-16324476D02*
X11371428Y-16191143D01*
X11371428Y-16210190D02*
X11380952Y-16200667D01*
X11400000Y-16191143D01*
X11428571Y-16191143D01*
X11447619Y-16200667D01*
X11457143Y-16219714D01*
X11457143Y-16324476D01*
X11457143Y-16219714D02*
X11466667Y-16200667D01*
X11485714Y-16191143D01*
X11514286Y-16191143D01*
X11533333Y-16200667D01*
X11542857Y-16219714D01*
X11542857Y-16324476D01*
X11933333Y-16114952D02*
X11761905Y-16372095D01*
X12190476Y-16124476D02*
X12209524Y-16124476D01*
X12228571Y-16134000D01*
X12238095Y-16143524D01*
X12247619Y-16162571D01*
X12257143Y-16200667D01*
X12257143Y-16248286D01*
X12247619Y-16286381D01*
X12238095Y-16305428D01*
X12228571Y-16314952D01*
X12209524Y-16324476D01*
X12190476Y-16324476D01*
X12171428Y-16314952D01*
X12161905Y-16305428D01*
X12152381Y-16286381D01*
X12142857Y-16248286D01*
X12142857Y-16200667D01*
X12152381Y-16162571D01*
X12161905Y-16143524D01*
X12171428Y-16134000D01*
X12190476Y-16124476D01*
X12342857Y-16305428D02*
X12352381Y-16314952D01*
X12342857Y-16324476D01*
X12333333Y-16314952D01*
X12342857Y-16305428D01*
X12342857Y-16324476D01*
X12542857Y-16324476D02*
X12428571Y-16324476D01*
X12485714Y-16324476D02*
X12485714Y-16124476D01*
X12466667Y-16153048D01*
X12447619Y-16172095D01*
X12428571Y-16181619D01*
X12609524Y-16124476D02*
X12733333Y-16124476D01*
X12666667Y-16200667D01*
X12695238Y-16200667D01*
X12714286Y-16210190D01*
X12723809Y-16219714D01*
X12733333Y-16238762D01*
X12733333Y-16286381D01*
X12723809Y-16305428D01*
X12714286Y-16314952D01*
X12695238Y-16324476D01*
X12638095Y-16324476D01*
X12619048Y-16314952D01*
X12609524Y-16305428D01*
X12800000Y-16124476D02*
X12923809Y-16124476D01*
X12857143Y-16200667D01*
X12885714Y-16200667D01*
X12904762Y-16210190D01*
X12914286Y-16219714D01*
X12923809Y-16238762D01*
X12923809Y-16286381D01*
X12914286Y-16305428D01*
X12904762Y-16314952D01*
X12885714Y-16324476D01*
X12828571Y-16324476D01*
X12809524Y-16314952D01*
X12800000Y-16305428D01*
X13019048Y-16324476D02*
X13057143Y-16324476D01*
X13076190Y-16314952D01*
X13085714Y-16305428D01*
X13104762Y-16276857D01*
X13114286Y-16238762D01*
X13114286Y-16162571D01*
X13104762Y-16143524D01*
X13095238Y-16134000D01*
X13076190Y-16124476D01*
X13038095Y-16124476D01*
X13019048Y-16134000D01*
X13009524Y-16143524D01*
X13000000Y-16162571D01*
X13000000Y-16210190D01*
X13009524Y-16229238D01*
X13019048Y-16238762D01*
X13038095Y-16248286D01*
X13076190Y-16248286D01*
X13095238Y-16238762D01*
X13104762Y-16229238D01*
X13114286Y-16210190D01*
X13190476Y-16124476D02*
X13190476Y-16162571D01*
X13266667Y-16124476D02*
X13266667Y-16162571D01*
X13561905Y-16400667D02*
X13552381Y-16391143D01*
X13533333Y-16362571D01*
X13523809Y-16343524D01*
X13514286Y-16314952D01*
X13504762Y-16267333D01*
X13504762Y-16229238D01*
X13514286Y-16181619D01*
X13523809Y-16153048D01*
X13533333Y-16134000D01*
X13552381Y-16105428D01*
X13561905Y-16095905D01*
X13628571Y-16143524D02*
X13638095Y-16134000D01*
X13657143Y-16124476D01*
X13704762Y-16124476D01*
X13723809Y-16134000D01*
X13733333Y-16143524D01*
X13742857Y-16162571D01*
X13742857Y-16181619D01*
X13733333Y-16210190D01*
X13619048Y-16324476D01*
X13742857Y-16324476D01*
X13980952Y-16324476D02*
X13980952Y-16124476D01*
X14066667Y-16324476D02*
X14066667Y-16219714D01*
X14057143Y-16200667D01*
X14038095Y-16191143D01*
X14009524Y-16191143D01*
X13990476Y-16200667D01*
X13980952Y-16210190D01*
X14190476Y-16324476D02*
X14171428Y-16314952D01*
X14161905Y-16305428D01*
X14152381Y-16286381D01*
X14152381Y-16229238D01*
X14161905Y-16210190D01*
X14171428Y-16200667D01*
X14190476Y-16191143D01*
X14219048Y-16191143D01*
X14238095Y-16200667D01*
X14247619Y-16210190D01*
X14257143Y-16229238D01*
X14257143Y-16286381D01*
X14247619Y-16305428D01*
X14238095Y-16314952D01*
X14219048Y-16324476D01*
X14190476Y-16324476D01*
X14371428Y-16324476D02*
X14352381Y-16314952D01*
X14342857Y-16295905D01*
X14342857Y-16124476D01*
X14523809Y-16314952D02*
X14504762Y-16324476D01*
X14466667Y-16324476D01*
X14447619Y-16314952D01*
X14438095Y-16295905D01*
X14438095Y-16219714D01*
X14447619Y-16200667D01*
X14466667Y-16191143D01*
X14504762Y-16191143D01*
X14523809Y-16200667D01*
X14533333Y-16219714D01*
X14533333Y-16238762D01*
X14438095Y-16257809D01*
X14609524Y-16314952D02*
X14628571Y-16324476D01*
X14666667Y-16324476D01*
X14685714Y-16314952D01*
X14695238Y-16295905D01*
X14695238Y-16286381D01*
X14685714Y-16267333D01*
X14666667Y-16257809D01*
X14638095Y-16257809D01*
X14619048Y-16248286D01*
X14609524Y-16229238D01*
X14609524Y-16219714D01*
X14619048Y-16200667D01*
X14638095Y-16191143D01*
X14666667Y-16191143D01*
X14685714Y-16200667D01*
X14761905Y-16400667D02*
X14771428Y-16391143D01*
X14790476Y-16362571D01*
X14800000Y-16343524D01*
X14809524Y-16314952D01*
X14819048Y-16267333D01*
X14819048Y-16229238D01*
X14809524Y-16181619D01*
X14800000Y-16153048D01*
X14790476Y-16134000D01*
X14771428Y-16105428D01*
X14761905Y-16095905D01*
X15123809Y-16400667D02*
X15114286Y-16391143D01*
X15095238Y-16362571D01*
X15085714Y-16343524D01*
X15076190Y-16314952D01*
X15066667Y-16267333D01*
X15066667Y-16229238D01*
X15076190Y-16181619D01*
X15085714Y-16153048D01*
X15095238Y-16134000D01*
X15114286Y-16105428D01*
X15123809Y-16095905D01*
X15200000Y-16191143D02*
X15200000Y-16324476D01*
X15200000Y-16210190D02*
X15209524Y-16200667D01*
X15228571Y-16191143D01*
X15257143Y-16191143D01*
X15276190Y-16200667D01*
X15285714Y-16219714D01*
X15285714Y-16324476D01*
X15409524Y-16324476D02*
X15390476Y-16314952D01*
X15380952Y-16305428D01*
X15371428Y-16286381D01*
X15371428Y-16229238D01*
X15380952Y-16210190D01*
X15390476Y-16200667D01*
X15409524Y-16191143D01*
X15438095Y-16191143D01*
X15457143Y-16200667D01*
X15466667Y-16210190D01*
X15476190Y-16229238D01*
X15476190Y-16286381D01*
X15466667Y-16305428D01*
X15457143Y-16314952D01*
X15438095Y-16324476D01*
X15409524Y-16324476D01*
X15533333Y-16191143D02*
X15609524Y-16191143D01*
X15561905Y-16124476D02*
X15561905Y-16295905D01*
X15571428Y-16314952D01*
X15590476Y-16324476D01*
X15609524Y-16324476D01*
X15828571Y-16191143D02*
X15828571Y-16391143D01*
X15828571Y-16200667D02*
X15847619Y-16191143D01*
X15885714Y-16191143D01*
X15904762Y-16200667D01*
X15914286Y-16210190D01*
X15923809Y-16229238D01*
X15923809Y-16286381D01*
X15914286Y-16305428D01*
X15904762Y-16314952D01*
X15885714Y-16324476D01*
X15847619Y-16324476D01*
X15828571Y-16314952D01*
X16038095Y-16324476D02*
X16019048Y-16314952D01*
X16009524Y-16295905D01*
X16009524Y-16124476D01*
X16200000Y-16324476D02*
X16200000Y-16219714D01*
X16190476Y-16200667D01*
X16171428Y-16191143D01*
X16133333Y-16191143D01*
X16114286Y-16200667D01*
X16200000Y-16314952D02*
X16180952Y-16324476D01*
X16133333Y-16324476D01*
X16114286Y-16314952D01*
X16104762Y-16295905D01*
X16104762Y-16276857D01*
X16114286Y-16257809D01*
X16133333Y-16248286D01*
X16180952Y-16248286D01*
X16200000Y-16238762D01*
X16266667Y-16191143D02*
X16342857Y-16191143D01*
X16295238Y-16124476D02*
X16295238Y-16295905D01*
X16304762Y-16314952D01*
X16323809Y-16324476D01*
X16342857Y-16324476D01*
X16485714Y-16314952D02*
X16466667Y-16324476D01*
X16428571Y-16324476D01*
X16409524Y-16314952D01*
X16400000Y-16295905D01*
X16400000Y-16219714D01*
X16409524Y-16200667D01*
X16428571Y-16191143D01*
X16466667Y-16191143D01*
X16485714Y-16200667D01*
X16495238Y-16219714D01*
X16495238Y-16238762D01*
X16400000Y-16257809D01*
X16666667Y-16324476D02*
X16666667Y-16124476D01*
X16666667Y-16314952D02*
X16647619Y-16324476D01*
X16609524Y-16324476D01*
X16590476Y-16314952D01*
X16580952Y-16305428D01*
X16571428Y-16286381D01*
X16571428Y-16229238D01*
X16580952Y-16210190D01*
X16590476Y-16200667D01*
X16609524Y-16191143D01*
X16647619Y-16191143D01*
X16666667Y-16200667D01*
X16742857Y-16400667D02*
X16752381Y-16391143D01*
X16771428Y-16362571D01*
X16780952Y-16343524D01*
X16790476Y-16314952D01*
X16800000Y-16267333D01*
X16800000Y-16229238D01*
X16790476Y-16181619D01*
X16780952Y-16153048D01*
X16771428Y-16134000D01*
X16752381Y-16105428D01*
X16742857Y-16095905D01*
X9960711Y-16624711D02*
X9960711Y-16483289D01*
X9819289Y-16483289D01*
X9819289Y-16624711D01*
X9960711Y-16624711D01*
X10228571Y-16444476D02*
X10352381Y-16444476D01*
X10285714Y-16520667D01*
X10314286Y-16520667D01*
X10333333Y-16530190D01*
X10342857Y-16539714D01*
X10352381Y-16558762D01*
X10352381Y-16606381D01*
X10342857Y-16625428D01*
X10333333Y-16634952D01*
X10314286Y-16644476D01*
X10257143Y-16644476D01*
X10238095Y-16634952D01*
X10228571Y-16625428D01*
X10438095Y-16625428D02*
X10447619Y-16634952D01*
X10438095Y-16644476D01*
X10428571Y-16634952D01*
X10438095Y-16625428D01*
X10438095Y-16644476D01*
X10619048Y-16511143D02*
X10619048Y-16644476D01*
X10571429Y-16434952D02*
X10523810Y-16577809D01*
X10647619Y-16577809D01*
X10819048Y-16444476D02*
X10723810Y-16444476D01*
X10714286Y-16539714D01*
X10723810Y-16530190D01*
X10742857Y-16520667D01*
X10790476Y-16520667D01*
X10809524Y-16530190D01*
X10819048Y-16539714D01*
X10828571Y-16558762D01*
X10828571Y-16606381D01*
X10819048Y-16625428D01*
X10809524Y-16634952D01*
X10790476Y-16644476D01*
X10742857Y-16644476D01*
X10723810Y-16634952D01*
X10714286Y-16625428D01*
X11000000Y-16511143D02*
X11000000Y-16644476D01*
X10952381Y-16434952D02*
X10904762Y-16577809D01*
X11028571Y-16577809D01*
X11104762Y-16644476D02*
X11104762Y-16511143D01*
X11104762Y-16530190D02*
X11114286Y-16520667D01*
X11133333Y-16511143D01*
X11161905Y-16511143D01*
X11180952Y-16520667D01*
X11190476Y-16539714D01*
X11190476Y-16644476D01*
X11190476Y-16539714D02*
X11200000Y-16520667D01*
X11219048Y-16511143D01*
X11247619Y-16511143D01*
X11266667Y-16520667D01*
X11276190Y-16539714D01*
X11276190Y-16644476D01*
X11371428Y-16644476D02*
X11371428Y-16511143D01*
X11371428Y-16530190D02*
X11380952Y-16520667D01*
X11400000Y-16511143D01*
X11428571Y-16511143D01*
X11447619Y-16520667D01*
X11457143Y-16539714D01*
X11457143Y-16644476D01*
X11457143Y-16539714D02*
X11466667Y-16520667D01*
X11485714Y-16511143D01*
X11514286Y-16511143D01*
X11533333Y-16520667D01*
X11542857Y-16539714D01*
X11542857Y-16644476D01*
X11933333Y-16434952D02*
X11761905Y-16692095D01*
X12190476Y-16444476D02*
X12209524Y-16444476D01*
X12228571Y-16454000D01*
X12238095Y-16463524D01*
X12247619Y-16482571D01*
X12257143Y-16520667D01*
X12257143Y-16568286D01*
X12247619Y-16606381D01*
X12238095Y-16625428D01*
X12228571Y-16634952D01*
X12209524Y-16644476D01*
X12190476Y-16644476D01*
X12171428Y-16634952D01*
X12161905Y-16625428D01*
X12152381Y-16606381D01*
X12142857Y-16568286D01*
X12142857Y-16520667D01*
X12152381Y-16482571D01*
X12161905Y-16463524D01*
X12171428Y-16454000D01*
X12190476Y-16444476D01*
X12342857Y-16625428D02*
X12352381Y-16634952D01*
X12342857Y-16644476D01*
X12333333Y-16634952D01*
X12342857Y-16625428D01*
X12342857Y-16644476D01*
X12542857Y-16644476D02*
X12428571Y-16644476D01*
X12485714Y-16644476D02*
X12485714Y-16444476D01*
X12466667Y-16473048D01*
X12447619Y-16492095D01*
X12428571Y-16501619D01*
X12609524Y-16444476D02*
X12733333Y-16444476D01*
X12666667Y-16520667D01*
X12695238Y-16520667D01*
X12714286Y-16530190D01*
X12723809Y-16539714D01*
X12733333Y-16558762D01*
X12733333Y-16606381D01*
X12723809Y-16625428D01*
X12714286Y-16634952D01*
X12695238Y-16644476D01*
X12638095Y-16644476D01*
X12619048Y-16634952D01*
X12609524Y-16625428D01*
X12904762Y-16444476D02*
X12866667Y-16444476D01*
X12847619Y-16454000D01*
X12838095Y-16463524D01*
X12819048Y-16492095D01*
X12809524Y-16530190D01*
X12809524Y-16606381D01*
X12819048Y-16625428D01*
X12828571Y-16634952D01*
X12847619Y-16644476D01*
X12885714Y-16644476D01*
X12904762Y-16634952D01*
X12914286Y-16625428D01*
X12923809Y-16606381D01*
X12923809Y-16558762D01*
X12914286Y-16539714D01*
X12904762Y-16530190D01*
X12885714Y-16520667D01*
X12847619Y-16520667D01*
X12828571Y-16530190D01*
X12819048Y-16539714D01*
X12809524Y-16558762D01*
X13047619Y-16444476D02*
X13066667Y-16444476D01*
X13085714Y-16454000D01*
X13095238Y-16463524D01*
X13104762Y-16482571D01*
X13114286Y-16520667D01*
X13114286Y-16568286D01*
X13104762Y-16606381D01*
X13095238Y-16625428D01*
X13085714Y-16634952D01*
X13066667Y-16644476D01*
X13047619Y-16644476D01*
X13028571Y-16634952D01*
X13019048Y-16625428D01*
X13009524Y-16606381D01*
X13000000Y-16568286D01*
X13000000Y-16520667D01*
X13009524Y-16482571D01*
X13019048Y-16463524D01*
X13028571Y-16454000D01*
X13047619Y-16444476D01*
X13190476Y-16444476D02*
X13190476Y-16482571D01*
X13266667Y-16444476D02*
X13266667Y-16482571D01*
X13561905Y-16720667D02*
X13552381Y-16711143D01*
X13533333Y-16682571D01*
X13523809Y-16663524D01*
X13514286Y-16634952D01*
X13504762Y-16587333D01*
X13504762Y-16549238D01*
X13514286Y-16501619D01*
X13523809Y-16473048D01*
X13533333Y-16454000D01*
X13552381Y-16425428D01*
X13561905Y-16415905D01*
X13628571Y-16463524D02*
X13638095Y-16454000D01*
X13657143Y-16444476D01*
X13704762Y-16444476D01*
X13723809Y-16454000D01*
X13733333Y-16463524D01*
X13742857Y-16482571D01*
X13742857Y-16501619D01*
X13733333Y-16530190D01*
X13619048Y-16644476D01*
X13742857Y-16644476D01*
X13980952Y-16644476D02*
X13980952Y-16444476D01*
X14066667Y-16644476D02*
X14066667Y-16539714D01*
X14057143Y-16520667D01*
X14038095Y-16511143D01*
X14009524Y-16511143D01*
X13990476Y-16520667D01*
X13980952Y-16530190D01*
X14190476Y-16644476D02*
X14171428Y-16634952D01*
X14161905Y-16625428D01*
X14152381Y-16606381D01*
X14152381Y-16549238D01*
X14161905Y-16530190D01*
X14171428Y-16520667D01*
X14190476Y-16511143D01*
X14219048Y-16511143D01*
X14238095Y-16520667D01*
X14247619Y-16530190D01*
X14257143Y-16549238D01*
X14257143Y-16606381D01*
X14247619Y-16625428D01*
X14238095Y-16634952D01*
X14219048Y-16644476D01*
X14190476Y-16644476D01*
X14371428Y-16644476D02*
X14352381Y-16634952D01*
X14342857Y-16615905D01*
X14342857Y-16444476D01*
X14523809Y-16634952D02*
X14504762Y-16644476D01*
X14466667Y-16644476D01*
X14447619Y-16634952D01*
X14438095Y-16615905D01*
X14438095Y-16539714D01*
X14447619Y-16520667D01*
X14466667Y-16511143D01*
X14504762Y-16511143D01*
X14523809Y-16520667D01*
X14533333Y-16539714D01*
X14533333Y-16558762D01*
X14438095Y-16577809D01*
X14609524Y-16634952D02*
X14628571Y-16644476D01*
X14666667Y-16644476D01*
X14685714Y-16634952D01*
X14695238Y-16615905D01*
X14695238Y-16606381D01*
X14685714Y-16587333D01*
X14666667Y-16577809D01*
X14638095Y-16577809D01*
X14619048Y-16568286D01*
X14609524Y-16549238D01*
X14609524Y-16539714D01*
X14619048Y-16520667D01*
X14638095Y-16511143D01*
X14666667Y-16511143D01*
X14685714Y-16520667D01*
X14761905Y-16720667D02*
X14771428Y-16711143D01*
X14790476Y-16682571D01*
X14800000Y-16663524D01*
X14809524Y-16634952D01*
X14819048Y-16587333D01*
X14819048Y-16549238D01*
X14809524Y-16501619D01*
X14800000Y-16473048D01*
X14790476Y-16454000D01*
X14771428Y-16425428D01*
X14761905Y-16415905D01*
X15123809Y-16720667D02*
X15114286Y-16711143D01*
X15095238Y-16682571D01*
X15085714Y-16663524D01*
X15076190Y-16634952D01*
X15066667Y-16587333D01*
X15066667Y-16549238D01*
X15076190Y-16501619D01*
X15085714Y-16473048D01*
X15095238Y-16454000D01*
X15114286Y-16425428D01*
X15123809Y-16415905D01*
X15200000Y-16511143D02*
X15200000Y-16644476D01*
X15200000Y-16530190D02*
X15209524Y-16520667D01*
X15228571Y-16511143D01*
X15257143Y-16511143D01*
X15276190Y-16520667D01*
X15285714Y-16539714D01*
X15285714Y-16644476D01*
X15409524Y-16644476D02*
X15390476Y-16634952D01*
X15380952Y-16625428D01*
X15371428Y-16606381D01*
X15371428Y-16549238D01*
X15380952Y-16530190D01*
X15390476Y-16520667D01*
X15409524Y-16511143D01*
X15438095Y-16511143D01*
X15457143Y-16520667D01*
X15466667Y-16530190D01*
X15476190Y-16549238D01*
X15476190Y-16606381D01*
X15466667Y-16625428D01*
X15457143Y-16634952D01*
X15438095Y-16644476D01*
X15409524Y-16644476D01*
X15533333Y-16511143D02*
X15609524Y-16511143D01*
X15561905Y-16444476D02*
X15561905Y-16615905D01*
X15571428Y-16634952D01*
X15590476Y-16644476D01*
X15609524Y-16644476D01*
X15828571Y-16511143D02*
X15828571Y-16711143D01*
X15828571Y-16520667D02*
X15847619Y-16511143D01*
X15885714Y-16511143D01*
X15904762Y-16520667D01*
X15914286Y-16530190D01*
X15923809Y-16549238D01*
X15923809Y-16606381D01*
X15914286Y-16625428D01*
X15904762Y-16634952D01*
X15885714Y-16644476D01*
X15847619Y-16644476D01*
X15828571Y-16634952D01*
X16038095Y-16644476D02*
X16019048Y-16634952D01*
X16009524Y-16615905D01*
X16009524Y-16444476D01*
X16200000Y-16644476D02*
X16200000Y-16539714D01*
X16190476Y-16520667D01*
X16171428Y-16511143D01*
X16133333Y-16511143D01*
X16114286Y-16520667D01*
X16200000Y-16634952D02*
X16180952Y-16644476D01*
X16133333Y-16644476D01*
X16114286Y-16634952D01*
X16104762Y-16615905D01*
X16104762Y-16596857D01*
X16114286Y-16577809D01*
X16133333Y-16568286D01*
X16180952Y-16568286D01*
X16200000Y-16558762D01*
X16266667Y-16511143D02*
X16342857Y-16511143D01*
X16295238Y-16444476D02*
X16295238Y-16615905D01*
X16304762Y-16634952D01*
X16323809Y-16644476D01*
X16342857Y-16644476D01*
X16485714Y-16634952D02*
X16466667Y-16644476D01*
X16428571Y-16644476D01*
X16409524Y-16634952D01*
X16400000Y-16615905D01*
X16400000Y-16539714D01*
X16409524Y-16520667D01*
X16428571Y-16511143D01*
X16466667Y-16511143D01*
X16485714Y-16520667D01*
X16495238Y-16539714D01*
X16495238Y-16558762D01*
X16400000Y-16577809D01*
X16666667Y-16644476D02*
X16666667Y-16444476D01*
X16666667Y-16634952D02*
X16647619Y-16644476D01*
X16609524Y-16644476D01*
X16590476Y-16634952D01*
X16580952Y-16625428D01*
X16571428Y-16606381D01*
X16571428Y-16549238D01*
X16580952Y-16530190D01*
X16590476Y-16520667D01*
X16609524Y-16511143D01*
X16647619Y-16511143D01*
X16666667Y-16520667D01*
X16742857Y-16720667D02*
X16752381Y-16711143D01*
X16771428Y-16682571D01*
X16780952Y-16663524D01*
X16790476Y-16634952D01*
X16800000Y-16587333D01*
X16800000Y-16549238D01*
X16790476Y-16501619D01*
X16780952Y-16473048D01*
X16771428Y-16454000D01*
X16752381Y-16425428D01*
X16742857Y-16415905D01*
M02*
