M48
; DRILL file {KiCad (6.0.7)} date Tue Nov 29 22:23:08 2022
; FORMAT={-:-/ absolute / inch / decimal}
; #@! TF.CreationDate,2022-11-29T22:23:08-08:00
; #@! TF.GenerationSoftware,Kicad,Pcbnew,(6.0.7)
; #@! TF.FileFunction,Plated,1,2,PTH
FMAT,2
INCH
; #@! TA.AperFunction,Plated,PTH,ViaDrill
T1C0.0197
; #@! TA.AperFunction,Plated,PTH,ComponentDrill
T2C0.0276
; #@! TA.AperFunction,Plated,PTH,ComponentDrill
T3C0.0315
; #@! TA.AperFunction,Plated,PTH,ComponentDrill
T4C0.0390
; #@! TA.AperFunction,Plated,PTH,ComponentDrill
T5C0.0394
; #@! TA.AperFunction,Plated,PTH,ComponentDrill
T6C0.0429
; #@! TA.AperFunction,Plated,PTH,ComponentDrill
T7C0.0460
; #@! TA.AperFunction,Plated,PTH,ComponentDrill
T8C0.0591
; #@! TA.AperFunction,Plated,PTH,ComponentDrill
T9C0.0709
%
G90
G05
T1
X4.3819Y-2.8471
X4.4599Y-4.0091
X4.8199Y-3.8531
X4.9659Y-3.9671
X5.1919Y-4.3111
X5.3219Y-4.2251
X5.4299Y-3.9091
X5.4559Y-3.8031
X5.4999Y-4.1071
X5.5559Y-3.6391
X5.5799Y-3.4491
X5.6239Y-2.4331
X5.6359Y-3.2831
X5.6499Y-3.9091
X5.6599Y-4.3271
X5.6759Y-4.2111
X5.7439Y-3.1511
X5.8299Y-3.9051
X5.8339Y-3.5651
X5.9879Y-3.4871
X6.0059Y-2.2391
X6.0099Y-2.4371
X6.0259Y-2.3011
X6.0299Y-2.7451
X6.0599Y-5.1811
X6.0727Y-3.4459
X6.1059Y-3.8251
X6.1087Y-3.12
X6.1179Y-3.7311
X6.1199Y-3.3851
X6.1225Y-3.3231
X6.1439Y-2.7511
X6.2059Y-3.8251
X6.2104Y-3.5609
X6.2179Y-3.2211
X6.2219Y-2.4911
X6.2259Y-2.7511
X6.2399Y-5.3071
X6.2619Y-4.8531
X6.2639Y-3.3611
X6.2679Y-2.8871
X6.2679Y-5.2151
X6.2739Y-3.7671
X6.2799Y-3.5631
X6.459Y-2.3785
X6.4879Y-2.6131
X6.5113Y-2.9793
X6.5473Y-2.3716
X6.5799Y-4.7291
X6.6687Y-2.7825
X6.6979Y-4.8807
X6.7139Y-4.0311
X6.7239Y-2.6398
X6.7359Y-4.8311
X6.7475Y-2.5266
X6.7679Y-4.7251
X6.8262Y-2.8022
X6.8679Y-4.7051
X7.0719Y-2.2991
X7.0999Y-2.6091
X7.1319Y-3.3371
X7.1799Y-2.7271
X7.1899Y-5.0411
X7.2419Y-2.2951
X7.2554Y-3.4632
X7.2659Y-3.4151
X7.279Y-5.4006
X7.2799Y-3.7871
X7.2899Y-5.1251
X7.2919Y-4.2931
X7.3279Y-3.9691
X7.3619Y-5.3571
X7.3699Y-3.6631
X7.4059Y-5.2111
X7.4219Y-3.2051
X7.4319Y-2.1971
X7.4439Y-3.5491
X7.4739Y-2.4031
X7.4739Y-2.5505
X7.4759Y-4.7971
X7.4779Y-3.3831
X7.5039Y-3.8531
X7.5139Y-5.5371
X7.5379Y-5.0151
X7.5499Y-2.7071
X7.556Y-4.1793
X7.5739Y-5.4371
X7.6499Y-2.6091
X7.6499Y-5.2391
X7.6519Y-4.2871
X7.6719Y-4.0231
X7.6939Y-3.8351
X7.6939Y-5.0791
X7.7399Y-5.6151
X7.7439Y-4.1511
X7.8099Y-3.0431
X7.8499Y-3.1711
X7.8599Y-3.0011
X7.9239Y-3.3831
X7.9579Y-4.8971
X8.0319Y-4.1371
X8.0619Y-3.0171
X8.0679Y-3.7591
X8.0719Y-2.8911
X8.0759Y-3.1091
X8.0759Y-4.8278
X8.0861Y-5.5187
X8.1259Y-4.6531
X8.1599Y-4.8258
X8.2059Y-2.4691
X8.2099Y-3.2571
X8.2139Y-2.9511
X8.2219Y-4.5671
X8.2319Y-3.6491
X8.2438Y-2.1331
X8.3939Y-5.6131
X8.4079Y-2.6951
X8.4819Y-5.6711
X8.4839Y-5.1171
X8.4959Y-5.0231
X8.5179Y-5.4791
X8.6059Y-5.0191
X8.6084Y-3.1345
X8.7079Y-4.4951
X8.7259Y-4.8471
X8.7579Y-5.6431
X8.7659Y-5.0171
X8.7959Y-5.3391
X8.8639Y-5.0191
X8.8979Y-2.6771
X8.9325Y-2.4281
X8.9859Y-5.0211
X8.9979Y-5.3411
X9.0139Y-5.5811
T2
X4.2764Y-3.3402
X4.2764Y-3.4402
X4.2764Y-3.5402
X4.2764Y-4.3244
X4.2764Y-4.4244
X4.2764Y-4.5244
X9.2669Y-2.3654
X9.2669Y-2.4654
X9.2669Y-2.5654
X9.2669Y-4.3339
X9.2669Y-4.4339
X9.2669Y-4.5339
X9.2717Y-3.3449
X9.2717Y-3.4449
X9.2717Y-3.5449
T3
X4.0992Y-3.2902
X4.0992Y-3.5902
X4.0992Y-4.2744
X4.0992Y-4.5744
X7.8264Y-5.1835
X7.8264Y-5.7835
X7.9264Y-5.1835
X7.9264Y-5.7835
X8.0264Y-5.1835
X8.0264Y-5.7835
X8.1264Y-5.1835
X8.1264Y-5.7835
X8.2264Y-5.1835
X8.2264Y-5.7835
X8.3264Y-5.1835
X8.3264Y-5.7835
X8.4264Y-5.1835
X8.4264Y-5.7835
X8.5264Y-5.1835
X8.5264Y-5.7835
X8.6264Y-5.1835
X8.6264Y-5.7835
X8.7264Y-5.1835
X8.7264Y-5.7835
X8.8264Y-5.1835
X8.8264Y-5.7835
X8.9264Y-5.1835
X8.9264Y-5.7835
X9.0264Y-5.1835
X9.0264Y-5.7835
X9.0945Y-3.2949
X9.0945Y-3.5949
X9.1264Y-5.1835
X9.1264Y-5.7835
X9.2264Y-5.1835
X9.2264Y-5.7835
X9.4441Y-2.3154
X9.4441Y-2.6154
X9.4441Y-4.2839
X9.4441Y-4.5839
T4
X7.6329Y-3.6049
X7.6329Y-3.7049
X7.6329Y-3.8049
X7.6329Y-3.9049
X7.9329Y-3.6049
X7.9329Y-3.7049
X7.9329Y-3.8049
X7.9329Y-3.9049
T5
X5.1122Y-2.4016
X5.1122Y-2.5016
X5.1122Y-2.6016
X5.1122Y-2.7016
X5.1122Y-2.8016
X5.1122Y-2.9016
X5.1122Y-3.0016
X5.1122Y-3.1016
X5.1122Y-3.2016
X5.1122Y-3.3016
X5.1122Y-3.4016
X5.1122Y-3.5016
X5.1122Y-3.6016
X5.1122Y-3.7016
X5.189Y-5.187
X5.189Y-5.287
X5.189Y-5.387
X5.189Y-5.487
X5.189Y-5.587
X6.0664Y-4.5817
X6.3695Y-4.5122
X6.3695Y-4.6122
X6.6806Y-4.5699
X6.9601Y-4.562
X7.2514Y-4.562
X7.5467Y-4.5541
X8.3075Y-4.8651
X8.4075Y-4.8651
X8.4311Y-2.9016
X8.4311Y-3.0016
X8.4311Y-3.1016
X8.4311Y-3.2016
T6
X6.426Y-4.9606
X6.526Y-4.9606
X6.626Y-4.9606
X6.726Y-4.9606
X6.826Y-4.9606
X6.926Y-4.9606
X7.026Y-4.9606
X7.126Y-4.9606
T7
X5.7039Y-4.9606
X5.8039Y-4.9606
X5.9039Y-4.9606
X6.0039Y-4.9606
T8
X4.0374Y-2.4173
X4.0374Y-2.5433
X4.6594Y-2.4173
X4.6594Y-2.5433
T9
X4.1634Y-2.4803
X4.3484Y-2.4803
X4.5335Y-2.4803
T0
M30
