M48
; DRILL file {KiCad (6.0.7)} date Tue Nov 29 22:23:08 2022
; FORMAT={-:-/ absolute / inch / decimal}
; #@! TF.CreationDate,2022-11-29T22:23:08-08:00
; #@! TF.GenerationSoftware,Kicad,Pcbnew,(6.0.7)
; #@! TF.FileFunction,NonPlated,1,2,NPTH
FMAT,2
INCH
; #@! TA.AperFunction,NonPlated,NPTH,ComponentDrill
T1C0.0512
; #@! TA.AperFunction,NonPlated,NPTH,ComponentDrill
T2C0.1260
; #@! TA.AperFunction,NonPlated,NPTH,ComponentDrill
T3C0.1339
; #@! TA.AperFunction,NonPlated,NPTH,ComponentDrill
T4C0.1360
%
G90
G05
T1
X4.0264Y-3.1902
X4.0264Y-3.6902
X4.0264Y-4.1744
X4.0264Y-4.6744
X4.5264Y-3.1902
X4.5264Y-3.6902
X4.5264Y-4.1744
X4.5264Y-4.6744
X9.0169Y-2.2154
X9.0169Y-2.7154
X9.0169Y-4.1839
X9.0169Y-4.6839
X9.0217Y-3.1949
X9.0217Y-3.6949
X9.5169Y-2.2154
X9.5169Y-2.7154
X9.5169Y-4.1839
X9.5169Y-4.6839
X9.5217Y-3.1949
X9.5217Y-3.6949
T2
X4.0551Y-4.9902
X4.0551Y-5.7972
X4.8031Y-2.9134
X5.7087Y-4.7244
X7.8346Y-4.7244
X8.7402Y-2.9134
T3
X6.376Y-5.3008
X7.176Y-5.3008
T4
X5.6539Y-5.3008
X6.0539Y-5.3008
T0
M30
