%TF.GenerationSoftware,KiCad,Pcbnew,(6.0.7-1)-1*%
%TF.CreationDate,2022-12-01T13:22:50-08:00*%
%TF.ProjectId,UrbanSteering,55726261-6e53-4746-9565-72696e672e6b,rev?*%
%TF.SameCoordinates,Original*%
%TF.FileFunction,Drillmap*%
%TF.FilePolarity,Positive*%
%FSLAX45Y45*%
G04 Gerber Fmt 4.5, Leading zero omitted, Abs format (unit mm)*
G04 Created by KiCad (PCBNEW (6.0.7-1)-1) date 2022-12-01 13:22:50*
%MOMM*%
%LPD*%
G01*
G04 APERTURE LIST*
%ADD10C,0.200000*%
%ADD11C,0.050000*%
%ADD12C,0.070000*%
%ADD13C,0.080000*%
%ADD14C,0.099060*%
%ADD15C,0.100000*%
%ADD16C,0.109000*%
%ADD17C,0.116840*%
%ADD18C,0.150000*%
%ADD19C,0.180000*%
G04 APERTURE END LIST*
D10*
X13200000Y-15000000D02*
X10300000Y-15000000D01*
X13200000Y-15000000D02*
G75*
G03*
X13700000Y-14500000I-5738J505738D01*
G01*
X10500000Y-5000000D02*
G75*
G03*
X10000000Y-5500000I0J-500000D01*
G01*
X10000000Y-14700000D02*
G75*
G03*
X10300000Y-15000000I300000J0D01*
G01*
X23900000Y-15000000D02*
X19400000Y-15000000D01*
X14200000Y-14000000D02*
X18400000Y-14000000D01*
X14200000Y-14000000D02*
G75*
G03*
X13700000Y-14500000I0J-500000D01*
G01*
X10000000Y-14700000D02*
X10000000Y-5500000D01*
X24400000Y-14500000D02*
X24400000Y-5500000D01*
X24400000Y-5500000D02*
G75*
G03*
X23900000Y-5000000I-500000J0D01*
G01*
D11*
X13700000Y-14500000D02*
X13700000Y-14500000D01*
D10*
X18900000Y-14500000D02*
G75*
G03*
X18400000Y-14000000I-500000J0D01*
G01*
X23900000Y-15000000D02*
G75*
G03*
X24400000Y-14500000I0J500000D01*
G01*
X18900000Y-14500000D02*
G75*
G03*
X19400000Y-15000000I500000J0D01*
G01*
X10500000Y-5000000D02*
X23900000Y-5000000D01*
D11*
X11104918Y-7206634D02*
X11154918Y-7256634D01*
X11154918Y-7206634D02*
X11104918Y-7256634D01*
X11303038Y-10158114D02*
X11353038Y-10208114D01*
X11353038Y-10158114D02*
X11303038Y-10208114D01*
X12217438Y-9761874D02*
X12267438Y-9811874D01*
X12267438Y-9761874D02*
X12217438Y-9811874D01*
X12588278Y-10051434D02*
X12638278Y-10101434D01*
X12638278Y-10051434D02*
X12588278Y-10101434D01*
X13162318Y-10925194D02*
X13212318Y-10975194D01*
X13212318Y-10925194D02*
X13162318Y-10975194D01*
X13492518Y-10706754D02*
X13542518Y-10756754D01*
X13542518Y-10706754D02*
X13492518Y-10756754D01*
X13766838Y-9904114D02*
X13816838Y-9954114D01*
X13816838Y-9904114D02*
X13766838Y-9954114D01*
X13832878Y-9634874D02*
X13882878Y-9684874D01*
X13882878Y-9634874D02*
X13832878Y-9684874D01*
X13944638Y-10407034D02*
X13994638Y-10457034D01*
X13994638Y-10407034D02*
X13944638Y-10457034D01*
X14086878Y-9218314D02*
X14136878Y-9268314D01*
X14136878Y-9218314D02*
X14086878Y-9268314D01*
X14147838Y-8735714D02*
X14197838Y-8785714D01*
X14197838Y-8735714D02*
X14147838Y-8785714D01*
X14259598Y-6155074D02*
X14309598Y-6205074D01*
X14309598Y-6155074D02*
X14259598Y-6205074D01*
X14290078Y-8314074D02*
X14340078Y-8364074D01*
X14340078Y-8314074D02*
X14290078Y-8364074D01*
X14325638Y-9904114D02*
X14375638Y-9954114D01*
X14375638Y-9904114D02*
X14325638Y-9954114D01*
X14351038Y-10965834D02*
X14401038Y-11015834D01*
X14401038Y-10965834D02*
X14351038Y-11015834D01*
X14391678Y-10671194D02*
X14441678Y-10721194D01*
X14441678Y-10671194D02*
X14391678Y-10721194D01*
X14564398Y-7978794D02*
X14614398Y-8028794D01*
X14614398Y-7978794D02*
X14564398Y-8028794D01*
X14782838Y-9893954D02*
X14832838Y-9943954D01*
X14832838Y-9893954D02*
X14782838Y-9943954D01*
X14792998Y-9030354D02*
X14842998Y-9080354D01*
X14842998Y-9030354D02*
X14792998Y-9080354D01*
X15184158Y-8832234D02*
X15234158Y-8882234D01*
X15234158Y-8832234D02*
X15184158Y-8882234D01*
X15229878Y-5662314D02*
X15279878Y-5712314D01*
X15279878Y-5662314D02*
X15229878Y-5712314D01*
X15240038Y-6165234D02*
X15290038Y-6215234D01*
X15290038Y-6165234D02*
X15240038Y-6215234D01*
X15280678Y-5819794D02*
X15330678Y-5869794D01*
X15330678Y-5819794D02*
X15280678Y-5869794D01*
X15290838Y-6947554D02*
X15340838Y-6997554D01*
X15340838Y-6947554D02*
X15290838Y-6997554D01*
X15367038Y-13134994D02*
X15417038Y-13184994D01*
X15417038Y-13134994D02*
X15367038Y-13184994D01*
X15399613Y-8727649D02*
X15449613Y-8777649D01*
X15449613Y-8727649D02*
X15399613Y-8777649D01*
X15483878Y-9690754D02*
X15533878Y-9740754D01*
X15533878Y-9690754D02*
X15483878Y-9740754D01*
X15491189Y-7899745D02*
X15541189Y-7949745D01*
X15541189Y-7899745D02*
X15491189Y-7949745D01*
X15514358Y-9451994D02*
X15564358Y-9501994D01*
X15564358Y-9451994D02*
X15514358Y-9501994D01*
X15519438Y-8573154D02*
X15569438Y-8623154D01*
X15569438Y-8573154D02*
X15519438Y-8623154D01*
X15526168Y-8415674D02*
X15576168Y-8465674D01*
X15576168Y-8415674D02*
X15526168Y-8465674D01*
X15580398Y-6962794D02*
X15630398Y-7012794D01*
X15630398Y-6962794D02*
X15580398Y-7012794D01*
X15737878Y-9690754D02*
X15787878Y-9740754D01*
X15787878Y-9690754D02*
X15737878Y-9740754D01*
X15749356Y-9019729D02*
X15799356Y-9069729D01*
X15799356Y-9019729D02*
X15749356Y-9069729D01*
X15768358Y-8156594D02*
X15818358Y-8206594D01*
X15818358Y-8156594D02*
X15768358Y-8206594D01*
X15778518Y-6302394D02*
X15828518Y-6352394D01*
X15828518Y-6302394D02*
X15778518Y-6352394D01*
X15788678Y-6962794D02*
X15838678Y-7012794D01*
X15838678Y-6962794D02*
X15788678Y-7012794D01*
X15824238Y-13455034D02*
X15874238Y-13505034D01*
X15874238Y-13455034D02*
X15824238Y-13505034D01*
X15880118Y-12301874D02*
X15930118Y-12351874D01*
X15930118Y-12301874D02*
X15880118Y-12351874D01*
X15885198Y-8512194D02*
X15935198Y-8562194D01*
X15935198Y-8512194D02*
X15885198Y-8562194D01*
X15895358Y-7308234D02*
X15945358Y-7358234D01*
X15945358Y-7308234D02*
X15895358Y-7358234D01*
X15895358Y-13221354D02*
X15945358Y-13271354D01*
X15945358Y-13221354D02*
X15895358Y-13271354D01*
X15910598Y-9543434D02*
X15960598Y-9593434D01*
X15960598Y-9543434D02*
X15910598Y-9593434D01*
X15925838Y-9025274D02*
X15975838Y-9075274D01*
X15975838Y-9025274D02*
X15925838Y-9075274D01*
X16380929Y-6016504D02*
X16430929Y-6066504D01*
X16430929Y-6016504D02*
X16380929Y-6066504D01*
X16454158Y-6612274D02*
X16504158Y-6662274D01*
X16504158Y-6612274D02*
X16454158Y-6662274D01*
X16513598Y-7542474D02*
X16563598Y-7592474D01*
X16563598Y-7542474D02*
X16513598Y-7592474D01*
X16605207Y-5998945D02*
X16655207Y-6048945D01*
X16655207Y-5998945D02*
X16605207Y-6048945D01*
X16687838Y-11986914D02*
X16737838Y-12036914D01*
X16737838Y-11986914D02*
X16687838Y-12036914D01*
X16913598Y-7042474D02*
X16963598Y-7092474D01*
X16963598Y-7042474D02*
X16913598Y-7092474D01*
X16987558Y-12371874D02*
X17037558Y-12421874D01*
X17037558Y-12371874D02*
X16987558Y-12421874D01*
X17028198Y-10213994D02*
X17078198Y-10263994D01*
X17078198Y-10213994D02*
X17028198Y-10263994D01*
X17053598Y-6680024D02*
X17103598Y-6730024D01*
X17103598Y-6680024D02*
X17053598Y-6730024D01*
X17084078Y-12245994D02*
X17134078Y-12295994D01*
X17134078Y-12245994D02*
X17084078Y-12295994D01*
X17113598Y-6392474D02*
X17163598Y-6442474D01*
X17163598Y-6392474D02*
X17113598Y-6442474D01*
X17165358Y-11976754D02*
X17215358Y-12026754D01*
X17215358Y-11976754D02*
X17165358Y-12026754D01*
X17313598Y-7092474D02*
X17363598Y-7142474D01*
X17363598Y-7092474D02*
X17313598Y-7142474D01*
X17419358Y-11925954D02*
X17469358Y-11975954D01*
X17469358Y-11925954D02*
X17419358Y-11975954D01*
X17937518Y-5814714D02*
X17987518Y-5864714D01*
X17987518Y-5814714D02*
X17937518Y-5864714D01*
X18008638Y-6602114D02*
X18058638Y-6652114D01*
X18058638Y-6602114D02*
X18008638Y-6652114D01*
X18089918Y-8451234D02*
X18139918Y-8501234D01*
X18139918Y-8451234D02*
X18089918Y-8501234D01*
X18211838Y-6901834D02*
X18261838Y-6951834D01*
X18261838Y-6901834D02*
X18211838Y-6951834D01*
X18237238Y-12779394D02*
X18287238Y-12829394D01*
X18287238Y-12779394D02*
X18237238Y-12829394D01*
X18369318Y-5804554D02*
X18419318Y-5854554D01*
X18419318Y-5804554D02*
X18369318Y-5854554D01*
X18403735Y-8771453D02*
X18453735Y-8821453D01*
X18453735Y-8771453D02*
X18403735Y-8821453D01*
X18430278Y-8649354D02*
X18480278Y-8699354D01*
X18480278Y-8649354D02*
X18430278Y-8699354D01*
X18463598Y-13692474D02*
X18513598Y-13742474D01*
X18513598Y-13692474D02*
X18463598Y-13742474D01*
X18465838Y-9594234D02*
X18515838Y-9644234D01*
X18515838Y-9594234D02*
X18465838Y-9644234D01*
X18491238Y-12992754D02*
X18541238Y-13042754D01*
X18541238Y-12992754D02*
X18491238Y-13042754D01*
X18496318Y-10879474D02*
X18546318Y-10929474D01*
X18546318Y-10879474D02*
X18496318Y-10929474D01*
X18587758Y-10056514D02*
X18637758Y-10106514D01*
X18637758Y-10056514D02*
X18587758Y-10106514D01*
X18674118Y-13582034D02*
X18724118Y-13632034D01*
X18724118Y-13582034D02*
X18674118Y-13632034D01*
X18694438Y-9279274D02*
X18744438Y-9329274D01*
X18744438Y-9279274D02*
X18694438Y-9329274D01*
X18785878Y-13211194D02*
X18835878Y-13261194D01*
X18835878Y-13211194D02*
X18785878Y-13261194D01*
X18826518Y-8115954D02*
X18876518Y-8165954D01*
X18876518Y-8115954D02*
X18826518Y-8165954D01*
X18851918Y-5555634D02*
X18901918Y-5605634D01*
X18901918Y-5555634D02*
X18851918Y-5605634D01*
X18882398Y-8989714D02*
X18932398Y-9039714D01*
X18932398Y-8989714D02*
X18882398Y-9039714D01*
X18958598Y-6078874D02*
X19008598Y-6128874D01*
X19008598Y-6078874D02*
X18958598Y-6128874D01*
X18958598Y-6453144D02*
X19008598Y-6503144D01*
X19008598Y-6453144D02*
X18958598Y-6503144D01*
X18963678Y-12159634D02*
X19013678Y-12209634D01*
X19013678Y-12159634D02*
X18963678Y-12209634D01*
X18968758Y-8568074D02*
X19018758Y-8618074D01*
X19018758Y-8568074D02*
X18968758Y-8618074D01*
X19034798Y-9761874D02*
X19084798Y-9811874D01*
X19084798Y-9761874D02*
X19034798Y-9811874D01*
X19060198Y-14039234D02*
X19110198Y-14089234D01*
X19110198Y-14039234D02*
X19060198Y-14089234D01*
X19121158Y-12713354D02*
X19171158Y-12763354D01*
X19171158Y-12713354D02*
X19121158Y-12763354D01*
X19151638Y-6851034D02*
X19201638Y-6901034D01*
X19201638Y-6851034D02*
X19151638Y-6901034D01*
X19167323Y-10590359D02*
X19217323Y-10640359D01*
X19217323Y-10590359D02*
X19167323Y-10640359D01*
X19212598Y-13785234D02*
X19262598Y-13835234D01*
X19262598Y-13785234D02*
X19212598Y-13835234D01*
X19405638Y-6602114D02*
X19455638Y-6652114D01*
X19455638Y-6602114D02*
X19405638Y-6652114D01*
X19405638Y-13282314D02*
X19455638Y-13332314D01*
X19455638Y-13282314D02*
X19405638Y-13332314D01*
X19410718Y-10864234D02*
X19460718Y-10914234D01*
X19460718Y-10864234D02*
X19410718Y-10914234D01*
X19461518Y-10193674D02*
X19511518Y-10243674D01*
X19511518Y-10193674D02*
X19461518Y-10243674D01*
X19517398Y-9716154D02*
X19567398Y-9766154D01*
X19567398Y-9716154D02*
X19517398Y-9766154D01*
X19517398Y-12875914D02*
X19567398Y-12925914D01*
X19567398Y-12875914D02*
X19517398Y-12925914D01*
X19634238Y-14237354D02*
X19684238Y-14287354D01*
X19684238Y-14237354D02*
X19634238Y-14287354D01*
X19644398Y-10518794D02*
X19694398Y-10568794D01*
X19694398Y-10518794D02*
X19644398Y-10568794D01*
X19812038Y-7704474D02*
X19862038Y-7754474D01*
X19862038Y-7704474D02*
X19812038Y-7754474D01*
X19913638Y-8029594D02*
X19963638Y-8079594D01*
X19963638Y-8029594D02*
X19913638Y-8079594D01*
X19939038Y-7597794D02*
X19989038Y-7647794D01*
X19989038Y-7597794D02*
X19939038Y-7647794D01*
X20101598Y-8568074D02*
X20151598Y-8618074D01*
X20151598Y-8568074D02*
X20101598Y-8618074D01*
X20187958Y-12413634D02*
X20237958Y-12463634D01*
X20237958Y-12413634D02*
X20187958Y-12463634D01*
X20375918Y-10483234D02*
X20425918Y-10533234D01*
X20425918Y-10483234D02*
X20375918Y-10533234D01*
X20452118Y-7638434D02*
X20502118Y-7688434D01*
X20502118Y-7638434D02*
X20452118Y-7688434D01*
X20467358Y-9523114D02*
X20517358Y-9573114D01*
X20517358Y-9523114D02*
X20467358Y-9573114D01*
X20477518Y-7318394D02*
X20527518Y-7368394D01*
X20527518Y-7318394D02*
X20477518Y-7368394D01*
X20487678Y-7872114D02*
X20537678Y-7922114D01*
X20537678Y-7872114D02*
X20487678Y-7922114D01*
X20487678Y-12237524D02*
X20537678Y-12287524D01*
X20537678Y-12237524D02*
X20487678Y-12287524D01*
X20513598Y-13992474D02*
X20563598Y-14042474D01*
X20563598Y-13992474D02*
X20513598Y-14042474D01*
X20614678Y-11793874D02*
X20664678Y-11843874D01*
X20664678Y-11793874D02*
X20614678Y-11843874D01*
X20701038Y-12232524D02*
X20751038Y-12282524D01*
X20751038Y-12232524D02*
X20701038Y-12282524D01*
X20817878Y-6246514D02*
X20867878Y-6296514D01*
X20867878Y-6246514D02*
X20817878Y-6296514D01*
X20828038Y-8248034D02*
X20878038Y-8298034D01*
X20878038Y-8248034D02*
X20828038Y-8298034D01*
X20838198Y-7470794D02*
X20888198Y-7520794D01*
X20888198Y-7470794D02*
X20838198Y-7520794D01*
X20858518Y-11575434D02*
X20908518Y-11625434D01*
X20908518Y-11575434D02*
X20858518Y-11625434D01*
X20883918Y-9243714D02*
X20933918Y-9293714D01*
X20933918Y-9243714D02*
X20883918Y-9293714D01*
X20914297Y-5393173D02*
X20964297Y-5443173D01*
X20964297Y-5393173D02*
X20914297Y-5443173D01*
X21295398Y-14232274D02*
X21345398Y-14282274D01*
X21345398Y-14232274D02*
X21295398Y-14282274D01*
X21330958Y-6820554D02*
X21380958Y-6870554D01*
X21380958Y-6820554D02*
X21330958Y-6870554D01*
X21518918Y-14379594D02*
X21568918Y-14429594D01*
X21568918Y-14379594D02*
X21518918Y-14429594D01*
X21523998Y-12972434D02*
X21573998Y-13022434D01*
X21573998Y-12972434D02*
X21523998Y-13022434D01*
X21554478Y-12733674D02*
X21604478Y-12783674D01*
X21604478Y-12733674D02*
X21554478Y-12783674D01*
X21610358Y-13891914D02*
X21660358Y-13941914D01*
X21660358Y-13891914D02*
X21610358Y-13941914D01*
X21833878Y-12723514D02*
X21883878Y-12773514D01*
X21883878Y-12723514D02*
X21833878Y-12773514D01*
X21840381Y-7936731D02*
X21890381Y-7986731D01*
X21890381Y-7936731D02*
X21840381Y-7986731D01*
X22092958Y-11392554D02*
X22142958Y-11442554D01*
X22142958Y-11392554D02*
X22092958Y-11442554D01*
X22138678Y-12286634D02*
X22188678Y-12336634D01*
X22188678Y-12286634D02*
X22138678Y-12336634D01*
X22219958Y-14308474D02*
X22269958Y-14358474D01*
X22269958Y-14308474D02*
X22219958Y-14358474D01*
X22240278Y-12718434D02*
X22290278Y-12768434D01*
X22290278Y-12718434D02*
X22240278Y-12768434D01*
X22316478Y-13536314D02*
X22366478Y-13586314D01*
X22366478Y-13536314D02*
X22316478Y-13586314D01*
X22489198Y-12723514D02*
X22539198Y-12773514D01*
X22539198Y-12723514D02*
X22489198Y-12773514D01*
X22575558Y-6774834D02*
X22625558Y-6824834D01*
X22625558Y-6774834D02*
X22575558Y-6824834D01*
X22663598Y-6142474D02*
X22713598Y-6192474D01*
X22713598Y-6142474D02*
X22663598Y-6192474D01*
X22799078Y-12728594D02*
X22849078Y-12778594D01*
X22849078Y-12728594D02*
X22799078Y-12778594D01*
X22829558Y-13541394D02*
X22879558Y-13591394D01*
X22879558Y-13541394D02*
X22829558Y-13591394D01*
X22870198Y-14150994D02*
X22920198Y-14200994D01*
X22920198Y-14150994D02*
X22870198Y-14200994D01*
D12*
X10897000Y-8484000D02*
G75*
G03*
X10897000Y-8484000I-35000J0D01*
G01*
X10897000Y-8738000D02*
G75*
G03*
X10897000Y-8738000I-35000J0D01*
G01*
X10897000Y-8992000D02*
G75*
G03*
X10897000Y-8992000I-35000J0D01*
G01*
X10897000Y-10984000D02*
G75*
G03*
X10897000Y-10984000I-35000J0D01*
G01*
X10897000Y-11238000D02*
G75*
G03*
X10897000Y-11238000I-35000J0D01*
G01*
X10897000Y-11492000D02*
G75*
G03*
X10897000Y-11492000I-35000J0D01*
G01*
X23573000Y-6008000D02*
G75*
G03*
X23573000Y-6008000I-35000J0D01*
G01*
X23573000Y-6262000D02*
G75*
G03*
X23573000Y-6262000I-35000J0D01*
G01*
X23573000Y-6516000D02*
G75*
G03*
X23573000Y-6516000I-35000J0D01*
G01*
X23573000Y-11008000D02*
G75*
G03*
X23573000Y-11008000I-35000J0D01*
G01*
X23573000Y-11262000D02*
G75*
G03*
X23573000Y-11262000I-35000J0D01*
G01*
X23573000Y-11516000D02*
G75*
G03*
X23573000Y-11516000I-35000J0D01*
G01*
X23585000Y-8496000D02*
G75*
G03*
X23585000Y-8496000I-35000J0D01*
G01*
X23585000Y-8750000D02*
G75*
G03*
X23585000Y-8750000I-35000J0D01*
G01*
X23585000Y-9004000D02*
G75*
G03*
X23585000Y-9004000I-35000J0D01*
G01*
D13*
X10412000Y-8317000D02*
X10412000Y-8397000D01*
X10372000Y-8357000D02*
X10452000Y-8357000D01*
X10412000Y-9079000D02*
X10412000Y-9159000D01*
X10372000Y-9119000D02*
X10452000Y-9119000D01*
X10412000Y-10817000D02*
X10412000Y-10897000D01*
X10372000Y-10857000D02*
X10452000Y-10857000D01*
X10412000Y-11579000D02*
X10412000Y-11659000D01*
X10372000Y-11619000D02*
X10452000Y-11619000D01*
X19879000Y-13126000D02*
X19879000Y-13206000D01*
X19839000Y-13166000D02*
X19919000Y-13166000D01*
X19879000Y-14650000D02*
X19879000Y-14730000D01*
X19839000Y-14690000D02*
X19919000Y-14690000D01*
X20133000Y-13126000D02*
X20133000Y-13206000D01*
X20093000Y-13166000D02*
X20173000Y-13166000D01*
X20133000Y-14650000D02*
X20133000Y-14730000D01*
X20093000Y-14690000D02*
X20173000Y-14690000D01*
X20387000Y-13126000D02*
X20387000Y-13206000D01*
X20347000Y-13166000D02*
X20427000Y-13166000D01*
X20387000Y-14650000D02*
X20387000Y-14730000D01*
X20347000Y-14690000D02*
X20427000Y-14690000D01*
X20641000Y-13126000D02*
X20641000Y-13206000D01*
X20601000Y-13166000D02*
X20681000Y-13166000D01*
X20641000Y-14650000D02*
X20641000Y-14730000D01*
X20601000Y-14690000D02*
X20681000Y-14690000D01*
X20895000Y-13126000D02*
X20895000Y-13206000D01*
X20855000Y-13166000D02*
X20935000Y-13166000D01*
X20895000Y-14650000D02*
X20895000Y-14730000D01*
X20855000Y-14690000D02*
X20935000Y-14690000D01*
X21149000Y-13126000D02*
X21149000Y-13206000D01*
X21109000Y-13166000D02*
X21189000Y-13166000D01*
X21149000Y-14650000D02*
X21149000Y-14730000D01*
X21109000Y-14690000D02*
X21189000Y-14690000D01*
X21403000Y-13126000D02*
X21403000Y-13206000D01*
X21363000Y-13166000D02*
X21443000Y-13166000D01*
X21403000Y-14650000D02*
X21403000Y-14730000D01*
X21363000Y-14690000D02*
X21443000Y-14690000D01*
X21657000Y-13126000D02*
X21657000Y-13206000D01*
X21617000Y-13166000D02*
X21697000Y-13166000D01*
X21657000Y-14650000D02*
X21657000Y-14730000D01*
X21617000Y-14690000D02*
X21697000Y-14690000D01*
X21911000Y-13126000D02*
X21911000Y-13206000D01*
X21871000Y-13166000D02*
X21951000Y-13166000D01*
X21911000Y-14650000D02*
X21911000Y-14730000D01*
X21871000Y-14690000D02*
X21951000Y-14690000D01*
X22165000Y-13126000D02*
X22165000Y-13206000D01*
X22125000Y-13166000D02*
X22205000Y-13166000D01*
X22165000Y-14650000D02*
X22165000Y-14730000D01*
X22125000Y-14690000D02*
X22205000Y-14690000D01*
X22419000Y-13126000D02*
X22419000Y-13206000D01*
X22379000Y-13166000D02*
X22459000Y-13166000D01*
X22419000Y-14650000D02*
X22419000Y-14730000D01*
X22379000Y-14690000D02*
X22459000Y-14690000D01*
X22673000Y-13126000D02*
X22673000Y-13206000D01*
X22633000Y-13166000D02*
X22713000Y-13166000D01*
X22673000Y-14650000D02*
X22673000Y-14730000D01*
X22633000Y-14690000D02*
X22713000Y-14690000D01*
X22927000Y-13126000D02*
X22927000Y-13206000D01*
X22887000Y-13166000D02*
X22967000Y-13166000D01*
X22927000Y-14650000D02*
X22927000Y-14730000D01*
X22887000Y-14690000D02*
X22967000Y-14690000D01*
X23100000Y-8329000D02*
X23100000Y-8409000D01*
X23060000Y-8369000D02*
X23140000Y-8369000D01*
X23100000Y-9091000D02*
X23100000Y-9171000D01*
X23060000Y-9131000D02*
X23140000Y-9131000D01*
X23181000Y-13126000D02*
X23181000Y-13206000D01*
X23141000Y-13166000D02*
X23221000Y-13166000D01*
X23181000Y-14650000D02*
X23181000Y-14730000D01*
X23141000Y-14690000D02*
X23221000Y-14690000D01*
X23435000Y-13126000D02*
X23435000Y-13206000D01*
X23395000Y-13166000D02*
X23475000Y-13166000D01*
X23435000Y-14650000D02*
X23435000Y-14730000D01*
X23395000Y-14690000D02*
X23475000Y-14690000D01*
X23988000Y-5841000D02*
X23988000Y-5921000D01*
X23948000Y-5881000D02*
X24028000Y-5881000D01*
X23988000Y-6603000D02*
X23988000Y-6683000D01*
X23948000Y-6643000D02*
X24028000Y-6643000D01*
X23988000Y-10841000D02*
X23988000Y-10921000D01*
X23948000Y-10881000D02*
X24028000Y-10881000D01*
X23988000Y-11603000D02*
X23988000Y-11683000D01*
X23948000Y-11643000D02*
X24028000Y-11643000D01*
D14*
X19422621Y-9191497D02*
X19422621Y-9121451D01*
X19352575Y-9121451D01*
X19352575Y-9191497D01*
X19422621Y-9191497D01*
X19422621Y-9445497D02*
X19422621Y-9375451D01*
X19352575Y-9375451D01*
X19352575Y-9445497D01*
X19422621Y-9445497D01*
X19422621Y-9699497D02*
X19422621Y-9629451D01*
X19352575Y-9629451D01*
X19352575Y-9699497D01*
X19422621Y-9699497D01*
X19422621Y-9953497D02*
X19422621Y-9883451D01*
X19352575Y-9883451D01*
X19352575Y-9953497D01*
X19422621Y-9953497D01*
X20184621Y-9191497D02*
X20184621Y-9121451D01*
X20114575Y-9121451D01*
X20114575Y-9191497D01*
X20184621Y-9191497D01*
X20184621Y-9445497D02*
X20184621Y-9375451D01*
X20114575Y-9375451D01*
X20114575Y-9445497D01*
X20184621Y-9445497D01*
X20184621Y-9699497D02*
X20184621Y-9629451D01*
X20114575Y-9629451D01*
X20114575Y-9699497D01*
X20184621Y-9699497D01*
X20184621Y-9953497D02*
X20184621Y-9883451D01*
X20114575Y-9883451D01*
X20114575Y-9953497D01*
X20184621Y-9953497D01*
D15*
X12985000Y-6150000D02*
X13035000Y-6100000D01*
X12985000Y-6050000D01*
X12935000Y-6100000D01*
X12985000Y-6150000D01*
X12985000Y-6404000D02*
X13035000Y-6354000D01*
X12985000Y-6304000D01*
X12935000Y-6354000D01*
X12985000Y-6404000D01*
X12985000Y-6658000D02*
X13035000Y-6608000D01*
X12985000Y-6558000D01*
X12935000Y-6608000D01*
X12985000Y-6658000D01*
X12985000Y-6912000D02*
X13035000Y-6862000D01*
X12985000Y-6812000D01*
X12935000Y-6862000D01*
X12985000Y-6912000D01*
X12985000Y-7166000D02*
X13035000Y-7116000D01*
X12985000Y-7066000D01*
X12935000Y-7116000D01*
X12985000Y-7166000D01*
X12985000Y-7420000D02*
X13035000Y-7370000D01*
X12985000Y-7320000D01*
X12935000Y-7370000D01*
X12985000Y-7420000D01*
X12985000Y-7674000D02*
X13035000Y-7624000D01*
X12985000Y-7574000D01*
X12935000Y-7624000D01*
X12985000Y-7674000D01*
X12985000Y-7928000D02*
X13035000Y-7878000D01*
X12985000Y-7828000D01*
X12935000Y-7878000D01*
X12985000Y-7928000D01*
X12985000Y-8182000D02*
X13035000Y-8132000D01*
X12985000Y-8082000D01*
X12935000Y-8132000D01*
X12985000Y-8182000D01*
X12985000Y-8436000D02*
X13035000Y-8386000D01*
X12985000Y-8336000D01*
X12935000Y-8386000D01*
X12985000Y-8436000D01*
X12985000Y-8690000D02*
X13035000Y-8640000D01*
X12985000Y-8590000D01*
X12935000Y-8640000D01*
X12985000Y-8690000D01*
X12985000Y-8944000D02*
X13035000Y-8894000D01*
X12985000Y-8844000D01*
X12935000Y-8894000D01*
X12985000Y-8944000D01*
X12985000Y-9198000D02*
X13035000Y-9148000D01*
X12985000Y-9098000D01*
X12935000Y-9148000D01*
X12985000Y-9198000D01*
X12985000Y-9452000D02*
X13035000Y-9402000D01*
X12985000Y-9352000D01*
X12935000Y-9402000D01*
X12985000Y-9452000D01*
X13180000Y-13225000D02*
X13230000Y-13175000D01*
X13180000Y-13125000D01*
X13130000Y-13175000D01*
X13180000Y-13225000D01*
X13180000Y-13479000D02*
X13230000Y-13429000D01*
X13180000Y-13379000D01*
X13130000Y-13429000D01*
X13180000Y-13479000D01*
X13180000Y-13733000D02*
X13230000Y-13683000D01*
X13180000Y-13633000D01*
X13130000Y-13683000D01*
X13180000Y-13733000D01*
X13180000Y-13987000D02*
X13230000Y-13937000D01*
X13180000Y-13887000D01*
X13130000Y-13937000D01*
X13180000Y-13987000D01*
X13180000Y-14241000D02*
X13230000Y-14191000D01*
X13180000Y-14141000D01*
X13130000Y-14191000D01*
X13180000Y-14241000D01*
X15408598Y-11687474D02*
X15458598Y-11637474D01*
X15408598Y-11587474D01*
X15358598Y-11637474D01*
X15408598Y-11687474D01*
X16178598Y-11510974D02*
X16228598Y-11460974D01*
X16178598Y-11410974D01*
X16128598Y-11460974D01*
X16178598Y-11510974D01*
X16178598Y-11764974D02*
X16228598Y-11714974D01*
X16178598Y-11664974D01*
X16128598Y-11714974D01*
X16178598Y-11764974D01*
X16968598Y-11657474D02*
X17018598Y-11607474D01*
X16968598Y-11557474D01*
X16918598Y-11607474D01*
X16968598Y-11657474D01*
X17678598Y-11637474D02*
X17728598Y-11587474D01*
X17678598Y-11537474D01*
X17628598Y-11587474D01*
X17678598Y-11637474D01*
X18418598Y-11637474D02*
X18468598Y-11587474D01*
X18418598Y-11537474D01*
X18368598Y-11587474D01*
X18418598Y-11637474D01*
X19168598Y-11617474D02*
X19218598Y-11567474D01*
X19168598Y-11517474D01*
X19118598Y-11567474D01*
X19168598Y-11617474D01*
X21101098Y-12407474D02*
X21151098Y-12357474D01*
X21101098Y-12307474D01*
X21051098Y-12357474D01*
X21101098Y-12407474D01*
X21355098Y-12407474D02*
X21405098Y-12357474D01*
X21355098Y-12307474D01*
X21305098Y-12357474D01*
X21355098Y-12407474D01*
X21415000Y-7420000D02*
X21465000Y-7370000D01*
X21415000Y-7320000D01*
X21365000Y-7370000D01*
X21415000Y-7420000D01*
X21415000Y-7674000D02*
X21465000Y-7624000D01*
X21415000Y-7574000D01*
X21365000Y-7624000D01*
X21415000Y-7674000D01*
X21415000Y-7928000D02*
X21465000Y-7878000D01*
X21415000Y-7828000D01*
X21365000Y-7878000D01*
X21415000Y-7928000D01*
X21415000Y-8182000D02*
X21465000Y-8132000D01*
X21415000Y-8082000D01*
X21365000Y-8132000D01*
X21415000Y-8182000D01*
D16*
X16267500Y-12545500D02*
X16376500Y-12654500D01*
X16376500Y-12545500D02*
X16267500Y-12654500D01*
X16376500Y-12600000D02*
G75*
G03*
X16376500Y-12600000I-54500J0D01*
G01*
X16521500Y-12545500D02*
X16630500Y-12654500D01*
X16630500Y-12545500D02*
X16521500Y-12654500D01*
X16630500Y-12600000D02*
G75*
G03*
X16630500Y-12600000I-54500J0D01*
G01*
X16775500Y-12545500D02*
X16884500Y-12654500D01*
X16884500Y-12545500D02*
X16775500Y-12654500D01*
X16884500Y-12600000D02*
G75*
G03*
X16884500Y-12600000I-54500J0D01*
G01*
X17029500Y-12545500D02*
X17138500Y-12654500D01*
X17138500Y-12545500D02*
X17029500Y-12654500D01*
X17138500Y-12600000D02*
G75*
G03*
X17138500Y-12600000I-54500J0D01*
G01*
X17283500Y-12545500D02*
X17392500Y-12654500D01*
X17392500Y-12545500D02*
X17283500Y-12654500D01*
X17392500Y-12600000D02*
G75*
G03*
X17392500Y-12600000I-54500J0D01*
G01*
X17537500Y-12545500D02*
X17646500Y-12654500D01*
X17646500Y-12545500D02*
X17537500Y-12654500D01*
X17646500Y-12600000D02*
G75*
G03*
X17646500Y-12600000I-54500J0D01*
G01*
X17791500Y-12545500D02*
X17900500Y-12654500D01*
X17900500Y-12545500D02*
X17791500Y-12654500D01*
X17900500Y-12600000D02*
G75*
G03*
X17900500Y-12600000I-54500J0D01*
G01*
X18045500Y-12545500D02*
X18154500Y-12654500D01*
X18154500Y-12545500D02*
X18045500Y-12654500D01*
X18154500Y-12600000D02*
G75*
G03*
X18154500Y-12600000I-54500J0D01*
G01*
D17*
X14429580Y-12541580D02*
X14546420Y-12658420D01*
X14546420Y-12541580D02*
X14429580Y-12658420D01*
X14488000Y-12541580D02*
X14488000Y-12658420D01*
X14429580Y-12600000D02*
X14546420Y-12600000D01*
X14683580Y-12541580D02*
X14800420Y-12658420D01*
X14800420Y-12541580D02*
X14683580Y-12658420D01*
X14742000Y-12541580D02*
X14742000Y-12658420D01*
X14683580Y-12600000D02*
X14800420Y-12600000D01*
X14937580Y-12541580D02*
X15054420Y-12658420D01*
X15054420Y-12541580D02*
X14937580Y-12658420D01*
X14996000Y-12541580D02*
X14996000Y-12658420D01*
X14937580Y-12600000D02*
X15054420Y-12600000D01*
X15191580Y-12541580D02*
X15308420Y-12658420D01*
X15308420Y-12541580D02*
X15191580Y-12658420D01*
X15250000Y-12541580D02*
X15250000Y-12658420D01*
X15191580Y-12600000D02*
X15308420Y-12600000D01*
D18*
X10180000Y-6065000D02*
X10330000Y-6215000D01*
X10330000Y-6065000D02*
X10180000Y-6215000D01*
X10308034Y-6193033D02*
X10308034Y-6086966D01*
X10201967Y-6086966D01*
X10201967Y-6193033D01*
X10308034Y-6193033D01*
X10180000Y-6385000D02*
X10330000Y-6535000D01*
X10330000Y-6385000D02*
X10180000Y-6535000D01*
X10308034Y-6513033D02*
X10308034Y-6406966D01*
X10201967Y-6406966D01*
X10201967Y-6513033D01*
X10308034Y-6513033D01*
X11760000Y-6065000D02*
X11910000Y-6215000D01*
X11910000Y-6065000D02*
X11760000Y-6215000D01*
X11888033Y-6193033D02*
X11888033Y-6086966D01*
X11781966Y-6086966D01*
X11781966Y-6193033D01*
X11888033Y-6193033D01*
X11760000Y-6385000D02*
X11910000Y-6535000D01*
X11910000Y-6385000D02*
X11760000Y-6535000D01*
X11888033Y-6513033D02*
X11888033Y-6406966D01*
X11781966Y-6406966D01*
X11781966Y-6513033D01*
X11888033Y-6513033D01*
D19*
X10485000Y-6210000D02*
X10665000Y-6390000D01*
X10665000Y-6210000D02*
X10485000Y-6390000D01*
X10575000Y-6390000D02*
X10665000Y-6300000D01*
X10575000Y-6210000D01*
X10485000Y-6300000D01*
X10575000Y-6390000D01*
X10955000Y-6210000D02*
X11135000Y-6390000D01*
X11135000Y-6210000D02*
X10955000Y-6390000D01*
X11045000Y-6390000D02*
X11135000Y-6300000D01*
X11045000Y-6210000D01*
X10955000Y-6300000D01*
X11045000Y-6390000D01*
X11425000Y-6210000D02*
X11605000Y-6390000D01*
X11605000Y-6210000D02*
X11425000Y-6390000D01*
X11515000Y-6390000D02*
X11605000Y-6300000D01*
X11515000Y-6210000D01*
X11425000Y-6300000D01*
X11515000Y-6390000D01*
D10*
X10247619Y-15320476D02*
X10247619Y-15120476D01*
X10295238Y-15120476D01*
X10323810Y-15130000D01*
X10342857Y-15149048D01*
X10352381Y-15168095D01*
X10361905Y-15206190D01*
X10361905Y-15234762D01*
X10352381Y-15272857D01*
X10342857Y-15291905D01*
X10323810Y-15310952D01*
X10295238Y-15320476D01*
X10247619Y-15320476D01*
X10447619Y-15320476D02*
X10447619Y-15187143D01*
X10447619Y-15225238D02*
X10457143Y-15206190D01*
X10466667Y-15196667D01*
X10485714Y-15187143D01*
X10504762Y-15187143D01*
X10571429Y-15320476D02*
X10571429Y-15187143D01*
X10571429Y-15120476D02*
X10561905Y-15130000D01*
X10571429Y-15139524D01*
X10580952Y-15130000D01*
X10571429Y-15120476D01*
X10571429Y-15139524D01*
X10695238Y-15320476D02*
X10676190Y-15310952D01*
X10666667Y-15291905D01*
X10666667Y-15120476D01*
X10800000Y-15320476D02*
X10780952Y-15310952D01*
X10771429Y-15291905D01*
X10771429Y-15120476D01*
X11028571Y-15320476D02*
X11028571Y-15120476D01*
X11095238Y-15263333D01*
X11161905Y-15120476D01*
X11161905Y-15320476D01*
X11342857Y-15320476D02*
X11342857Y-15215714D01*
X11333333Y-15196667D01*
X11314286Y-15187143D01*
X11276190Y-15187143D01*
X11257143Y-15196667D01*
X11342857Y-15310952D02*
X11323809Y-15320476D01*
X11276190Y-15320476D01*
X11257143Y-15310952D01*
X11247619Y-15291905D01*
X11247619Y-15272857D01*
X11257143Y-15253809D01*
X11276190Y-15244286D01*
X11323809Y-15244286D01*
X11342857Y-15234762D01*
X11438095Y-15187143D02*
X11438095Y-15387143D01*
X11438095Y-15196667D02*
X11457143Y-15187143D01*
X11495238Y-15187143D01*
X11514286Y-15196667D01*
X11523809Y-15206190D01*
X11533333Y-15225238D01*
X11533333Y-15282381D01*
X11523809Y-15301428D01*
X11514286Y-15310952D01*
X11495238Y-15320476D01*
X11457143Y-15320476D01*
X11438095Y-15310952D01*
X11619048Y-15301428D02*
X11628571Y-15310952D01*
X11619048Y-15320476D01*
X11609524Y-15310952D01*
X11619048Y-15301428D01*
X11619048Y-15320476D01*
X11619048Y-15196667D02*
X11628571Y-15206190D01*
X11619048Y-15215714D01*
X11609524Y-15206190D01*
X11619048Y-15196667D01*
X11619048Y-15215714D01*
D11*
X9940000Y-15625000D02*
X9990000Y-15675000D01*
X9990000Y-15625000D02*
X9940000Y-15675000D01*
D10*
X10285714Y-15540476D02*
X10304762Y-15540476D01*
X10323810Y-15550000D01*
X10333333Y-15559524D01*
X10342857Y-15578571D01*
X10352381Y-15616667D01*
X10352381Y-15664286D01*
X10342857Y-15702381D01*
X10333333Y-15721428D01*
X10323810Y-15730952D01*
X10304762Y-15740476D01*
X10285714Y-15740476D01*
X10266667Y-15730952D01*
X10257143Y-15721428D01*
X10247619Y-15702381D01*
X10238095Y-15664286D01*
X10238095Y-15616667D01*
X10247619Y-15578571D01*
X10257143Y-15559524D01*
X10266667Y-15550000D01*
X10285714Y-15540476D01*
X10438095Y-15721428D02*
X10447619Y-15730952D01*
X10438095Y-15740476D01*
X10428571Y-15730952D01*
X10438095Y-15721428D01*
X10438095Y-15740476D01*
X10628571Y-15540476D02*
X10533333Y-15540476D01*
X10523810Y-15635714D01*
X10533333Y-15626190D01*
X10552381Y-15616667D01*
X10600000Y-15616667D01*
X10619048Y-15626190D01*
X10628571Y-15635714D01*
X10638095Y-15654762D01*
X10638095Y-15702381D01*
X10628571Y-15721428D01*
X10619048Y-15730952D01*
X10600000Y-15740476D01*
X10552381Y-15740476D01*
X10533333Y-15730952D01*
X10523810Y-15721428D01*
X10761905Y-15540476D02*
X10780952Y-15540476D01*
X10800000Y-15550000D01*
X10809524Y-15559524D01*
X10819048Y-15578571D01*
X10828571Y-15616667D01*
X10828571Y-15664286D01*
X10819048Y-15702381D01*
X10809524Y-15721428D01*
X10800000Y-15730952D01*
X10780952Y-15740476D01*
X10761905Y-15740476D01*
X10742857Y-15730952D01*
X10733333Y-15721428D01*
X10723810Y-15702381D01*
X10714286Y-15664286D01*
X10714286Y-15616667D01*
X10723810Y-15578571D01*
X10733333Y-15559524D01*
X10742857Y-15550000D01*
X10761905Y-15540476D01*
X10952381Y-15540476D02*
X10971429Y-15540476D01*
X10990476Y-15550000D01*
X11000000Y-15559524D01*
X11009524Y-15578571D01*
X11019048Y-15616667D01*
X11019048Y-15664286D01*
X11009524Y-15702381D01*
X11000000Y-15721428D01*
X10990476Y-15730952D01*
X10971429Y-15740476D01*
X10952381Y-15740476D01*
X10933333Y-15730952D01*
X10923810Y-15721428D01*
X10914286Y-15702381D01*
X10904762Y-15664286D01*
X10904762Y-15616667D01*
X10914286Y-15578571D01*
X10923810Y-15559524D01*
X10933333Y-15550000D01*
X10952381Y-15540476D01*
X11104762Y-15740476D02*
X11104762Y-15607143D01*
X11104762Y-15626190D02*
X11114286Y-15616667D01*
X11133333Y-15607143D01*
X11161905Y-15607143D01*
X11180952Y-15616667D01*
X11190476Y-15635714D01*
X11190476Y-15740476D01*
X11190476Y-15635714D02*
X11200000Y-15616667D01*
X11219048Y-15607143D01*
X11247619Y-15607143D01*
X11266667Y-15616667D01*
X11276190Y-15635714D01*
X11276190Y-15740476D01*
X11371428Y-15740476D02*
X11371428Y-15607143D01*
X11371428Y-15626190D02*
X11380952Y-15616667D01*
X11400000Y-15607143D01*
X11428571Y-15607143D01*
X11447619Y-15616667D01*
X11457143Y-15635714D01*
X11457143Y-15740476D01*
X11457143Y-15635714D02*
X11466667Y-15616667D01*
X11485714Y-15607143D01*
X11514286Y-15607143D01*
X11533333Y-15616667D01*
X11542857Y-15635714D01*
X11542857Y-15740476D01*
X11933333Y-15530952D02*
X11761905Y-15788095D01*
X12190476Y-15540476D02*
X12209524Y-15540476D01*
X12228571Y-15550000D01*
X12238095Y-15559524D01*
X12247619Y-15578571D01*
X12257143Y-15616667D01*
X12257143Y-15664286D01*
X12247619Y-15702381D01*
X12238095Y-15721428D01*
X12228571Y-15730952D01*
X12209524Y-15740476D01*
X12190476Y-15740476D01*
X12171428Y-15730952D01*
X12161905Y-15721428D01*
X12152381Y-15702381D01*
X12142857Y-15664286D01*
X12142857Y-15616667D01*
X12152381Y-15578571D01*
X12161905Y-15559524D01*
X12171428Y-15550000D01*
X12190476Y-15540476D01*
X12342857Y-15721428D02*
X12352381Y-15730952D01*
X12342857Y-15740476D01*
X12333333Y-15730952D01*
X12342857Y-15721428D01*
X12342857Y-15740476D01*
X12476190Y-15540476D02*
X12495238Y-15540476D01*
X12514286Y-15550000D01*
X12523809Y-15559524D01*
X12533333Y-15578571D01*
X12542857Y-15616667D01*
X12542857Y-15664286D01*
X12533333Y-15702381D01*
X12523809Y-15721428D01*
X12514286Y-15730952D01*
X12495238Y-15740476D01*
X12476190Y-15740476D01*
X12457143Y-15730952D01*
X12447619Y-15721428D01*
X12438095Y-15702381D01*
X12428571Y-15664286D01*
X12428571Y-15616667D01*
X12438095Y-15578571D01*
X12447619Y-15559524D01*
X12457143Y-15550000D01*
X12476190Y-15540476D01*
X12733333Y-15740476D02*
X12619048Y-15740476D01*
X12676190Y-15740476D02*
X12676190Y-15540476D01*
X12657143Y-15569048D01*
X12638095Y-15588095D01*
X12619048Y-15597619D01*
X12828571Y-15740476D02*
X12866667Y-15740476D01*
X12885714Y-15730952D01*
X12895238Y-15721428D01*
X12914286Y-15692857D01*
X12923809Y-15654762D01*
X12923809Y-15578571D01*
X12914286Y-15559524D01*
X12904762Y-15550000D01*
X12885714Y-15540476D01*
X12847619Y-15540476D01*
X12828571Y-15550000D01*
X12819048Y-15559524D01*
X12809524Y-15578571D01*
X12809524Y-15626190D01*
X12819048Y-15645238D01*
X12828571Y-15654762D01*
X12847619Y-15664286D01*
X12885714Y-15664286D01*
X12904762Y-15654762D01*
X12914286Y-15645238D01*
X12923809Y-15626190D01*
X12990476Y-15540476D02*
X13123809Y-15540476D01*
X13038095Y-15740476D01*
X13190476Y-15540476D02*
X13190476Y-15578571D01*
X13266667Y-15540476D02*
X13266667Y-15578571D01*
X13561905Y-15816667D02*
X13552381Y-15807143D01*
X13533333Y-15778571D01*
X13523809Y-15759524D01*
X13514286Y-15730952D01*
X13504762Y-15683333D01*
X13504762Y-15645238D01*
X13514286Y-15597619D01*
X13523809Y-15569048D01*
X13533333Y-15550000D01*
X13552381Y-15521428D01*
X13561905Y-15511905D01*
X13742857Y-15740476D02*
X13628571Y-15740476D01*
X13685714Y-15740476D02*
X13685714Y-15540476D01*
X13666667Y-15569048D01*
X13647619Y-15588095D01*
X13628571Y-15597619D01*
X13809524Y-15540476D02*
X13933333Y-15540476D01*
X13866667Y-15616667D01*
X13895238Y-15616667D01*
X13914286Y-15626190D01*
X13923809Y-15635714D01*
X13933333Y-15654762D01*
X13933333Y-15702381D01*
X13923809Y-15721428D01*
X13914286Y-15730952D01*
X13895238Y-15740476D01*
X13838095Y-15740476D01*
X13819048Y-15730952D01*
X13809524Y-15721428D01*
X14104762Y-15607143D02*
X14104762Y-15740476D01*
X14057143Y-15530952D02*
X14009524Y-15673809D01*
X14133333Y-15673809D01*
X14361905Y-15740476D02*
X14361905Y-15540476D01*
X14447619Y-15740476D02*
X14447619Y-15635714D01*
X14438095Y-15616667D01*
X14419048Y-15607143D01*
X14390476Y-15607143D01*
X14371428Y-15616667D01*
X14361905Y-15626190D01*
X14571428Y-15740476D02*
X14552381Y-15730952D01*
X14542857Y-15721428D01*
X14533333Y-15702381D01*
X14533333Y-15645238D01*
X14542857Y-15626190D01*
X14552381Y-15616667D01*
X14571428Y-15607143D01*
X14600000Y-15607143D01*
X14619048Y-15616667D01*
X14628571Y-15626190D01*
X14638095Y-15645238D01*
X14638095Y-15702381D01*
X14628571Y-15721428D01*
X14619048Y-15730952D01*
X14600000Y-15740476D01*
X14571428Y-15740476D01*
X14752381Y-15740476D02*
X14733333Y-15730952D01*
X14723809Y-15711905D01*
X14723809Y-15540476D01*
X14904762Y-15730952D02*
X14885714Y-15740476D01*
X14847619Y-15740476D01*
X14828571Y-15730952D01*
X14819048Y-15711905D01*
X14819048Y-15635714D01*
X14828571Y-15616667D01*
X14847619Y-15607143D01*
X14885714Y-15607143D01*
X14904762Y-15616667D01*
X14914286Y-15635714D01*
X14914286Y-15654762D01*
X14819048Y-15673809D01*
X14990476Y-15730952D02*
X15009524Y-15740476D01*
X15047619Y-15740476D01*
X15066667Y-15730952D01*
X15076190Y-15711905D01*
X15076190Y-15702381D01*
X15066667Y-15683333D01*
X15047619Y-15673809D01*
X15019048Y-15673809D01*
X15000000Y-15664286D01*
X14990476Y-15645238D01*
X14990476Y-15635714D01*
X15000000Y-15616667D01*
X15019048Y-15607143D01*
X15047619Y-15607143D01*
X15066667Y-15616667D01*
X15142857Y-15816667D02*
X15152381Y-15807143D01*
X15171428Y-15778571D01*
X15180952Y-15759524D01*
X15190476Y-15730952D01*
X15200000Y-15683333D01*
X15200000Y-15645238D01*
X15190476Y-15597619D01*
X15180952Y-15569048D01*
X15171428Y-15550000D01*
X15152381Y-15521428D01*
X15142857Y-15511905D01*
D12*
X9990000Y-15914000D02*
G75*
G03*
X9990000Y-15914000I-35000J0D01*
G01*
D10*
X10285714Y-15804476D02*
X10304762Y-15804476D01*
X10323810Y-15814000D01*
X10333333Y-15823524D01*
X10342857Y-15842571D01*
X10352381Y-15880667D01*
X10352381Y-15928286D01*
X10342857Y-15966381D01*
X10333333Y-15985428D01*
X10323810Y-15994952D01*
X10304762Y-16004476D01*
X10285714Y-16004476D01*
X10266667Y-15994952D01*
X10257143Y-15985428D01*
X10247619Y-15966381D01*
X10238095Y-15928286D01*
X10238095Y-15880667D01*
X10247619Y-15842571D01*
X10257143Y-15823524D01*
X10266667Y-15814000D01*
X10285714Y-15804476D01*
X10438095Y-15985428D02*
X10447619Y-15994952D01*
X10438095Y-16004476D01*
X10428571Y-15994952D01*
X10438095Y-15985428D01*
X10438095Y-16004476D01*
X10514286Y-15804476D02*
X10647619Y-15804476D01*
X10561905Y-16004476D01*
X10761905Y-15804476D02*
X10780952Y-15804476D01*
X10800000Y-15814000D01*
X10809524Y-15823524D01*
X10819048Y-15842571D01*
X10828571Y-15880667D01*
X10828571Y-15928286D01*
X10819048Y-15966381D01*
X10809524Y-15985428D01*
X10800000Y-15994952D01*
X10780952Y-16004476D01*
X10761905Y-16004476D01*
X10742857Y-15994952D01*
X10733333Y-15985428D01*
X10723810Y-15966381D01*
X10714286Y-15928286D01*
X10714286Y-15880667D01*
X10723810Y-15842571D01*
X10733333Y-15823524D01*
X10742857Y-15814000D01*
X10761905Y-15804476D01*
X10952381Y-15804476D02*
X10971429Y-15804476D01*
X10990476Y-15814000D01*
X11000000Y-15823524D01*
X11009524Y-15842571D01*
X11019048Y-15880667D01*
X11019048Y-15928286D01*
X11009524Y-15966381D01*
X11000000Y-15985428D01*
X10990476Y-15994952D01*
X10971429Y-16004476D01*
X10952381Y-16004476D01*
X10933333Y-15994952D01*
X10923810Y-15985428D01*
X10914286Y-15966381D01*
X10904762Y-15928286D01*
X10904762Y-15880667D01*
X10914286Y-15842571D01*
X10923810Y-15823524D01*
X10933333Y-15814000D01*
X10952381Y-15804476D01*
X11104762Y-16004476D02*
X11104762Y-15871143D01*
X11104762Y-15890190D02*
X11114286Y-15880667D01*
X11133333Y-15871143D01*
X11161905Y-15871143D01*
X11180952Y-15880667D01*
X11190476Y-15899714D01*
X11190476Y-16004476D01*
X11190476Y-15899714D02*
X11200000Y-15880667D01*
X11219048Y-15871143D01*
X11247619Y-15871143D01*
X11266667Y-15880667D01*
X11276190Y-15899714D01*
X11276190Y-16004476D01*
X11371428Y-16004476D02*
X11371428Y-15871143D01*
X11371428Y-15890190D02*
X11380952Y-15880667D01*
X11400000Y-15871143D01*
X11428571Y-15871143D01*
X11447619Y-15880667D01*
X11457143Y-15899714D01*
X11457143Y-16004476D01*
X11457143Y-15899714D02*
X11466667Y-15880667D01*
X11485714Y-15871143D01*
X11514286Y-15871143D01*
X11533333Y-15880667D01*
X11542857Y-15899714D01*
X11542857Y-16004476D01*
X11933333Y-15794952D02*
X11761905Y-16052095D01*
X12190476Y-15804476D02*
X12209524Y-15804476D01*
X12228571Y-15814000D01*
X12238095Y-15823524D01*
X12247619Y-15842571D01*
X12257143Y-15880667D01*
X12257143Y-15928286D01*
X12247619Y-15966381D01*
X12238095Y-15985428D01*
X12228571Y-15994952D01*
X12209524Y-16004476D01*
X12190476Y-16004476D01*
X12171428Y-15994952D01*
X12161905Y-15985428D01*
X12152381Y-15966381D01*
X12142857Y-15928286D01*
X12142857Y-15880667D01*
X12152381Y-15842571D01*
X12161905Y-15823524D01*
X12171428Y-15814000D01*
X12190476Y-15804476D01*
X12342857Y-15985428D02*
X12352381Y-15994952D01*
X12342857Y-16004476D01*
X12333333Y-15994952D01*
X12342857Y-15985428D01*
X12342857Y-16004476D01*
X12476190Y-15804476D02*
X12495238Y-15804476D01*
X12514286Y-15814000D01*
X12523809Y-15823524D01*
X12533333Y-15842571D01*
X12542857Y-15880667D01*
X12542857Y-15928286D01*
X12533333Y-15966381D01*
X12523809Y-15985428D01*
X12514286Y-15994952D01*
X12495238Y-16004476D01*
X12476190Y-16004476D01*
X12457143Y-15994952D01*
X12447619Y-15985428D01*
X12438095Y-15966381D01*
X12428571Y-15928286D01*
X12428571Y-15880667D01*
X12438095Y-15842571D01*
X12447619Y-15823524D01*
X12457143Y-15814000D01*
X12476190Y-15804476D01*
X12619048Y-15823524D02*
X12628571Y-15814000D01*
X12647619Y-15804476D01*
X12695238Y-15804476D01*
X12714286Y-15814000D01*
X12723809Y-15823524D01*
X12733333Y-15842571D01*
X12733333Y-15861619D01*
X12723809Y-15890190D01*
X12609524Y-16004476D01*
X12733333Y-16004476D01*
X12800000Y-15804476D02*
X12933333Y-15804476D01*
X12847619Y-16004476D01*
X13095238Y-15804476D02*
X13057143Y-15804476D01*
X13038095Y-15814000D01*
X13028571Y-15823524D01*
X13009524Y-15852095D01*
X13000000Y-15890190D01*
X13000000Y-15966381D01*
X13009524Y-15985428D01*
X13019048Y-15994952D01*
X13038095Y-16004476D01*
X13076190Y-16004476D01*
X13095238Y-15994952D01*
X13104762Y-15985428D01*
X13114286Y-15966381D01*
X13114286Y-15918762D01*
X13104762Y-15899714D01*
X13095238Y-15890190D01*
X13076190Y-15880667D01*
X13038095Y-15880667D01*
X13019048Y-15890190D01*
X13009524Y-15899714D01*
X13000000Y-15918762D01*
X13190476Y-15804476D02*
X13190476Y-15842571D01*
X13266667Y-15804476D02*
X13266667Y-15842571D01*
X13561905Y-16080667D02*
X13552381Y-16071143D01*
X13533333Y-16042571D01*
X13523809Y-16023524D01*
X13514286Y-15994952D01*
X13504762Y-15947333D01*
X13504762Y-15909238D01*
X13514286Y-15861619D01*
X13523809Y-15833048D01*
X13533333Y-15814000D01*
X13552381Y-15785428D01*
X13561905Y-15775905D01*
X13742857Y-16004476D02*
X13628571Y-16004476D01*
X13685714Y-16004476D02*
X13685714Y-15804476D01*
X13666667Y-15833048D01*
X13647619Y-15852095D01*
X13628571Y-15861619D01*
X13923809Y-15804476D02*
X13828571Y-15804476D01*
X13819048Y-15899714D01*
X13828571Y-15890190D01*
X13847619Y-15880667D01*
X13895238Y-15880667D01*
X13914286Y-15890190D01*
X13923809Y-15899714D01*
X13933333Y-15918762D01*
X13933333Y-15966381D01*
X13923809Y-15985428D01*
X13914286Y-15994952D01*
X13895238Y-16004476D01*
X13847619Y-16004476D01*
X13828571Y-15994952D01*
X13819048Y-15985428D01*
X14171428Y-16004476D02*
X14171428Y-15804476D01*
X14257143Y-16004476D02*
X14257143Y-15899714D01*
X14247619Y-15880667D01*
X14228571Y-15871143D01*
X14200000Y-15871143D01*
X14180952Y-15880667D01*
X14171428Y-15890190D01*
X14380952Y-16004476D02*
X14361905Y-15994952D01*
X14352381Y-15985428D01*
X14342857Y-15966381D01*
X14342857Y-15909238D01*
X14352381Y-15890190D01*
X14361905Y-15880667D01*
X14380952Y-15871143D01*
X14409524Y-15871143D01*
X14428571Y-15880667D01*
X14438095Y-15890190D01*
X14447619Y-15909238D01*
X14447619Y-15966381D01*
X14438095Y-15985428D01*
X14428571Y-15994952D01*
X14409524Y-16004476D01*
X14380952Y-16004476D01*
X14561905Y-16004476D02*
X14542857Y-15994952D01*
X14533333Y-15975905D01*
X14533333Y-15804476D01*
X14714286Y-15994952D02*
X14695238Y-16004476D01*
X14657143Y-16004476D01*
X14638095Y-15994952D01*
X14628571Y-15975905D01*
X14628571Y-15899714D01*
X14638095Y-15880667D01*
X14657143Y-15871143D01*
X14695238Y-15871143D01*
X14714286Y-15880667D01*
X14723809Y-15899714D01*
X14723809Y-15918762D01*
X14628571Y-15937809D01*
X14800000Y-15994952D02*
X14819048Y-16004476D01*
X14857143Y-16004476D01*
X14876190Y-15994952D01*
X14885714Y-15975905D01*
X14885714Y-15966381D01*
X14876190Y-15947333D01*
X14857143Y-15937809D01*
X14828571Y-15937809D01*
X14809524Y-15928286D01*
X14800000Y-15909238D01*
X14800000Y-15899714D01*
X14809524Y-15880667D01*
X14828571Y-15871143D01*
X14857143Y-15871143D01*
X14876190Y-15880667D01*
X14952381Y-16080667D02*
X14961905Y-16071143D01*
X14980952Y-16042571D01*
X14990476Y-16023524D01*
X15000000Y-15994952D01*
X15009524Y-15947333D01*
X15009524Y-15909238D01*
X15000000Y-15861619D01*
X14990476Y-15833048D01*
X14980952Y-15814000D01*
X14961905Y-15785428D01*
X14952381Y-15775905D01*
D13*
X9950000Y-16138000D02*
X9950000Y-16218000D01*
X9910000Y-16178000D02*
X9990000Y-16178000D01*
D10*
X10285714Y-16068476D02*
X10304762Y-16068476D01*
X10323810Y-16078000D01*
X10333333Y-16087524D01*
X10342857Y-16106571D01*
X10352381Y-16144667D01*
X10352381Y-16192286D01*
X10342857Y-16230381D01*
X10333333Y-16249428D01*
X10323810Y-16258952D01*
X10304762Y-16268476D01*
X10285714Y-16268476D01*
X10266667Y-16258952D01*
X10257143Y-16249428D01*
X10247619Y-16230381D01*
X10238095Y-16192286D01*
X10238095Y-16144667D01*
X10247619Y-16106571D01*
X10257143Y-16087524D01*
X10266667Y-16078000D01*
X10285714Y-16068476D01*
X10438095Y-16249428D02*
X10447619Y-16258952D01*
X10438095Y-16268476D01*
X10428571Y-16258952D01*
X10438095Y-16249428D01*
X10438095Y-16268476D01*
X10561905Y-16154190D02*
X10542857Y-16144667D01*
X10533333Y-16135143D01*
X10523810Y-16116095D01*
X10523810Y-16106571D01*
X10533333Y-16087524D01*
X10542857Y-16078000D01*
X10561905Y-16068476D01*
X10600000Y-16068476D01*
X10619048Y-16078000D01*
X10628571Y-16087524D01*
X10638095Y-16106571D01*
X10638095Y-16116095D01*
X10628571Y-16135143D01*
X10619048Y-16144667D01*
X10600000Y-16154190D01*
X10561905Y-16154190D01*
X10542857Y-16163714D01*
X10533333Y-16173238D01*
X10523810Y-16192286D01*
X10523810Y-16230381D01*
X10533333Y-16249428D01*
X10542857Y-16258952D01*
X10561905Y-16268476D01*
X10600000Y-16268476D01*
X10619048Y-16258952D01*
X10628571Y-16249428D01*
X10638095Y-16230381D01*
X10638095Y-16192286D01*
X10628571Y-16173238D01*
X10619048Y-16163714D01*
X10600000Y-16154190D01*
X10761905Y-16068476D02*
X10780952Y-16068476D01*
X10800000Y-16078000D01*
X10809524Y-16087524D01*
X10819048Y-16106571D01*
X10828571Y-16144667D01*
X10828571Y-16192286D01*
X10819048Y-16230381D01*
X10809524Y-16249428D01*
X10800000Y-16258952D01*
X10780952Y-16268476D01*
X10761905Y-16268476D01*
X10742857Y-16258952D01*
X10733333Y-16249428D01*
X10723810Y-16230381D01*
X10714286Y-16192286D01*
X10714286Y-16144667D01*
X10723810Y-16106571D01*
X10733333Y-16087524D01*
X10742857Y-16078000D01*
X10761905Y-16068476D01*
X10952381Y-16068476D02*
X10971429Y-16068476D01*
X10990476Y-16078000D01*
X11000000Y-16087524D01*
X11009524Y-16106571D01*
X11019048Y-16144667D01*
X11019048Y-16192286D01*
X11009524Y-16230381D01*
X11000000Y-16249428D01*
X10990476Y-16258952D01*
X10971429Y-16268476D01*
X10952381Y-16268476D01*
X10933333Y-16258952D01*
X10923810Y-16249428D01*
X10914286Y-16230381D01*
X10904762Y-16192286D01*
X10904762Y-16144667D01*
X10914286Y-16106571D01*
X10923810Y-16087524D01*
X10933333Y-16078000D01*
X10952381Y-16068476D01*
X11104762Y-16268476D02*
X11104762Y-16135143D01*
X11104762Y-16154190D02*
X11114286Y-16144667D01*
X11133333Y-16135143D01*
X11161905Y-16135143D01*
X11180952Y-16144667D01*
X11190476Y-16163714D01*
X11190476Y-16268476D01*
X11190476Y-16163714D02*
X11200000Y-16144667D01*
X11219048Y-16135143D01*
X11247619Y-16135143D01*
X11266667Y-16144667D01*
X11276190Y-16163714D01*
X11276190Y-16268476D01*
X11371428Y-16268476D02*
X11371428Y-16135143D01*
X11371428Y-16154190D02*
X11380952Y-16144667D01*
X11400000Y-16135143D01*
X11428571Y-16135143D01*
X11447619Y-16144667D01*
X11457143Y-16163714D01*
X11457143Y-16268476D01*
X11457143Y-16163714D02*
X11466667Y-16144667D01*
X11485714Y-16135143D01*
X11514286Y-16135143D01*
X11533333Y-16144667D01*
X11542857Y-16163714D01*
X11542857Y-16268476D01*
X11933333Y-16058952D02*
X11761905Y-16316095D01*
X12190476Y-16068476D02*
X12209524Y-16068476D01*
X12228571Y-16078000D01*
X12238095Y-16087524D01*
X12247619Y-16106571D01*
X12257143Y-16144667D01*
X12257143Y-16192286D01*
X12247619Y-16230381D01*
X12238095Y-16249428D01*
X12228571Y-16258952D01*
X12209524Y-16268476D01*
X12190476Y-16268476D01*
X12171428Y-16258952D01*
X12161905Y-16249428D01*
X12152381Y-16230381D01*
X12142857Y-16192286D01*
X12142857Y-16144667D01*
X12152381Y-16106571D01*
X12161905Y-16087524D01*
X12171428Y-16078000D01*
X12190476Y-16068476D01*
X12342857Y-16249428D02*
X12352381Y-16258952D01*
X12342857Y-16268476D01*
X12333333Y-16258952D01*
X12342857Y-16249428D01*
X12342857Y-16268476D01*
X12476190Y-16068476D02*
X12495238Y-16068476D01*
X12514286Y-16078000D01*
X12523809Y-16087524D01*
X12533333Y-16106571D01*
X12542857Y-16144667D01*
X12542857Y-16192286D01*
X12533333Y-16230381D01*
X12523809Y-16249428D01*
X12514286Y-16258952D01*
X12495238Y-16268476D01*
X12476190Y-16268476D01*
X12457143Y-16258952D01*
X12447619Y-16249428D01*
X12438095Y-16230381D01*
X12428571Y-16192286D01*
X12428571Y-16144667D01*
X12438095Y-16106571D01*
X12447619Y-16087524D01*
X12457143Y-16078000D01*
X12476190Y-16068476D01*
X12609524Y-16068476D02*
X12733333Y-16068476D01*
X12666667Y-16144667D01*
X12695238Y-16144667D01*
X12714286Y-16154190D01*
X12723809Y-16163714D01*
X12733333Y-16182762D01*
X12733333Y-16230381D01*
X12723809Y-16249428D01*
X12714286Y-16258952D01*
X12695238Y-16268476D01*
X12638095Y-16268476D01*
X12619048Y-16258952D01*
X12609524Y-16249428D01*
X12923809Y-16268476D02*
X12809524Y-16268476D01*
X12866667Y-16268476D02*
X12866667Y-16068476D01*
X12847619Y-16097048D01*
X12828571Y-16116095D01*
X12809524Y-16125619D01*
X13104762Y-16068476D02*
X13009524Y-16068476D01*
X13000000Y-16163714D01*
X13009524Y-16154190D01*
X13028571Y-16144667D01*
X13076190Y-16144667D01*
X13095238Y-16154190D01*
X13104762Y-16163714D01*
X13114286Y-16182762D01*
X13114286Y-16230381D01*
X13104762Y-16249428D01*
X13095238Y-16258952D01*
X13076190Y-16268476D01*
X13028571Y-16268476D01*
X13009524Y-16258952D01*
X13000000Y-16249428D01*
X13190476Y-16068476D02*
X13190476Y-16106571D01*
X13266667Y-16068476D02*
X13266667Y-16106571D01*
X13561905Y-16344667D02*
X13552381Y-16335143D01*
X13533333Y-16306571D01*
X13523809Y-16287524D01*
X13514286Y-16258952D01*
X13504762Y-16211333D01*
X13504762Y-16173238D01*
X13514286Y-16125619D01*
X13523809Y-16097048D01*
X13533333Y-16078000D01*
X13552381Y-16049428D01*
X13561905Y-16039905D01*
X13723809Y-16135143D02*
X13723809Y-16268476D01*
X13676190Y-16058952D02*
X13628571Y-16201809D01*
X13752381Y-16201809D01*
X13866667Y-16068476D02*
X13885714Y-16068476D01*
X13904762Y-16078000D01*
X13914286Y-16087524D01*
X13923809Y-16106571D01*
X13933333Y-16144667D01*
X13933333Y-16192286D01*
X13923809Y-16230381D01*
X13914286Y-16249428D01*
X13904762Y-16258952D01*
X13885714Y-16268476D01*
X13866667Y-16268476D01*
X13847619Y-16258952D01*
X13838095Y-16249428D01*
X13828571Y-16230381D01*
X13819048Y-16192286D01*
X13819048Y-16144667D01*
X13828571Y-16106571D01*
X13838095Y-16087524D01*
X13847619Y-16078000D01*
X13866667Y-16068476D01*
X14171428Y-16268476D02*
X14171428Y-16068476D01*
X14257143Y-16268476D02*
X14257143Y-16163714D01*
X14247619Y-16144667D01*
X14228571Y-16135143D01*
X14200000Y-16135143D01*
X14180952Y-16144667D01*
X14171428Y-16154190D01*
X14380952Y-16268476D02*
X14361905Y-16258952D01*
X14352381Y-16249428D01*
X14342857Y-16230381D01*
X14342857Y-16173238D01*
X14352381Y-16154190D01*
X14361905Y-16144667D01*
X14380952Y-16135143D01*
X14409524Y-16135143D01*
X14428571Y-16144667D01*
X14438095Y-16154190D01*
X14447619Y-16173238D01*
X14447619Y-16230381D01*
X14438095Y-16249428D01*
X14428571Y-16258952D01*
X14409524Y-16268476D01*
X14380952Y-16268476D01*
X14561905Y-16268476D02*
X14542857Y-16258952D01*
X14533333Y-16239905D01*
X14533333Y-16068476D01*
X14714286Y-16258952D02*
X14695238Y-16268476D01*
X14657143Y-16268476D01*
X14638095Y-16258952D01*
X14628571Y-16239905D01*
X14628571Y-16163714D01*
X14638095Y-16144667D01*
X14657143Y-16135143D01*
X14695238Y-16135143D01*
X14714286Y-16144667D01*
X14723809Y-16163714D01*
X14723809Y-16182762D01*
X14628571Y-16201809D01*
X14800000Y-16258952D02*
X14819048Y-16268476D01*
X14857143Y-16268476D01*
X14876190Y-16258952D01*
X14885714Y-16239905D01*
X14885714Y-16230381D01*
X14876190Y-16211333D01*
X14857143Y-16201809D01*
X14828571Y-16201809D01*
X14809524Y-16192286D01*
X14800000Y-16173238D01*
X14800000Y-16163714D01*
X14809524Y-16144667D01*
X14828571Y-16135143D01*
X14857143Y-16135143D01*
X14876190Y-16144667D01*
X14952381Y-16344667D02*
X14961905Y-16335143D01*
X14980952Y-16306571D01*
X14990476Y-16287524D01*
X15000000Y-16258952D01*
X15009524Y-16211333D01*
X15009524Y-16173238D01*
X15000000Y-16125619D01*
X14990476Y-16097048D01*
X14980952Y-16078000D01*
X14961905Y-16049428D01*
X14952381Y-16039905D01*
D14*
X9975493Y-16477023D02*
X9975493Y-16406977D01*
X9905447Y-16406977D01*
X9905447Y-16477023D01*
X9975493Y-16477023D01*
D10*
X10285714Y-16332476D02*
X10304762Y-16332476D01*
X10323810Y-16342000D01*
X10333333Y-16351524D01*
X10342857Y-16370571D01*
X10352381Y-16408667D01*
X10352381Y-16456286D01*
X10342857Y-16494381D01*
X10333333Y-16513428D01*
X10323810Y-16522952D01*
X10304762Y-16532476D01*
X10285714Y-16532476D01*
X10266667Y-16522952D01*
X10257143Y-16513428D01*
X10247619Y-16494381D01*
X10238095Y-16456286D01*
X10238095Y-16408667D01*
X10247619Y-16370571D01*
X10257143Y-16351524D01*
X10266667Y-16342000D01*
X10285714Y-16332476D01*
X10438095Y-16513428D02*
X10447619Y-16522952D01*
X10438095Y-16532476D01*
X10428571Y-16522952D01*
X10438095Y-16513428D01*
X10438095Y-16532476D01*
X10542857Y-16532476D02*
X10580952Y-16532476D01*
X10600000Y-16522952D01*
X10609524Y-16513428D01*
X10628571Y-16484857D01*
X10638095Y-16446762D01*
X10638095Y-16370571D01*
X10628571Y-16351524D01*
X10619048Y-16342000D01*
X10600000Y-16332476D01*
X10561905Y-16332476D01*
X10542857Y-16342000D01*
X10533333Y-16351524D01*
X10523810Y-16370571D01*
X10523810Y-16418190D01*
X10533333Y-16437238D01*
X10542857Y-16446762D01*
X10561905Y-16456286D01*
X10600000Y-16456286D01*
X10619048Y-16446762D01*
X10628571Y-16437238D01*
X10638095Y-16418190D01*
X10733333Y-16532476D02*
X10771429Y-16532476D01*
X10790476Y-16522952D01*
X10800000Y-16513428D01*
X10819048Y-16484857D01*
X10828571Y-16446762D01*
X10828571Y-16370571D01*
X10819048Y-16351524D01*
X10809524Y-16342000D01*
X10790476Y-16332476D01*
X10752381Y-16332476D01*
X10733333Y-16342000D01*
X10723810Y-16351524D01*
X10714286Y-16370571D01*
X10714286Y-16418190D01*
X10723810Y-16437238D01*
X10733333Y-16446762D01*
X10752381Y-16456286D01*
X10790476Y-16456286D01*
X10809524Y-16446762D01*
X10819048Y-16437238D01*
X10828571Y-16418190D01*
X11019048Y-16532476D02*
X10904762Y-16532476D01*
X10961905Y-16532476D02*
X10961905Y-16332476D01*
X10942857Y-16361048D01*
X10923810Y-16380095D01*
X10904762Y-16389619D01*
X11104762Y-16532476D02*
X11104762Y-16399143D01*
X11104762Y-16418190D02*
X11114286Y-16408667D01*
X11133333Y-16399143D01*
X11161905Y-16399143D01*
X11180952Y-16408667D01*
X11190476Y-16427714D01*
X11190476Y-16532476D01*
X11190476Y-16427714D02*
X11200000Y-16408667D01*
X11219048Y-16399143D01*
X11247619Y-16399143D01*
X11266667Y-16408667D01*
X11276190Y-16427714D01*
X11276190Y-16532476D01*
X11371428Y-16532476D02*
X11371428Y-16399143D01*
X11371428Y-16418190D02*
X11380952Y-16408667D01*
X11400000Y-16399143D01*
X11428571Y-16399143D01*
X11447619Y-16408667D01*
X11457143Y-16427714D01*
X11457143Y-16532476D01*
X11457143Y-16427714D02*
X11466667Y-16408667D01*
X11485714Y-16399143D01*
X11514286Y-16399143D01*
X11533333Y-16408667D01*
X11542857Y-16427714D01*
X11542857Y-16532476D01*
X11933333Y-16322952D02*
X11761905Y-16580095D01*
X12190476Y-16332476D02*
X12209524Y-16332476D01*
X12228571Y-16342000D01*
X12238095Y-16351524D01*
X12247619Y-16370571D01*
X12257143Y-16408667D01*
X12257143Y-16456286D01*
X12247619Y-16494381D01*
X12238095Y-16513428D01*
X12228571Y-16522952D01*
X12209524Y-16532476D01*
X12190476Y-16532476D01*
X12171428Y-16522952D01*
X12161905Y-16513428D01*
X12152381Y-16494381D01*
X12142857Y-16456286D01*
X12142857Y-16408667D01*
X12152381Y-16370571D01*
X12161905Y-16351524D01*
X12171428Y-16342000D01*
X12190476Y-16332476D01*
X12342857Y-16513428D02*
X12352381Y-16522952D01*
X12342857Y-16532476D01*
X12333333Y-16522952D01*
X12342857Y-16513428D01*
X12342857Y-16532476D01*
X12476190Y-16332476D02*
X12495238Y-16332476D01*
X12514286Y-16342000D01*
X12523809Y-16351524D01*
X12533333Y-16370571D01*
X12542857Y-16408667D01*
X12542857Y-16456286D01*
X12533333Y-16494381D01*
X12523809Y-16513428D01*
X12514286Y-16522952D01*
X12495238Y-16532476D01*
X12476190Y-16532476D01*
X12457143Y-16522952D01*
X12447619Y-16513428D01*
X12438095Y-16494381D01*
X12428571Y-16456286D01*
X12428571Y-16408667D01*
X12438095Y-16370571D01*
X12447619Y-16351524D01*
X12457143Y-16342000D01*
X12476190Y-16332476D01*
X12609524Y-16332476D02*
X12733333Y-16332476D01*
X12666667Y-16408667D01*
X12695238Y-16408667D01*
X12714286Y-16418190D01*
X12723809Y-16427714D01*
X12733333Y-16446762D01*
X12733333Y-16494381D01*
X12723809Y-16513428D01*
X12714286Y-16522952D01*
X12695238Y-16532476D01*
X12638095Y-16532476D01*
X12619048Y-16522952D01*
X12609524Y-16513428D01*
X12828571Y-16532476D02*
X12866667Y-16532476D01*
X12885714Y-16522952D01*
X12895238Y-16513428D01*
X12914286Y-16484857D01*
X12923809Y-16446762D01*
X12923809Y-16370571D01*
X12914286Y-16351524D01*
X12904762Y-16342000D01*
X12885714Y-16332476D01*
X12847619Y-16332476D01*
X12828571Y-16342000D01*
X12819048Y-16351524D01*
X12809524Y-16370571D01*
X12809524Y-16418190D01*
X12819048Y-16437238D01*
X12828571Y-16446762D01*
X12847619Y-16456286D01*
X12885714Y-16456286D01*
X12904762Y-16446762D01*
X12914286Y-16437238D01*
X12923809Y-16418190D01*
X13047619Y-16332476D02*
X13066667Y-16332476D01*
X13085714Y-16342000D01*
X13095238Y-16351524D01*
X13104762Y-16370571D01*
X13114286Y-16408667D01*
X13114286Y-16456286D01*
X13104762Y-16494381D01*
X13095238Y-16513428D01*
X13085714Y-16522952D01*
X13066667Y-16532476D01*
X13047619Y-16532476D01*
X13028571Y-16522952D01*
X13019048Y-16513428D01*
X13009524Y-16494381D01*
X13000000Y-16456286D01*
X13000000Y-16408667D01*
X13009524Y-16370571D01*
X13019048Y-16351524D01*
X13028571Y-16342000D01*
X13047619Y-16332476D01*
X13190476Y-16332476D02*
X13190476Y-16370571D01*
X13266667Y-16332476D02*
X13266667Y-16370571D01*
X13561905Y-16608667D02*
X13552381Y-16599143D01*
X13533333Y-16570571D01*
X13523809Y-16551524D01*
X13514286Y-16522952D01*
X13504762Y-16475333D01*
X13504762Y-16437238D01*
X13514286Y-16389619D01*
X13523809Y-16361048D01*
X13533333Y-16342000D01*
X13552381Y-16313428D01*
X13561905Y-16303905D01*
X13666667Y-16418190D02*
X13647619Y-16408667D01*
X13638095Y-16399143D01*
X13628571Y-16380095D01*
X13628571Y-16370571D01*
X13638095Y-16351524D01*
X13647619Y-16342000D01*
X13666667Y-16332476D01*
X13704762Y-16332476D01*
X13723809Y-16342000D01*
X13733333Y-16351524D01*
X13742857Y-16370571D01*
X13742857Y-16380095D01*
X13733333Y-16399143D01*
X13723809Y-16408667D01*
X13704762Y-16418190D01*
X13666667Y-16418190D01*
X13647619Y-16427714D01*
X13638095Y-16437238D01*
X13628571Y-16456286D01*
X13628571Y-16494381D01*
X13638095Y-16513428D01*
X13647619Y-16522952D01*
X13666667Y-16532476D01*
X13704762Y-16532476D01*
X13723809Y-16522952D01*
X13733333Y-16513428D01*
X13742857Y-16494381D01*
X13742857Y-16456286D01*
X13733333Y-16437238D01*
X13723809Y-16427714D01*
X13704762Y-16418190D01*
X13980952Y-16532476D02*
X13980952Y-16332476D01*
X14066667Y-16532476D02*
X14066667Y-16427714D01*
X14057143Y-16408667D01*
X14038095Y-16399143D01*
X14009524Y-16399143D01*
X13990476Y-16408667D01*
X13980952Y-16418190D01*
X14190476Y-16532476D02*
X14171428Y-16522952D01*
X14161905Y-16513428D01*
X14152381Y-16494381D01*
X14152381Y-16437238D01*
X14161905Y-16418190D01*
X14171428Y-16408667D01*
X14190476Y-16399143D01*
X14219048Y-16399143D01*
X14238095Y-16408667D01*
X14247619Y-16418190D01*
X14257143Y-16437238D01*
X14257143Y-16494381D01*
X14247619Y-16513428D01*
X14238095Y-16522952D01*
X14219048Y-16532476D01*
X14190476Y-16532476D01*
X14371428Y-16532476D02*
X14352381Y-16522952D01*
X14342857Y-16503905D01*
X14342857Y-16332476D01*
X14523809Y-16522952D02*
X14504762Y-16532476D01*
X14466667Y-16532476D01*
X14447619Y-16522952D01*
X14438095Y-16503905D01*
X14438095Y-16427714D01*
X14447619Y-16408667D01*
X14466667Y-16399143D01*
X14504762Y-16399143D01*
X14523809Y-16408667D01*
X14533333Y-16427714D01*
X14533333Y-16446762D01*
X14438095Y-16465809D01*
X14609524Y-16522952D02*
X14628571Y-16532476D01*
X14666667Y-16532476D01*
X14685714Y-16522952D01*
X14695238Y-16503905D01*
X14695238Y-16494381D01*
X14685714Y-16475333D01*
X14666667Y-16465809D01*
X14638095Y-16465809D01*
X14619048Y-16456286D01*
X14609524Y-16437238D01*
X14609524Y-16427714D01*
X14619048Y-16408667D01*
X14638095Y-16399143D01*
X14666667Y-16399143D01*
X14685714Y-16408667D01*
X14761905Y-16608667D02*
X14771428Y-16599143D01*
X14790476Y-16570571D01*
X14800000Y-16551524D01*
X14809524Y-16522952D01*
X14819048Y-16475333D01*
X14819048Y-16437238D01*
X14809524Y-16389619D01*
X14800000Y-16361048D01*
X14790476Y-16342000D01*
X14771428Y-16313428D01*
X14761905Y-16303905D01*
D15*
X9940000Y-16756000D02*
X9990000Y-16706000D01*
X9940000Y-16656000D01*
X9890000Y-16706000D01*
X9940000Y-16756000D01*
D10*
X10352381Y-16796476D02*
X10238095Y-16796476D01*
X10295238Y-16796476D02*
X10295238Y-16596476D01*
X10276190Y-16625048D01*
X10257143Y-16644095D01*
X10238095Y-16653619D01*
X10438095Y-16777429D02*
X10447619Y-16786952D01*
X10438095Y-16796476D01*
X10428571Y-16786952D01*
X10438095Y-16777429D01*
X10438095Y-16796476D01*
X10571429Y-16596476D02*
X10590476Y-16596476D01*
X10609524Y-16606000D01*
X10619048Y-16615524D01*
X10628571Y-16634571D01*
X10638095Y-16672667D01*
X10638095Y-16720286D01*
X10628571Y-16758381D01*
X10619048Y-16777429D01*
X10609524Y-16786952D01*
X10590476Y-16796476D01*
X10571429Y-16796476D01*
X10552381Y-16786952D01*
X10542857Y-16777429D01*
X10533333Y-16758381D01*
X10523810Y-16720286D01*
X10523810Y-16672667D01*
X10533333Y-16634571D01*
X10542857Y-16615524D01*
X10552381Y-16606000D01*
X10571429Y-16596476D01*
X10761905Y-16596476D02*
X10780952Y-16596476D01*
X10800000Y-16606000D01*
X10809524Y-16615524D01*
X10819048Y-16634571D01*
X10828571Y-16672667D01*
X10828571Y-16720286D01*
X10819048Y-16758381D01*
X10809524Y-16777429D01*
X10800000Y-16786952D01*
X10780952Y-16796476D01*
X10761905Y-16796476D01*
X10742857Y-16786952D01*
X10733333Y-16777429D01*
X10723810Y-16758381D01*
X10714286Y-16720286D01*
X10714286Y-16672667D01*
X10723810Y-16634571D01*
X10733333Y-16615524D01*
X10742857Y-16606000D01*
X10761905Y-16596476D01*
X10952381Y-16596476D02*
X10971429Y-16596476D01*
X10990476Y-16606000D01*
X11000000Y-16615524D01*
X11009524Y-16634571D01*
X11019048Y-16672667D01*
X11019048Y-16720286D01*
X11009524Y-16758381D01*
X11000000Y-16777429D01*
X10990476Y-16786952D01*
X10971429Y-16796476D01*
X10952381Y-16796476D01*
X10933333Y-16786952D01*
X10923810Y-16777429D01*
X10914286Y-16758381D01*
X10904762Y-16720286D01*
X10904762Y-16672667D01*
X10914286Y-16634571D01*
X10923810Y-16615524D01*
X10933333Y-16606000D01*
X10952381Y-16596476D01*
X11104762Y-16796476D02*
X11104762Y-16663143D01*
X11104762Y-16682190D02*
X11114286Y-16672667D01*
X11133333Y-16663143D01*
X11161905Y-16663143D01*
X11180952Y-16672667D01*
X11190476Y-16691714D01*
X11190476Y-16796476D01*
X11190476Y-16691714D02*
X11200000Y-16672667D01*
X11219048Y-16663143D01*
X11247619Y-16663143D01*
X11266667Y-16672667D01*
X11276190Y-16691714D01*
X11276190Y-16796476D01*
X11371428Y-16796476D02*
X11371428Y-16663143D01*
X11371428Y-16682190D02*
X11380952Y-16672667D01*
X11400000Y-16663143D01*
X11428571Y-16663143D01*
X11447619Y-16672667D01*
X11457143Y-16691714D01*
X11457143Y-16796476D01*
X11457143Y-16691714D02*
X11466667Y-16672667D01*
X11485714Y-16663143D01*
X11514286Y-16663143D01*
X11533333Y-16672667D01*
X11542857Y-16691714D01*
X11542857Y-16796476D01*
X11933333Y-16586952D02*
X11761905Y-16844095D01*
X12190476Y-16596476D02*
X12209524Y-16596476D01*
X12228571Y-16606000D01*
X12238095Y-16615524D01*
X12247619Y-16634571D01*
X12257143Y-16672667D01*
X12257143Y-16720286D01*
X12247619Y-16758381D01*
X12238095Y-16777429D01*
X12228571Y-16786952D01*
X12209524Y-16796476D01*
X12190476Y-16796476D01*
X12171428Y-16786952D01*
X12161905Y-16777429D01*
X12152381Y-16758381D01*
X12142857Y-16720286D01*
X12142857Y-16672667D01*
X12152381Y-16634571D01*
X12161905Y-16615524D01*
X12171428Y-16606000D01*
X12190476Y-16596476D01*
X12342857Y-16777429D02*
X12352381Y-16786952D01*
X12342857Y-16796476D01*
X12333333Y-16786952D01*
X12342857Y-16777429D01*
X12342857Y-16796476D01*
X12476190Y-16596476D02*
X12495238Y-16596476D01*
X12514286Y-16606000D01*
X12523809Y-16615524D01*
X12533333Y-16634571D01*
X12542857Y-16672667D01*
X12542857Y-16720286D01*
X12533333Y-16758381D01*
X12523809Y-16777429D01*
X12514286Y-16786952D01*
X12495238Y-16796476D01*
X12476190Y-16796476D01*
X12457143Y-16786952D01*
X12447619Y-16777429D01*
X12438095Y-16758381D01*
X12428571Y-16720286D01*
X12428571Y-16672667D01*
X12438095Y-16634571D01*
X12447619Y-16615524D01*
X12457143Y-16606000D01*
X12476190Y-16596476D01*
X12609524Y-16596476D02*
X12733333Y-16596476D01*
X12666667Y-16672667D01*
X12695238Y-16672667D01*
X12714286Y-16682190D01*
X12723809Y-16691714D01*
X12733333Y-16710762D01*
X12733333Y-16758381D01*
X12723809Y-16777429D01*
X12714286Y-16786952D01*
X12695238Y-16796476D01*
X12638095Y-16796476D01*
X12619048Y-16786952D01*
X12609524Y-16777429D01*
X12828571Y-16796476D02*
X12866667Y-16796476D01*
X12885714Y-16786952D01*
X12895238Y-16777429D01*
X12914286Y-16748857D01*
X12923809Y-16710762D01*
X12923809Y-16634571D01*
X12914286Y-16615524D01*
X12904762Y-16606000D01*
X12885714Y-16596476D01*
X12847619Y-16596476D01*
X12828571Y-16606000D01*
X12819048Y-16615524D01*
X12809524Y-16634571D01*
X12809524Y-16682190D01*
X12819048Y-16701238D01*
X12828571Y-16710762D01*
X12847619Y-16720286D01*
X12885714Y-16720286D01*
X12904762Y-16710762D01*
X12914286Y-16701238D01*
X12923809Y-16682190D01*
X13095238Y-16663143D02*
X13095238Y-16796476D01*
X13047619Y-16586952D02*
X13000000Y-16729809D01*
X13123809Y-16729809D01*
X13190476Y-16596476D02*
X13190476Y-16634571D01*
X13266667Y-16596476D02*
X13266667Y-16634571D01*
X13561905Y-16872667D02*
X13552381Y-16863143D01*
X13533333Y-16834571D01*
X13523809Y-16815524D01*
X13514286Y-16786952D01*
X13504762Y-16739333D01*
X13504762Y-16701238D01*
X13514286Y-16653619D01*
X13523809Y-16625048D01*
X13533333Y-16606000D01*
X13552381Y-16577428D01*
X13561905Y-16567905D01*
X13619048Y-16596476D02*
X13742857Y-16596476D01*
X13676190Y-16672667D01*
X13704762Y-16672667D01*
X13723809Y-16682190D01*
X13733333Y-16691714D01*
X13742857Y-16710762D01*
X13742857Y-16758381D01*
X13733333Y-16777429D01*
X13723809Y-16786952D01*
X13704762Y-16796476D01*
X13647619Y-16796476D01*
X13628571Y-16786952D01*
X13619048Y-16777429D01*
X13819048Y-16615524D02*
X13828571Y-16606000D01*
X13847619Y-16596476D01*
X13895238Y-16596476D01*
X13914286Y-16606000D01*
X13923809Y-16615524D01*
X13933333Y-16634571D01*
X13933333Y-16653619D01*
X13923809Y-16682190D01*
X13809524Y-16796476D01*
X13933333Y-16796476D01*
X14171428Y-16796476D02*
X14171428Y-16596476D01*
X14257143Y-16796476D02*
X14257143Y-16691714D01*
X14247619Y-16672667D01*
X14228571Y-16663143D01*
X14200000Y-16663143D01*
X14180952Y-16672667D01*
X14171428Y-16682190D01*
X14380952Y-16796476D02*
X14361905Y-16786952D01*
X14352381Y-16777429D01*
X14342857Y-16758381D01*
X14342857Y-16701238D01*
X14352381Y-16682190D01*
X14361905Y-16672667D01*
X14380952Y-16663143D01*
X14409524Y-16663143D01*
X14428571Y-16672667D01*
X14438095Y-16682190D01*
X14447619Y-16701238D01*
X14447619Y-16758381D01*
X14438095Y-16777429D01*
X14428571Y-16786952D01*
X14409524Y-16796476D01*
X14380952Y-16796476D01*
X14561905Y-16796476D02*
X14542857Y-16786952D01*
X14533333Y-16767905D01*
X14533333Y-16596476D01*
X14714286Y-16786952D02*
X14695238Y-16796476D01*
X14657143Y-16796476D01*
X14638095Y-16786952D01*
X14628571Y-16767905D01*
X14628571Y-16691714D01*
X14638095Y-16672667D01*
X14657143Y-16663143D01*
X14695238Y-16663143D01*
X14714286Y-16672667D01*
X14723809Y-16691714D01*
X14723809Y-16710762D01*
X14628571Y-16729809D01*
X14800000Y-16786952D02*
X14819048Y-16796476D01*
X14857143Y-16796476D01*
X14876190Y-16786952D01*
X14885714Y-16767905D01*
X14885714Y-16758381D01*
X14876190Y-16739333D01*
X14857143Y-16729809D01*
X14828571Y-16729809D01*
X14809524Y-16720286D01*
X14800000Y-16701238D01*
X14800000Y-16691714D01*
X14809524Y-16672667D01*
X14828571Y-16663143D01*
X14857143Y-16663143D01*
X14876190Y-16672667D01*
X14952381Y-16872667D02*
X14961905Y-16863143D01*
X14980952Y-16834571D01*
X14990476Y-16815524D01*
X15000000Y-16786952D01*
X15009524Y-16739333D01*
X15009524Y-16701238D01*
X15000000Y-16653619D01*
X14990476Y-16625048D01*
X14980952Y-16606000D01*
X14961905Y-16577428D01*
X14952381Y-16567905D01*
D16*
X9881000Y-16915500D02*
X9990000Y-17024500D01*
X9990000Y-16915500D02*
X9881000Y-17024500D01*
X9990000Y-16970000D02*
G75*
G03*
X9990000Y-16970000I-54500J0D01*
G01*
D10*
X10352381Y-17060476D02*
X10238095Y-17060476D01*
X10295238Y-17060476D02*
X10295238Y-16860476D01*
X10276190Y-16889048D01*
X10257143Y-16908095D01*
X10238095Y-16917619D01*
X10438095Y-17041429D02*
X10447619Y-17050952D01*
X10438095Y-17060476D01*
X10428571Y-17050952D01*
X10438095Y-17041429D01*
X10438095Y-17060476D01*
X10571429Y-16860476D02*
X10590476Y-16860476D01*
X10609524Y-16870000D01*
X10619048Y-16879524D01*
X10628571Y-16898571D01*
X10638095Y-16936667D01*
X10638095Y-16984286D01*
X10628571Y-17022381D01*
X10619048Y-17041429D01*
X10609524Y-17050952D01*
X10590476Y-17060476D01*
X10571429Y-17060476D01*
X10552381Y-17050952D01*
X10542857Y-17041429D01*
X10533333Y-17022381D01*
X10523810Y-16984286D01*
X10523810Y-16936667D01*
X10533333Y-16898571D01*
X10542857Y-16879524D01*
X10552381Y-16870000D01*
X10571429Y-16860476D01*
X10733333Y-17060476D02*
X10771429Y-17060476D01*
X10790476Y-17050952D01*
X10800000Y-17041429D01*
X10819048Y-17012857D01*
X10828571Y-16974762D01*
X10828571Y-16898571D01*
X10819048Y-16879524D01*
X10809524Y-16870000D01*
X10790476Y-16860476D01*
X10752381Y-16860476D01*
X10733333Y-16870000D01*
X10723810Y-16879524D01*
X10714286Y-16898571D01*
X10714286Y-16946190D01*
X10723810Y-16965238D01*
X10733333Y-16974762D01*
X10752381Y-16984286D01*
X10790476Y-16984286D01*
X10809524Y-16974762D01*
X10819048Y-16965238D01*
X10828571Y-16946190D01*
X10952381Y-16860476D02*
X10971429Y-16860476D01*
X10990476Y-16870000D01*
X11000000Y-16879524D01*
X11009524Y-16898571D01*
X11019048Y-16936667D01*
X11019048Y-16984286D01*
X11009524Y-17022381D01*
X11000000Y-17041429D01*
X10990476Y-17050952D01*
X10971429Y-17060476D01*
X10952381Y-17060476D01*
X10933333Y-17050952D01*
X10923810Y-17041429D01*
X10914286Y-17022381D01*
X10904762Y-16984286D01*
X10904762Y-16936667D01*
X10914286Y-16898571D01*
X10923810Y-16879524D01*
X10933333Y-16870000D01*
X10952381Y-16860476D01*
X11104762Y-17060476D02*
X11104762Y-16927143D01*
X11104762Y-16946190D02*
X11114286Y-16936667D01*
X11133333Y-16927143D01*
X11161905Y-16927143D01*
X11180952Y-16936667D01*
X11190476Y-16955714D01*
X11190476Y-17060476D01*
X11190476Y-16955714D02*
X11200000Y-16936667D01*
X11219048Y-16927143D01*
X11247619Y-16927143D01*
X11266667Y-16936667D01*
X11276190Y-16955714D01*
X11276190Y-17060476D01*
X11371428Y-17060476D02*
X11371428Y-16927143D01*
X11371428Y-16946190D02*
X11380952Y-16936667D01*
X11400000Y-16927143D01*
X11428571Y-16927143D01*
X11447619Y-16936667D01*
X11457143Y-16955714D01*
X11457143Y-17060476D01*
X11457143Y-16955714D02*
X11466667Y-16936667D01*
X11485714Y-16927143D01*
X11514286Y-16927143D01*
X11533333Y-16936667D01*
X11542857Y-16955714D01*
X11542857Y-17060476D01*
X11933333Y-16850952D02*
X11761905Y-17108095D01*
X12190476Y-16860476D02*
X12209524Y-16860476D01*
X12228571Y-16870000D01*
X12238095Y-16879524D01*
X12247619Y-16898571D01*
X12257143Y-16936667D01*
X12257143Y-16984286D01*
X12247619Y-17022381D01*
X12238095Y-17041429D01*
X12228571Y-17050952D01*
X12209524Y-17060476D01*
X12190476Y-17060476D01*
X12171428Y-17050952D01*
X12161905Y-17041429D01*
X12152381Y-17022381D01*
X12142857Y-16984286D01*
X12142857Y-16936667D01*
X12152381Y-16898571D01*
X12161905Y-16879524D01*
X12171428Y-16870000D01*
X12190476Y-16860476D01*
X12342857Y-17041429D02*
X12352381Y-17050952D01*
X12342857Y-17060476D01*
X12333333Y-17050952D01*
X12342857Y-17041429D01*
X12342857Y-17060476D01*
X12476190Y-16860476D02*
X12495238Y-16860476D01*
X12514286Y-16870000D01*
X12523809Y-16879524D01*
X12533333Y-16898571D01*
X12542857Y-16936667D01*
X12542857Y-16984286D01*
X12533333Y-17022381D01*
X12523809Y-17041429D01*
X12514286Y-17050952D01*
X12495238Y-17060476D01*
X12476190Y-17060476D01*
X12457143Y-17050952D01*
X12447619Y-17041429D01*
X12438095Y-17022381D01*
X12428571Y-16984286D01*
X12428571Y-16936667D01*
X12438095Y-16898571D01*
X12447619Y-16879524D01*
X12457143Y-16870000D01*
X12476190Y-16860476D01*
X12714286Y-16927143D02*
X12714286Y-17060476D01*
X12666667Y-16850952D02*
X12619048Y-16993810D01*
X12742857Y-16993810D01*
X12809524Y-16879524D02*
X12819048Y-16870000D01*
X12838095Y-16860476D01*
X12885714Y-16860476D01*
X12904762Y-16870000D01*
X12914286Y-16879524D01*
X12923809Y-16898571D01*
X12923809Y-16917619D01*
X12914286Y-16946190D01*
X12800000Y-17060476D01*
X12923809Y-17060476D01*
X13019048Y-17060476D02*
X13057143Y-17060476D01*
X13076190Y-17050952D01*
X13085714Y-17041429D01*
X13104762Y-17012857D01*
X13114286Y-16974762D01*
X13114286Y-16898571D01*
X13104762Y-16879524D01*
X13095238Y-16870000D01*
X13076190Y-16860476D01*
X13038095Y-16860476D01*
X13019048Y-16870000D01*
X13009524Y-16879524D01*
X13000000Y-16898571D01*
X13000000Y-16946190D01*
X13009524Y-16965238D01*
X13019048Y-16974762D01*
X13038095Y-16984286D01*
X13076190Y-16984286D01*
X13095238Y-16974762D01*
X13104762Y-16965238D01*
X13114286Y-16946190D01*
X13190476Y-16860476D02*
X13190476Y-16898571D01*
X13266667Y-16860476D02*
X13266667Y-16898571D01*
X13561905Y-17136667D02*
X13552381Y-17127143D01*
X13533333Y-17098571D01*
X13523809Y-17079524D01*
X13514286Y-17050952D01*
X13504762Y-17003333D01*
X13504762Y-16965238D01*
X13514286Y-16917619D01*
X13523809Y-16889048D01*
X13533333Y-16870000D01*
X13552381Y-16841429D01*
X13561905Y-16831905D01*
X13666667Y-16946190D02*
X13647619Y-16936667D01*
X13638095Y-16927143D01*
X13628571Y-16908095D01*
X13628571Y-16898571D01*
X13638095Y-16879524D01*
X13647619Y-16870000D01*
X13666667Y-16860476D01*
X13704762Y-16860476D01*
X13723809Y-16870000D01*
X13733333Y-16879524D01*
X13742857Y-16898571D01*
X13742857Y-16908095D01*
X13733333Y-16927143D01*
X13723809Y-16936667D01*
X13704762Y-16946190D01*
X13666667Y-16946190D01*
X13647619Y-16955714D01*
X13638095Y-16965238D01*
X13628571Y-16984286D01*
X13628571Y-17022381D01*
X13638095Y-17041429D01*
X13647619Y-17050952D01*
X13666667Y-17060476D01*
X13704762Y-17060476D01*
X13723809Y-17050952D01*
X13733333Y-17041429D01*
X13742857Y-17022381D01*
X13742857Y-16984286D01*
X13733333Y-16965238D01*
X13723809Y-16955714D01*
X13704762Y-16946190D01*
X13980952Y-17060476D02*
X13980952Y-16860476D01*
X14066667Y-17060476D02*
X14066667Y-16955714D01*
X14057143Y-16936667D01*
X14038095Y-16927143D01*
X14009524Y-16927143D01*
X13990476Y-16936667D01*
X13980952Y-16946190D01*
X14190476Y-17060476D02*
X14171428Y-17050952D01*
X14161905Y-17041429D01*
X14152381Y-17022381D01*
X14152381Y-16965238D01*
X14161905Y-16946190D01*
X14171428Y-16936667D01*
X14190476Y-16927143D01*
X14219048Y-16927143D01*
X14238095Y-16936667D01*
X14247619Y-16946190D01*
X14257143Y-16965238D01*
X14257143Y-17022381D01*
X14247619Y-17041429D01*
X14238095Y-17050952D01*
X14219048Y-17060476D01*
X14190476Y-17060476D01*
X14371428Y-17060476D02*
X14352381Y-17050952D01*
X14342857Y-17031905D01*
X14342857Y-16860476D01*
X14523809Y-17050952D02*
X14504762Y-17060476D01*
X14466667Y-17060476D01*
X14447619Y-17050952D01*
X14438095Y-17031905D01*
X14438095Y-16955714D01*
X14447619Y-16936667D01*
X14466667Y-16927143D01*
X14504762Y-16927143D01*
X14523809Y-16936667D01*
X14533333Y-16955714D01*
X14533333Y-16974762D01*
X14438095Y-16993810D01*
X14609524Y-17050952D02*
X14628571Y-17060476D01*
X14666667Y-17060476D01*
X14685714Y-17050952D01*
X14695238Y-17031905D01*
X14695238Y-17022381D01*
X14685714Y-17003333D01*
X14666667Y-16993810D01*
X14638095Y-16993810D01*
X14619048Y-16984286D01*
X14609524Y-16965238D01*
X14609524Y-16955714D01*
X14619048Y-16936667D01*
X14638095Y-16927143D01*
X14666667Y-16927143D01*
X14685714Y-16936667D01*
X14761905Y-17136667D02*
X14771428Y-17127143D01*
X14790476Y-17098571D01*
X14800000Y-17079524D01*
X14809524Y-17050952D01*
X14819048Y-17003333D01*
X14819048Y-16965238D01*
X14809524Y-16917619D01*
X14800000Y-16889048D01*
X14790476Y-16870000D01*
X14771428Y-16841429D01*
X14761905Y-16831905D01*
D17*
X9873160Y-17175580D02*
X9990000Y-17292420D01*
X9990000Y-17175580D02*
X9873160Y-17292420D01*
X9931580Y-17175580D02*
X9931580Y-17292420D01*
X9873160Y-17234000D02*
X9990000Y-17234000D01*
D10*
X10352381Y-17324476D02*
X10238095Y-17324476D01*
X10295238Y-17324476D02*
X10295238Y-17124476D01*
X10276190Y-17153048D01*
X10257143Y-17172095D01*
X10238095Y-17181619D01*
X10438095Y-17305429D02*
X10447619Y-17314952D01*
X10438095Y-17324476D01*
X10428571Y-17314952D01*
X10438095Y-17305429D01*
X10438095Y-17324476D01*
X10638095Y-17324476D02*
X10523810Y-17324476D01*
X10580952Y-17324476D02*
X10580952Y-17124476D01*
X10561905Y-17153048D01*
X10542857Y-17172095D01*
X10523810Y-17181619D01*
X10809524Y-17124476D02*
X10771429Y-17124476D01*
X10752381Y-17134000D01*
X10742857Y-17143524D01*
X10723810Y-17172095D01*
X10714286Y-17210190D01*
X10714286Y-17286381D01*
X10723810Y-17305429D01*
X10733333Y-17314952D01*
X10752381Y-17324476D01*
X10790476Y-17324476D01*
X10809524Y-17314952D01*
X10819048Y-17305429D01*
X10828571Y-17286381D01*
X10828571Y-17238762D01*
X10819048Y-17219714D01*
X10809524Y-17210190D01*
X10790476Y-17200667D01*
X10752381Y-17200667D01*
X10733333Y-17210190D01*
X10723810Y-17219714D01*
X10714286Y-17238762D01*
X10942857Y-17210190D02*
X10923810Y-17200667D01*
X10914286Y-17191143D01*
X10904762Y-17172095D01*
X10904762Y-17162571D01*
X10914286Y-17143524D01*
X10923810Y-17134000D01*
X10942857Y-17124476D01*
X10980952Y-17124476D01*
X11000000Y-17134000D01*
X11009524Y-17143524D01*
X11019048Y-17162571D01*
X11019048Y-17172095D01*
X11009524Y-17191143D01*
X11000000Y-17200667D01*
X10980952Y-17210190D01*
X10942857Y-17210190D01*
X10923810Y-17219714D01*
X10914286Y-17229238D01*
X10904762Y-17248286D01*
X10904762Y-17286381D01*
X10914286Y-17305429D01*
X10923810Y-17314952D01*
X10942857Y-17324476D01*
X10980952Y-17324476D01*
X11000000Y-17314952D01*
X11009524Y-17305429D01*
X11019048Y-17286381D01*
X11019048Y-17248286D01*
X11009524Y-17229238D01*
X11000000Y-17219714D01*
X10980952Y-17210190D01*
X11104762Y-17324476D02*
X11104762Y-17191143D01*
X11104762Y-17210190D02*
X11114286Y-17200667D01*
X11133333Y-17191143D01*
X11161905Y-17191143D01*
X11180952Y-17200667D01*
X11190476Y-17219714D01*
X11190476Y-17324476D01*
X11190476Y-17219714D02*
X11200000Y-17200667D01*
X11219048Y-17191143D01*
X11247619Y-17191143D01*
X11266667Y-17200667D01*
X11276190Y-17219714D01*
X11276190Y-17324476D01*
X11371428Y-17324476D02*
X11371428Y-17191143D01*
X11371428Y-17210190D02*
X11380952Y-17200667D01*
X11400000Y-17191143D01*
X11428571Y-17191143D01*
X11447619Y-17200667D01*
X11457143Y-17219714D01*
X11457143Y-17324476D01*
X11457143Y-17219714D02*
X11466667Y-17200667D01*
X11485714Y-17191143D01*
X11514286Y-17191143D01*
X11533333Y-17200667D01*
X11542857Y-17219714D01*
X11542857Y-17324476D01*
X11933333Y-17114952D02*
X11761905Y-17372095D01*
X12190476Y-17124476D02*
X12209524Y-17124476D01*
X12228571Y-17134000D01*
X12238095Y-17143524D01*
X12247619Y-17162571D01*
X12257143Y-17200667D01*
X12257143Y-17248286D01*
X12247619Y-17286381D01*
X12238095Y-17305429D01*
X12228571Y-17314952D01*
X12209524Y-17324476D01*
X12190476Y-17324476D01*
X12171428Y-17314952D01*
X12161905Y-17305429D01*
X12152381Y-17286381D01*
X12142857Y-17248286D01*
X12142857Y-17200667D01*
X12152381Y-17162571D01*
X12161905Y-17143524D01*
X12171428Y-17134000D01*
X12190476Y-17124476D01*
X12342857Y-17305429D02*
X12352381Y-17314952D01*
X12342857Y-17324476D01*
X12333333Y-17314952D01*
X12342857Y-17305429D01*
X12342857Y-17324476D01*
X12476190Y-17124476D02*
X12495238Y-17124476D01*
X12514286Y-17134000D01*
X12523809Y-17143524D01*
X12533333Y-17162571D01*
X12542857Y-17200667D01*
X12542857Y-17248286D01*
X12533333Y-17286381D01*
X12523809Y-17305429D01*
X12514286Y-17314952D01*
X12495238Y-17324476D01*
X12476190Y-17324476D01*
X12457143Y-17314952D01*
X12447619Y-17305429D01*
X12438095Y-17286381D01*
X12428571Y-17248286D01*
X12428571Y-17200667D01*
X12438095Y-17162571D01*
X12447619Y-17143524D01*
X12457143Y-17134000D01*
X12476190Y-17124476D01*
X12714286Y-17191143D02*
X12714286Y-17324476D01*
X12666667Y-17114952D02*
X12619048Y-17257810D01*
X12742857Y-17257810D01*
X12904762Y-17124476D02*
X12866667Y-17124476D01*
X12847619Y-17134000D01*
X12838095Y-17143524D01*
X12819048Y-17172095D01*
X12809524Y-17210190D01*
X12809524Y-17286381D01*
X12819048Y-17305429D01*
X12828571Y-17314952D01*
X12847619Y-17324476D01*
X12885714Y-17324476D01*
X12904762Y-17314952D01*
X12914286Y-17305429D01*
X12923809Y-17286381D01*
X12923809Y-17238762D01*
X12914286Y-17219714D01*
X12904762Y-17210190D01*
X12885714Y-17200667D01*
X12847619Y-17200667D01*
X12828571Y-17210190D01*
X12819048Y-17219714D01*
X12809524Y-17238762D01*
X13047619Y-17124476D02*
X13066667Y-17124476D01*
X13085714Y-17134000D01*
X13095238Y-17143524D01*
X13104762Y-17162571D01*
X13114286Y-17200667D01*
X13114286Y-17248286D01*
X13104762Y-17286381D01*
X13095238Y-17305429D01*
X13085714Y-17314952D01*
X13066667Y-17324476D01*
X13047619Y-17324476D01*
X13028571Y-17314952D01*
X13019048Y-17305429D01*
X13009524Y-17286381D01*
X13000000Y-17248286D01*
X13000000Y-17200667D01*
X13009524Y-17162571D01*
X13019048Y-17143524D01*
X13028571Y-17134000D01*
X13047619Y-17124476D01*
X13190476Y-17124476D02*
X13190476Y-17162571D01*
X13266667Y-17124476D02*
X13266667Y-17162571D01*
X13561905Y-17400667D02*
X13552381Y-17391143D01*
X13533333Y-17362571D01*
X13523809Y-17343524D01*
X13514286Y-17314952D01*
X13504762Y-17267333D01*
X13504762Y-17229238D01*
X13514286Y-17181619D01*
X13523809Y-17153048D01*
X13533333Y-17134000D01*
X13552381Y-17105429D01*
X13561905Y-17095905D01*
X13723809Y-17191143D02*
X13723809Y-17324476D01*
X13676190Y-17114952D02*
X13628571Y-17257810D01*
X13752381Y-17257810D01*
X13980952Y-17324476D02*
X13980952Y-17124476D01*
X14066667Y-17324476D02*
X14066667Y-17219714D01*
X14057143Y-17200667D01*
X14038095Y-17191143D01*
X14009524Y-17191143D01*
X13990476Y-17200667D01*
X13980952Y-17210190D01*
X14190476Y-17324476D02*
X14171428Y-17314952D01*
X14161905Y-17305429D01*
X14152381Y-17286381D01*
X14152381Y-17229238D01*
X14161905Y-17210190D01*
X14171428Y-17200667D01*
X14190476Y-17191143D01*
X14219048Y-17191143D01*
X14238095Y-17200667D01*
X14247619Y-17210190D01*
X14257143Y-17229238D01*
X14257143Y-17286381D01*
X14247619Y-17305429D01*
X14238095Y-17314952D01*
X14219048Y-17324476D01*
X14190476Y-17324476D01*
X14371428Y-17324476D02*
X14352381Y-17314952D01*
X14342857Y-17295905D01*
X14342857Y-17124476D01*
X14523809Y-17314952D02*
X14504762Y-17324476D01*
X14466667Y-17324476D01*
X14447619Y-17314952D01*
X14438095Y-17295905D01*
X14438095Y-17219714D01*
X14447619Y-17200667D01*
X14466667Y-17191143D01*
X14504762Y-17191143D01*
X14523809Y-17200667D01*
X14533333Y-17219714D01*
X14533333Y-17238762D01*
X14438095Y-17257810D01*
X14609524Y-17314952D02*
X14628571Y-17324476D01*
X14666667Y-17324476D01*
X14685714Y-17314952D01*
X14695238Y-17295905D01*
X14695238Y-17286381D01*
X14685714Y-17267333D01*
X14666667Y-17257810D01*
X14638095Y-17257810D01*
X14619048Y-17248286D01*
X14609524Y-17229238D01*
X14609524Y-17219714D01*
X14619048Y-17200667D01*
X14638095Y-17191143D01*
X14666667Y-17191143D01*
X14685714Y-17200667D01*
X14761905Y-17400667D02*
X14771428Y-17391143D01*
X14790476Y-17362571D01*
X14800000Y-17343524D01*
X14809524Y-17314952D01*
X14819048Y-17267333D01*
X14819048Y-17229238D01*
X14809524Y-17181619D01*
X14800000Y-17153048D01*
X14790476Y-17134000D01*
X14771428Y-17105429D01*
X14761905Y-17095905D01*
D18*
X9840000Y-17423000D02*
X9990000Y-17573000D01*
X9990000Y-17423000D02*
X9840000Y-17573000D01*
X9968034Y-17551034D02*
X9968034Y-17444967D01*
X9861967Y-17444967D01*
X9861967Y-17551034D01*
X9968034Y-17551034D01*
D10*
X10352381Y-17588476D02*
X10238095Y-17588476D01*
X10295238Y-17588476D02*
X10295238Y-17388476D01*
X10276190Y-17417048D01*
X10257143Y-17436095D01*
X10238095Y-17445619D01*
X10438095Y-17569429D02*
X10447619Y-17578952D01*
X10438095Y-17588476D01*
X10428571Y-17578952D01*
X10438095Y-17569429D01*
X10438095Y-17588476D01*
X10628571Y-17388476D02*
X10533333Y-17388476D01*
X10523810Y-17483714D01*
X10533333Y-17474190D01*
X10552381Y-17464667D01*
X10600000Y-17464667D01*
X10619048Y-17474190D01*
X10628571Y-17483714D01*
X10638095Y-17502762D01*
X10638095Y-17550381D01*
X10628571Y-17569429D01*
X10619048Y-17578952D01*
X10600000Y-17588476D01*
X10552381Y-17588476D01*
X10533333Y-17578952D01*
X10523810Y-17569429D01*
X10761905Y-17388476D02*
X10780952Y-17388476D01*
X10800000Y-17398000D01*
X10809524Y-17407524D01*
X10819048Y-17426571D01*
X10828571Y-17464667D01*
X10828571Y-17512286D01*
X10819048Y-17550381D01*
X10809524Y-17569429D01*
X10800000Y-17578952D01*
X10780952Y-17588476D01*
X10761905Y-17588476D01*
X10742857Y-17578952D01*
X10733333Y-17569429D01*
X10723810Y-17550381D01*
X10714286Y-17512286D01*
X10714286Y-17464667D01*
X10723810Y-17426571D01*
X10733333Y-17407524D01*
X10742857Y-17398000D01*
X10761905Y-17388476D01*
X10952381Y-17388476D02*
X10971429Y-17388476D01*
X10990476Y-17398000D01*
X11000000Y-17407524D01*
X11009524Y-17426571D01*
X11019048Y-17464667D01*
X11019048Y-17512286D01*
X11009524Y-17550381D01*
X11000000Y-17569429D01*
X10990476Y-17578952D01*
X10971429Y-17588476D01*
X10952381Y-17588476D01*
X10933333Y-17578952D01*
X10923810Y-17569429D01*
X10914286Y-17550381D01*
X10904762Y-17512286D01*
X10904762Y-17464667D01*
X10914286Y-17426571D01*
X10923810Y-17407524D01*
X10933333Y-17398000D01*
X10952381Y-17388476D01*
X11104762Y-17588476D02*
X11104762Y-17455143D01*
X11104762Y-17474190D02*
X11114286Y-17464667D01*
X11133333Y-17455143D01*
X11161905Y-17455143D01*
X11180952Y-17464667D01*
X11190476Y-17483714D01*
X11190476Y-17588476D01*
X11190476Y-17483714D02*
X11200000Y-17464667D01*
X11219048Y-17455143D01*
X11247619Y-17455143D01*
X11266667Y-17464667D01*
X11276190Y-17483714D01*
X11276190Y-17588476D01*
X11371428Y-17588476D02*
X11371428Y-17455143D01*
X11371428Y-17474190D02*
X11380952Y-17464667D01*
X11400000Y-17455143D01*
X11428571Y-17455143D01*
X11447619Y-17464667D01*
X11457143Y-17483714D01*
X11457143Y-17588476D01*
X11457143Y-17483714D02*
X11466667Y-17464667D01*
X11485714Y-17455143D01*
X11514286Y-17455143D01*
X11533333Y-17464667D01*
X11542857Y-17483714D01*
X11542857Y-17588476D01*
X11933333Y-17378952D02*
X11761905Y-17636095D01*
X12190476Y-17388476D02*
X12209524Y-17388476D01*
X12228571Y-17398000D01*
X12238095Y-17407524D01*
X12247619Y-17426571D01*
X12257143Y-17464667D01*
X12257143Y-17512286D01*
X12247619Y-17550381D01*
X12238095Y-17569429D01*
X12228571Y-17578952D01*
X12209524Y-17588476D01*
X12190476Y-17588476D01*
X12171428Y-17578952D01*
X12161905Y-17569429D01*
X12152381Y-17550381D01*
X12142857Y-17512286D01*
X12142857Y-17464667D01*
X12152381Y-17426571D01*
X12161905Y-17407524D01*
X12171428Y-17398000D01*
X12190476Y-17388476D01*
X12342857Y-17569429D02*
X12352381Y-17578952D01*
X12342857Y-17588476D01*
X12333333Y-17578952D01*
X12342857Y-17569429D01*
X12342857Y-17588476D01*
X12476190Y-17388476D02*
X12495238Y-17388476D01*
X12514286Y-17398000D01*
X12523809Y-17407524D01*
X12533333Y-17426571D01*
X12542857Y-17464667D01*
X12542857Y-17512286D01*
X12533333Y-17550381D01*
X12523809Y-17569429D01*
X12514286Y-17578952D01*
X12495238Y-17588476D01*
X12476190Y-17588476D01*
X12457143Y-17578952D01*
X12447619Y-17569429D01*
X12438095Y-17550381D01*
X12428571Y-17512286D01*
X12428571Y-17464667D01*
X12438095Y-17426571D01*
X12447619Y-17407524D01*
X12457143Y-17398000D01*
X12476190Y-17388476D01*
X12723809Y-17388476D02*
X12628571Y-17388476D01*
X12619048Y-17483714D01*
X12628571Y-17474190D01*
X12647619Y-17464667D01*
X12695238Y-17464667D01*
X12714286Y-17474190D01*
X12723809Y-17483714D01*
X12733333Y-17502762D01*
X12733333Y-17550381D01*
X12723809Y-17569429D01*
X12714286Y-17578952D01*
X12695238Y-17588476D01*
X12647619Y-17588476D01*
X12628571Y-17578952D01*
X12619048Y-17569429D01*
X12828571Y-17588476D02*
X12866667Y-17588476D01*
X12885714Y-17578952D01*
X12895238Y-17569429D01*
X12914286Y-17540857D01*
X12923809Y-17502762D01*
X12923809Y-17426571D01*
X12914286Y-17407524D01*
X12904762Y-17398000D01*
X12885714Y-17388476D01*
X12847619Y-17388476D01*
X12828571Y-17398000D01*
X12819048Y-17407524D01*
X12809524Y-17426571D01*
X12809524Y-17474190D01*
X12819048Y-17493238D01*
X12828571Y-17502762D01*
X12847619Y-17512286D01*
X12885714Y-17512286D01*
X12904762Y-17502762D01*
X12914286Y-17493238D01*
X12923809Y-17474190D01*
X13114286Y-17588476D02*
X13000000Y-17588476D01*
X13057143Y-17588476D02*
X13057143Y-17388476D01*
X13038095Y-17417048D01*
X13019048Y-17436095D01*
X13000000Y-17445619D01*
X13190476Y-17388476D02*
X13190476Y-17426571D01*
X13266667Y-17388476D02*
X13266667Y-17426571D01*
X13561905Y-17664667D02*
X13552381Y-17655143D01*
X13533333Y-17626571D01*
X13523809Y-17607524D01*
X13514286Y-17578952D01*
X13504762Y-17531333D01*
X13504762Y-17493238D01*
X13514286Y-17445619D01*
X13523809Y-17417048D01*
X13533333Y-17398000D01*
X13552381Y-17369429D01*
X13561905Y-17359905D01*
X13723809Y-17455143D02*
X13723809Y-17588476D01*
X13676190Y-17378952D02*
X13628571Y-17521810D01*
X13752381Y-17521810D01*
X13980952Y-17588476D02*
X13980952Y-17388476D01*
X14066667Y-17588476D02*
X14066667Y-17483714D01*
X14057143Y-17464667D01*
X14038095Y-17455143D01*
X14009524Y-17455143D01*
X13990476Y-17464667D01*
X13980952Y-17474190D01*
X14190476Y-17588476D02*
X14171428Y-17578952D01*
X14161905Y-17569429D01*
X14152381Y-17550381D01*
X14152381Y-17493238D01*
X14161905Y-17474190D01*
X14171428Y-17464667D01*
X14190476Y-17455143D01*
X14219048Y-17455143D01*
X14238095Y-17464667D01*
X14247619Y-17474190D01*
X14257143Y-17493238D01*
X14257143Y-17550381D01*
X14247619Y-17569429D01*
X14238095Y-17578952D01*
X14219048Y-17588476D01*
X14190476Y-17588476D01*
X14371428Y-17588476D02*
X14352381Y-17578952D01*
X14342857Y-17559905D01*
X14342857Y-17388476D01*
X14523809Y-17578952D02*
X14504762Y-17588476D01*
X14466667Y-17588476D01*
X14447619Y-17578952D01*
X14438095Y-17559905D01*
X14438095Y-17483714D01*
X14447619Y-17464667D01*
X14466667Y-17455143D01*
X14504762Y-17455143D01*
X14523809Y-17464667D01*
X14533333Y-17483714D01*
X14533333Y-17502762D01*
X14438095Y-17521810D01*
X14609524Y-17578952D02*
X14628571Y-17588476D01*
X14666667Y-17588476D01*
X14685714Y-17578952D01*
X14695238Y-17559905D01*
X14695238Y-17550381D01*
X14685714Y-17531333D01*
X14666667Y-17521810D01*
X14638095Y-17521810D01*
X14619048Y-17512286D01*
X14609524Y-17493238D01*
X14609524Y-17483714D01*
X14619048Y-17464667D01*
X14638095Y-17455143D01*
X14666667Y-17455143D01*
X14685714Y-17464667D01*
X14761905Y-17664667D02*
X14771428Y-17655143D01*
X14790476Y-17626571D01*
X14800000Y-17607524D01*
X14809524Y-17578952D01*
X14819048Y-17531333D01*
X14819048Y-17493238D01*
X14809524Y-17445619D01*
X14800000Y-17417048D01*
X14790476Y-17398000D01*
X14771428Y-17369429D01*
X14761905Y-17359905D01*
D19*
X9810000Y-17678000D02*
X9990000Y-17858000D01*
X9990000Y-17678000D02*
X9810000Y-17858000D01*
X9900000Y-17858000D02*
X9990000Y-17768000D01*
X9900000Y-17678000D01*
X9810000Y-17768000D01*
X9900000Y-17858000D01*
D10*
X10352381Y-17858476D02*
X10238095Y-17858476D01*
X10295238Y-17858476D02*
X10295238Y-17658476D01*
X10276190Y-17687048D01*
X10257143Y-17706095D01*
X10238095Y-17715619D01*
X10438095Y-17839429D02*
X10447619Y-17848952D01*
X10438095Y-17858476D01*
X10428571Y-17848952D01*
X10438095Y-17839429D01*
X10438095Y-17858476D01*
X10561905Y-17744190D02*
X10542857Y-17734667D01*
X10533333Y-17725143D01*
X10523810Y-17706095D01*
X10523810Y-17696571D01*
X10533333Y-17677524D01*
X10542857Y-17668000D01*
X10561905Y-17658476D01*
X10600000Y-17658476D01*
X10619048Y-17668000D01*
X10628571Y-17677524D01*
X10638095Y-17696571D01*
X10638095Y-17706095D01*
X10628571Y-17725143D01*
X10619048Y-17734667D01*
X10600000Y-17744190D01*
X10561905Y-17744190D01*
X10542857Y-17753714D01*
X10533333Y-17763238D01*
X10523810Y-17782286D01*
X10523810Y-17820381D01*
X10533333Y-17839429D01*
X10542857Y-17848952D01*
X10561905Y-17858476D01*
X10600000Y-17858476D01*
X10619048Y-17848952D01*
X10628571Y-17839429D01*
X10638095Y-17820381D01*
X10638095Y-17782286D01*
X10628571Y-17763238D01*
X10619048Y-17753714D01*
X10600000Y-17744190D01*
X10761905Y-17658476D02*
X10780952Y-17658476D01*
X10800000Y-17668000D01*
X10809524Y-17677524D01*
X10819048Y-17696571D01*
X10828571Y-17734667D01*
X10828571Y-17782286D01*
X10819048Y-17820381D01*
X10809524Y-17839429D01*
X10800000Y-17848952D01*
X10780952Y-17858476D01*
X10761905Y-17858476D01*
X10742857Y-17848952D01*
X10733333Y-17839429D01*
X10723810Y-17820381D01*
X10714286Y-17782286D01*
X10714286Y-17734667D01*
X10723810Y-17696571D01*
X10733333Y-17677524D01*
X10742857Y-17668000D01*
X10761905Y-17658476D01*
X10952381Y-17658476D02*
X10971429Y-17658476D01*
X10990476Y-17668000D01*
X11000000Y-17677524D01*
X11009524Y-17696571D01*
X11019048Y-17734667D01*
X11019048Y-17782286D01*
X11009524Y-17820381D01*
X11000000Y-17839429D01*
X10990476Y-17848952D01*
X10971429Y-17858476D01*
X10952381Y-17858476D01*
X10933333Y-17848952D01*
X10923810Y-17839429D01*
X10914286Y-17820381D01*
X10904762Y-17782286D01*
X10904762Y-17734667D01*
X10914286Y-17696571D01*
X10923810Y-17677524D01*
X10933333Y-17668000D01*
X10952381Y-17658476D01*
X11104762Y-17858476D02*
X11104762Y-17725143D01*
X11104762Y-17744190D02*
X11114286Y-17734667D01*
X11133333Y-17725143D01*
X11161905Y-17725143D01*
X11180952Y-17734667D01*
X11190476Y-17753714D01*
X11190476Y-17858476D01*
X11190476Y-17753714D02*
X11200000Y-17734667D01*
X11219048Y-17725143D01*
X11247619Y-17725143D01*
X11266667Y-17734667D01*
X11276190Y-17753714D01*
X11276190Y-17858476D01*
X11371428Y-17858476D02*
X11371428Y-17725143D01*
X11371428Y-17744190D02*
X11380952Y-17734667D01*
X11400000Y-17725143D01*
X11428571Y-17725143D01*
X11447619Y-17734667D01*
X11457143Y-17753714D01*
X11457143Y-17858476D01*
X11457143Y-17753714D02*
X11466667Y-17734667D01*
X11485714Y-17725143D01*
X11514286Y-17725143D01*
X11533333Y-17734667D01*
X11542857Y-17753714D01*
X11542857Y-17858476D01*
X11933333Y-17648952D02*
X11761905Y-17906095D01*
X12190476Y-17658476D02*
X12209524Y-17658476D01*
X12228571Y-17668000D01*
X12238095Y-17677524D01*
X12247619Y-17696571D01*
X12257143Y-17734667D01*
X12257143Y-17782286D01*
X12247619Y-17820381D01*
X12238095Y-17839429D01*
X12228571Y-17848952D01*
X12209524Y-17858476D01*
X12190476Y-17858476D01*
X12171428Y-17848952D01*
X12161905Y-17839429D01*
X12152381Y-17820381D01*
X12142857Y-17782286D01*
X12142857Y-17734667D01*
X12152381Y-17696571D01*
X12161905Y-17677524D01*
X12171428Y-17668000D01*
X12190476Y-17658476D01*
X12342857Y-17839429D02*
X12352381Y-17848952D01*
X12342857Y-17858476D01*
X12333333Y-17848952D01*
X12342857Y-17839429D01*
X12342857Y-17858476D01*
X12476190Y-17658476D02*
X12495238Y-17658476D01*
X12514286Y-17668000D01*
X12523809Y-17677524D01*
X12533333Y-17696571D01*
X12542857Y-17734667D01*
X12542857Y-17782286D01*
X12533333Y-17820381D01*
X12523809Y-17839429D01*
X12514286Y-17848952D01*
X12495238Y-17858476D01*
X12476190Y-17858476D01*
X12457143Y-17848952D01*
X12447619Y-17839429D01*
X12438095Y-17820381D01*
X12428571Y-17782286D01*
X12428571Y-17734667D01*
X12438095Y-17696571D01*
X12447619Y-17677524D01*
X12457143Y-17668000D01*
X12476190Y-17658476D01*
X12609524Y-17658476D02*
X12742857Y-17658476D01*
X12657143Y-17858476D01*
X12857143Y-17658476D02*
X12876190Y-17658476D01*
X12895238Y-17668000D01*
X12904762Y-17677524D01*
X12914286Y-17696571D01*
X12923809Y-17734667D01*
X12923809Y-17782286D01*
X12914286Y-17820381D01*
X12904762Y-17839429D01*
X12895238Y-17848952D01*
X12876190Y-17858476D01*
X12857143Y-17858476D01*
X12838095Y-17848952D01*
X12828571Y-17839429D01*
X12819048Y-17820381D01*
X12809524Y-17782286D01*
X12809524Y-17734667D01*
X12819048Y-17696571D01*
X12828571Y-17677524D01*
X12838095Y-17668000D01*
X12857143Y-17658476D01*
X13019048Y-17858476D02*
X13057143Y-17858476D01*
X13076190Y-17848952D01*
X13085714Y-17839429D01*
X13104762Y-17810857D01*
X13114286Y-17772762D01*
X13114286Y-17696571D01*
X13104762Y-17677524D01*
X13095238Y-17668000D01*
X13076190Y-17658476D01*
X13038095Y-17658476D01*
X13019048Y-17668000D01*
X13009524Y-17677524D01*
X13000000Y-17696571D01*
X13000000Y-17744190D01*
X13009524Y-17763238D01*
X13019048Y-17772762D01*
X13038095Y-17782286D01*
X13076190Y-17782286D01*
X13095238Y-17772762D01*
X13104762Y-17763238D01*
X13114286Y-17744190D01*
X13190476Y-17658476D02*
X13190476Y-17696571D01*
X13266667Y-17658476D02*
X13266667Y-17696571D01*
X13561905Y-17934667D02*
X13552381Y-17925143D01*
X13533333Y-17896571D01*
X13523809Y-17877524D01*
X13514286Y-17848952D01*
X13504762Y-17801333D01*
X13504762Y-17763238D01*
X13514286Y-17715619D01*
X13523809Y-17687048D01*
X13533333Y-17668000D01*
X13552381Y-17639429D01*
X13561905Y-17629905D01*
X13619048Y-17658476D02*
X13742857Y-17658476D01*
X13676190Y-17734667D01*
X13704762Y-17734667D01*
X13723809Y-17744190D01*
X13733333Y-17753714D01*
X13742857Y-17772762D01*
X13742857Y-17820381D01*
X13733333Y-17839429D01*
X13723809Y-17848952D01*
X13704762Y-17858476D01*
X13647619Y-17858476D01*
X13628571Y-17848952D01*
X13619048Y-17839429D01*
X13980952Y-17858476D02*
X13980952Y-17658476D01*
X14066667Y-17858476D02*
X14066667Y-17753714D01*
X14057143Y-17734667D01*
X14038095Y-17725143D01*
X14009524Y-17725143D01*
X13990476Y-17734667D01*
X13980952Y-17744190D01*
X14190476Y-17858476D02*
X14171428Y-17848952D01*
X14161905Y-17839429D01*
X14152381Y-17820381D01*
X14152381Y-17763238D01*
X14161905Y-17744190D01*
X14171428Y-17734667D01*
X14190476Y-17725143D01*
X14219048Y-17725143D01*
X14238095Y-17734667D01*
X14247619Y-17744190D01*
X14257143Y-17763238D01*
X14257143Y-17820381D01*
X14247619Y-17839429D01*
X14238095Y-17848952D01*
X14219048Y-17858476D01*
X14190476Y-17858476D01*
X14371428Y-17858476D02*
X14352381Y-17848952D01*
X14342857Y-17829905D01*
X14342857Y-17658476D01*
X14523809Y-17848952D02*
X14504762Y-17858476D01*
X14466667Y-17858476D01*
X14447619Y-17848952D01*
X14438095Y-17829905D01*
X14438095Y-17753714D01*
X14447619Y-17734667D01*
X14466667Y-17725143D01*
X14504762Y-17725143D01*
X14523809Y-17734667D01*
X14533333Y-17753714D01*
X14533333Y-17772762D01*
X14438095Y-17791810D01*
X14609524Y-17848952D02*
X14628571Y-17858476D01*
X14666667Y-17858476D01*
X14685714Y-17848952D01*
X14695238Y-17829905D01*
X14695238Y-17820381D01*
X14685714Y-17801333D01*
X14666667Y-17791810D01*
X14638095Y-17791810D01*
X14619048Y-17782286D01*
X14609524Y-17763238D01*
X14609524Y-17753714D01*
X14619048Y-17734667D01*
X14638095Y-17725143D01*
X14666667Y-17725143D01*
X14685714Y-17734667D01*
X14761905Y-17934667D02*
X14771428Y-17925143D01*
X14790476Y-17896571D01*
X14800000Y-17877524D01*
X14809524Y-17848952D01*
X14819048Y-17801333D01*
X14819048Y-17763238D01*
X14809524Y-17715619D01*
X14800000Y-17687048D01*
X14790476Y-17668000D01*
X14771428Y-17639429D01*
X14761905Y-17629905D01*
M02*
