G04 #@! TF.GenerationSoftware,KiCad,Pcbnew,(6.0.7)*
G04 #@! TF.CreationDate,2022-11-29T22:22:54-08:00*
G04 #@! TF.ProjectId,UrbanSteering,55726261-6e53-4746-9565-72696e672e6b,rev?*
G04 #@! TF.SameCoordinates,Original*
G04 #@! TF.FileFunction,Paste,Top*
G04 #@! TF.FilePolarity,Positive*
%FSLAX46Y46*%
G04 Gerber Fmt 4.6, Leading zero omitted, Abs format (unit mm)*
G04 Created by KiCad (PCBNEW (6.0.7)) date 2022-11-29 22:22:54*
%MOMM*%
%LPD*%
G01*
G04 APERTURE LIST*
G04 Aperture macros list*
%AMRoundRect*
0 Rectangle with rounded corners*
0 $1 Rounding radius*
0 $2 $3 $4 $5 $6 $7 $8 $9 X,Y pos of 4 corners*
0 Add a 4 corners polygon primitive as box body*
4,1,4,$2,$3,$4,$5,$6,$7,$8,$9,$2,$3,0*
0 Add four circle primitives for the rounded corners*
1,1,$1+$1,$2,$3*
1,1,$1+$1,$4,$5*
1,1,$1+$1,$6,$7*
1,1,$1+$1,$8,$9*
0 Add four rect primitives between the rounded corners*
20,1,$1+$1,$2,$3,$4,$5,0*
20,1,$1+$1,$4,$5,$6,$7,0*
20,1,$1+$1,$6,$7,$8,$9,0*
20,1,$1+$1,$8,$9,$2,$3,0*%
G04 Aperture macros list end*
%ADD10RoundRect,0.250000X-0.375000X-0.625000X0.375000X-0.625000X0.375000X0.625000X-0.375000X0.625000X0*%
%ADD11RoundRect,0.250000X0.262500X0.450000X-0.262500X0.450000X-0.262500X-0.450000X0.262500X-0.450000X0*%
%ADD12R,1.050000X0.450000*%
%ADD13R,0.882000X0.537000*%
%ADD14RoundRect,0.250000X-0.262500X-0.450000X0.262500X-0.450000X0.262500X0.450000X-0.262500X0.450000X0*%
%ADD15RoundRect,0.250000X-0.250000X-0.475000X0.250000X-0.475000X0.250000X0.475000X-0.250000X0.475000X0*%
%ADD16RoundRect,0.250000X0.475000X-0.250000X0.475000X0.250000X-0.475000X0.250000X-0.475000X-0.250000X0*%
G04 APERTURE END LIST*
D10*
X183429179Y-121185940D03*
X186229179Y-121185940D03*
D11*
X162198479Y-75574740D03*
X160373479Y-75574740D03*
X186885979Y-60974740D03*
X185060979Y-60974740D03*
X162298479Y-70374740D03*
X160473479Y-70374740D03*
X190073479Y-133174740D03*
X191898479Y-133174740D03*
D12*
X178460979Y-69849740D03*
X178460979Y-69199740D03*
X178460979Y-68549740D03*
X178460979Y-67899740D03*
X178460979Y-67249740D03*
X178460979Y-66599740D03*
X178460979Y-65949740D03*
X178460979Y-65299740D03*
X172910979Y-65299740D03*
X172910979Y-65949740D03*
X172910979Y-66599740D03*
X172910979Y-67249740D03*
X172910979Y-67899740D03*
X172910979Y-68549740D03*
X172910979Y-69199740D03*
X172910979Y-69849740D03*
D13*
X176420979Y-66232240D03*
X176420979Y-68917240D03*
X176420979Y-68022240D03*
X174950979Y-67127240D03*
X174950979Y-68022240D03*
X174950979Y-66232240D03*
X174950979Y-68917240D03*
X176420979Y-67127240D03*
D12*
X153060979Y-85649740D03*
X153060979Y-84999740D03*
X153060979Y-84349740D03*
X153060979Y-83699740D03*
X153060979Y-83049740D03*
X153060979Y-82399740D03*
X153060979Y-81749740D03*
X153060979Y-81099740D03*
X147510979Y-81099740D03*
X147510979Y-81749740D03*
X147510979Y-82399740D03*
X147510979Y-83049740D03*
X147510979Y-83699740D03*
X147510979Y-84349740D03*
X147510979Y-84999740D03*
X147510979Y-85649740D03*
D13*
X149550979Y-82032240D03*
X151020979Y-84717240D03*
X149550979Y-83822240D03*
X151020979Y-82032240D03*
X149550979Y-82927240D03*
X151020979Y-83822240D03*
X149550979Y-84717240D03*
X151020979Y-82927240D03*
D11*
X186798479Y-81374740D03*
X184973479Y-81374740D03*
X162198479Y-65274740D03*
X160373479Y-65274740D03*
X162310979Y-80574740D03*
X160485979Y-80574740D03*
D14*
X185060979Y-71174740D03*
X186885979Y-71174740D03*
D11*
X203773479Y-138074740D03*
X205598479Y-138074740D03*
D15*
X139051179Y-79580740D03*
X140951179Y-79580740D03*
D14*
X185060979Y-65974740D03*
X186885979Y-65974740D03*
X138960979Y-84974740D03*
X140785979Y-84974740D03*
D11*
X162598479Y-90374740D03*
X160773479Y-90374740D03*
X186798479Y-76374740D03*
X184973479Y-76374740D03*
X162685979Y-95574740D03*
X160860979Y-95574740D03*
D14*
X185060979Y-55974740D03*
X186885979Y-55974740D03*
D15*
X196963179Y-85524340D03*
X198863179Y-85524340D03*
D16*
X168285979Y-69124740D03*
X168285979Y-67224740D03*
D11*
X162398479Y-85374740D03*
X160573479Y-85374740D03*
M02*
