M48
; DRILL file {KiCad (6.0.7-1)-1} date Thursday, December 01, 2022 at 01:22:46 pm
; FORMAT={-:-/ absolute / metric / decimal}
; #@! TF.CreationDate,2022-12-01T13:22:46-08:00
; #@! TF.GenerationSoftware,Kicad,Pcbnew,(6.0.7-1)-1
; #@! TF.FileFunction,Plated,1,2,PTH
FMAT,2
METRIC
; #@! TA.AperFunction,Plated,PTH,ViaDrill
T1C0.500
; #@! TA.AperFunction,Plated,PTH,ComponentDrill
T2C0.700
; #@! TA.AperFunction,Plated,PTH,ComponentDrill
T3C0.800
; #@! TA.AperFunction,Plated,PTH,ComponentDrill
T4C0.991
; #@! TA.AperFunction,Plated,PTH,ComponentDrill
T5C1.000
; #@! TA.AperFunction,Plated,PTH,ComponentDrill
T6C1.090
; #@! TA.AperFunction,Plated,PTH,ComponentDrill
T7C1.168
; #@! TA.AperFunction,Plated,PTH,ComponentDrill
T8C1.500
; #@! TA.AperFunction,Plated,PTH,ComponentDrill
T9C1.800
%
G90
G05
T1
X111.299Y-72.316
X113.28Y-101.831
X122.424Y-97.869
X126.133Y-100.764
X131.873Y-109.502
X135.175Y-107.318
X137.918Y-99.291
X138.579Y-96.599
X139.696Y-104.32
X141.119Y-92.433
X141.728Y-87.607
X142.846Y-61.801
X143.151Y-83.391
X143.506Y-99.291
X143.76Y-109.908
X144.167Y-106.962
X145.894Y-80.038
X148.078Y-99.19
X148.18Y-90.554
X152.092Y-88.572
X152.549Y-56.873
X152.65Y-61.902
X153.057Y-58.448
X153.158Y-69.726
X153.92Y-131.6
X154.246Y-87.526
X155.089Y-97.158
X155.162Y-79.247
X155.394Y-94.77
X155.444Y-85.982
X155.512Y-84.407
X156.054Y-69.878
X157.629Y-97.158
X157.744Y-90.447
X157.934Y-81.816
X158.035Y-63.274
X158.137Y-69.878
X158.492Y-134.8
X159.051Y-123.269
X159.102Y-85.372
X159.204Y-73.332
X159.204Y-132.464
X159.356Y-95.684
X159.508Y-90.503
X164.059Y-60.415
X164.792Y-66.373
X165.386Y-75.675
X166.302Y-60.239
X167.128Y-120.119
X169.386Y-70.675
X170.126Y-123.969
X170.532Y-102.39
X170.786Y-67.05
X171.091Y-122.71
X171.386Y-64.175
X171.904Y-120.018
X173.386Y-71.175
X174.444Y-119.51
X179.625Y-58.397
X180.336Y-66.271
X181.149Y-84.762
X182.368Y-69.268
X182.622Y-128.044
X183.943Y-58.296
X184.287Y-87.965
X184.553Y-86.744
X184.886Y-137.175
X184.908Y-96.192
X185.162Y-130.178
X185.213Y-109.045
X186.128Y-100.815
X186.991Y-136.07
X187.194Y-93.043
X188.109Y-132.362
X188.515Y-81.41
X188.769Y-55.806
X189.074Y-90.147
X189.836Y-61.039
X189.836Y-64.781
X189.887Y-121.846
X189.938Y-85.931
X190.598Y-97.869
X190.852Y-140.642
X191.462Y-127.384
X191.766Y-68.76
X191.923Y-106.154
X192.376Y-138.102
X194.306Y-66.271
X194.306Y-133.073
X194.357Y-108.892
X194.865Y-102.187
X195.424Y-97.412
X195.424Y-129.009
X196.592Y-142.624
X196.694Y-105.438
X198.37Y-77.295
X199.386Y-80.546
X199.64Y-76.228
X201.266Y-85.931
X202.13Y-124.386
X204.009Y-105.082
X204.771Y-76.634
X204.924Y-95.481
X205.025Y-73.434
X205.127Y-78.971
X205.127Y-122.625
X205.386Y-140.175
X206.397Y-118.189
X207.26Y-122.575
X208.429Y-62.715
X208.53Y-82.73
X208.632Y-74.958
X208.835Y-116.004
X209.089Y-92.687
X209.393Y-54.182
X213.204Y-142.573
X213.56Y-68.456
X215.439Y-144.046
X215.49Y-129.974
X215.795Y-127.587
X216.354Y-139.169
X218.589Y-127.485
X218.654Y-79.617
X221.18Y-114.176
X221.637Y-123.116
X222.45Y-143.335
X222.653Y-127.434
X223.415Y-135.613
X225.142Y-127.485
X226.006Y-67.998
X226.886Y-61.675
X228.241Y-127.536
X228.546Y-135.664
X228.952Y-141.76
T2
X108.62Y-84.84
X108.62Y-87.38
X108.62Y-89.92
X108.62Y-109.84
X108.62Y-112.38
X108.62Y-114.92
X235.38Y-60.08
X235.38Y-62.62
X235.38Y-65.16
X235.38Y-110.08
X235.38Y-112.62
X235.38Y-115.16
X235.5Y-84.96
X235.5Y-87.5
X235.5Y-90.04
T3
X104.12Y-83.57
X104.12Y-91.19
X104.12Y-108.57
X104.12Y-116.19
X198.79Y-131.66
X198.79Y-146.9
X201.33Y-131.66
X201.33Y-146.9
X203.87Y-131.66
X203.87Y-146.9
X206.41Y-131.66
X206.41Y-146.9
X208.95Y-131.66
X208.95Y-146.9
X211.49Y-131.66
X211.49Y-146.9
X214.03Y-131.66
X214.03Y-146.9
X216.57Y-131.66
X216.57Y-146.9
X219.11Y-131.66
X219.11Y-146.9
X221.65Y-131.66
X221.65Y-146.9
X224.19Y-131.66
X224.19Y-146.9
X226.73Y-131.66
X226.73Y-146.9
X229.27Y-131.66
X229.27Y-146.9
X231.0Y-83.69
X231.0Y-91.31
X231.81Y-131.66
X231.81Y-146.9
X234.35Y-131.66
X234.35Y-146.9
X239.88Y-58.81
X239.88Y-66.43
X239.88Y-108.81
X239.88Y-116.43
T4
X193.876Y-91.565
X193.876Y-94.105
X193.876Y-96.645
X193.876Y-99.185
X201.496Y-91.565
X201.496Y-94.105
X201.496Y-96.645
X201.496Y-99.185
T5
X129.85Y-61.0
X129.85Y-63.54
X129.85Y-66.08
X129.85Y-68.62
X129.85Y-71.16
X129.85Y-73.7
X129.85Y-76.24
X129.85Y-78.78
X129.85Y-81.32
X129.85Y-83.86
X129.85Y-86.4
X129.85Y-88.94
X129.85Y-91.48
X129.85Y-94.02
X131.8Y-131.75
X131.8Y-134.29
X131.8Y-136.83
X131.8Y-139.37
X131.8Y-141.91
X154.086Y-116.375
X161.786Y-114.61
X161.786Y-117.15
X169.686Y-116.075
X176.786Y-115.875
X184.186Y-115.875
X191.686Y-115.675
X211.011Y-123.575
X213.551Y-123.575
X214.15Y-73.7
X214.15Y-76.24
X214.15Y-78.78
X214.15Y-81.32
T6
X163.22Y-126.0
X165.76Y-126.0
X168.3Y-126.0
X170.84Y-126.0
X173.38Y-126.0
X175.92Y-126.0
X178.46Y-126.0
X181.0Y-126.0
T7
X144.88Y-126.0
X147.42Y-126.0
X149.96Y-126.0
X152.5Y-126.0
T8
X102.55Y-61.4
X102.55Y-64.6
X118.35Y-61.4
X118.35Y-64.6
T9
X105.75Y-63.0
X110.45Y-63.0
X115.15Y-63.0
T0
M30
