G04 #@! TF.GenerationSoftware,KiCad,Pcbnew,(6.0.7-1)-1*
G04 #@! TF.CreationDate,2022-12-01T13:22:29-08:00*
G04 #@! TF.ProjectId,UrbanSteering,55726261-6e53-4746-9565-72696e672e6b,rev?*
G04 #@! TF.SameCoordinates,Original*
G04 #@! TF.FileFunction,Legend,Bot*
G04 #@! TF.FilePolarity,Positive*
%FSLAX46Y46*%
G04 Gerber Fmt 4.6, Leading zero omitted, Abs format (unit mm)*
G04 Created by KiCad (PCBNEW (6.0.7-1)-1) date 2022-12-01 13:22:29*
%MOMM*%
%LPD*%
G01*
G04 APERTURE LIST*
G04 Aperture macros list*
%AMRoundRect*
0 Rectangle with rounded corners*
0 $1 Rounding radius*
0 $2 $3 $4 $5 $6 $7 $8 $9 X,Y pos of 4 corners*
0 Add a 4 corners polygon primitive as box body*
4,1,4,$2,$3,$4,$5,$6,$7,$8,$9,$2,$3,0*
0 Add four circle primitives for the rounded corners*
1,1,$1+$1,$2,$3*
1,1,$1+$1,$4,$5*
1,1,$1+$1,$6,$7*
1,1,$1+$1,$8,$9*
0 Add four rect primitives between the rounded corners*
20,1,$1+$1,$2,$3,$4,$5,0*
20,1,$1+$1,$4,$5,$6,$7,0*
20,1,$1+$1,$6,$7,$8,$9,0*
20,1,$1+$1,$8,$9,$2,$3,0*%
G04 Aperture macros list end*
%ADD10C,0.120000*%
%ADD11RoundRect,0.101600X-0.654000X0.654000X-0.654000X-0.654000X0.654000X-0.654000X0.654000X0.654000X0*%
%ADD12C,1.511200*%
%ADD13C,1.300000*%
%ADD14C,1.524000*%
%ADD15R,1.498600X1.498600*%
%ADD16C,1.498600*%
%ADD17C,2.700000*%
%ADD18C,2.250000*%
%ADD19R,1.700000X1.700000*%
%ADD20C,3.200000*%
%ADD21O,1.700000X1.700000*%
%ADD22C,3.454400*%
%ADD23C,1.676400*%
%ADD24C,3.400000*%
%ADD25R,1.635000X1.635000*%
%ADD26C,1.635000*%
G04 APERTURE END LIST*
D10*
X157961000Y-126000000D02*
G75*
G03*
X157961000Y-126000000I-381000J0D01*
G01*
%LPC*%
D11*
X234350000Y-131660000D03*
D12*
X231810000Y-131660000D03*
X229270000Y-131660000D03*
X226730000Y-131660000D03*
X224190000Y-131660000D03*
X221650000Y-131660000D03*
X219110000Y-131660000D03*
X216570000Y-131660000D03*
X214030000Y-131660000D03*
X211490000Y-131660000D03*
X208950000Y-131660000D03*
X206410000Y-131660000D03*
X203870000Y-131660000D03*
X201330000Y-131660000D03*
X198790000Y-131660000D03*
X198790000Y-146900000D03*
X201330000Y-146900000D03*
X203870000Y-146900000D03*
X206410000Y-146900000D03*
X208950000Y-146900000D03*
X211490000Y-146900000D03*
X214030000Y-146900000D03*
X216570000Y-146900000D03*
X219110000Y-146900000D03*
X221650000Y-146900000D03*
X224190000Y-146900000D03*
X226730000Y-146900000D03*
X229270000Y-146900000D03*
X231810000Y-146900000D03*
X234350000Y-146900000D03*
D13*
X229030000Y-106270000D03*
X241730000Y-118970000D03*
X241730000Y-106270000D03*
X229030000Y-118970000D03*
D14*
X239880000Y-108810000D03*
X239880000Y-116430000D03*
X235380000Y-110080000D03*
X235380000Y-115160000D03*
X235380000Y-112620000D03*
D13*
X114970000Y-81030000D03*
X102270000Y-81030000D03*
X114970000Y-93730000D03*
X102270000Y-93730000D03*
D14*
X104120000Y-91190000D03*
X104120000Y-83570000D03*
X108620000Y-89920000D03*
X108620000Y-84840000D03*
X108620000Y-87380000D03*
D13*
X229030000Y-68970000D03*
X241730000Y-68970000D03*
X241730000Y-56270000D03*
X229030000Y-56270000D03*
D14*
X239880000Y-58810000D03*
X239880000Y-66430000D03*
X235380000Y-60080000D03*
X235380000Y-65160000D03*
X235380000Y-62620000D03*
D13*
X102270000Y-118730000D03*
X102270000Y-106030000D03*
X114970000Y-118730000D03*
X114970000Y-106030000D03*
D14*
X104120000Y-116190000D03*
X104120000Y-108570000D03*
X108620000Y-114920000D03*
X108620000Y-109840000D03*
X108620000Y-112380000D03*
D13*
X241850000Y-81150000D03*
X241850000Y-93850000D03*
X229150000Y-93850000D03*
X229150000Y-81150000D03*
D14*
X231000000Y-91310000D03*
X231000000Y-83690000D03*
X235500000Y-90040000D03*
X235500000Y-84960000D03*
X235500000Y-87500000D03*
D15*
X201495979Y-99184740D03*
D16*
X201495979Y-96644740D03*
X201495979Y-94104740D03*
X201495979Y-91564740D03*
X193875979Y-91564740D03*
X193875979Y-94104740D03*
X193875979Y-96644740D03*
X193875979Y-99184740D03*
D17*
X110450000Y-63000000D03*
X105750000Y-63000000D03*
X115150000Y-63000000D03*
D18*
X102550000Y-61400000D03*
X102550000Y-64600000D03*
X118350000Y-64600000D03*
X118350000Y-61400000D03*
D19*
X191685979Y-115674740D03*
D20*
X103000000Y-126750000D03*
X103000000Y-147250000D03*
D19*
X131800000Y-131750000D03*
D21*
X131800000Y-134290000D03*
X131800000Y-136830000D03*
X131800000Y-139370000D03*
X131800000Y-141910000D03*
D19*
X161785979Y-117149740D03*
D21*
X161785979Y-114609740D03*
D19*
X169685979Y-116074740D03*
D20*
X122000000Y-74000000D03*
D19*
X214150000Y-73700000D03*
D21*
X214150000Y-76240000D03*
X214150000Y-78780000D03*
X214150000Y-81320000D03*
D20*
X145000000Y-120000000D03*
D22*
X143610000Y-134640001D03*
X153770000Y-134640001D03*
D23*
X152500000Y-126000000D03*
X149960000Y-126000000D03*
X147420000Y-126000000D03*
X144880000Y-126000000D03*
D19*
X184185979Y-115874740D03*
X211010979Y-123574740D03*
D21*
X213550979Y-123574740D03*
D20*
X222000000Y-74000000D03*
D19*
X129850000Y-61000000D03*
D21*
X129850000Y-63540000D03*
X129850000Y-66080000D03*
X129850000Y-68620000D03*
X129850000Y-71160000D03*
X129850000Y-73700000D03*
X129850000Y-76240000D03*
X129850000Y-78780000D03*
X129850000Y-81320000D03*
X129850000Y-83860000D03*
X129850000Y-86400000D03*
X129850000Y-88940000D03*
X129850000Y-91480000D03*
X129850000Y-94020000D03*
D20*
X199000000Y-120000000D03*
D24*
X161950000Y-134640000D03*
X182270000Y-134640000D03*
D25*
X181000000Y-126000000D03*
D26*
X178460000Y-126000000D03*
X175920000Y-126000000D03*
X173380000Y-126000000D03*
X170840000Y-126000000D03*
X168300000Y-126000000D03*
X165760000Y-126000000D03*
X163220000Y-126000000D03*
D19*
X154085979Y-116374740D03*
X176785979Y-115874740D03*
M02*
