G04 #@! TF.GenerationSoftware,KiCad,Pcbnew,(6.0.7)*
G04 #@! TF.CreationDate,2022-11-29T22:22:54-08:00*
G04 #@! TF.ProjectId,UrbanSteering,55726261-6e53-4746-9565-72696e672e6b,rev?*
G04 #@! TF.SameCoordinates,Original*
G04 #@! TF.FileFunction,Soldermask,Top*
G04 #@! TF.FilePolarity,Negative*
%FSLAX46Y46*%
G04 Gerber Fmt 4.6, Leading zero omitted, Abs format (unit mm)*
G04 Created by KiCad (PCBNEW (6.0.7)) date 2022-11-29 22:22:54*
%MOMM*%
%LPD*%
G01*
G04 APERTURE LIST*
G04 Aperture macros list*
%AMRoundRect*
0 Rectangle with rounded corners*
0 $1 Rounding radius*
0 $2 $3 $4 $5 $6 $7 $8 $9 X,Y pos of 4 corners*
0 Add a 4 corners polygon primitive as box body*
4,1,4,$2,$3,$4,$5,$6,$7,$8,$9,$2,$3,0*
0 Add four circle primitives for the rounded corners*
1,1,$1+$1,$2,$3*
1,1,$1+$1,$4,$5*
1,1,$1+$1,$6,$7*
1,1,$1+$1,$8,$9*
0 Add four rect primitives between the rounded corners*
20,1,$1+$1,$2,$3,$4,$5,0*
20,1,$1+$1,$4,$5,$6,$7,0*
20,1,$1+$1,$6,$7,$8,$9,0*
20,1,$1+$1,$8,$9,$2,$3,0*%
G04 Aperture macros list end*
%ADD10R,1.700000X1.700000*%
%ADD11C,3.454400*%
%ADD12C,1.676400*%
%ADD13C,3.400000*%
%ADD14R,1.635000X1.635000*%
%ADD15C,1.635000*%
%ADD16RoundRect,0.250000X-0.375000X-0.625000X0.375000X-0.625000X0.375000X0.625000X-0.375000X0.625000X0*%
%ADD17C,1.511200*%
%ADD18RoundRect,0.101600X-0.654000X0.654000X-0.654000X-0.654000X0.654000X-0.654000X0.654000X0.654000X0*%
%ADD19C,1.300000*%
%ADD20C,1.524000*%
%ADD21C,1.498600*%
%ADD22R,1.498600X1.498600*%
%ADD23C,2.700000*%
%ADD24C,2.250000*%
%ADD25RoundRect,0.250000X0.262500X0.450000X-0.262500X0.450000X-0.262500X-0.450000X0.262500X-0.450000X0*%
%ADD26C,3.200000*%
%ADD27R,1.050000X0.450000*%
%ADD28R,1.470000X0.895000*%
%ADD29O,1.700000X1.700000*%
%ADD30RoundRect,0.250000X-0.262500X-0.450000X0.262500X-0.450000X0.262500X0.450000X-0.262500X0.450000X0*%
%ADD31RoundRect,0.250000X-0.250000X-0.475000X0.250000X-0.475000X0.250000X0.475000X-0.250000X0.475000X0*%
%ADD32RoundRect,0.250000X0.475000X-0.250000X0.475000X0.250000X-0.475000X0.250000X-0.475000X-0.250000X0*%
G04 APERTURE END LIST*
D10*
X191685979Y-115674740D03*
D11*
X143610000Y-134640001D03*
X153770000Y-134640001D03*
D12*
X152500000Y-126000000D03*
X149960000Y-126000000D03*
X147420000Y-126000000D03*
X144880000Y-126000000D03*
D13*
X161950000Y-134640000D03*
X182270000Y-134640000D03*
D14*
X181000000Y-126000000D03*
D15*
X178460000Y-126000000D03*
X175920000Y-126000000D03*
X173380000Y-126000000D03*
X170840000Y-126000000D03*
X168300000Y-126000000D03*
X165760000Y-126000000D03*
X163220000Y-126000000D03*
D16*
X183429179Y-121185940D03*
X186229179Y-121185940D03*
D17*
X234350000Y-146900000D03*
X231810000Y-146900000D03*
X229270000Y-146900000D03*
X226730000Y-146900000D03*
X224190000Y-146900000D03*
X221650000Y-146900000D03*
X219110000Y-146900000D03*
X216570000Y-146900000D03*
X214030000Y-146900000D03*
X211490000Y-146900000D03*
X208950000Y-146900000D03*
X206410000Y-146900000D03*
X203870000Y-146900000D03*
X201330000Y-146900000D03*
X198790000Y-146900000D03*
X198790000Y-131660000D03*
X201330000Y-131660000D03*
X203870000Y-131660000D03*
X206410000Y-131660000D03*
X208950000Y-131660000D03*
X211490000Y-131660000D03*
X214030000Y-131660000D03*
X216570000Y-131660000D03*
X219110000Y-131660000D03*
X221650000Y-131660000D03*
X224190000Y-131660000D03*
X226730000Y-131660000D03*
X229270000Y-131660000D03*
X231810000Y-131660000D03*
D18*
X234350000Y-131660000D03*
D19*
X229030000Y-106270000D03*
X241730000Y-118970000D03*
X241730000Y-106270000D03*
X229030000Y-118970000D03*
D20*
X239880000Y-108810000D03*
X239880000Y-116430000D03*
X235380000Y-110080000D03*
X235380000Y-115160000D03*
X235380000Y-112620000D03*
D19*
X114970000Y-81030000D03*
X102270000Y-81030000D03*
X114970000Y-93730000D03*
X102270000Y-93730000D03*
D20*
X104120000Y-91190000D03*
X104120000Y-83570000D03*
X108620000Y-89920000D03*
X108620000Y-84840000D03*
X108620000Y-87380000D03*
D19*
X229030000Y-68970000D03*
X241730000Y-68970000D03*
X241730000Y-56270000D03*
X229030000Y-56270000D03*
D20*
X239880000Y-58810000D03*
X239880000Y-66430000D03*
X235380000Y-60080000D03*
X235380000Y-65160000D03*
X235380000Y-62620000D03*
D19*
X102270000Y-118730000D03*
X102270000Y-106030000D03*
X114970000Y-118730000D03*
X114970000Y-106030000D03*
D20*
X104120000Y-116190000D03*
X104120000Y-108570000D03*
X108620000Y-114920000D03*
X108620000Y-109840000D03*
X108620000Y-112380000D03*
D19*
X241850000Y-81150000D03*
X241850000Y-93850000D03*
X229150000Y-93850000D03*
X229150000Y-81150000D03*
D20*
X231000000Y-91310000D03*
X231000000Y-83690000D03*
X235500000Y-90040000D03*
X235500000Y-84960000D03*
X235500000Y-87500000D03*
D21*
X193875979Y-99184740D03*
X193875979Y-96644740D03*
X193875979Y-94104740D03*
X193875979Y-91564740D03*
X201495979Y-91564740D03*
X201495979Y-94104740D03*
X201495979Y-96644740D03*
D22*
X201495979Y-99184740D03*
D23*
X110450000Y-63000000D03*
X105750000Y-63000000D03*
X115150000Y-63000000D03*
D24*
X102550000Y-61400000D03*
X102550000Y-64600000D03*
X118350000Y-64600000D03*
X118350000Y-61400000D03*
D25*
X162198479Y-75574740D03*
X160373479Y-75574740D03*
X186885979Y-60974740D03*
X185060979Y-60974740D03*
D26*
X103000000Y-126750000D03*
X103000000Y-147250000D03*
D25*
X162298479Y-70374740D03*
X160473479Y-70374740D03*
X190073479Y-133174740D03*
X191898479Y-133174740D03*
D27*
X178460979Y-69849740D03*
X178460979Y-69199740D03*
X178460979Y-68549740D03*
X178460979Y-67899740D03*
X178460979Y-67249740D03*
X178460979Y-66599740D03*
X178460979Y-65949740D03*
X178460979Y-65299740D03*
X172910979Y-65299740D03*
X172910979Y-65949740D03*
X172910979Y-66599740D03*
X172910979Y-67249740D03*
X172910979Y-67899740D03*
X172910979Y-68549740D03*
X172910979Y-69199740D03*
X172910979Y-69849740D03*
D28*
X176420979Y-66232240D03*
X176420979Y-68917240D03*
X176420979Y-68022240D03*
X174950979Y-67127240D03*
X174950979Y-68022240D03*
X174950979Y-66232240D03*
X174950979Y-68917240D03*
X176420979Y-67127240D03*
D27*
X153060979Y-85649740D03*
X153060979Y-84999740D03*
X153060979Y-84349740D03*
X153060979Y-83699740D03*
X153060979Y-83049740D03*
X153060979Y-82399740D03*
X153060979Y-81749740D03*
X153060979Y-81099740D03*
X147510979Y-81099740D03*
X147510979Y-81749740D03*
X147510979Y-82399740D03*
X147510979Y-83049740D03*
X147510979Y-83699740D03*
X147510979Y-84349740D03*
X147510979Y-84999740D03*
X147510979Y-85649740D03*
D28*
X149550979Y-82032240D03*
X151020979Y-84717240D03*
X149550979Y-83822240D03*
X151020979Y-82032240D03*
X149550979Y-82927240D03*
X151020979Y-83822240D03*
X149550979Y-84717240D03*
X151020979Y-82927240D03*
D10*
X131800000Y-131750000D03*
D29*
X131800000Y-134290000D03*
X131800000Y-136830000D03*
X131800000Y-139370000D03*
X131800000Y-141910000D03*
D25*
X186798479Y-81374740D03*
X184973479Y-81374740D03*
D10*
X161785979Y-117149740D03*
D29*
X161785979Y-114609740D03*
D25*
X162198479Y-65274740D03*
X160373479Y-65274740D03*
X162310979Y-80574740D03*
X160485979Y-80574740D03*
D30*
X185060979Y-71174740D03*
X186885979Y-71174740D03*
D10*
X169685979Y-116074740D03*
D26*
X122000000Y-74000000D03*
D10*
X214150000Y-73700000D03*
D29*
X214150000Y-76240000D03*
X214150000Y-78780000D03*
X214150000Y-81320000D03*
D25*
X203773479Y-138074740D03*
X205598479Y-138074740D03*
D31*
X139051179Y-79580740D03*
X140951179Y-79580740D03*
D26*
X145000000Y-120000000D03*
D30*
X185060979Y-65974740D03*
X186885979Y-65974740D03*
D10*
X184185979Y-115874740D03*
X211010979Y-123574740D03*
D29*
X213550979Y-123574740D03*
D30*
X138960979Y-84974740D03*
X140785979Y-84974740D03*
D25*
X162598479Y-90374740D03*
X160773479Y-90374740D03*
X186798479Y-76374740D03*
X184973479Y-76374740D03*
X162685979Y-95574740D03*
X160860979Y-95574740D03*
D30*
X185060979Y-55974740D03*
X186885979Y-55974740D03*
D31*
X196963179Y-85524340D03*
X198863179Y-85524340D03*
D26*
X222000000Y-74000000D03*
D10*
X129850000Y-61000000D03*
D29*
X129850000Y-63540000D03*
X129850000Y-66080000D03*
X129850000Y-68620000D03*
X129850000Y-71160000D03*
X129850000Y-73700000D03*
X129850000Y-76240000D03*
X129850000Y-78780000D03*
X129850000Y-81320000D03*
X129850000Y-83860000D03*
X129850000Y-86400000D03*
X129850000Y-88940000D03*
X129850000Y-91480000D03*
X129850000Y-94020000D03*
D26*
X199000000Y-120000000D03*
D32*
X168285979Y-69124740D03*
X168285979Y-67224740D03*
D25*
X162398479Y-85374740D03*
X160573479Y-85374740D03*
D10*
X154085979Y-116374740D03*
X176785979Y-115874740D03*
M02*
