%TF.GenerationSoftware,KiCad,Pcbnew,(6.0.7)*%
%TF.CreationDate,2022-11-29T22:23:04-08:00*%
%TF.ProjectId,UrbanSteering,55726261-6e53-4746-9565-72696e672e6b,rev?*%
%TF.SameCoordinates,Original*%
%TF.FileFunction,Drillmap*%
%TF.FilePolarity,Positive*%
%FSLAX45Y45*%
G04 Gerber Fmt 4.5, Leading zero omitted, Abs format (unit mm)*
G04 Created by KiCad (PCBNEW (6.0.7)) date 2022-11-29 22:23:04*
%MOMM*%
%LPD*%
G01*
G04 APERTURE LIST*
%ADD10C,0.001500*%
%ADD11C,0.050000*%
%ADD12C,0.200000*%
%ADD13C,0.070000*%
%ADD14C,0.080000*%
%ADD15C,0.099060*%
%ADD16C,0.100000*%
%ADD17C,0.109000*%
%ADD18C,0.116840*%
%ADD19C,0.150000*%
%ADD20C,0.180000*%
G04 APERTURE END LIST*
D10*
X13200000Y-15000000D02*
X10300000Y-15000000D01*
D11*
X13200000Y-15000000D02*
G75*
G03*
X13700000Y-14500000I-5740J505740D01*
G01*
X10500000Y-5000000D02*
G75*
G03*
X10000000Y-5500000I0J-500000D01*
G01*
X10000000Y-14700000D02*
G75*
G03*
X10300000Y-15000000I300000J0D01*
G01*
D10*
X23900000Y-15000000D02*
X19400000Y-15000000D01*
D11*
X14200000Y-14000000D02*
X18400000Y-14000000D01*
X14200000Y-14000000D02*
G75*
G03*
X13700000Y-14500000I0J-500000D01*
G01*
D10*
X10000000Y-14700000D02*
X10000000Y-5500000D01*
X24400000Y-14500000D02*
X24400000Y-5500000D01*
D11*
X24400000Y-5500000D02*
G75*
G03*
X23900000Y-5000000I-500000J0D01*
G01*
X13700000Y-14500000D02*
X13700000Y-14500000D01*
X18900000Y-14500000D02*
G75*
G03*
X18400000Y-14000000I-500000J0D01*
G01*
X23900000Y-15000000D02*
G75*
G03*
X24400000Y-14500000I0J500000D01*
G01*
X18900000Y-14500000D02*
G75*
G03*
X19400000Y-15000000I500000J0D01*
G01*
D10*
X10500000Y-5000000D02*
X23900000Y-5000000D01*
D12*
D11*
X11104918Y-7206634D02*
X11154918Y-7256634D01*
X11154918Y-7206634D02*
X11104918Y-7256634D01*
X11303038Y-10158114D02*
X11353038Y-10208114D01*
X11353038Y-10158114D02*
X11303038Y-10208114D01*
X12217438Y-9761874D02*
X12267438Y-9811874D01*
X12267438Y-9761874D02*
X12217438Y-9811874D01*
X12588278Y-10051434D02*
X12638278Y-10101434D01*
X12638278Y-10051434D02*
X12588278Y-10101434D01*
X13162318Y-10925194D02*
X13212318Y-10975194D01*
X13212318Y-10925194D02*
X13162318Y-10975194D01*
X13492518Y-10706754D02*
X13542518Y-10756754D01*
X13542518Y-10706754D02*
X13492518Y-10756754D01*
X13766838Y-9904114D02*
X13816838Y-9954114D01*
X13816838Y-9904114D02*
X13766838Y-9954114D01*
X13832878Y-9634874D02*
X13882878Y-9684874D01*
X13882878Y-9634874D02*
X13832878Y-9684874D01*
X13944638Y-10407034D02*
X13994638Y-10457034D01*
X13994638Y-10407034D02*
X13944638Y-10457034D01*
X14086878Y-9218314D02*
X14136878Y-9268314D01*
X14136878Y-9218314D02*
X14086878Y-9268314D01*
X14147838Y-8735714D02*
X14197838Y-8785714D01*
X14197838Y-8735714D02*
X14147838Y-8785714D01*
X14259598Y-6155074D02*
X14309598Y-6205074D01*
X14309598Y-6155074D02*
X14259598Y-6205074D01*
X14290078Y-8314074D02*
X14340078Y-8364074D01*
X14340078Y-8314074D02*
X14290078Y-8364074D01*
X14325638Y-9904114D02*
X14375638Y-9954114D01*
X14375638Y-9904114D02*
X14325638Y-9954114D01*
X14351038Y-10965834D02*
X14401038Y-11015834D01*
X14401038Y-10965834D02*
X14351038Y-11015834D01*
X14391678Y-10671194D02*
X14441678Y-10721194D01*
X14441678Y-10671194D02*
X14391678Y-10721194D01*
X14564398Y-7978794D02*
X14614398Y-8028794D01*
X14614398Y-7978794D02*
X14564398Y-8028794D01*
X14782838Y-9893954D02*
X14832838Y-9943954D01*
X14832838Y-9893954D02*
X14782838Y-9943954D01*
X14792998Y-9030354D02*
X14842998Y-9080354D01*
X14842998Y-9030354D02*
X14792998Y-9080354D01*
X15184158Y-8832234D02*
X15234158Y-8882234D01*
X15234158Y-8832234D02*
X15184158Y-8882234D01*
X15229878Y-5662314D02*
X15279878Y-5712314D01*
X15279878Y-5662314D02*
X15229878Y-5712314D01*
X15240038Y-6165234D02*
X15290038Y-6215234D01*
X15290038Y-6165234D02*
X15240038Y-6215234D01*
X15280678Y-5819794D02*
X15330678Y-5869794D01*
X15330678Y-5819794D02*
X15280678Y-5869794D01*
X15290838Y-6947554D02*
X15340838Y-6997554D01*
X15340838Y-6947554D02*
X15290838Y-6997554D01*
X15367038Y-13134994D02*
X15417038Y-13184994D01*
X15417038Y-13134994D02*
X15367038Y-13184994D01*
X15399613Y-8727649D02*
X15449613Y-8777649D01*
X15449613Y-8727649D02*
X15399613Y-8777649D01*
X15483878Y-9690754D02*
X15533878Y-9740754D01*
X15533878Y-9690754D02*
X15483878Y-9740754D01*
X15491189Y-7899745D02*
X15541189Y-7949745D01*
X15541189Y-7899745D02*
X15491189Y-7949745D01*
X15514358Y-9451994D02*
X15564358Y-9501994D01*
X15564358Y-9451994D02*
X15514358Y-9501994D01*
X15519438Y-8573154D02*
X15569438Y-8623154D01*
X15569438Y-8573154D02*
X15519438Y-8623154D01*
X15526168Y-8415674D02*
X15576168Y-8465674D01*
X15576168Y-8415674D02*
X15526168Y-8465674D01*
X15580398Y-6962794D02*
X15630398Y-7012794D01*
X15630398Y-6962794D02*
X15580398Y-7012794D01*
X15737878Y-9690754D02*
X15787878Y-9740754D01*
X15787878Y-9690754D02*
X15737878Y-9740754D01*
X15749356Y-9019729D02*
X15799356Y-9069729D01*
X15799356Y-9019729D02*
X15749356Y-9069729D01*
X15768358Y-8156594D02*
X15818358Y-8206594D01*
X15818358Y-8156594D02*
X15768358Y-8206594D01*
X15778518Y-6302394D02*
X15828518Y-6352394D01*
X15828518Y-6302394D02*
X15778518Y-6352394D01*
X15788678Y-6962794D02*
X15838678Y-7012794D01*
X15838678Y-6962794D02*
X15788678Y-7012794D01*
X15824238Y-13455034D02*
X15874238Y-13505034D01*
X15874238Y-13455034D02*
X15824238Y-13505034D01*
X15880118Y-12301874D02*
X15930118Y-12351874D01*
X15930118Y-12301874D02*
X15880118Y-12351874D01*
X15885198Y-8512194D02*
X15935198Y-8562194D01*
X15935198Y-8512194D02*
X15885198Y-8562194D01*
X15895358Y-7308234D02*
X15945358Y-7358234D01*
X15945358Y-7308234D02*
X15895358Y-7358234D01*
X15895358Y-13221354D02*
X15945358Y-13271354D01*
X15945358Y-13221354D02*
X15895358Y-13271354D01*
X15910598Y-9543434D02*
X15960598Y-9593434D01*
X15960598Y-9543434D02*
X15910598Y-9593434D01*
X15925838Y-9025274D02*
X15975838Y-9075274D01*
X15975838Y-9025274D02*
X15925838Y-9075274D01*
X16380929Y-6016504D02*
X16430929Y-6066504D01*
X16430929Y-6016504D02*
X16380929Y-6066504D01*
X16454158Y-6612274D02*
X16504158Y-6662274D01*
X16504158Y-6612274D02*
X16454158Y-6662274D01*
X16513598Y-7542474D02*
X16563598Y-7592474D01*
X16563598Y-7542474D02*
X16513598Y-7592474D01*
X16605207Y-5998945D02*
X16655207Y-6048945D01*
X16655207Y-5998945D02*
X16605207Y-6048945D01*
X16687838Y-11986914D02*
X16737838Y-12036914D01*
X16737838Y-11986914D02*
X16687838Y-12036914D01*
X16913598Y-7042474D02*
X16963598Y-7092474D01*
X16963598Y-7042474D02*
X16913598Y-7092474D01*
X16987558Y-12371874D02*
X17037558Y-12421874D01*
X17037558Y-12371874D02*
X16987558Y-12421874D01*
X17028198Y-10213994D02*
X17078198Y-10263994D01*
X17078198Y-10213994D02*
X17028198Y-10263994D01*
X17053598Y-6680024D02*
X17103598Y-6730024D01*
X17103598Y-6680024D02*
X17053598Y-6730024D01*
X17084078Y-12245994D02*
X17134078Y-12295994D01*
X17134078Y-12245994D02*
X17084078Y-12295994D01*
X17113598Y-6392474D02*
X17163598Y-6442474D01*
X17163598Y-6392474D02*
X17113598Y-6442474D01*
X17165358Y-11976754D02*
X17215358Y-12026754D01*
X17215358Y-11976754D02*
X17165358Y-12026754D01*
X17313598Y-7092474D02*
X17363598Y-7142474D01*
X17363598Y-7092474D02*
X17313598Y-7142474D01*
X17419358Y-11925954D02*
X17469358Y-11975954D01*
X17469358Y-11925954D02*
X17419358Y-11975954D01*
X17937518Y-5814714D02*
X17987518Y-5864714D01*
X17987518Y-5814714D02*
X17937518Y-5864714D01*
X18008638Y-6602114D02*
X18058638Y-6652114D01*
X18058638Y-6602114D02*
X18008638Y-6652114D01*
X18089918Y-8451234D02*
X18139918Y-8501234D01*
X18139918Y-8451234D02*
X18089918Y-8501234D01*
X18211838Y-6901834D02*
X18261838Y-6951834D01*
X18261838Y-6901834D02*
X18211838Y-6951834D01*
X18237238Y-12779394D02*
X18287238Y-12829394D01*
X18287238Y-12779394D02*
X18237238Y-12829394D01*
X18369318Y-5804554D02*
X18419318Y-5854554D01*
X18419318Y-5804554D02*
X18369318Y-5854554D01*
X18403735Y-8771453D02*
X18453735Y-8821453D01*
X18453735Y-8771453D02*
X18403735Y-8821453D01*
X18430278Y-8649354D02*
X18480278Y-8699354D01*
X18480278Y-8649354D02*
X18430278Y-8699354D01*
X18463598Y-13692474D02*
X18513598Y-13742474D01*
X18513598Y-13692474D02*
X18463598Y-13742474D01*
X18465838Y-9594234D02*
X18515838Y-9644234D01*
X18515838Y-9594234D02*
X18465838Y-9644234D01*
X18491238Y-12992754D02*
X18541238Y-13042754D01*
X18541238Y-12992754D02*
X18491238Y-13042754D01*
X18496318Y-10879474D02*
X18546318Y-10929474D01*
X18546318Y-10879474D02*
X18496318Y-10929474D01*
X18587758Y-10056514D02*
X18637758Y-10106514D01*
X18637758Y-10056514D02*
X18587758Y-10106514D01*
X18674118Y-13582034D02*
X18724118Y-13632034D01*
X18724118Y-13582034D02*
X18674118Y-13632034D01*
X18694438Y-9279274D02*
X18744438Y-9329274D01*
X18744438Y-9279274D02*
X18694438Y-9329274D01*
X18785878Y-13211194D02*
X18835878Y-13261194D01*
X18835878Y-13211194D02*
X18785878Y-13261194D01*
X18826518Y-8115954D02*
X18876518Y-8165954D01*
X18876518Y-8115954D02*
X18826518Y-8165954D01*
X18851918Y-5555634D02*
X18901918Y-5605634D01*
X18901918Y-5555634D02*
X18851918Y-5605634D01*
X18882398Y-8989714D02*
X18932398Y-9039714D01*
X18932398Y-8989714D02*
X18882398Y-9039714D01*
X18958598Y-6078874D02*
X19008598Y-6128874D01*
X19008598Y-6078874D02*
X18958598Y-6128874D01*
X18958598Y-6453144D02*
X19008598Y-6503144D01*
X19008598Y-6453144D02*
X18958598Y-6503144D01*
X18963678Y-12159634D02*
X19013678Y-12209634D01*
X19013678Y-12159634D02*
X18963678Y-12209634D01*
X18968758Y-8568074D02*
X19018758Y-8618074D01*
X19018758Y-8568074D02*
X18968758Y-8618074D01*
X19034798Y-9761874D02*
X19084798Y-9811874D01*
X19084798Y-9761874D02*
X19034798Y-9811874D01*
X19060198Y-14039234D02*
X19110198Y-14089234D01*
X19110198Y-14039234D02*
X19060198Y-14089234D01*
X19121158Y-12713354D02*
X19171158Y-12763354D01*
X19171158Y-12713354D02*
X19121158Y-12763354D01*
X19151638Y-6851034D02*
X19201638Y-6901034D01*
X19201638Y-6851034D02*
X19151638Y-6901034D01*
X19167323Y-10590359D02*
X19217323Y-10640359D01*
X19217323Y-10590359D02*
X19167323Y-10640359D01*
X19212598Y-13785234D02*
X19262598Y-13835234D01*
X19262598Y-13785234D02*
X19212598Y-13835234D01*
X19405638Y-6602114D02*
X19455638Y-6652114D01*
X19455638Y-6602114D02*
X19405638Y-6652114D01*
X19405638Y-13282314D02*
X19455638Y-13332314D01*
X19455638Y-13282314D02*
X19405638Y-13332314D01*
X19410718Y-10864234D02*
X19460718Y-10914234D01*
X19460718Y-10864234D02*
X19410718Y-10914234D01*
X19461518Y-10193674D02*
X19511518Y-10243674D01*
X19511518Y-10193674D02*
X19461518Y-10243674D01*
X19517398Y-9716154D02*
X19567398Y-9766154D01*
X19567398Y-9716154D02*
X19517398Y-9766154D01*
X19517398Y-12875914D02*
X19567398Y-12925914D01*
X19567398Y-12875914D02*
X19517398Y-12925914D01*
X19634238Y-14237354D02*
X19684238Y-14287354D01*
X19684238Y-14237354D02*
X19634238Y-14287354D01*
X19644398Y-10518794D02*
X19694398Y-10568794D01*
X19694398Y-10518794D02*
X19644398Y-10568794D01*
X19812038Y-7704474D02*
X19862038Y-7754474D01*
X19862038Y-7704474D02*
X19812038Y-7754474D01*
X19913638Y-8029594D02*
X19963638Y-8079594D01*
X19963638Y-8029594D02*
X19913638Y-8079594D01*
X19939038Y-7597794D02*
X19989038Y-7647794D01*
X19989038Y-7597794D02*
X19939038Y-7647794D01*
X20101598Y-8568074D02*
X20151598Y-8618074D01*
X20151598Y-8568074D02*
X20101598Y-8618074D01*
X20187958Y-12413634D02*
X20237958Y-12463634D01*
X20237958Y-12413634D02*
X20187958Y-12463634D01*
X20375918Y-10483234D02*
X20425918Y-10533234D01*
X20425918Y-10483234D02*
X20375918Y-10533234D01*
X20452118Y-7638434D02*
X20502118Y-7688434D01*
X20502118Y-7638434D02*
X20452118Y-7688434D01*
X20467358Y-9523114D02*
X20517358Y-9573114D01*
X20517358Y-9523114D02*
X20467358Y-9573114D01*
X20477518Y-7318394D02*
X20527518Y-7368394D01*
X20527518Y-7318394D02*
X20477518Y-7368394D01*
X20487678Y-7872114D02*
X20537678Y-7922114D01*
X20537678Y-7872114D02*
X20487678Y-7922114D01*
X20487678Y-12237524D02*
X20537678Y-12287524D01*
X20537678Y-12237524D02*
X20487678Y-12287524D01*
X20513598Y-13992474D02*
X20563598Y-14042474D01*
X20563598Y-13992474D02*
X20513598Y-14042474D01*
X20614678Y-11793874D02*
X20664678Y-11843874D01*
X20664678Y-11793874D02*
X20614678Y-11843874D01*
X20701038Y-12232524D02*
X20751038Y-12282524D01*
X20751038Y-12232524D02*
X20701038Y-12282524D01*
X20817878Y-6246514D02*
X20867878Y-6296514D01*
X20867878Y-6246514D02*
X20817878Y-6296514D01*
X20828038Y-8248034D02*
X20878038Y-8298034D01*
X20878038Y-8248034D02*
X20828038Y-8298034D01*
X20838198Y-7470794D02*
X20888198Y-7520794D01*
X20888198Y-7470794D02*
X20838198Y-7520794D01*
X20858518Y-11575434D02*
X20908518Y-11625434D01*
X20908518Y-11575434D02*
X20858518Y-11625434D01*
X20883918Y-9243714D02*
X20933918Y-9293714D01*
X20933918Y-9243714D02*
X20883918Y-9293714D01*
X20914297Y-5393173D02*
X20964297Y-5443173D01*
X20964297Y-5393173D02*
X20914297Y-5443173D01*
X21295398Y-14232274D02*
X21345398Y-14282274D01*
X21345398Y-14232274D02*
X21295398Y-14282274D01*
X21330958Y-6820554D02*
X21380958Y-6870554D01*
X21380958Y-6820554D02*
X21330958Y-6870554D01*
X21518918Y-14379594D02*
X21568918Y-14429594D01*
X21568918Y-14379594D02*
X21518918Y-14429594D01*
X21523998Y-12972434D02*
X21573998Y-13022434D01*
X21573998Y-12972434D02*
X21523998Y-13022434D01*
X21554478Y-12733674D02*
X21604478Y-12783674D01*
X21604478Y-12733674D02*
X21554478Y-12783674D01*
X21610358Y-13891914D02*
X21660358Y-13941914D01*
X21660358Y-13891914D02*
X21610358Y-13941914D01*
X21833878Y-12723514D02*
X21883878Y-12773514D01*
X21883878Y-12723514D02*
X21833878Y-12773514D01*
X21840381Y-7936731D02*
X21890381Y-7986731D01*
X21890381Y-7936731D02*
X21840381Y-7986731D01*
X22092958Y-11392554D02*
X22142958Y-11442554D01*
X22142958Y-11392554D02*
X22092958Y-11442554D01*
X22138678Y-12286634D02*
X22188678Y-12336634D01*
X22188678Y-12286634D02*
X22138678Y-12336634D01*
X22219958Y-14308474D02*
X22269958Y-14358474D01*
X22269958Y-14308474D02*
X22219958Y-14358474D01*
X22240278Y-12718434D02*
X22290278Y-12768434D01*
X22290278Y-12718434D02*
X22240278Y-12768434D01*
X22316478Y-13536314D02*
X22366478Y-13586314D01*
X22366478Y-13536314D02*
X22316478Y-13586314D01*
X22489198Y-12723514D02*
X22539198Y-12773514D01*
X22539198Y-12723514D02*
X22489198Y-12773514D01*
X22575558Y-6774834D02*
X22625558Y-6824834D01*
X22625558Y-6774834D02*
X22575558Y-6824834D01*
X22663598Y-6142474D02*
X22713598Y-6192474D01*
X22713598Y-6142474D02*
X22663598Y-6192474D01*
X22799078Y-12728594D02*
X22849078Y-12778594D01*
X22849078Y-12728594D02*
X22799078Y-12778594D01*
X22829558Y-13541394D02*
X22879558Y-13591394D01*
X22879558Y-13541394D02*
X22829558Y-13591394D01*
X22870198Y-14150994D02*
X22920198Y-14200994D01*
X22920198Y-14150994D02*
X22870198Y-14200994D01*
D13*
X10897000Y-8484000D02*
G75*
G03*
X10897000Y-8484000I-35000J0D01*
G01*
X10897000Y-8738000D02*
G75*
G03*
X10897000Y-8738000I-35000J0D01*
G01*
X10897000Y-8992000D02*
G75*
G03*
X10897000Y-8992000I-35000J0D01*
G01*
X10897000Y-10984000D02*
G75*
G03*
X10897000Y-10984000I-35000J0D01*
G01*
X10897000Y-11238000D02*
G75*
G03*
X10897000Y-11238000I-35000J0D01*
G01*
X10897000Y-11492000D02*
G75*
G03*
X10897000Y-11492000I-35000J0D01*
G01*
X23573000Y-6008000D02*
G75*
G03*
X23573000Y-6008000I-35000J0D01*
G01*
X23573000Y-6262000D02*
G75*
G03*
X23573000Y-6262000I-35000J0D01*
G01*
X23573000Y-6516000D02*
G75*
G03*
X23573000Y-6516000I-35000J0D01*
G01*
X23573000Y-11008000D02*
G75*
G03*
X23573000Y-11008000I-35000J0D01*
G01*
X23573000Y-11262000D02*
G75*
G03*
X23573000Y-11262000I-35000J0D01*
G01*
X23573000Y-11516000D02*
G75*
G03*
X23573000Y-11516000I-35000J0D01*
G01*
X23585000Y-8496000D02*
G75*
G03*
X23585000Y-8496000I-35000J0D01*
G01*
X23585000Y-8750000D02*
G75*
G03*
X23585000Y-8750000I-35000J0D01*
G01*
X23585000Y-9004000D02*
G75*
G03*
X23585000Y-9004000I-35000J0D01*
G01*
D14*
X10412000Y-8317000D02*
X10412000Y-8397000D01*
X10372000Y-8357000D02*
X10452000Y-8357000D01*
X10412000Y-9079000D02*
X10412000Y-9159000D01*
X10372000Y-9119000D02*
X10452000Y-9119000D01*
X10412000Y-10817000D02*
X10412000Y-10897000D01*
X10372000Y-10857000D02*
X10452000Y-10857000D01*
X10412000Y-11579000D02*
X10412000Y-11659000D01*
X10372000Y-11619000D02*
X10452000Y-11619000D01*
X19879000Y-13126000D02*
X19879000Y-13206000D01*
X19839000Y-13166000D02*
X19919000Y-13166000D01*
X19879000Y-14650000D02*
X19879000Y-14730000D01*
X19839000Y-14690000D02*
X19919000Y-14690000D01*
X20133000Y-13126000D02*
X20133000Y-13206000D01*
X20093000Y-13166000D02*
X20173000Y-13166000D01*
X20133000Y-14650000D02*
X20133000Y-14730000D01*
X20093000Y-14690000D02*
X20173000Y-14690000D01*
X20387000Y-13126000D02*
X20387000Y-13206000D01*
X20347000Y-13166000D02*
X20427000Y-13166000D01*
X20387000Y-14650000D02*
X20387000Y-14730000D01*
X20347000Y-14690000D02*
X20427000Y-14690000D01*
X20641000Y-13126000D02*
X20641000Y-13206000D01*
X20601000Y-13166000D02*
X20681000Y-13166000D01*
X20641000Y-14650000D02*
X20641000Y-14730000D01*
X20601000Y-14690000D02*
X20681000Y-14690000D01*
X20895000Y-13126000D02*
X20895000Y-13206000D01*
X20855000Y-13166000D02*
X20935000Y-13166000D01*
X20895000Y-14650000D02*
X20895000Y-14730000D01*
X20855000Y-14690000D02*
X20935000Y-14690000D01*
X21149000Y-13126000D02*
X21149000Y-13206000D01*
X21109000Y-13166000D02*
X21189000Y-13166000D01*
X21149000Y-14650000D02*
X21149000Y-14730000D01*
X21109000Y-14690000D02*
X21189000Y-14690000D01*
X21403000Y-13126000D02*
X21403000Y-13206000D01*
X21363000Y-13166000D02*
X21443000Y-13166000D01*
X21403000Y-14650000D02*
X21403000Y-14730000D01*
X21363000Y-14690000D02*
X21443000Y-14690000D01*
X21657000Y-13126000D02*
X21657000Y-13206000D01*
X21617000Y-13166000D02*
X21697000Y-13166000D01*
X21657000Y-14650000D02*
X21657000Y-14730000D01*
X21617000Y-14690000D02*
X21697000Y-14690000D01*
X21911000Y-13126000D02*
X21911000Y-13206000D01*
X21871000Y-13166000D02*
X21951000Y-13166000D01*
X21911000Y-14650000D02*
X21911000Y-14730000D01*
X21871000Y-14690000D02*
X21951000Y-14690000D01*
X22165000Y-13126000D02*
X22165000Y-13206000D01*
X22125000Y-13166000D02*
X22205000Y-13166000D01*
X22165000Y-14650000D02*
X22165000Y-14730000D01*
X22125000Y-14690000D02*
X22205000Y-14690000D01*
X22419000Y-13126000D02*
X22419000Y-13206000D01*
X22379000Y-13166000D02*
X22459000Y-13166000D01*
X22419000Y-14650000D02*
X22419000Y-14730000D01*
X22379000Y-14690000D02*
X22459000Y-14690000D01*
X22673000Y-13126000D02*
X22673000Y-13206000D01*
X22633000Y-13166000D02*
X22713000Y-13166000D01*
X22673000Y-14650000D02*
X22673000Y-14730000D01*
X22633000Y-14690000D02*
X22713000Y-14690000D01*
X22927000Y-13126000D02*
X22927000Y-13206000D01*
X22887000Y-13166000D02*
X22967000Y-13166000D01*
X22927000Y-14650000D02*
X22927000Y-14730000D01*
X22887000Y-14690000D02*
X22967000Y-14690000D01*
X23100000Y-8329000D02*
X23100000Y-8409000D01*
X23060000Y-8369000D02*
X23140000Y-8369000D01*
X23100000Y-9091000D02*
X23100000Y-9171000D01*
X23060000Y-9131000D02*
X23140000Y-9131000D01*
X23181000Y-13126000D02*
X23181000Y-13206000D01*
X23141000Y-13166000D02*
X23221000Y-13166000D01*
X23181000Y-14650000D02*
X23181000Y-14730000D01*
X23141000Y-14690000D02*
X23221000Y-14690000D01*
X23435000Y-13126000D02*
X23435000Y-13206000D01*
X23395000Y-13166000D02*
X23475000Y-13166000D01*
X23435000Y-14650000D02*
X23435000Y-14730000D01*
X23395000Y-14690000D02*
X23475000Y-14690000D01*
X23988000Y-5841000D02*
X23988000Y-5921000D01*
X23948000Y-5881000D02*
X24028000Y-5881000D01*
X23988000Y-6603000D02*
X23988000Y-6683000D01*
X23948000Y-6643000D02*
X24028000Y-6643000D01*
X23988000Y-10841000D02*
X23988000Y-10921000D01*
X23948000Y-10881000D02*
X24028000Y-10881000D01*
X23988000Y-11603000D02*
X23988000Y-11683000D01*
X23948000Y-11643000D02*
X24028000Y-11643000D01*
D15*
X19422621Y-9191497D02*
X19422621Y-9121451D01*
X19352575Y-9121451D01*
X19352575Y-9191497D01*
X19422621Y-9191497D01*
X19422621Y-9445497D02*
X19422621Y-9375451D01*
X19352575Y-9375451D01*
X19352575Y-9445497D01*
X19422621Y-9445497D01*
X19422621Y-9699497D02*
X19422621Y-9629451D01*
X19352575Y-9629451D01*
X19352575Y-9699497D01*
X19422621Y-9699497D01*
X19422621Y-9953497D02*
X19422621Y-9883451D01*
X19352575Y-9883451D01*
X19352575Y-9953497D01*
X19422621Y-9953497D01*
X20184621Y-9191497D02*
X20184621Y-9121451D01*
X20114575Y-9121451D01*
X20114575Y-9191497D01*
X20184621Y-9191497D01*
X20184621Y-9445497D02*
X20184621Y-9375451D01*
X20114575Y-9375451D01*
X20114575Y-9445497D01*
X20184621Y-9445497D01*
X20184621Y-9699497D02*
X20184621Y-9629451D01*
X20114575Y-9629451D01*
X20114575Y-9699497D01*
X20184621Y-9699497D01*
X20184621Y-9953497D02*
X20184621Y-9883451D01*
X20114575Y-9883451D01*
X20114575Y-9953497D01*
X20184621Y-9953497D01*
D16*
X12985000Y-6150000D02*
X13035000Y-6100000D01*
X12985000Y-6050000D01*
X12935000Y-6100000D01*
X12985000Y-6150000D01*
X12985000Y-6404000D02*
X13035000Y-6354000D01*
X12985000Y-6304000D01*
X12935000Y-6354000D01*
X12985000Y-6404000D01*
X12985000Y-6658000D02*
X13035000Y-6608000D01*
X12985000Y-6558000D01*
X12935000Y-6608000D01*
X12985000Y-6658000D01*
X12985000Y-6912000D02*
X13035000Y-6862000D01*
X12985000Y-6812000D01*
X12935000Y-6862000D01*
X12985000Y-6912000D01*
X12985000Y-7166000D02*
X13035000Y-7116000D01*
X12985000Y-7066000D01*
X12935000Y-7116000D01*
X12985000Y-7166000D01*
X12985000Y-7420000D02*
X13035000Y-7370000D01*
X12985000Y-7320000D01*
X12935000Y-7370000D01*
X12985000Y-7420000D01*
X12985000Y-7674000D02*
X13035000Y-7624000D01*
X12985000Y-7574000D01*
X12935000Y-7624000D01*
X12985000Y-7674000D01*
X12985000Y-7928000D02*
X13035000Y-7878000D01*
X12985000Y-7828000D01*
X12935000Y-7878000D01*
X12985000Y-7928000D01*
X12985000Y-8182000D02*
X13035000Y-8132000D01*
X12985000Y-8082000D01*
X12935000Y-8132000D01*
X12985000Y-8182000D01*
X12985000Y-8436000D02*
X13035000Y-8386000D01*
X12985000Y-8336000D01*
X12935000Y-8386000D01*
X12985000Y-8436000D01*
X12985000Y-8690000D02*
X13035000Y-8640000D01*
X12985000Y-8590000D01*
X12935000Y-8640000D01*
X12985000Y-8690000D01*
X12985000Y-8944000D02*
X13035000Y-8894000D01*
X12985000Y-8844000D01*
X12935000Y-8894000D01*
X12985000Y-8944000D01*
X12985000Y-9198000D02*
X13035000Y-9148000D01*
X12985000Y-9098000D01*
X12935000Y-9148000D01*
X12985000Y-9198000D01*
X12985000Y-9452000D02*
X13035000Y-9402000D01*
X12985000Y-9352000D01*
X12935000Y-9402000D01*
X12985000Y-9452000D01*
X13180000Y-13225000D02*
X13230000Y-13175000D01*
X13180000Y-13125000D01*
X13130000Y-13175000D01*
X13180000Y-13225000D01*
X13180000Y-13479000D02*
X13230000Y-13429000D01*
X13180000Y-13379000D01*
X13130000Y-13429000D01*
X13180000Y-13479000D01*
X13180000Y-13733000D02*
X13230000Y-13683000D01*
X13180000Y-13633000D01*
X13130000Y-13683000D01*
X13180000Y-13733000D01*
X13180000Y-13987000D02*
X13230000Y-13937000D01*
X13180000Y-13887000D01*
X13130000Y-13937000D01*
X13180000Y-13987000D01*
X13180000Y-14241000D02*
X13230000Y-14191000D01*
X13180000Y-14141000D01*
X13130000Y-14191000D01*
X13180000Y-14241000D01*
X15408598Y-11687474D02*
X15458598Y-11637474D01*
X15408598Y-11587474D01*
X15358598Y-11637474D01*
X15408598Y-11687474D01*
X16178598Y-11510974D02*
X16228598Y-11460974D01*
X16178598Y-11410974D01*
X16128598Y-11460974D01*
X16178598Y-11510974D01*
X16178598Y-11764974D02*
X16228598Y-11714974D01*
X16178598Y-11664974D01*
X16128598Y-11714974D01*
X16178598Y-11764974D01*
X16968598Y-11657474D02*
X17018598Y-11607474D01*
X16968598Y-11557474D01*
X16918598Y-11607474D01*
X16968598Y-11657474D01*
X17678598Y-11637474D02*
X17728598Y-11587474D01*
X17678598Y-11537474D01*
X17628598Y-11587474D01*
X17678598Y-11637474D01*
X18418598Y-11637474D02*
X18468598Y-11587474D01*
X18418598Y-11537474D01*
X18368598Y-11587474D01*
X18418598Y-11637474D01*
X19168598Y-11617474D02*
X19218598Y-11567474D01*
X19168598Y-11517474D01*
X19118598Y-11567474D01*
X19168598Y-11617474D01*
X21101098Y-12407474D02*
X21151098Y-12357474D01*
X21101098Y-12307474D01*
X21051098Y-12357474D01*
X21101098Y-12407474D01*
X21355098Y-12407474D02*
X21405098Y-12357474D01*
X21355098Y-12307474D01*
X21305098Y-12357474D01*
X21355098Y-12407474D01*
X21415000Y-7420000D02*
X21465000Y-7370000D01*
X21415000Y-7320000D01*
X21365000Y-7370000D01*
X21415000Y-7420000D01*
X21415000Y-7674000D02*
X21465000Y-7624000D01*
X21415000Y-7574000D01*
X21365000Y-7624000D01*
X21415000Y-7674000D01*
X21415000Y-7928000D02*
X21465000Y-7878000D01*
X21415000Y-7828000D01*
X21365000Y-7878000D01*
X21415000Y-7928000D01*
X21415000Y-8182000D02*
X21465000Y-8132000D01*
X21415000Y-8082000D01*
X21365000Y-8132000D01*
X21415000Y-8182000D01*
D17*
X16267500Y-12545500D02*
X16376500Y-12654500D01*
X16376500Y-12545500D02*
X16267500Y-12654500D01*
X16376500Y-12600000D02*
G75*
G03*
X16376500Y-12600000I-54500J0D01*
G01*
X16521500Y-12545500D02*
X16630500Y-12654500D01*
X16630500Y-12545500D02*
X16521500Y-12654500D01*
X16630500Y-12600000D02*
G75*
G03*
X16630500Y-12600000I-54500J0D01*
G01*
X16775500Y-12545500D02*
X16884500Y-12654500D01*
X16884500Y-12545500D02*
X16775500Y-12654500D01*
X16884500Y-12600000D02*
G75*
G03*
X16884500Y-12600000I-54500J0D01*
G01*
X17029500Y-12545500D02*
X17138500Y-12654500D01*
X17138500Y-12545500D02*
X17029500Y-12654500D01*
X17138500Y-12600000D02*
G75*
G03*
X17138500Y-12600000I-54500J0D01*
G01*
X17283500Y-12545500D02*
X17392500Y-12654500D01*
X17392500Y-12545500D02*
X17283500Y-12654500D01*
X17392500Y-12600000D02*
G75*
G03*
X17392500Y-12600000I-54500J0D01*
G01*
X17537500Y-12545500D02*
X17646500Y-12654500D01*
X17646500Y-12545500D02*
X17537500Y-12654500D01*
X17646500Y-12600000D02*
G75*
G03*
X17646500Y-12600000I-54500J0D01*
G01*
X17791500Y-12545500D02*
X17900500Y-12654500D01*
X17900500Y-12545500D02*
X17791500Y-12654500D01*
X17900500Y-12600000D02*
G75*
G03*
X17900500Y-12600000I-54500J0D01*
G01*
X18045500Y-12545500D02*
X18154500Y-12654500D01*
X18154500Y-12545500D02*
X18045500Y-12654500D01*
X18154500Y-12600000D02*
G75*
G03*
X18154500Y-12600000I-54500J0D01*
G01*
D18*
X14429580Y-12541580D02*
X14546420Y-12658420D01*
X14546420Y-12541580D02*
X14429580Y-12658420D01*
X14488000Y-12541580D02*
X14488000Y-12658420D01*
X14429580Y-12600000D02*
X14546420Y-12600000D01*
X14683580Y-12541580D02*
X14800420Y-12658420D01*
X14800420Y-12541580D02*
X14683580Y-12658420D01*
X14742000Y-12541580D02*
X14742000Y-12658420D01*
X14683580Y-12600000D02*
X14800420Y-12600000D01*
X14937580Y-12541580D02*
X15054420Y-12658420D01*
X15054420Y-12541580D02*
X14937580Y-12658420D01*
X14996000Y-12541580D02*
X14996000Y-12658420D01*
X14937580Y-12600000D02*
X15054420Y-12600000D01*
X15191580Y-12541580D02*
X15308420Y-12658420D01*
X15308420Y-12541580D02*
X15191580Y-12658420D01*
X15250000Y-12541580D02*
X15250000Y-12658420D01*
X15191580Y-12600000D02*
X15308420Y-12600000D01*
D19*
X10180000Y-6065000D02*
X10330000Y-6215000D01*
X10330000Y-6065000D02*
X10180000Y-6215000D01*
X10308034Y-6193033D02*
X10308034Y-6086966D01*
X10201967Y-6086966D01*
X10201967Y-6193033D01*
X10308034Y-6193033D01*
X10180000Y-6385000D02*
X10330000Y-6535000D01*
X10330000Y-6385000D02*
X10180000Y-6535000D01*
X10308034Y-6513033D02*
X10308034Y-6406966D01*
X10201967Y-6406966D01*
X10201967Y-6513033D01*
X10308034Y-6513033D01*
X11760000Y-6065000D02*
X11910000Y-6215000D01*
X11910000Y-6065000D02*
X11760000Y-6215000D01*
X11888033Y-6193033D02*
X11888033Y-6086966D01*
X11781966Y-6086966D01*
X11781966Y-6193033D01*
X11888033Y-6193033D01*
X11760000Y-6385000D02*
X11910000Y-6535000D01*
X11910000Y-6385000D02*
X11760000Y-6535000D01*
X11888033Y-6513033D02*
X11888033Y-6406966D01*
X11781966Y-6406966D01*
X11781966Y-6513033D01*
X11888033Y-6513033D01*
D20*
X10485000Y-6210000D02*
X10665000Y-6390000D01*
X10665000Y-6210000D02*
X10485000Y-6390000D01*
X10575000Y-6390000D02*
X10665000Y-6300000D01*
X10575000Y-6210000D01*
X10485000Y-6300000D01*
X10575000Y-6390000D01*
X10955000Y-6210000D02*
X11135000Y-6390000D01*
X11135000Y-6210000D02*
X10955000Y-6390000D01*
X11045000Y-6390000D02*
X11135000Y-6300000D01*
X11045000Y-6210000D01*
X10955000Y-6300000D01*
X11045000Y-6390000D01*
X11425000Y-6210000D02*
X11605000Y-6390000D01*
X11605000Y-6210000D02*
X11425000Y-6390000D01*
X11515000Y-6390000D02*
X11605000Y-6300000D01*
X11515000Y-6210000D01*
X11425000Y-6300000D01*
X11515000Y-6390000D01*
D12*
X10255119Y-15312976D02*
X10255119Y-15112976D01*
X10302738Y-15112976D01*
X10331310Y-15122500D01*
X10350357Y-15141548D01*
X10359881Y-15160595D01*
X10369405Y-15198690D01*
X10369405Y-15227262D01*
X10359881Y-15265357D01*
X10350357Y-15284405D01*
X10331310Y-15303452D01*
X10302738Y-15312976D01*
X10255119Y-15312976D01*
X10455119Y-15312976D02*
X10455119Y-15179643D01*
X10455119Y-15217738D02*
X10464643Y-15198690D01*
X10474167Y-15189167D01*
X10493214Y-15179643D01*
X10512262Y-15179643D01*
X10578929Y-15312976D02*
X10578929Y-15179643D01*
X10578929Y-15112976D02*
X10569405Y-15122500D01*
X10578929Y-15132024D01*
X10588452Y-15122500D01*
X10578929Y-15112976D01*
X10578929Y-15132024D01*
X10702738Y-15312976D02*
X10683690Y-15303452D01*
X10674167Y-15284405D01*
X10674167Y-15112976D01*
X10807500Y-15312976D02*
X10788452Y-15303452D01*
X10778929Y-15284405D01*
X10778929Y-15112976D01*
X11036071Y-15312976D02*
X11036071Y-15112976D01*
X11102738Y-15255833D01*
X11169405Y-15112976D01*
X11169405Y-15312976D01*
X11350357Y-15312976D02*
X11350357Y-15208214D01*
X11340833Y-15189167D01*
X11321786Y-15179643D01*
X11283690Y-15179643D01*
X11264643Y-15189167D01*
X11350357Y-15303452D02*
X11331309Y-15312976D01*
X11283690Y-15312976D01*
X11264643Y-15303452D01*
X11255119Y-15284405D01*
X11255119Y-15265357D01*
X11264643Y-15246309D01*
X11283690Y-15236786D01*
X11331309Y-15236786D01*
X11350357Y-15227262D01*
X11445595Y-15179643D02*
X11445595Y-15379643D01*
X11445595Y-15189167D02*
X11464643Y-15179643D01*
X11502738Y-15179643D01*
X11521786Y-15189167D01*
X11531309Y-15198690D01*
X11540833Y-15217738D01*
X11540833Y-15274881D01*
X11531309Y-15293928D01*
X11521786Y-15303452D01*
X11502738Y-15312976D01*
X11464643Y-15312976D01*
X11445595Y-15303452D01*
X11626548Y-15293928D02*
X11636071Y-15303452D01*
X11626548Y-15312976D01*
X11617024Y-15303452D01*
X11626548Y-15293928D01*
X11626548Y-15312976D01*
X11626548Y-15189167D02*
X11636071Y-15198690D01*
X11626548Y-15208214D01*
X11617024Y-15198690D01*
X11626548Y-15189167D01*
X11626548Y-15208214D01*
D11*
X9947500Y-15617500D02*
X9997500Y-15667500D01*
X9997500Y-15617500D02*
X9947500Y-15667500D01*
D12*
X10293214Y-15532976D02*
X10312262Y-15532976D01*
X10331310Y-15542500D01*
X10340833Y-15552024D01*
X10350357Y-15571071D01*
X10359881Y-15609167D01*
X10359881Y-15656786D01*
X10350357Y-15694881D01*
X10340833Y-15713928D01*
X10331310Y-15723452D01*
X10312262Y-15732976D01*
X10293214Y-15732976D01*
X10274167Y-15723452D01*
X10264643Y-15713928D01*
X10255119Y-15694881D01*
X10245595Y-15656786D01*
X10245595Y-15609167D01*
X10255119Y-15571071D01*
X10264643Y-15552024D01*
X10274167Y-15542500D01*
X10293214Y-15532976D01*
X10445595Y-15713928D02*
X10455119Y-15723452D01*
X10445595Y-15732976D01*
X10436071Y-15723452D01*
X10445595Y-15713928D01*
X10445595Y-15732976D01*
X10636071Y-15532976D02*
X10540833Y-15532976D01*
X10531310Y-15628214D01*
X10540833Y-15618690D01*
X10559881Y-15609167D01*
X10607500Y-15609167D01*
X10626548Y-15618690D01*
X10636071Y-15628214D01*
X10645595Y-15647262D01*
X10645595Y-15694881D01*
X10636071Y-15713928D01*
X10626548Y-15723452D01*
X10607500Y-15732976D01*
X10559881Y-15732976D01*
X10540833Y-15723452D01*
X10531310Y-15713928D01*
X10769405Y-15532976D02*
X10788452Y-15532976D01*
X10807500Y-15542500D01*
X10817024Y-15552024D01*
X10826548Y-15571071D01*
X10836071Y-15609167D01*
X10836071Y-15656786D01*
X10826548Y-15694881D01*
X10817024Y-15713928D01*
X10807500Y-15723452D01*
X10788452Y-15732976D01*
X10769405Y-15732976D01*
X10750357Y-15723452D01*
X10740833Y-15713928D01*
X10731310Y-15694881D01*
X10721786Y-15656786D01*
X10721786Y-15609167D01*
X10731310Y-15571071D01*
X10740833Y-15552024D01*
X10750357Y-15542500D01*
X10769405Y-15532976D01*
X10959881Y-15532976D02*
X10978929Y-15532976D01*
X10997976Y-15542500D01*
X11007500Y-15552024D01*
X11017024Y-15571071D01*
X11026548Y-15609167D01*
X11026548Y-15656786D01*
X11017024Y-15694881D01*
X11007500Y-15713928D01*
X10997976Y-15723452D01*
X10978929Y-15732976D01*
X10959881Y-15732976D01*
X10940833Y-15723452D01*
X10931310Y-15713928D01*
X10921786Y-15694881D01*
X10912262Y-15656786D01*
X10912262Y-15609167D01*
X10921786Y-15571071D01*
X10931310Y-15552024D01*
X10940833Y-15542500D01*
X10959881Y-15532976D01*
X11112262Y-15732976D02*
X11112262Y-15599643D01*
X11112262Y-15618690D02*
X11121786Y-15609167D01*
X11140833Y-15599643D01*
X11169405Y-15599643D01*
X11188452Y-15609167D01*
X11197976Y-15628214D01*
X11197976Y-15732976D01*
X11197976Y-15628214D02*
X11207500Y-15609167D01*
X11226548Y-15599643D01*
X11255119Y-15599643D01*
X11274167Y-15609167D01*
X11283690Y-15628214D01*
X11283690Y-15732976D01*
X11378928Y-15732976D02*
X11378928Y-15599643D01*
X11378928Y-15618690D02*
X11388452Y-15609167D01*
X11407500Y-15599643D01*
X11436071Y-15599643D01*
X11455119Y-15609167D01*
X11464643Y-15628214D01*
X11464643Y-15732976D01*
X11464643Y-15628214D02*
X11474167Y-15609167D01*
X11493214Y-15599643D01*
X11521786Y-15599643D01*
X11540833Y-15609167D01*
X11550357Y-15628214D01*
X11550357Y-15732976D01*
X11940833Y-15523452D02*
X11769405Y-15780595D01*
X12197976Y-15532976D02*
X12217024Y-15532976D01*
X12236071Y-15542500D01*
X12245595Y-15552024D01*
X12255119Y-15571071D01*
X12264643Y-15609167D01*
X12264643Y-15656786D01*
X12255119Y-15694881D01*
X12245595Y-15713928D01*
X12236071Y-15723452D01*
X12217024Y-15732976D01*
X12197976Y-15732976D01*
X12178928Y-15723452D01*
X12169405Y-15713928D01*
X12159881Y-15694881D01*
X12150357Y-15656786D01*
X12150357Y-15609167D01*
X12159881Y-15571071D01*
X12169405Y-15552024D01*
X12178928Y-15542500D01*
X12197976Y-15532976D01*
X12350357Y-15713928D02*
X12359881Y-15723452D01*
X12350357Y-15732976D01*
X12340833Y-15723452D01*
X12350357Y-15713928D01*
X12350357Y-15732976D01*
X12483690Y-15532976D02*
X12502738Y-15532976D01*
X12521786Y-15542500D01*
X12531309Y-15552024D01*
X12540833Y-15571071D01*
X12550357Y-15609167D01*
X12550357Y-15656786D01*
X12540833Y-15694881D01*
X12531309Y-15713928D01*
X12521786Y-15723452D01*
X12502738Y-15732976D01*
X12483690Y-15732976D01*
X12464643Y-15723452D01*
X12455119Y-15713928D01*
X12445595Y-15694881D01*
X12436071Y-15656786D01*
X12436071Y-15609167D01*
X12445595Y-15571071D01*
X12455119Y-15552024D01*
X12464643Y-15542500D01*
X12483690Y-15532976D01*
X12740833Y-15732976D02*
X12626548Y-15732976D01*
X12683690Y-15732976D02*
X12683690Y-15532976D01*
X12664643Y-15561548D01*
X12645595Y-15580595D01*
X12626548Y-15590119D01*
X12836071Y-15732976D02*
X12874167Y-15732976D01*
X12893214Y-15723452D01*
X12902738Y-15713928D01*
X12921786Y-15685357D01*
X12931309Y-15647262D01*
X12931309Y-15571071D01*
X12921786Y-15552024D01*
X12912262Y-15542500D01*
X12893214Y-15532976D01*
X12855119Y-15532976D01*
X12836071Y-15542500D01*
X12826548Y-15552024D01*
X12817024Y-15571071D01*
X12817024Y-15618690D01*
X12826548Y-15637738D01*
X12836071Y-15647262D01*
X12855119Y-15656786D01*
X12893214Y-15656786D01*
X12912262Y-15647262D01*
X12921786Y-15637738D01*
X12931309Y-15618690D01*
X12997976Y-15532976D02*
X13131309Y-15532976D01*
X13045595Y-15732976D01*
X13197976Y-15532976D02*
X13197976Y-15571071D01*
X13274167Y-15532976D02*
X13274167Y-15571071D01*
X13569405Y-15809167D02*
X13559881Y-15799643D01*
X13540833Y-15771071D01*
X13531309Y-15752024D01*
X13521786Y-15723452D01*
X13512262Y-15675833D01*
X13512262Y-15637738D01*
X13521786Y-15590119D01*
X13531309Y-15561548D01*
X13540833Y-15542500D01*
X13559881Y-15513928D01*
X13569405Y-15504405D01*
X13750357Y-15732976D02*
X13636071Y-15732976D01*
X13693214Y-15732976D02*
X13693214Y-15532976D01*
X13674167Y-15561548D01*
X13655119Y-15580595D01*
X13636071Y-15590119D01*
X13817024Y-15532976D02*
X13940833Y-15532976D01*
X13874167Y-15609167D01*
X13902738Y-15609167D01*
X13921786Y-15618690D01*
X13931309Y-15628214D01*
X13940833Y-15647262D01*
X13940833Y-15694881D01*
X13931309Y-15713928D01*
X13921786Y-15723452D01*
X13902738Y-15732976D01*
X13845595Y-15732976D01*
X13826548Y-15723452D01*
X13817024Y-15713928D01*
X14112262Y-15599643D02*
X14112262Y-15732976D01*
X14064643Y-15523452D02*
X14017024Y-15666309D01*
X14140833Y-15666309D01*
X14369405Y-15732976D02*
X14369405Y-15532976D01*
X14455119Y-15732976D02*
X14455119Y-15628214D01*
X14445595Y-15609167D01*
X14426548Y-15599643D01*
X14397976Y-15599643D01*
X14378928Y-15609167D01*
X14369405Y-15618690D01*
X14578928Y-15732976D02*
X14559881Y-15723452D01*
X14550357Y-15713928D01*
X14540833Y-15694881D01*
X14540833Y-15637738D01*
X14550357Y-15618690D01*
X14559881Y-15609167D01*
X14578928Y-15599643D01*
X14607500Y-15599643D01*
X14626548Y-15609167D01*
X14636071Y-15618690D01*
X14645595Y-15637738D01*
X14645595Y-15694881D01*
X14636071Y-15713928D01*
X14626548Y-15723452D01*
X14607500Y-15732976D01*
X14578928Y-15732976D01*
X14759881Y-15732976D02*
X14740833Y-15723452D01*
X14731309Y-15704405D01*
X14731309Y-15532976D01*
X14912262Y-15723452D02*
X14893214Y-15732976D01*
X14855119Y-15732976D01*
X14836071Y-15723452D01*
X14826548Y-15704405D01*
X14826548Y-15628214D01*
X14836071Y-15609167D01*
X14855119Y-15599643D01*
X14893214Y-15599643D01*
X14912262Y-15609167D01*
X14921786Y-15628214D01*
X14921786Y-15647262D01*
X14826548Y-15666309D01*
X14997976Y-15723452D02*
X15017024Y-15732976D01*
X15055119Y-15732976D01*
X15074167Y-15723452D01*
X15083690Y-15704405D01*
X15083690Y-15694881D01*
X15074167Y-15675833D01*
X15055119Y-15666309D01*
X15026548Y-15666309D01*
X15007500Y-15656786D01*
X14997976Y-15637738D01*
X14997976Y-15628214D01*
X15007500Y-15609167D01*
X15026548Y-15599643D01*
X15055119Y-15599643D01*
X15074167Y-15609167D01*
X15150357Y-15809167D02*
X15159881Y-15799643D01*
X15178928Y-15771071D01*
X15188452Y-15752024D01*
X15197976Y-15723452D01*
X15207500Y-15675833D01*
X15207500Y-15637738D01*
X15197976Y-15590119D01*
X15188452Y-15561548D01*
X15178928Y-15542500D01*
X15159881Y-15513928D01*
X15150357Y-15504405D01*
D13*
X9997500Y-15906500D02*
G75*
G03*
X9997500Y-15906500I-35000J0D01*
G01*
D12*
X10293214Y-15796976D02*
X10312262Y-15796976D01*
X10331310Y-15806500D01*
X10340833Y-15816024D01*
X10350357Y-15835071D01*
X10359881Y-15873167D01*
X10359881Y-15920786D01*
X10350357Y-15958881D01*
X10340833Y-15977928D01*
X10331310Y-15987452D01*
X10312262Y-15996976D01*
X10293214Y-15996976D01*
X10274167Y-15987452D01*
X10264643Y-15977928D01*
X10255119Y-15958881D01*
X10245595Y-15920786D01*
X10245595Y-15873167D01*
X10255119Y-15835071D01*
X10264643Y-15816024D01*
X10274167Y-15806500D01*
X10293214Y-15796976D01*
X10445595Y-15977928D02*
X10455119Y-15987452D01*
X10445595Y-15996976D01*
X10436071Y-15987452D01*
X10445595Y-15977928D01*
X10445595Y-15996976D01*
X10521786Y-15796976D02*
X10655119Y-15796976D01*
X10569405Y-15996976D01*
X10769405Y-15796976D02*
X10788452Y-15796976D01*
X10807500Y-15806500D01*
X10817024Y-15816024D01*
X10826548Y-15835071D01*
X10836071Y-15873167D01*
X10836071Y-15920786D01*
X10826548Y-15958881D01*
X10817024Y-15977928D01*
X10807500Y-15987452D01*
X10788452Y-15996976D01*
X10769405Y-15996976D01*
X10750357Y-15987452D01*
X10740833Y-15977928D01*
X10731310Y-15958881D01*
X10721786Y-15920786D01*
X10721786Y-15873167D01*
X10731310Y-15835071D01*
X10740833Y-15816024D01*
X10750357Y-15806500D01*
X10769405Y-15796976D01*
X10959881Y-15796976D02*
X10978929Y-15796976D01*
X10997976Y-15806500D01*
X11007500Y-15816024D01*
X11017024Y-15835071D01*
X11026548Y-15873167D01*
X11026548Y-15920786D01*
X11017024Y-15958881D01*
X11007500Y-15977928D01*
X10997976Y-15987452D01*
X10978929Y-15996976D01*
X10959881Y-15996976D01*
X10940833Y-15987452D01*
X10931310Y-15977928D01*
X10921786Y-15958881D01*
X10912262Y-15920786D01*
X10912262Y-15873167D01*
X10921786Y-15835071D01*
X10931310Y-15816024D01*
X10940833Y-15806500D01*
X10959881Y-15796976D01*
X11112262Y-15996976D02*
X11112262Y-15863643D01*
X11112262Y-15882690D02*
X11121786Y-15873167D01*
X11140833Y-15863643D01*
X11169405Y-15863643D01*
X11188452Y-15873167D01*
X11197976Y-15892214D01*
X11197976Y-15996976D01*
X11197976Y-15892214D02*
X11207500Y-15873167D01*
X11226548Y-15863643D01*
X11255119Y-15863643D01*
X11274167Y-15873167D01*
X11283690Y-15892214D01*
X11283690Y-15996976D01*
X11378928Y-15996976D02*
X11378928Y-15863643D01*
X11378928Y-15882690D02*
X11388452Y-15873167D01*
X11407500Y-15863643D01*
X11436071Y-15863643D01*
X11455119Y-15873167D01*
X11464643Y-15892214D01*
X11464643Y-15996976D01*
X11464643Y-15892214D02*
X11474167Y-15873167D01*
X11493214Y-15863643D01*
X11521786Y-15863643D01*
X11540833Y-15873167D01*
X11550357Y-15892214D01*
X11550357Y-15996976D01*
X11940833Y-15787452D02*
X11769405Y-16044595D01*
X12197976Y-15796976D02*
X12217024Y-15796976D01*
X12236071Y-15806500D01*
X12245595Y-15816024D01*
X12255119Y-15835071D01*
X12264643Y-15873167D01*
X12264643Y-15920786D01*
X12255119Y-15958881D01*
X12245595Y-15977928D01*
X12236071Y-15987452D01*
X12217024Y-15996976D01*
X12197976Y-15996976D01*
X12178928Y-15987452D01*
X12169405Y-15977928D01*
X12159881Y-15958881D01*
X12150357Y-15920786D01*
X12150357Y-15873167D01*
X12159881Y-15835071D01*
X12169405Y-15816024D01*
X12178928Y-15806500D01*
X12197976Y-15796976D01*
X12350357Y-15977928D02*
X12359881Y-15987452D01*
X12350357Y-15996976D01*
X12340833Y-15987452D01*
X12350357Y-15977928D01*
X12350357Y-15996976D01*
X12483690Y-15796976D02*
X12502738Y-15796976D01*
X12521786Y-15806500D01*
X12531309Y-15816024D01*
X12540833Y-15835071D01*
X12550357Y-15873167D01*
X12550357Y-15920786D01*
X12540833Y-15958881D01*
X12531309Y-15977928D01*
X12521786Y-15987452D01*
X12502738Y-15996976D01*
X12483690Y-15996976D01*
X12464643Y-15987452D01*
X12455119Y-15977928D01*
X12445595Y-15958881D01*
X12436071Y-15920786D01*
X12436071Y-15873167D01*
X12445595Y-15835071D01*
X12455119Y-15816024D01*
X12464643Y-15806500D01*
X12483690Y-15796976D01*
X12626548Y-15816024D02*
X12636071Y-15806500D01*
X12655119Y-15796976D01*
X12702738Y-15796976D01*
X12721786Y-15806500D01*
X12731309Y-15816024D01*
X12740833Y-15835071D01*
X12740833Y-15854119D01*
X12731309Y-15882690D01*
X12617024Y-15996976D01*
X12740833Y-15996976D01*
X12807500Y-15796976D02*
X12940833Y-15796976D01*
X12855119Y-15996976D01*
X13102738Y-15796976D02*
X13064643Y-15796976D01*
X13045595Y-15806500D01*
X13036071Y-15816024D01*
X13017024Y-15844595D01*
X13007500Y-15882690D01*
X13007500Y-15958881D01*
X13017024Y-15977928D01*
X13026548Y-15987452D01*
X13045595Y-15996976D01*
X13083690Y-15996976D01*
X13102738Y-15987452D01*
X13112262Y-15977928D01*
X13121786Y-15958881D01*
X13121786Y-15911262D01*
X13112262Y-15892214D01*
X13102738Y-15882690D01*
X13083690Y-15873167D01*
X13045595Y-15873167D01*
X13026548Y-15882690D01*
X13017024Y-15892214D01*
X13007500Y-15911262D01*
X13197976Y-15796976D02*
X13197976Y-15835071D01*
X13274167Y-15796976D02*
X13274167Y-15835071D01*
X13569405Y-16073167D02*
X13559881Y-16063643D01*
X13540833Y-16035071D01*
X13531309Y-16016024D01*
X13521786Y-15987452D01*
X13512262Y-15939833D01*
X13512262Y-15901738D01*
X13521786Y-15854119D01*
X13531309Y-15825548D01*
X13540833Y-15806500D01*
X13559881Y-15777928D01*
X13569405Y-15768405D01*
X13750357Y-15996976D02*
X13636071Y-15996976D01*
X13693214Y-15996976D02*
X13693214Y-15796976D01*
X13674167Y-15825548D01*
X13655119Y-15844595D01*
X13636071Y-15854119D01*
X13931309Y-15796976D02*
X13836071Y-15796976D01*
X13826548Y-15892214D01*
X13836071Y-15882690D01*
X13855119Y-15873167D01*
X13902738Y-15873167D01*
X13921786Y-15882690D01*
X13931309Y-15892214D01*
X13940833Y-15911262D01*
X13940833Y-15958881D01*
X13931309Y-15977928D01*
X13921786Y-15987452D01*
X13902738Y-15996976D01*
X13855119Y-15996976D01*
X13836071Y-15987452D01*
X13826548Y-15977928D01*
X14178928Y-15996976D02*
X14178928Y-15796976D01*
X14264643Y-15996976D02*
X14264643Y-15892214D01*
X14255119Y-15873167D01*
X14236071Y-15863643D01*
X14207500Y-15863643D01*
X14188452Y-15873167D01*
X14178928Y-15882690D01*
X14388452Y-15996976D02*
X14369405Y-15987452D01*
X14359881Y-15977928D01*
X14350357Y-15958881D01*
X14350357Y-15901738D01*
X14359881Y-15882690D01*
X14369405Y-15873167D01*
X14388452Y-15863643D01*
X14417024Y-15863643D01*
X14436071Y-15873167D01*
X14445595Y-15882690D01*
X14455119Y-15901738D01*
X14455119Y-15958881D01*
X14445595Y-15977928D01*
X14436071Y-15987452D01*
X14417024Y-15996976D01*
X14388452Y-15996976D01*
X14569405Y-15996976D02*
X14550357Y-15987452D01*
X14540833Y-15968405D01*
X14540833Y-15796976D01*
X14721786Y-15987452D02*
X14702738Y-15996976D01*
X14664643Y-15996976D01*
X14645595Y-15987452D01*
X14636071Y-15968405D01*
X14636071Y-15892214D01*
X14645595Y-15873167D01*
X14664643Y-15863643D01*
X14702738Y-15863643D01*
X14721786Y-15873167D01*
X14731309Y-15892214D01*
X14731309Y-15911262D01*
X14636071Y-15930309D01*
X14807500Y-15987452D02*
X14826548Y-15996976D01*
X14864643Y-15996976D01*
X14883690Y-15987452D01*
X14893214Y-15968405D01*
X14893214Y-15958881D01*
X14883690Y-15939833D01*
X14864643Y-15930309D01*
X14836071Y-15930309D01*
X14817024Y-15920786D01*
X14807500Y-15901738D01*
X14807500Y-15892214D01*
X14817024Y-15873167D01*
X14836071Y-15863643D01*
X14864643Y-15863643D01*
X14883690Y-15873167D01*
X14959881Y-16073167D02*
X14969405Y-16063643D01*
X14988452Y-16035071D01*
X14997976Y-16016024D01*
X15007500Y-15987452D01*
X15017024Y-15939833D01*
X15017024Y-15901738D01*
X15007500Y-15854119D01*
X14997976Y-15825548D01*
X14988452Y-15806500D01*
X14969405Y-15777928D01*
X14959881Y-15768405D01*
D14*
X9957500Y-16130500D02*
X9957500Y-16210500D01*
X9917500Y-16170500D02*
X9997500Y-16170500D01*
D12*
X10293214Y-16060976D02*
X10312262Y-16060976D01*
X10331310Y-16070500D01*
X10340833Y-16080024D01*
X10350357Y-16099071D01*
X10359881Y-16137167D01*
X10359881Y-16184786D01*
X10350357Y-16222881D01*
X10340833Y-16241928D01*
X10331310Y-16251452D01*
X10312262Y-16260976D01*
X10293214Y-16260976D01*
X10274167Y-16251452D01*
X10264643Y-16241928D01*
X10255119Y-16222881D01*
X10245595Y-16184786D01*
X10245595Y-16137167D01*
X10255119Y-16099071D01*
X10264643Y-16080024D01*
X10274167Y-16070500D01*
X10293214Y-16060976D01*
X10445595Y-16241928D02*
X10455119Y-16251452D01*
X10445595Y-16260976D01*
X10436071Y-16251452D01*
X10445595Y-16241928D01*
X10445595Y-16260976D01*
X10569405Y-16146690D02*
X10550357Y-16137167D01*
X10540833Y-16127643D01*
X10531310Y-16108595D01*
X10531310Y-16099071D01*
X10540833Y-16080024D01*
X10550357Y-16070500D01*
X10569405Y-16060976D01*
X10607500Y-16060976D01*
X10626548Y-16070500D01*
X10636071Y-16080024D01*
X10645595Y-16099071D01*
X10645595Y-16108595D01*
X10636071Y-16127643D01*
X10626548Y-16137167D01*
X10607500Y-16146690D01*
X10569405Y-16146690D01*
X10550357Y-16156214D01*
X10540833Y-16165738D01*
X10531310Y-16184786D01*
X10531310Y-16222881D01*
X10540833Y-16241928D01*
X10550357Y-16251452D01*
X10569405Y-16260976D01*
X10607500Y-16260976D01*
X10626548Y-16251452D01*
X10636071Y-16241928D01*
X10645595Y-16222881D01*
X10645595Y-16184786D01*
X10636071Y-16165738D01*
X10626548Y-16156214D01*
X10607500Y-16146690D01*
X10769405Y-16060976D02*
X10788452Y-16060976D01*
X10807500Y-16070500D01*
X10817024Y-16080024D01*
X10826548Y-16099071D01*
X10836071Y-16137167D01*
X10836071Y-16184786D01*
X10826548Y-16222881D01*
X10817024Y-16241928D01*
X10807500Y-16251452D01*
X10788452Y-16260976D01*
X10769405Y-16260976D01*
X10750357Y-16251452D01*
X10740833Y-16241928D01*
X10731310Y-16222881D01*
X10721786Y-16184786D01*
X10721786Y-16137167D01*
X10731310Y-16099071D01*
X10740833Y-16080024D01*
X10750357Y-16070500D01*
X10769405Y-16060976D01*
X10959881Y-16060976D02*
X10978929Y-16060976D01*
X10997976Y-16070500D01*
X11007500Y-16080024D01*
X11017024Y-16099071D01*
X11026548Y-16137167D01*
X11026548Y-16184786D01*
X11017024Y-16222881D01*
X11007500Y-16241928D01*
X10997976Y-16251452D01*
X10978929Y-16260976D01*
X10959881Y-16260976D01*
X10940833Y-16251452D01*
X10931310Y-16241928D01*
X10921786Y-16222881D01*
X10912262Y-16184786D01*
X10912262Y-16137167D01*
X10921786Y-16099071D01*
X10931310Y-16080024D01*
X10940833Y-16070500D01*
X10959881Y-16060976D01*
X11112262Y-16260976D02*
X11112262Y-16127643D01*
X11112262Y-16146690D02*
X11121786Y-16137167D01*
X11140833Y-16127643D01*
X11169405Y-16127643D01*
X11188452Y-16137167D01*
X11197976Y-16156214D01*
X11197976Y-16260976D01*
X11197976Y-16156214D02*
X11207500Y-16137167D01*
X11226548Y-16127643D01*
X11255119Y-16127643D01*
X11274167Y-16137167D01*
X11283690Y-16156214D01*
X11283690Y-16260976D01*
X11378928Y-16260976D02*
X11378928Y-16127643D01*
X11378928Y-16146690D02*
X11388452Y-16137167D01*
X11407500Y-16127643D01*
X11436071Y-16127643D01*
X11455119Y-16137167D01*
X11464643Y-16156214D01*
X11464643Y-16260976D01*
X11464643Y-16156214D02*
X11474167Y-16137167D01*
X11493214Y-16127643D01*
X11521786Y-16127643D01*
X11540833Y-16137167D01*
X11550357Y-16156214D01*
X11550357Y-16260976D01*
X11940833Y-16051452D02*
X11769405Y-16308595D01*
X12197976Y-16060976D02*
X12217024Y-16060976D01*
X12236071Y-16070500D01*
X12245595Y-16080024D01*
X12255119Y-16099071D01*
X12264643Y-16137167D01*
X12264643Y-16184786D01*
X12255119Y-16222881D01*
X12245595Y-16241928D01*
X12236071Y-16251452D01*
X12217024Y-16260976D01*
X12197976Y-16260976D01*
X12178928Y-16251452D01*
X12169405Y-16241928D01*
X12159881Y-16222881D01*
X12150357Y-16184786D01*
X12150357Y-16137167D01*
X12159881Y-16099071D01*
X12169405Y-16080024D01*
X12178928Y-16070500D01*
X12197976Y-16060976D01*
X12350357Y-16241928D02*
X12359881Y-16251452D01*
X12350357Y-16260976D01*
X12340833Y-16251452D01*
X12350357Y-16241928D01*
X12350357Y-16260976D01*
X12483690Y-16060976D02*
X12502738Y-16060976D01*
X12521786Y-16070500D01*
X12531309Y-16080024D01*
X12540833Y-16099071D01*
X12550357Y-16137167D01*
X12550357Y-16184786D01*
X12540833Y-16222881D01*
X12531309Y-16241928D01*
X12521786Y-16251452D01*
X12502738Y-16260976D01*
X12483690Y-16260976D01*
X12464643Y-16251452D01*
X12455119Y-16241928D01*
X12445595Y-16222881D01*
X12436071Y-16184786D01*
X12436071Y-16137167D01*
X12445595Y-16099071D01*
X12455119Y-16080024D01*
X12464643Y-16070500D01*
X12483690Y-16060976D01*
X12617024Y-16060976D02*
X12740833Y-16060976D01*
X12674167Y-16137167D01*
X12702738Y-16137167D01*
X12721786Y-16146690D01*
X12731309Y-16156214D01*
X12740833Y-16175262D01*
X12740833Y-16222881D01*
X12731309Y-16241928D01*
X12721786Y-16251452D01*
X12702738Y-16260976D01*
X12645595Y-16260976D01*
X12626548Y-16251452D01*
X12617024Y-16241928D01*
X12931309Y-16260976D02*
X12817024Y-16260976D01*
X12874167Y-16260976D02*
X12874167Y-16060976D01*
X12855119Y-16089548D01*
X12836071Y-16108595D01*
X12817024Y-16118119D01*
X13112262Y-16060976D02*
X13017024Y-16060976D01*
X13007500Y-16156214D01*
X13017024Y-16146690D01*
X13036071Y-16137167D01*
X13083690Y-16137167D01*
X13102738Y-16146690D01*
X13112262Y-16156214D01*
X13121786Y-16175262D01*
X13121786Y-16222881D01*
X13112262Y-16241928D01*
X13102738Y-16251452D01*
X13083690Y-16260976D01*
X13036071Y-16260976D01*
X13017024Y-16251452D01*
X13007500Y-16241928D01*
X13197976Y-16060976D02*
X13197976Y-16099071D01*
X13274167Y-16060976D02*
X13274167Y-16099071D01*
X13569405Y-16337167D02*
X13559881Y-16327643D01*
X13540833Y-16299071D01*
X13531309Y-16280024D01*
X13521786Y-16251452D01*
X13512262Y-16203833D01*
X13512262Y-16165738D01*
X13521786Y-16118119D01*
X13531309Y-16089548D01*
X13540833Y-16070500D01*
X13559881Y-16041928D01*
X13569405Y-16032405D01*
X13731309Y-16127643D02*
X13731309Y-16260976D01*
X13683690Y-16051452D02*
X13636071Y-16194309D01*
X13759881Y-16194309D01*
X13874167Y-16060976D02*
X13893214Y-16060976D01*
X13912262Y-16070500D01*
X13921786Y-16080024D01*
X13931309Y-16099071D01*
X13940833Y-16137167D01*
X13940833Y-16184786D01*
X13931309Y-16222881D01*
X13921786Y-16241928D01*
X13912262Y-16251452D01*
X13893214Y-16260976D01*
X13874167Y-16260976D01*
X13855119Y-16251452D01*
X13845595Y-16241928D01*
X13836071Y-16222881D01*
X13826548Y-16184786D01*
X13826548Y-16137167D01*
X13836071Y-16099071D01*
X13845595Y-16080024D01*
X13855119Y-16070500D01*
X13874167Y-16060976D01*
X14178928Y-16260976D02*
X14178928Y-16060976D01*
X14264643Y-16260976D02*
X14264643Y-16156214D01*
X14255119Y-16137167D01*
X14236071Y-16127643D01*
X14207500Y-16127643D01*
X14188452Y-16137167D01*
X14178928Y-16146690D01*
X14388452Y-16260976D02*
X14369405Y-16251452D01*
X14359881Y-16241928D01*
X14350357Y-16222881D01*
X14350357Y-16165738D01*
X14359881Y-16146690D01*
X14369405Y-16137167D01*
X14388452Y-16127643D01*
X14417024Y-16127643D01*
X14436071Y-16137167D01*
X14445595Y-16146690D01*
X14455119Y-16165738D01*
X14455119Y-16222881D01*
X14445595Y-16241928D01*
X14436071Y-16251452D01*
X14417024Y-16260976D01*
X14388452Y-16260976D01*
X14569405Y-16260976D02*
X14550357Y-16251452D01*
X14540833Y-16232405D01*
X14540833Y-16060976D01*
X14721786Y-16251452D02*
X14702738Y-16260976D01*
X14664643Y-16260976D01*
X14645595Y-16251452D01*
X14636071Y-16232405D01*
X14636071Y-16156214D01*
X14645595Y-16137167D01*
X14664643Y-16127643D01*
X14702738Y-16127643D01*
X14721786Y-16137167D01*
X14731309Y-16156214D01*
X14731309Y-16175262D01*
X14636071Y-16194309D01*
X14807500Y-16251452D02*
X14826548Y-16260976D01*
X14864643Y-16260976D01*
X14883690Y-16251452D01*
X14893214Y-16232405D01*
X14893214Y-16222881D01*
X14883690Y-16203833D01*
X14864643Y-16194309D01*
X14836071Y-16194309D01*
X14817024Y-16184786D01*
X14807500Y-16165738D01*
X14807500Y-16156214D01*
X14817024Y-16137167D01*
X14836071Y-16127643D01*
X14864643Y-16127643D01*
X14883690Y-16137167D01*
X14959881Y-16337167D02*
X14969405Y-16327643D01*
X14988452Y-16299071D01*
X14997976Y-16280024D01*
X15007500Y-16251452D01*
X15017024Y-16203833D01*
X15017024Y-16165738D01*
X15007500Y-16118119D01*
X14997976Y-16089548D01*
X14988452Y-16070500D01*
X14969405Y-16041928D01*
X14959881Y-16032405D01*
D15*
X9982993Y-16469523D02*
X9982993Y-16399477D01*
X9912947Y-16399477D01*
X9912947Y-16469523D01*
X9982993Y-16469523D01*
D12*
X10293214Y-16324976D02*
X10312262Y-16324976D01*
X10331310Y-16334500D01*
X10340833Y-16344024D01*
X10350357Y-16363071D01*
X10359881Y-16401167D01*
X10359881Y-16448786D01*
X10350357Y-16486881D01*
X10340833Y-16505928D01*
X10331310Y-16515452D01*
X10312262Y-16524976D01*
X10293214Y-16524976D01*
X10274167Y-16515452D01*
X10264643Y-16505928D01*
X10255119Y-16486881D01*
X10245595Y-16448786D01*
X10245595Y-16401167D01*
X10255119Y-16363071D01*
X10264643Y-16344024D01*
X10274167Y-16334500D01*
X10293214Y-16324976D01*
X10445595Y-16505928D02*
X10455119Y-16515452D01*
X10445595Y-16524976D01*
X10436071Y-16515452D01*
X10445595Y-16505928D01*
X10445595Y-16524976D01*
X10550357Y-16524976D02*
X10588452Y-16524976D01*
X10607500Y-16515452D01*
X10617024Y-16505928D01*
X10636071Y-16477357D01*
X10645595Y-16439262D01*
X10645595Y-16363071D01*
X10636071Y-16344024D01*
X10626548Y-16334500D01*
X10607500Y-16324976D01*
X10569405Y-16324976D01*
X10550357Y-16334500D01*
X10540833Y-16344024D01*
X10531310Y-16363071D01*
X10531310Y-16410690D01*
X10540833Y-16429738D01*
X10550357Y-16439262D01*
X10569405Y-16448786D01*
X10607500Y-16448786D01*
X10626548Y-16439262D01*
X10636071Y-16429738D01*
X10645595Y-16410690D01*
X10740833Y-16524976D02*
X10778929Y-16524976D01*
X10797976Y-16515452D01*
X10807500Y-16505928D01*
X10826548Y-16477357D01*
X10836071Y-16439262D01*
X10836071Y-16363071D01*
X10826548Y-16344024D01*
X10817024Y-16334500D01*
X10797976Y-16324976D01*
X10759881Y-16324976D01*
X10740833Y-16334500D01*
X10731310Y-16344024D01*
X10721786Y-16363071D01*
X10721786Y-16410690D01*
X10731310Y-16429738D01*
X10740833Y-16439262D01*
X10759881Y-16448786D01*
X10797976Y-16448786D01*
X10817024Y-16439262D01*
X10826548Y-16429738D01*
X10836071Y-16410690D01*
X11026548Y-16524976D02*
X10912262Y-16524976D01*
X10969405Y-16524976D02*
X10969405Y-16324976D01*
X10950357Y-16353548D01*
X10931310Y-16372595D01*
X10912262Y-16382119D01*
X11112262Y-16524976D02*
X11112262Y-16391643D01*
X11112262Y-16410690D02*
X11121786Y-16401167D01*
X11140833Y-16391643D01*
X11169405Y-16391643D01*
X11188452Y-16401167D01*
X11197976Y-16420214D01*
X11197976Y-16524976D01*
X11197976Y-16420214D02*
X11207500Y-16401167D01*
X11226548Y-16391643D01*
X11255119Y-16391643D01*
X11274167Y-16401167D01*
X11283690Y-16420214D01*
X11283690Y-16524976D01*
X11378928Y-16524976D02*
X11378928Y-16391643D01*
X11378928Y-16410690D02*
X11388452Y-16401167D01*
X11407500Y-16391643D01*
X11436071Y-16391643D01*
X11455119Y-16401167D01*
X11464643Y-16420214D01*
X11464643Y-16524976D01*
X11464643Y-16420214D02*
X11474167Y-16401167D01*
X11493214Y-16391643D01*
X11521786Y-16391643D01*
X11540833Y-16401167D01*
X11550357Y-16420214D01*
X11550357Y-16524976D01*
X11940833Y-16315452D02*
X11769405Y-16572595D01*
X12197976Y-16324976D02*
X12217024Y-16324976D01*
X12236071Y-16334500D01*
X12245595Y-16344024D01*
X12255119Y-16363071D01*
X12264643Y-16401167D01*
X12264643Y-16448786D01*
X12255119Y-16486881D01*
X12245595Y-16505928D01*
X12236071Y-16515452D01*
X12217024Y-16524976D01*
X12197976Y-16524976D01*
X12178928Y-16515452D01*
X12169405Y-16505928D01*
X12159881Y-16486881D01*
X12150357Y-16448786D01*
X12150357Y-16401167D01*
X12159881Y-16363071D01*
X12169405Y-16344024D01*
X12178928Y-16334500D01*
X12197976Y-16324976D01*
X12350357Y-16505928D02*
X12359881Y-16515452D01*
X12350357Y-16524976D01*
X12340833Y-16515452D01*
X12350357Y-16505928D01*
X12350357Y-16524976D01*
X12483690Y-16324976D02*
X12502738Y-16324976D01*
X12521786Y-16334500D01*
X12531309Y-16344024D01*
X12540833Y-16363071D01*
X12550357Y-16401167D01*
X12550357Y-16448786D01*
X12540833Y-16486881D01*
X12531309Y-16505928D01*
X12521786Y-16515452D01*
X12502738Y-16524976D01*
X12483690Y-16524976D01*
X12464643Y-16515452D01*
X12455119Y-16505928D01*
X12445595Y-16486881D01*
X12436071Y-16448786D01*
X12436071Y-16401167D01*
X12445595Y-16363071D01*
X12455119Y-16344024D01*
X12464643Y-16334500D01*
X12483690Y-16324976D01*
X12617024Y-16324976D02*
X12740833Y-16324976D01*
X12674167Y-16401167D01*
X12702738Y-16401167D01*
X12721786Y-16410690D01*
X12731309Y-16420214D01*
X12740833Y-16439262D01*
X12740833Y-16486881D01*
X12731309Y-16505928D01*
X12721786Y-16515452D01*
X12702738Y-16524976D01*
X12645595Y-16524976D01*
X12626548Y-16515452D01*
X12617024Y-16505928D01*
X12836071Y-16524976D02*
X12874167Y-16524976D01*
X12893214Y-16515452D01*
X12902738Y-16505928D01*
X12921786Y-16477357D01*
X12931309Y-16439262D01*
X12931309Y-16363071D01*
X12921786Y-16344024D01*
X12912262Y-16334500D01*
X12893214Y-16324976D01*
X12855119Y-16324976D01*
X12836071Y-16334500D01*
X12826548Y-16344024D01*
X12817024Y-16363071D01*
X12817024Y-16410690D01*
X12826548Y-16429738D01*
X12836071Y-16439262D01*
X12855119Y-16448786D01*
X12893214Y-16448786D01*
X12912262Y-16439262D01*
X12921786Y-16429738D01*
X12931309Y-16410690D01*
X13055119Y-16324976D02*
X13074167Y-16324976D01*
X13093214Y-16334500D01*
X13102738Y-16344024D01*
X13112262Y-16363071D01*
X13121786Y-16401167D01*
X13121786Y-16448786D01*
X13112262Y-16486881D01*
X13102738Y-16505928D01*
X13093214Y-16515452D01*
X13074167Y-16524976D01*
X13055119Y-16524976D01*
X13036071Y-16515452D01*
X13026548Y-16505928D01*
X13017024Y-16486881D01*
X13007500Y-16448786D01*
X13007500Y-16401167D01*
X13017024Y-16363071D01*
X13026548Y-16344024D01*
X13036071Y-16334500D01*
X13055119Y-16324976D01*
X13197976Y-16324976D02*
X13197976Y-16363071D01*
X13274167Y-16324976D02*
X13274167Y-16363071D01*
X13569405Y-16601167D02*
X13559881Y-16591643D01*
X13540833Y-16563071D01*
X13531309Y-16544024D01*
X13521786Y-16515452D01*
X13512262Y-16467833D01*
X13512262Y-16429738D01*
X13521786Y-16382119D01*
X13531309Y-16353548D01*
X13540833Y-16334500D01*
X13559881Y-16305928D01*
X13569405Y-16296405D01*
X13674167Y-16410690D02*
X13655119Y-16401167D01*
X13645595Y-16391643D01*
X13636071Y-16372595D01*
X13636071Y-16363071D01*
X13645595Y-16344024D01*
X13655119Y-16334500D01*
X13674167Y-16324976D01*
X13712262Y-16324976D01*
X13731309Y-16334500D01*
X13740833Y-16344024D01*
X13750357Y-16363071D01*
X13750357Y-16372595D01*
X13740833Y-16391643D01*
X13731309Y-16401167D01*
X13712262Y-16410690D01*
X13674167Y-16410690D01*
X13655119Y-16420214D01*
X13645595Y-16429738D01*
X13636071Y-16448786D01*
X13636071Y-16486881D01*
X13645595Y-16505928D01*
X13655119Y-16515452D01*
X13674167Y-16524976D01*
X13712262Y-16524976D01*
X13731309Y-16515452D01*
X13740833Y-16505928D01*
X13750357Y-16486881D01*
X13750357Y-16448786D01*
X13740833Y-16429738D01*
X13731309Y-16420214D01*
X13712262Y-16410690D01*
X13988452Y-16524976D02*
X13988452Y-16324976D01*
X14074167Y-16524976D02*
X14074167Y-16420214D01*
X14064643Y-16401167D01*
X14045595Y-16391643D01*
X14017024Y-16391643D01*
X13997976Y-16401167D01*
X13988452Y-16410690D01*
X14197976Y-16524976D02*
X14178928Y-16515452D01*
X14169405Y-16505928D01*
X14159881Y-16486881D01*
X14159881Y-16429738D01*
X14169405Y-16410690D01*
X14178928Y-16401167D01*
X14197976Y-16391643D01*
X14226548Y-16391643D01*
X14245595Y-16401167D01*
X14255119Y-16410690D01*
X14264643Y-16429738D01*
X14264643Y-16486881D01*
X14255119Y-16505928D01*
X14245595Y-16515452D01*
X14226548Y-16524976D01*
X14197976Y-16524976D01*
X14378928Y-16524976D02*
X14359881Y-16515452D01*
X14350357Y-16496405D01*
X14350357Y-16324976D01*
X14531309Y-16515452D02*
X14512262Y-16524976D01*
X14474167Y-16524976D01*
X14455119Y-16515452D01*
X14445595Y-16496405D01*
X14445595Y-16420214D01*
X14455119Y-16401167D01*
X14474167Y-16391643D01*
X14512262Y-16391643D01*
X14531309Y-16401167D01*
X14540833Y-16420214D01*
X14540833Y-16439262D01*
X14445595Y-16458309D01*
X14617024Y-16515452D02*
X14636071Y-16524976D01*
X14674167Y-16524976D01*
X14693214Y-16515452D01*
X14702738Y-16496405D01*
X14702738Y-16486881D01*
X14693214Y-16467833D01*
X14674167Y-16458309D01*
X14645595Y-16458309D01*
X14626548Y-16448786D01*
X14617024Y-16429738D01*
X14617024Y-16420214D01*
X14626548Y-16401167D01*
X14645595Y-16391643D01*
X14674167Y-16391643D01*
X14693214Y-16401167D01*
X14769405Y-16601167D02*
X14778928Y-16591643D01*
X14797976Y-16563071D01*
X14807500Y-16544024D01*
X14817024Y-16515452D01*
X14826548Y-16467833D01*
X14826548Y-16429738D01*
X14817024Y-16382119D01*
X14807500Y-16353548D01*
X14797976Y-16334500D01*
X14778928Y-16305928D01*
X14769405Y-16296405D01*
D16*
X9947500Y-16748500D02*
X9997500Y-16698500D01*
X9947500Y-16648500D01*
X9897500Y-16698500D01*
X9947500Y-16748500D01*
D12*
X10359881Y-16788976D02*
X10245595Y-16788976D01*
X10302738Y-16788976D02*
X10302738Y-16588976D01*
X10283690Y-16617548D01*
X10264643Y-16636595D01*
X10245595Y-16646119D01*
X10445595Y-16769928D02*
X10455119Y-16779452D01*
X10445595Y-16788976D01*
X10436071Y-16779452D01*
X10445595Y-16769928D01*
X10445595Y-16788976D01*
X10578929Y-16588976D02*
X10597976Y-16588976D01*
X10617024Y-16598500D01*
X10626548Y-16608024D01*
X10636071Y-16627071D01*
X10645595Y-16665167D01*
X10645595Y-16712786D01*
X10636071Y-16750881D01*
X10626548Y-16769928D01*
X10617024Y-16779452D01*
X10597976Y-16788976D01*
X10578929Y-16788976D01*
X10559881Y-16779452D01*
X10550357Y-16769928D01*
X10540833Y-16750881D01*
X10531310Y-16712786D01*
X10531310Y-16665167D01*
X10540833Y-16627071D01*
X10550357Y-16608024D01*
X10559881Y-16598500D01*
X10578929Y-16588976D01*
X10769405Y-16588976D02*
X10788452Y-16588976D01*
X10807500Y-16598500D01*
X10817024Y-16608024D01*
X10826548Y-16627071D01*
X10836071Y-16665167D01*
X10836071Y-16712786D01*
X10826548Y-16750881D01*
X10817024Y-16769928D01*
X10807500Y-16779452D01*
X10788452Y-16788976D01*
X10769405Y-16788976D01*
X10750357Y-16779452D01*
X10740833Y-16769928D01*
X10731310Y-16750881D01*
X10721786Y-16712786D01*
X10721786Y-16665167D01*
X10731310Y-16627071D01*
X10740833Y-16608024D01*
X10750357Y-16598500D01*
X10769405Y-16588976D01*
X10959881Y-16588976D02*
X10978929Y-16588976D01*
X10997976Y-16598500D01*
X11007500Y-16608024D01*
X11017024Y-16627071D01*
X11026548Y-16665167D01*
X11026548Y-16712786D01*
X11017024Y-16750881D01*
X11007500Y-16769928D01*
X10997976Y-16779452D01*
X10978929Y-16788976D01*
X10959881Y-16788976D01*
X10940833Y-16779452D01*
X10931310Y-16769928D01*
X10921786Y-16750881D01*
X10912262Y-16712786D01*
X10912262Y-16665167D01*
X10921786Y-16627071D01*
X10931310Y-16608024D01*
X10940833Y-16598500D01*
X10959881Y-16588976D01*
X11112262Y-16788976D02*
X11112262Y-16655643D01*
X11112262Y-16674690D02*
X11121786Y-16665167D01*
X11140833Y-16655643D01*
X11169405Y-16655643D01*
X11188452Y-16665167D01*
X11197976Y-16684214D01*
X11197976Y-16788976D01*
X11197976Y-16684214D02*
X11207500Y-16665167D01*
X11226548Y-16655643D01*
X11255119Y-16655643D01*
X11274167Y-16665167D01*
X11283690Y-16684214D01*
X11283690Y-16788976D01*
X11378928Y-16788976D02*
X11378928Y-16655643D01*
X11378928Y-16674690D02*
X11388452Y-16665167D01*
X11407500Y-16655643D01*
X11436071Y-16655643D01*
X11455119Y-16665167D01*
X11464643Y-16684214D01*
X11464643Y-16788976D01*
X11464643Y-16684214D02*
X11474167Y-16665167D01*
X11493214Y-16655643D01*
X11521786Y-16655643D01*
X11540833Y-16665167D01*
X11550357Y-16684214D01*
X11550357Y-16788976D01*
X11940833Y-16579452D02*
X11769405Y-16836595D01*
X12197976Y-16588976D02*
X12217024Y-16588976D01*
X12236071Y-16598500D01*
X12245595Y-16608024D01*
X12255119Y-16627071D01*
X12264643Y-16665167D01*
X12264643Y-16712786D01*
X12255119Y-16750881D01*
X12245595Y-16769928D01*
X12236071Y-16779452D01*
X12217024Y-16788976D01*
X12197976Y-16788976D01*
X12178928Y-16779452D01*
X12169405Y-16769928D01*
X12159881Y-16750881D01*
X12150357Y-16712786D01*
X12150357Y-16665167D01*
X12159881Y-16627071D01*
X12169405Y-16608024D01*
X12178928Y-16598500D01*
X12197976Y-16588976D01*
X12350357Y-16769928D02*
X12359881Y-16779452D01*
X12350357Y-16788976D01*
X12340833Y-16779452D01*
X12350357Y-16769928D01*
X12350357Y-16788976D01*
X12483690Y-16588976D02*
X12502738Y-16588976D01*
X12521786Y-16598500D01*
X12531309Y-16608024D01*
X12540833Y-16627071D01*
X12550357Y-16665167D01*
X12550357Y-16712786D01*
X12540833Y-16750881D01*
X12531309Y-16769928D01*
X12521786Y-16779452D01*
X12502738Y-16788976D01*
X12483690Y-16788976D01*
X12464643Y-16779452D01*
X12455119Y-16769928D01*
X12445595Y-16750881D01*
X12436071Y-16712786D01*
X12436071Y-16665167D01*
X12445595Y-16627071D01*
X12455119Y-16608024D01*
X12464643Y-16598500D01*
X12483690Y-16588976D01*
X12617024Y-16588976D02*
X12740833Y-16588976D01*
X12674167Y-16665167D01*
X12702738Y-16665167D01*
X12721786Y-16674690D01*
X12731309Y-16684214D01*
X12740833Y-16703262D01*
X12740833Y-16750881D01*
X12731309Y-16769928D01*
X12721786Y-16779452D01*
X12702738Y-16788976D01*
X12645595Y-16788976D01*
X12626548Y-16779452D01*
X12617024Y-16769928D01*
X12836071Y-16788976D02*
X12874167Y-16788976D01*
X12893214Y-16779452D01*
X12902738Y-16769928D01*
X12921786Y-16741357D01*
X12931309Y-16703262D01*
X12931309Y-16627071D01*
X12921786Y-16608024D01*
X12912262Y-16598500D01*
X12893214Y-16588976D01*
X12855119Y-16588976D01*
X12836071Y-16598500D01*
X12826548Y-16608024D01*
X12817024Y-16627071D01*
X12817024Y-16674690D01*
X12826548Y-16693738D01*
X12836071Y-16703262D01*
X12855119Y-16712786D01*
X12893214Y-16712786D01*
X12912262Y-16703262D01*
X12921786Y-16693738D01*
X12931309Y-16674690D01*
X13102738Y-16655643D02*
X13102738Y-16788976D01*
X13055119Y-16579452D02*
X13007500Y-16722309D01*
X13131309Y-16722309D01*
X13197976Y-16588976D02*
X13197976Y-16627071D01*
X13274167Y-16588976D02*
X13274167Y-16627071D01*
X13569405Y-16865167D02*
X13559881Y-16855643D01*
X13540833Y-16827071D01*
X13531309Y-16808024D01*
X13521786Y-16779452D01*
X13512262Y-16731833D01*
X13512262Y-16693738D01*
X13521786Y-16646119D01*
X13531309Y-16617548D01*
X13540833Y-16598500D01*
X13559881Y-16569928D01*
X13569405Y-16560405D01*
X13626548Y-16588976D02*
X13750357Y-16588976D01*
X13683690Y-16665167D01*
X13712262Y-16665167D01*
X13731309Y-16674690D01*
X13740833Y-16684214D01*
X13750357Y-16703262D01*
X13750357Y-16750881D01*
X13740833Y-16769928D01*
X13731309Y-16779452D01*
X13712262Y-16788976D01*
X13655119Y-16788976D01*
X13636071Y-16779452D01*
X13626548Y-16769928D01*
X13826548Y-16608024D02*
X13836071Y-16598500D01*
X13855119Y-16588976D01*
X13902738Y-16588976D01*
X13921786Y-16598500D01*
X13931309Y-16608024D01*
X13940833Y-16627071D01*
X13940833Y-16646119D01*
X13931309Y-16674690D01*
X13817024Y-16788976D01*
X13940833Y-16788976D01*
X14178928Y-16788976D02*
X14178928Y-16588976D01*
X14264643Y-16788976D02*
X14264643Y-16684214D01*
X14255119Y-16665167D01*
X14236071Y-16655643D01*
X14207500Y-16655643D01*
X14188452Y-16665167D01*
X14178928Y-16674690D01*
X14388452Y-16788976D02*
X14369405Y-16779452D01*
X14359881Y-16769928D01*
X14350357Y-16750881D01*
X14350357Y-16693738D01*
X14359881Y-16674690D01*
X14369405Y-16665167D01*
X14388452Y-16655643D01*
X14417024Y-16655643D01*
X14436071Y-16665167D01*
X14445595Y-16674690D01*
X14455119Y-16693738D01*
X14455119Y-16750881D01*
X14445595Y-16769928D01*
X14436071Y-16779452D01*
X14417024Y-16788976D01*
X14388452Y-16788976D01*
X14569405Y-16788976D02*
X14550357Y-16779452D01*
X14540833Y-16760405D01*
X14540833Y-16588976D01*
X14721786Y-16779452D02*
X14702738Y-16788976D01*
X14664643Y-16788976D01*
X14645595Y-16779452D01*
X14636071Y-16760405D01*
X14636071Y-16684214D01*
X14645595Y-16665167D01*
X14664643Y-16655643D01*
X14702738Y-16655643D01*
X14721786Y-16665167D01*
X14731309Y-16684214D01*
X14731309Y-16703262D01*
X14636071Y-16722309D01*
X14807500Y-16779452D02*
X14826548Y-16788976D01*
X14864643Y-16788976D01*
X14883690Y-16779452D01*
X14893214Y-16760405D01*
X14893214Y-16750881D01*
X14883690Y-16731833D01*
X14864643Y-16722309D01*
X14836071Y-16722309D01*
X14817024Y-16712786D01*
X14807500Y-16693738D01*
X14807500Y-16684214D01*
X14817024Y-16665167D01*
X14836071Y-16655643D01*
X14864643Y-16655643D01*
X14883690Y-16665167D01*
X14959881Y-16865167D02*
X14969405Y-16855643D01*
X14988452Y-16827071D01*
X14997976Y-16808024D01*
X15007500Y-16779452D01*
X15017024Y-16731833D01*
X15017024Y-16693738D01*
X15007500Y-16646119D01*
X14997976Y-16617548D01*
X14988452Y-16598500D01*
X14969405Y-16569928D01*
X14959881Y-16560405D01*
D17*
X9888500Y-16908000D02*
X9997500Y-17017000D01*
X9997500Y-16908000D02*
X9888500Y-17017000D01*
X9997500Y-16962500D02*
G75*
G03*
X9997500Y-16962500I-54500J0D01*
G01*
D12*
X10359881Y-17052976D02*
X10245595Y-17052976D01*
X10302738Y-17052976D02*
X10302738Y-16852976D01*
X10283690Y-16881548D01*
X10264643Y-16900595D01*
X10245595Y-16910119D01*
X10445595Y-17033929D02*
X10455119Y-17043452D01*
X10445595Y-17052976D01*
X10436071Y-17043452D01*
X10445595Y-17033929D01*
X10445595Y-17052976D01*
X10578929Y-16852976D02*
X10597976Y-16852976D01*
X10617024Y-16862500D01*
X10626548Y-16872024D01*
X10636071Y-16891071D01*
X10645595Y-16929167D01*
X10645595Y-16976786D01*
X10636071Y-17014881D01*
X10626548Y-17033929D01*
X10617024Y-17043452D01*
X10597976Y-17052976D01*
X10578929Y-17052976D01*
X10559881Y-17043452D01*
X10550357Y-17033929D01*
X10540833Y-17014881D01*
X10531310Y-16976786D01*
X10531310Y-16929167D01*
X10540833Y-16891071D01*
X10550357Y-16872024D01*
X10559881Y-16862500D01*
X10578929Y-16852976D01*
X10740833Y-17052976D02*
X10778929Y-17052976D01*
X10797976Y-17043452D01*
X10807500Y-17033929D01*
X10826548Y-17005357D01*
X10836071Y-16967262D01*
X10836071Y-16891071D01*
X10826548Y-16872024D01*
X10817024Y-16862500D01*
X10797976Y-16852976D01*
X10759881Y-16852976D01*
X10740833Y-16862500D01*
X10731310Y-16872024D01*
X10721786Y-16891071D01*
X10721786Y-16938690D01*
X10731310Y-16957738D01*
X10740833Y-16967262D01*
X10759881Y-16976786D01*
X10797976Y-16976786D01*
X10817024Y-16967262D01*
X10826548Y-16957738D01*
X10836071Y-16938690D01*
X10959881Y-16852976D02*
X10978929Y-16852976D01*
X10997976Y-16862500D01*
X11007500Y-16872024D01*
X11017024Y-16891071D01*
X11026548Y-16929167D01*
X11026548Y-16976786D01*
X11017024Y-17014881D01*
X11007500Y-17033929D01*
X10997976Y-17043452D01*
X10978929Y-17052976D01*
X10959881Y-17052976D01*
X10940833Y-17043452D01*
X10931310Y-17033929D01*
X10921786Y-17014881D01*
X10912262Y-16976786D01*
X10912262Y-16929167D01*
X10921786Y-16891071D01*
X10931310Y-16872024D01*
X10940833Y-16862500D01*
X10959881Y-16852976D01*
X11112262Y-17052976D02*
X11112262Y-16919643D01*
X11112262Y-16938690D02*
X11121786Y-16929167D01*
X11140833Y-16919643D01*
X11169405Y-16919643D01*
X11188452Y-16929167D01*
X11197976Y-16948214D01*
X11197976Y-17052976D01*
X11197976Y-16948214D02*
X11207500Y-16929167D01*
X11226548Y-16919643D01*
X11255119Y-16919643D01*
X11274167Y-16929167D01*
X11283690Y-16948214D01*
X11283690Y-17052976D01*
X11378928Y-17052976D02*
X11378928Y-16919643D01*
X11378928Y-16938690D02*
X11388452Y-16929167D01*
X11407500Y-16919643D01*
X11436071Y-16919643D01*
X11455119Y-16929167D01*
X11464643Y-16948214D01*
X11464643Y-17052976D01*
X11464643Y-16948214D02*
X11474167Y-16929167D01*
X11493214Y-16919643D01*
X11521786Y-16919643D01*
X11540833Y-16929167D01*
X11550357Y-16948214D01*
X11550357Y-17052976D01*
X11940833Y-16843452D02*
X11769405Y-17100595D01*
X12197976Y-16852976D02*
X12217024Y-16852976D01*
X12236071Y-16862500D01*
X12245595Y-16872024D01*
X12255119Y-16891071D01*
X12264643Y-16929167D01*
X12264643Y-16976786D01*
X12255119Y-17014881D01*
X12245595Y-17033929D01*
X12236071Y-17043452D01*
X12217024Y-17052976D01*
X12197976Y-17052976D01*
X12178928Y-17043452D01*
X12169405Y-17033929D01*
X12159881Y-17014881D01*
X12150357Y-16976786D01*
X12150357Y-16929167D01*
X12159881Y-16891071D01*
X12169405Y-16872024D01*
X12178928Y-16862500D01*
X12197976Y-16852976D01*
X12350357Y-17033929D02*
X12359881Y-17043452D01*
X12350357Y-17052976D01*
X12340833Y-17043452D01*
X12350357Y-17033929D01*
X12350357Y-17052976D01*
X12483690Y-16852976D02*
X12502738Y-16852976D01*
X12521786Y-16862500D01*
X12531309Y-16872024D01*
X12540833Y-16891071D01*
X12550357Y-16929167D01*
X12550357Y-16976786D01*
X12540833Y-17014881D01*
X12531309Y-17033929D01*
X12521786Y-17043452D01*
X12502738Y-17052976D01*
X12483690Y-17052976D01*
X12464643Y-17043452D01*
X12455119Y-17033929D01*
X12445595Y-17014881D01*
X12436071Y-16976786D01*
X12436071Y-16929167D01*
X12445595Y-16891071D01*
X12455119Y-16872024D01*
X12464643Y-16862500D01*
X12483690Y-16852976D01*
X12721786Y-16919643D02*
X12721786Y-17052976D01*
X12674167Y-16843452D02*
X12626548Y-16986310D01*
X12750357Y-16986310D01*
X12817024Y-16872024D02*
X12826548Y-16862500D01*
X12845595Y-16852976D01*
X12893214Y-16852976D01*
X12912262Y-16862500D01*
X12921786Y-16872024D01*
X12931309Y-16891071D01*
X12931309Y-16910119D01*
X12921786Y-16938690D01*
X12807500Y-17052976D01*
X12931309Y-17052976D01*
X13026548Y-17052976D02*
X13064643Y-17052976D01*
X13083690Y-17043452D01*
X13093214Y-17033929D01*
X13112262Y-17005357D01*
X13121786Y-16967262D01*
X13121786Y-16891071D01*
X13112262Y-16872024D01*
X13102738Y-16862500D01*
X13083690Y-16852976D01*
X13045595Y-16852976D01*
X13026548Y-16862500D01*
X13017024Y-16872024D01*
X13007500Y-16891071D01*
X13007500Y-16938690D01*
X13017024Y-16957738D01*
X13026548Y-16967262D01*
X13045595Y-16976786D01*
X13083690Y-16976786D01*
X13102738Y-16967262D01*
X13112262Y-16957738D01*
X13121786Y-16938690D01*
X13197976Y-16852976D02*
X13197976Y-16891071D01*
X13274167Y-16852976D02*
X13274167Y-16891071D01*
X13569405Y-17129167D02*
X13559881Y-17119643D01*
X13540833Y-17091071D01*
X13531309Y-17072024D01*
X13521786Y-17043452D01*
X13512262Y-16995833D01*
X13512262Y-16957738D01*
X13521786Y-16910119D01*
X13531309Y-16881548D01*
X13540833Y-16862500D01*
X13559881Y-16833929D01*
X13569405Y-16824405D01*
X13674167Y-16938690D02*
X13655119Y-16929167D01*
X13645595Y-16919643D01*
X13636071Y-16900595D01*
X13636071Y-16891071D01*
X13645595Y-16872024D01*
X13655119Y-16862500D01*
X13674167Y-16852976D01*
X13712262Y-16852976D01*
X13731309Y-16862500D01*
X13740833Y-16872024D01*
X13750357Y-16891071D01*
X13750357Y-16900595D01*
X13740833Y-16919643D01*
X13731309Y-16929167D01*
X13712262Y-16938690D01*
X13674167Y-16938690D01*
X13655119Y-16948214D01*
X13645595Y-16957738D01*
X13636071Y-16976786D01*
X13636071Y-17014881D01*
X13645595Y-17033929D01*
X13655119Y-17043452D01*
X13674167Y-17052976D01*
X13712262Y-17052976D01*
X13731309Y-17043452D01*
X13740833Y-17033929D01*
X13750357Y-17014881D01*
X13750357Y-16976786D01*
X13740833Y-16957738D01*
X13731309Y-16948214D01*
X13712262Y-16938690D01*
X13988452Y-17052976D02*
X13988452Y-16852976D01*
X14074167Y-17052976D02*
X14074167Y-16948214D01*
X14064643Y-16929167D01*
X14045595Y-16919643D01*
X14017024Y-16919643D01*
X13997976Y-16929167D01*
X13988452Y-16938690D01*
X14197976Y-17052976D02*
X14178928Y-17043452D01*
X14169405Y-17033929D01*
X14159881Y-17014881D01*
X14159881Y-16957738D01*
X14169405Y-16938690D01*
X14178928Y-16929167D01*
X14197976Y-16919643D01*
X14226548Y-16919643D01*
X14245595Y-16929167D01*
X14255119Y-16938690D01*
X14264643Y-16957738D01*
X14264643Y-17014881D01*
X14255119Y-17033929D01*
X14245595Y-17043452D01*
X14226548Y-17052976D01*
X14197976Y-17052976D01*
X14378928Y-17052976D02*
X14359881Y-17043452D01*
X14350357Y-17024405D01*
X14350357Y-16852976D01*
X14531309Y-17043452D02*
X14512262Y-17052976D01*
X14474167Y-17052976D01*
X14455119Y-17043452D01*
X14445595Y-17024405D01*
X14445595Y-16948214D01*
X14455119Y-16929167D01*
X14474167Y-16919643D01*
X14512262Y-16919643D01*
X14531309Y-16929167D01*
X14540833Y-16948214D01*
X14540833Y-16967262D01*
X14445595Y-16986310D01*
X14617024Y-17043452D02*
X14636071Y-17052976D01*
X14674167Y-17052976D01*
X14693214Y-17043452D01*
X14702738Y-17024405D01*
X14702738Y-17014881D01*
X14693214Y-16995833D01*
X14674167Y-16986310D01*
X14645595Y-16986310D01*
X14626548Y-16976786D01*
X14617024Y-16957738D01*
X14617024Y-16948214D01*
X14626548Y-16929167D01*
X14645595Y-16919643D01*
X14674167Y-16919643D01*
X14693214Y-16929167D01*
X14769405Y-17129167D02*
X14778928Y-17119643D01*
X14797976Y-17091071D01*
X14807500Y-17072024D01*
X14817024Y-17043452D01*
X14826548Y-16995833D01*
X14826548Y-16957738D01*
X14817024Y-16910119D01*
X14807500Y-16881548D01*
X14797976Y-16862500D01*
X14778928Y-16833929D01*
X14769405Y-16824405D01*
D18*
X9880660Y-17168080D02*
X9997500Y-17284920D01*
X9997500Y-17168080D02*
X9880660Y-17284920D01*
X9939080Y-17168080D02*
X9939080Y-17284920D01*
X9880660Y-17226500D02*
X9997500Y-17226500D01*
D12*
X10359881Y-17316976D02*
X10245595Y-17316976D01*
X10302738Y-17316976D02*
X10302738Y-17116976D01*
X10283690Y-17145548D01*
X10264643Y-17164595D01*
X10245595Y-17174119D01*
X10445595Y-17297929D02*
X10455119Y-17307452D01*
X10445595Y-17316976D01*
X10436071Y-17307452D01*
X10445595Y-17297929D01*
X10445595Y-17316976D01*
X10645595Y-17316976D02*
X10531310Y-17316976D01*
X10588452Y-17316976D02*
X10588452Y-17116976D01*
X10569405Y-17145548D01*
X10550357Y-17164595D01*
X10531310Y-17174119D01*
X10817024Y-17116976D02*
X10778929Y-17116976D01*
X10759881Y-17126500D01*
X10750357Y-17136024D01*
X10731310Y-17164595D01*
X10721786Y-17202690D01*
X10721786Y-17278881D01*
X10731310Y-17297929D01*
X10740833Y-17307452D01*
X10759881Y-17316976D01*
X10797976Y-17316976D01*
X10817024Y-17307452D01*
X10826548Y-17297929D01*
X10836071Y-17278881D01*
X10836071Y-17231262D01*
X10826548Y-17212214D01*
X10817024Y-17202690D01*
X10797976Y-17193167D01*
X10759881Y-17193167D01*
X10740833Y-17202690D01*
X10731310Y-17212214D01*
X10721786Y-17231262D01*
X10950357Y-17202690D02*
X10931310Y-17193167D01*
X10921786Y-17183643D01*
X10912262Y-17164595D01*
X10912262Y-17155071D01*
X10921786Y-17136024D01*
X10931310Y-17126500D01*
X10950357Y-17116976D01*
X10988452Y-17116976D01*
X11007500Y-17126500D01*
X11017024Y-17136024D01*
X11026548Y-17155071D01*
X11026548Y-17164595D01*
X11017024Y-17183643D01*
X11007500Y-17193167D01*
X10988452Y-17202690D01*
X10950357Y-17202690D01*
X10931310Y-17212214D01*
X10921786Y-17221738D01*
X10912262Y-17240786D01*
X10912262Y-17278881D01*
X10921786Y-17297929D01*
X10931310Y-17307452D01*
X10950357Y-17316976D01*
X10988452Y-17316976D01*
X11007500Y-17307452D01*
X11017024Y-17297929D01*
X11026548Y-17278881D01*
X11026548Y-17240786D01*
X11017024Y-17221738D01*
X11007500Y-17212214D01*
X10988452Y-17202690D01*
X11112262Y-17316976D02*
X11112262Y-17183643D01*
X11112262Y-17202690D02*
X11121786Y-17193167D01*
X11140833Y-17183643D01*
X11169405Y-17183643D01*
X11188452Y-17193167D01*
X11197976Y-17212214D01*
X11197976Y-17316976D01*
X11197976Y-17212214D02*
X11207500Y-17193167D01*
X11226548Y-17183643D01*
X11255119Y-17183643D01*
X11274167Y-17193167D01*
X11283690Y-17212214D01*
X11283690Y-17316976D01*
X11378928Y-17316976D02*
X11378928Y-17183643D01*
X11378928Y-17202690D02*
X11388452Y-17193167D01*
X11407500Y-17183643D01*
X11436071Y-17183643D01*
X11455119Y-17193167D01*
X11464643Y-17212214D01*
X11464643Y-17316976D01*
X11464643Y-17212214D02*
X11474167Y-17193167D01*
X11493214Y-17183643D01*
X11521786Y-17183643D01*
X11540833Y-17193167D01*
X11550357Y-17212214D01*
X11550357Y-17316976D01*
X11940833Y-17107452D02*
X11769405Y-17364595D01*
X12197976Y-17116976D02*
X12217024Y-17116976D01*
X12236071Y-17126500D01*
X12245595Y-17136024D01*
X12255119Y-17155071D01*
X12264643Y-17193167D01*
X12264643Y-17240786D01*
X12255119Y-17278881D01*
X12245595Y-17297929D01*
X12236071Y-17307452D01*
X12217024Y-17316976D01*
X12197976Y-17316976D01*
X12178928Y-17307452D01*
X12169405Y-17297929D01*
X12159881Y-17278881D01*
X12150357Y-17240786D01*
X12150357Y-17193167D01*
X12159881Y-17155071D01*
X12169405Y-17136024D01*
X12178928Y-17126500D01*
X12197976Y-17116976D01*
X12350357Y-17297929D02*
X12359881Y-17307452D01*
X12350357Y-17316976D01*
X12340833Y-17307452D01*
X12350357Y-17297929D01*
X12350357Y-17316976D01*
X12483690Y-17116976D02*
X12502738Y-17116976D01*
X12521786Y-17126500D01*
X12531309Y-17136024D01*
X12540833Y-17155071D01*
X12550357Y-17193167D01*
X12550357Y-17240786D01*
X12540833Y-17278881D01*
X12531309Y-17297929D01*
X12521786Y-17307452D01*
X12502738Y-17316976D01*
X12483690Y-17316976D01*
X12464643Y-17307452D01*
X12455119Y-17297929D01*
X12445595Y-17278881D01*
X12436071Y-17240786D01*
X12436071Y-17193167D01*
X12445595Y-17155071D01*
X12455119Y-17136024D01*
X12464643Y-17126500D01*
X12483690Y-17116976D01*
X12721786Y-17183643D02*
X12721786Y-17316976D01*
X12674167Y-17107452D02*
X12626548Y-17250310D01*
X12750357Y-17250310D01*
X12912262Y-17116976D02*
X12874167Y-17116976D01*
X12855119Y-17126500D01*
X12845595Y-17136024D01*
X12826548Y-17164595D01*
X12817024Y-17202690D01*
X12817024Y-17278881D01*
X12826548Y-17297929D01*
X12836071Y-17307452D01*
X12855119Y-17316976D01*
X12893214Y-17316976D01*
X12912262Y-17307452D01*
X12921786Y-17297929D01*
X12931309Y-17278881D01*
X12931309Y-17231262D01*
X12921786Y-17212214D01*
X12912262Y-17202690D01*
X12893214Y-17193167D01*
X12855119Y-17193167D01*
X12836071Y-17202690D01*
X12826548Y-17212214D01*
X12817024Y-17231262D01*
X13055119Y-17116976D02*
X13074167Y-17116976D01*
X13093214Y-17126500D01*
X13102738Y-17136024D01*
X13112262Y-17155071D01*
X13121786Y-17193167D01*
X13121786Y-17240786D01*
X13112262Y-17278881D01*
X13102738Y-17297929D01*
X13093214Y-17307452D01*
X13074167Y-17316976D01*
X13055119Y-17316976D01*
X13036071Y-17307452D01*
X13026548Y-17297929D01*
X13017024Y-17278881D01*
X13007500Y-17240786D01*
X13007500Y-17193167D01*
X13017024Y-17155071D01*
X13026548Y-17136024D01*
X13036071Y-17126500D01*
X13055119Y-17116976D01*
X13197976Y-17116976D02*
X13197976Y-17155071D01*
X13274167Y-17116976D02*
X13274167Y-17155071D01*
X13569405Y-17393167D02*
X13559881Y-17383643D01*
X13540833Y-17355071D01*
X13531309Y-17336024D01*
X13521786Y-17307452D01*
X13512262Y-17259833D01*
X13512262Y-17221738D01*
X13521786Y-17174119D01*
X13531309Y-17145548D01*
X13540833Y-17126500D01*
X13559881Y-17097929D01*
X13569405Y-17088405D01*
X13731309Y-17183643D02*
X13731309Y-17316976D01*
X13683690Y-17107452D02*
X13636071Y-17250310D01*
X13759881Y-17250310D01*
X13988452Y-17316976D02*
X13988452Y-17116976D01*
X14074167Y-17316976D02*
X14074167Y-17212214D01*
X14064643Y-17193167D01*
X14045595Y-17183643D01*
X14017024Y-17183643D01*
X13997976Y-17193167D01*
X13988452Y-17202690D01*
X14197976Y-17316976D02*
X14178928Y-17307452D01*
X14169405Y-17297929D01*
X14159881Y-17278881D01*
X14159881Y-17221738D01*
X14169405Y-17202690D01*
X14178928Y-17193167D01*
X14197976Y-17183643D01*
X14226548Y-17183643D01*
X14245595Y-17193167D01*
X14255119Y-17202690D01*
X14264643Y-17221738D01*
X14264643Y-17278881D01*
X14255119Y-17297929D01*
X14245595Y-17307452D01*
X14226548Y-17316976D01*
X14197976Y-17316976D01*
X14378928Y-17316976D02*
X14359881Y-17307452D01*
X14350357Y-17288405D01*
X14350357Y-17116976D01*
X14531309Y-17307452D02*
X14512262Y-17316976D01*
X14474167Y-17316976D01*
X14455119Y-17307452D01*
X14445595Y-17288405D01*
X14445595Y-17212214D01*
X14455119Y-17193167D01*
X14474167Y-17183643D01*
X14512262Y-17183643D01*
X14531309Y-17193167D01*
X14540833Y-17212214D01*
X14540833Y-17231262D01*
X14445595Y-17250310D01*
X14617024Y-17307452D02*
X14636071Y-17316976D01*
X14674167Y-17316976D01*
X14693214Y-17307452D01*
X14702738Y-17288405D01*
X14702738Y-17278881D01*
X14693214Y-17259833D01*
X14674167Y-17250310D01*
X14645595Y-17250310D01*
X14626548Y-17240786D01*
X14617024Y-17221738D01*
X14617024Y-17212214D01*
X14626548Y-17193167D01*
X14645595Y-17183643D01*
X14674167Y-17183643D01*
X14693214Y-17193167D01*
X14769405Y-17393167D02*
X14778928Y-17383643D01*
X14797976Y-17355071D01*
X14807500Y-17336024D01*
X14817024Y-17307452D01*
X14826548Y-17259833D01*
X14826548Y-17221738D01*
X14817024Y-17174119D01*
X14807500Y-17145548D01*
X14797976Y-17126500D01*
X14778928Y-17097929D01*
X14769405Y-17088405D01*
D19*
X9847500Y-17415500D02*
X9997500Y-17565500D01*
X9997500Y-17415500D02*
X9847500Y-17565500D01*
X9975534Y-17543534D02*
X9975534Y-17437467D01*
X9869467Y-17437467D01*
X9869467Y-17543534D01*
X9975534Y-17543534D01*
D12*
X10359881Y-17580976D02*
X10245595Y-17580976D01*
X10302738Y-17580976D02*
X10302738Y-17380976D01*
X10283690Y-17409548D01*
X10264643Y-17428595D01*
X10245595Y-17438119D01*
X10445595Y-17561929D02*
X10455119Y-17571452D01*
X10445595Y-17580976D01*
X10436071Y-17571452D01*
X10445595Y-17561929D01*
X10445595Y-17580976D01*
X10636071Y-17380976D02*
X10540833Y-17380976D01*
X10531310Y-17476214D01*
X10540833Y-17466690D01*
X10559881Y-17457167D01*
X10607500Y-17457167D01*
X10626548Y-17466690D01*
X10636071Y-17476214D01*
X10645595Y-17495262D01*
X10645595Y-17542881D01*
X10636071Y-17561929D01*
X10626548Y-17571452D01*
X10607500Y-17580976D01*
X10559881Y-17580976D01*
X10540833Y-17571452D01*
X10531310Y-17561929D01*
X10769405Y-17380976D02*
X10788452Y-17380976D01*
X10807500Y-17390500D01*
X10817024Y-17400024D01*
X10826548Y-17419071D01*
X10836071Y-17457167D01*
X10836071Y-17504786D01*
X10826548Y-17542881D01*
X10817024Y-17561929D01*
X10807500Y-17571452D01*
X10788452Y-17580976D01*
X10769405Y-17580976D01*
X10750357Y-17571452D01*
X10740833Y-17561929D01*
X10731310Y-17542881D01*
X10721786Y-17504786D01*
X10721786Y-17457167D01*
X10731310Y-17419071D01*
X10740833Y-17400024D01*
X10750357Y-17390500D01*
X10769405Y-17380976D01*
X10959881Y-17380976D02*
X10978929Y-17380976D01*
X10997976Y-17390500D01*
X11007500Y-17400024D01*
X11017024Y-17419071D01*
X11026548Y-17457167D01*
X11026548Y-17504786D01*
X11017024Y-17542881D01*
X11007500Y-17561929D01*
X10997976Y-17571452D01*
X10978929Y-17580976D01*
X10959881Y-17580976D01*
X10940833Y-17571452D01*
X10931310Y-17561929D01*
X10921786Y-17542881D01*
X10912262Y-17504786D01*
X10912262Y-17457167D01*
X10921786Y-17419071D01*
X10931310Y-17400024D01*
X10940833Y-17390500D01*
X10959881Y-17380976D01*
X11112262Y-17580976D02*
X11112262Y-17447643D01*
X11112262Y-17466690D02*
X11121786Y-17457167D01*
X11140833Y-17447643D01*
X11169405Y-17447643D01*
X11188452Y-17457167D01*
X11197976Y-17476214D01*
X11197976Y-17580976D01*
X11197976Y-17476214D02*
X11207500Y-17457167D01*
X11226548Y-17447643D01*
X11255119Y-17447643D01*
X11274167Y-17457167D01*
X11283690Y-17476214D01*
X11283690Y-17580976D01*
X11378928Y-17580976D02*
X11378928Y-17447643D01*
X11378928Y-17466690D02*
X11388452Y-17457167D01*
X11407500Y-17447643D01*
X11436071Y-17447643D01*
X11455119Y-17457167D01*
X11464643Y-17476214D01*
X11464643Y-17580976D01*
X11464643Y-17476214D02*
X11474167Y-17457167D01*
X11493214Y-17447643D01*
X11521786Y-17447643D01*
X11540833Y-17457167D01*
X11550357Y-17476214D01*
X11550357Y-17580976D01*
X11940833Y-17371452D02*
X11769405Y-17628595D01*
X12197976Y-17380976D02*
X12217024Y-17380976D01*
X12236071Y-17390500D01*
X12245595Y-17400024D01*
X12255119Y-17419071D01*
X12264643Y-17457167D01*
X12264643Y-17504786D01*
X12255119Y-17542881D01*
X12245595Y-17561929D01*
X12236071Y-17571452D01*
X12217024Y-17580976D01*
X12197976Y-17580976D01*
X12178928Y-17571452D01*
X12169405Y-17561929D01*
X12159881Y-17542881D01*
X12150357Y-17504786D01*
X12150357Y-17457167D01*
X12159881Y-17419071D01*
X12169405Y-17400024D01*
X12178928Y-17390500D01*
X12197976Y-17380976D01*
X12350357Y-17561929D02*
X12359881Y-17571452D01*
X12350357Y-17580976D01*
X12340833Y-17571452D01*
X12350357Y-17561929D01*
X12350357Y-17580976D01*
X12483690Y-17380976D02*
X12502738Y-17380976D01*
X12521786Y-17390500D01*
X12531309Y-17400024D01*
X12540833Y-17419071D01*
X12550357Y-17457167D01*
X12550357Y-17504786D01*
X12540833Y-17542881D01*
X12531309Y-17561929D01*
X12521786Y-17571452D01*
X12502738Y-17580976D01*
X12483690Y-17580976D01*
X12464643Y-17571452D01*
X12455119Y-17561929D01*
X12445595Y-17542881D01*
X12436071Y-17504786D01*
X12436071Y-17457167D01*
X12445595Y-17419071D01*
X12455119Y-17400024D01*
X12464643Y-17390500D01*
X12483690Y-17380976D01*
X12731309Y-17380976D02*
X12636071Y-17380976D01*
X12626548Y-17476214D01*
X12636071Y-17466690D01*
X12655119Y-17457167D01*
X12702738Y-17457167D01*
X12721786Y-17466690D01*
X12731309Y-17476214D01*
X12740833Y-17495262D01*
X12740833Y-17542881D01*
X12731309Y-17561929D01*
X12721786Y-17571452D01*
X12702738Y-17580976D01*
X12655119Y-17580976D01*
X12636071Y-17571452D01*
X12626548Y-17561929D01*
X12836071Y-17580976D02*
X12874167Y-17580976D01*
X12893214Y-17571452D01*
X12902738Y-17561929D01*
X12921786Y-17533357D01*
X12931309Y-17495262D01*
X12931309Y-17419071D01*
X12921786Y-17400024D01*
X12912262Y-17390500D01*
X12893214Y-17380976D01*
X12855119Y-17380976D01*
X12836071Y-17390500D01*
X12826548Y-17400024D01*
X12817024Y-17419071D01*
X12817024Y-17466690D01*
X12826548Y-17485738D01*
X12836071Y-17495262D01*
X12855119Y-17504786D01*
X12893214Y-17504786D01*
X12912262Y-17495262D01*
X12921786Y-17485738D01*
X12931309Y-17466690D01*
X13121786Y-17580976D02*
X13007500Y-17580976D01*
X13064643Y-17580976D02*
X13064643Y-17380976D01*
X13045595Y-17409548D01*
X13026548Y-17428595D01*
X13007500Y-17438119D01*
X13197976Y-17380976D02*
X13197976Y-17419071D01*
X13274167Y-17380976D02*
X13274167Y-17419071D01*
X13569405Y-17657167D02*
X13559881Y-17647643D01*
X13540833Y-17619071D01*
X13531309Y-17600024D01*
X13521786Y-17571452D01*
X13512262Y-17523833D01*
X13512262Y-17485738D01*
X13521786Y-17438119D01*
X13531309Y-17409548D01*
X13540833Y-17390500D01*
X13559881Y-17361929D01*
X13569405Y-17352405D01*
X13731309Y-17447643D02*
X13731309Y-17580976D01*
X13683690Y-17371452D02*
X13636071Y-17514310D01*
X13759881Y-17514310D01*
X13988452Y-17580976D02*
X13988452Y-17380976D01*
X14074167Y-17580976D02*
X14074167Y-17476214D01*
X14064643Y-17457167D01*
X14045595Y-17447643D01*
X14017024Y-17447643D01*
X13997976Y-17457167D01*
X13988452Y-17466690D01*
X14197976Y-17580976D02*
X14178928Y-17571452D01*
X14169405Y-17561929D01*
X14159881Y-17542881D01*
X14159881Y-17485738D01*
X14169405Y-17466690D01*
X14178928Y-17457167D01*
X14197976Y-17447643D01*
X14226548Y-17447643D01*
X14245595Y-17457167D01*
X14255119Y-17466690D01*
X14264643Y-17485738D01*
X14264643Y-17542881D01*
X14255119Y-17561929D01*
X14245595Y-17571452D01*
X14226548Y-17580976D01*
X14197976Y-17580976D01*
X14378928Y-17580976D02*
X14359881Y-17571452D01*
X14350357Y-17552405D01*
X14350357Y-17380976D01*
X14531309Y-17571452D02*
X14512262Y-17580976D01*
X14474167Y-17580976D01*
X14455119Y-17571452D01*
X14445595Y-17552405D01*
X14445595Y-17476214D01*
X14455119Y-17457167D01*
X14474167Y-17447643D01*
X14512262Y-17447643D01*
X14531309Y-17457167D01*
X14540833Y-17476214D01*
X14540833Y-17495262D01*
X14445595Y-17514310D01*
X14617024Y-17571452D02*
X14636071Y-17580976D01*
X14674167Y-17580976D01*
X14693214Y-17571452D01*
X14702738Y-17552405D01*
X14702738Y-17542881D01*
X14693214Y-17523833D01*
X14674167Y-17514310D01*
X14645595Y-17514310D01*
X14626548Y-17504786D01*
X14617024Y-17485738D01*
X14617024Y-17476214D01*
X14626548Y-17457167D01*
X14645595Y-17447643D01*
X14674167Y-17447643D01*
X14693214Y-17457167D01*
X14769405Y-17657167D02*
X14778928Y-17647643D01*
X14797976Y-17619071D01*
X14807500Y-17600024D01*
X14817024Y-17571452D01*
X14826548Y-17523833D01*
X14826548Y-17485738D01*
X14817024Y-17438119D01*
X14807500Y-17409548D01*
X14797976Y-17390500D01*
X14778928Y-17361929D01*
X14769405Y-17352405D01*
D20*
X9817500Y-17670500D02*
X9997500Y-17850500D01*
X9997500Y-17670500D02*
X9817500Y-17850500D01*
X9907500Y-17850500D02*
X9997500Y-17760500D01*
X9907500Y-17670500D01*
X9817500Y-17760500D01*
X9907500Y-17850500D01*
D12*
X10359881Y-17850976D02*
X10245595Y-17850976D01*
X10302738Y-17850976D02*
X10302738Y-17650976D01*
X10283690Y-17679548D01*
X10264643Y-17698595D01*
X10245595Y-17708119D01*
X10445595Y-17831929D02*
X10455119Y-17841452D01*
X10445595Y-17850976D01*
X10436071Y-17841452D01*
X10445595Y-17831929D01*
X10445595Y-17850976D01*
X10569405Y-17736690D02*
X10550357Y-17727167D01*
X10540833Y-17717643D01*
X10531310Y-17698595D01*
X10531310Y-17689071D01*
X10540833Y-17670024D01*
X10550357Y-17660500D01*
X10569405Y-17650976D01*
X10607500Y-17650976D01*
X10626548Y-17660500D01*
X10636071Y-17670024D01*
X10645595Y-17689071D01*
X10645595Y-17698595D01*
X10636071Y-17717643D01*
X10626548Y-17727167D01*
X10607500Y-17736690D01*
X10569405Y-17736690D01*
X10550357Y-17746214D01*
X10540833Y-17755738D01*
X10531310Y-17774786D01*
X10531310Y-17812881D01*
X10540833Y-17831929D01*
X10550357Y-17841452D01*
X10569405Y-17850976D01*
X10607500Y-17850976D01*
X10626548Y-17841452D01*
X10636071Y-17831929D01*
X10645595Y-17812881D01*
X10645595Y-17774786D01*
X10636071Y-17755738D01*
X10626548Y-17746214D01*
X10607500Y-17736690D01*
X10769405Y-17650976D02*
X10788452Y-17650976D01*
X10807500Y-17660500D01*
X10817024Y-17670024D01*
X10826548Y-17689071D01*
X10836071Y-17727167D01*
X10836071Y-17774786D01*
X10826548Y-17812881D01*
X10817024Y-17831929D01*
X10807500Y-17841452D01*
X10788452Y-17850976D01*
X10769405Y-17850976D01*
X10750357Y-17841452D01*
X10740833Y-17831929D01*
X10731310Y-17812881D01*
X10721786Y-17774786D01*
X10721786Y-17727167D01*
X10731310Y-17689071D01*
X10740833Y-17670024D01*
X10750357Y-17660500D01*
X10769405Y-17650976D01*
X10959881Y-17650976D02*
X10978929Y-17650976D01*
X10997976Y-17660500D01*
X11007500Y-17670024D01*
X11017024Y-17689071D01*
X11026548Y-17727167D01*
X11026548Y-17774786D01*
X11017024Y-17812881D01*
X11007500Y-17831929D01*
X10997976Y-17841452D01*
X10978929Y-17850976D01*
X10959881Y-17850976D01*
X10940833Y-17841452D01*
X10931310Y-17831929D01*
X10921786Y-17812881D01*
X10912262Y-17774786D01*
X10912262Y-17727167D01*
X10921786Y-17689071D01*
X10931310Y-17670024D01*
X10940833Y-17660500D01*
X10959881Y-17650976D01*
X11112262Y-17850976D02*
X11112262Y-17717643D01*
X11112262Y-17736690D02*
X11121786Y-17727167D01*
X11140833Y-17717643D01*
X11169405Y-17717643D01*
X11188452Y-17727167D01*
X11197976Y-17746214D01*
X11197976Y-17850976D01*
X11197976Y-17746214D02*
X11207500Y-17727167D01*
X11226548Y-17717643D01*
X11255119Y-17717643D01*
X11274167Y-17727167D01*
X11283690Y-17746214D01*
X11283690Y-17850976D01*
X11378928Y-17850976D02*
X11378928Y-17717643D01*
X11378928Y-17736690D02*
X11388452Y-17727167D01*
X11407500Y-17717643D01*
X11436071Y-17717643D01*
X11455119Y-17727167D01*
X11464643Y-17746214D01*
X11464643Y-17850976D01*
X11464643Y-17746214D02*
X11474167Y-17727167D01*
X11493214Y-17717643D01*
X11521786Y-17717643D01*
X11540833Y-17727167D01*
X11550357Y-17746214D01*
X11550357Y-17850976D01*
X11940833Y-17641452D02*
X11769405Y-17898595D01*
X12197976Y-17650976D02*
X12217024Y-17650976D01*
X12236071Y-17660500D01*
X12245595Y-17670024D01*
X12255119Y-17689071D01*
X12264643Y-17727167D01*
X12264643Y-17774786D01*
X12255119Y-17812881D01*
X12245595Y-17831929D01*
X12236071Y-17841452D01*
X12217024Y-17850976D01*
X12197976Y-17850976D01*
X12178928Y-17841452D01*
X12169405Y-17831929D01*
X12159881Y-17812881D01*
X12150357Y-17774786D01*
X12150357Y-17727167D01*
X12159881Y-17689071D01*
X12169405Y-17670024D01*
X12178928Y-17660500D01*
X12197976Y-17650976D01*
X12350357Y-17831929D02*
X12359881Y-17841452D01*
X12350357Y-17850976D01*
X12340833Y-17841452D01*
X12350357Y-17831929D01*
X12350357Y-17850976D01*
X12483690Y-17650976D02*
X12502738Y-17650976D01*
X12521786Y-17660500D01*
X12531309Y-17670024D01*
X12540833Y-17689071D01*
X12550357Y-17727167D01*
X12550357Y-17774786D01*
X12540833Y-17812881D01*
X12531309Y-17831929D01*
X12521786Y-17841452D01*
X12502738Y-17850976D01*
X12483690Y-17850976D01*
X12464643Y-17841452D01*
X12455119Y-17831929D01*
X12445595Y-17812881D01*
X12436071Y-17774786D01*
X12436071Y-17727167D01*
X12445595Y-17689071D01*
X12455119Y-17670024D01*
X12464643Y-17660500D01*
X12483690Y-17650976D01*
X12617024Y-17650976D02*
X12750357Y-17650976D01*
X12664643Y-17850976D01*
X12864643Y-17650976D02*
X12883690Y-17650976D01*
X12902738Y-17660500D01*
X12912262Y-17670024D01*
X12921786Y-17689071D01*
X12931309Y-17727167D01*
X12931309Y-17774786D01*
X12921786Y-17812881D01*
X12912262Y-17831929D01*
X12902738Y-17841452D01*
X12883690Y-17850976D01*
X12864643Y-17850976D01*
X12845595Y-17841452D01*
X12836071Y-17831929D01*
X12826548Y-17812881D01*
X12817024Y-17774786D01*
X12817024Y-17727167D01*
X12826548Y-17689071D01*
X12836071Y-17670024D01*
X12845595Y-17660500D01*
X12864643Y-17650976D01*
X13026548Y-17850976D02*
X13064643Y-17850976D01*
X13083690Y-17841452D01*
X13093214Y-17831929D01*
X13112262Y-17803357D01*
X13121786Y-17765262D01*
X13121786Y-17689071D01*
X13112262Y-17670024D01*
X13102738Y-17660500D01*
X13083690Y-17650976D01*
X13045595Y-17650976D01*
X13026548Y-17660500D01*
X13017024Y-17670024D01*
X13007500Y-17689071D01*
X13007500Y-17736690D01*
X13017024Y-17755738D01*
X13026548Y-17765262D01*
X13045595Y-17774786D01*
X13083690Y-17774786D01*
X13102738Y-17765262D01*
X13112262Y-17755738D01*
X13121786Y-17736690D01*
X13197976Y-17650976D02*
X13197976Y-17689071D01*
X13274167Y-17650976D02*
X13274167Y-17689071D01*
X13569405Y-17927167D02*
X13559881Y-17917643D01*
X13540833Y-17889071D01*
X13531309Y-17870024D01*
X13521786Y-17841452D01*
X13512262Y-17793833D01*
X13512262Y-17755738D01*
X13521786Y-17708119D01*
X13531309Y-17679548D01*
X13540833Y-17660500D01*
X13559881Y-17631929D01*
X13569405Y-17622405D01*
X13626548Y-17650976D02*
X13750357Y-17650976D01*
X13683690Y-17727167D01*
X13712262Y-17727167D01*
X13731309Y-17736690D01*
X13740833Y-17746214D01*
X13750357Y-17765262D01*
X13750357Y-17812881D01*
X13740833Y-17831929D01*
X13731309Y-17841452D01*
X13712262Y-17850976D01*
X13655119Y-17850976D01*
X13636071Y-17841452D01*
X13626548Y-17831929D01*
X13988452Y-17850976D02*
X13988452Y-17650976D01*
X14074167Y-17850976D02*
X14074167Y-17746214D01*
X14064643Y-17727167D01*
X14045595Y-17717643D01*
X14017024Y-17717643D01*
X13997976Y-17727167D01*
X13988452Y-17736690D01*
X14197976Y-17850976D02*
X14178928Y-17841452D01*
X14169405Y-17831929D01*
X14159881Y-17812881D01*
X14159881Y-17755738D01*
X14169405Y-17736690D01*
X14178928Y-17727167D01*
X14197976Y-17717643D01*
X14226548Y-17717643D01*
X14245595Y-17727167D01*
X14255119Y-17736690D01*
X14264643Y-17755738D01*
X14264643Y-17812881D01*
X14255119Y-17831929D01*
X14245595Y-17841452D01*
X14226548Y-17850976D01*
X14197976Y-17850976D01*
X14378928Y-17850976D02*
X14359881Y-17841452D01*
X14350357Y-17822405D01*
X14350357Y-17650976D01*
X14531309Y-17841452D02*
X14512262Y-17850976D01*
X14474167Y-17850976D01*
X14455119Y-17841452D01*
X14445595Y-17822405D01*
X14445595Y-17746214D01*
X14455119Y-17727167D01*
X14474167Y-17717643D01*
X14512262Y-17717643D01*
X14531309Y-17727167D01*
X14540833Y-17746214D01*
X14540833Y-17765262D01*
X14445595Y-17784310D01*
X14617024Y-17841452D02*
X14636071Y-17850976D01*
X14674167Y-17850976D01*
X14693214Y-17841452D01*
X14702738Y-17822405D01*
X14702738Y-17812881D01*
X14693214Y-17793833D01*
X14674167Y-17784310D01*
X14645595Y-17784310D01*
X14626548Y-17774786D01*
X14617024Y-17755738D01*
X14617024Y-17746214D01*
X14626548Y-17727167D01*
X14645595Y-17717643D01*
X14674167Y-17717643D01*
X14693214Y-17727167D01*
X14769405Y-17927167D02*
X14778928Y-17917643D01*
X14797976Y-17889071D01*
X14807500Y-17870024D01*
X14817024Y-17841452D01*
X14826548Y-17793833D01*
X14826548Y-17755738D01*
X14817024Y-17708119D01*
X14807500Y-17679548D01*
X14797976Y-17660500D01*
X14778928Y-17631929D01*
X14769405Y-17622405D01*
M02*
