G04 #@! TF.GenerationSoftware,KiCad,Pcbnew,(5.1.9-0-10_14)*
G04 #@! TF.CreationDate,2021-01-20T12:56:53-08:00*
G04 #@! TF.ProjectId,UrbanSteering,55726261-6e53-4746-9565-72696e672e6b,rev?*
G04 #@! TF.SameCoordinates,Original*
G04 #@! TF.FileFunction,Legend,Top*
G04 #@! TF.FilePolarity,Positive*
%FSLAX46Y46*%
G04 Gerber Fmt 4.6, Leading zero omitted, Abs format (unit mm)*
G04 Created by KiCad (PCBNEW (5.1.9-0-10_14)) date 2021-01-20 12:56:53*
%MOMM*%
%LPD*%
G01*
G04 APERTURE LIST*
%ADD10C,0.300000*%
%ADD11C,0.120000*%
%ADD12C,0.100000*%
%ADD13C,0.200000*%
%ADD14C,0.254000*%
%ADD15C,0.150000*%
%ADD16C,0.096520*%
G04 APERTURE END LIST*
D10*
X132705714Y-113478571D02*
X132705714Y-114692857D01*
X132777142Y-114835714D01*
X132848571Y-114907142D01*
X132991428Y-114978571D01*
X133277142Y-114978571D01*
X133420000Y-114907142D01*
X133491428Y-114835714D01*
X133562857Y-114692857D01*
X133562857Y-113478571D01*
X134777142Y-114192857D02*
X134991428Y-114264285D01*
X135062857Y-114335714D01*
X135134285Y-114478571D01*
X135134285Y-114692857D01*
X135062857Y-114835714D01*
X134991428Y-114907142D01*
X134848571Y-114978571D01*
X134277142Y-114978571D01*
X134277142Y-113478571D01*
X134777142Y-113478571D01*
X134920000Y-113550000D01*
X134991428Y-113621428D01*
X135062857Y-113764285D01*
X135062857Y-113907142D01*
X134991428Y-114050000D01*
X134920000Y-114121428D01*
X134777142Y-114192857D01*
X134277142Y-114192857D01*
X136634285Y-114835714D02*
X136562857Y-114907142D01*
X136348571Y-114978571D01*
X136205714Y-114978571D01*
X135991428Y-114907142D01*
X135848571Y-114764285D01*
X135777142Y-114621428D01*
X135705714Y-114335714D01*
X135705714Y-114121428D01*
X135777142Y-113835714D01*
X135848571Y-113692857D01*
X135991428Y-113550000D01*
X136205714Y-113478571D01*
X136348571Y-113478571D01*
X136562857Y-113550000D01*
X136634285Y-113621428D01*
X137205714Y-114907142D02*
X137420000Y-114978571D01*
X137777142Y-114978571D01*
X137920000Y-114907142D01*
X137991428Y-114835714D01*
X138062857Y-114692857D01*
X138062857Y-114550000D01*
X137991428Y-114407142D01*
X137920000Y-114335714D01*
X137777142Y-114264285D01*
X137491428Y-114192857D01*
X137348571Y-114121428D01*
X137277142Y-114050000D01*
X137205714Y-113907142D01*
X137205714Y-113764285D01*
X137277142Y-113621428D01*
X137348571Y-113550000D01*
X137491428Y-113478571D01*
X137848571Y-113478571D01*
X138062857Y-113550000D01*
X139348571Y-113978571D02*
X139348571Y-114978571D01*
X138705714Y-113978571D02*
X138705714Y-114764285D01*
X138777142Y-114907142D01*
X138920000Y-114978571D01*
X139134285Y-114978571D01*
X139277142Y-114907142D01*
X139348571Y-114835714D01*
X140062857Y-113978571D02*
X140062857Y-115478571D01*
X140062857Y-114050000D02*
X140205714Y-113978571D01*
X140491428Y-113978571D01*
X140634285Y-114050000D01*
X140705714Y-114121428D01*
X140777142Y-114264285D01*
X140777142Y-114692857D01*
X140705714Y-114835714D01*
X140634285Y-114907142D01*
X140491428Y-114978571D01*
X140205714Y-114978571D01*
X140062857Y-114907142D01*
X141991428Y-114907142D02*
X141848571Y-114978571D01*
X141562857Y-114978571D01*
X141420000Y-114907142D01*
X141348571Y-114764285D01*
X141348571Y-114192857D01*
X141420000Y-114050000D01*
X141562857Y-113978571D01*
X141848571Y-113978571D01*
X141991428Y-114050000D01*
X142062857Y-114192857D01*
X142062857Y-114335714D01*
X141348571Y-114478571D01*
X142705714Y-114978571D02*
X142705714Y-113978571D01*
X142705714Y-114264285D02*
X142777142Y-114121428D01*
X142848571Y-114050000D01*
X142991428Y-113978571D01*
X143134285Y-113978571D01*
X143634285Y-114978571D02*
X143634285Y-113978571D01*
X143634285Y-114121428D02*
X143705714Y-114050000D01*
X143848571Y-113978571D01*
X144062857Y-113978571D01*
X144205714Y-114050000D01*
X144277142Y-114192857D01*
X144277142Y-114978571D01*
X144277142Y-114192857D02*
X144348571Y-114050000D01*
X144491428Y-113978571D01*
X144705714Y-113978571D01*
X144848571Y-114050000D01*
X144920000Y-114192857D01*
X144920000Y-114978571D01*
X145634285Y-114978571D02*
X145634285Y-113978571D01*
X145634285Y-113478571D02*
X145562857Y-113550000D01*
X145634285Y-113621428D01*
X145705714Y-113550000D01*
X145634285Y-113478571D01*
X145634285Y-113621428D01*
X146562857Y-114978571D02*
X146420000Y-114907142D01*
X146348571Y-114764285D01*
X146348571Y-113478571D01*
X147705714Y-114907142D02*
X147562857Y-114978571D01*
X147277142Y-114978571D01*
X147134285Y-114907142D01*
X147062857Y-114764285D01*
X147062857Y-114192857D01*
X147134285Y-114050000D01*
X147277142Y-113978571D01*
X147562857Y-113978571D01*
X147705714Y-114050000D01*
X147777142Y-114192857D01*
X147777142Y-114335714D01*
X147062857Y-114478571D01*
X149062857Y-114978571D02*
X149062857Y-114192857D01*
X148991428Y-114050000D01*
X148848571Y-113978571D01*
X148562857Y-113978571D01*
X148420000Y-114050000D01*
X149062857Y-114907142D02*
X148920000Y-114978571D01*
X148562857Y-114978571D01*
X148420000Y-114907142D01*
X148348571Y-114764285D01*
X148348571Y-114621428D01*
X148420000Y-114478571D01*
X148562857Y-114407142D01*
X148920000Y-114407142D01*
X149062857Y-114335714D01*
X150420000Y-113978571D02*
X150420000Y-115192857D01*
X150348571Y-115335714D01*
X150277142Y-115407142D01*
X150134285Y-115478571D01*
X149920000Y-115478571D01*
X149777142Y-115407142D01*
X150420000Y-114907142D02*
X150277142Y-114978571D01*
X149991428Y-114978571D01*
X149848571Y-114907142D01*
X149777142Y-114835714D01*
X149705714Y-114692857D01*
X149705714Y-114264285D01*
X149777142Y-114121428D01*
X149848571Y-114050000D01*
X149991428Y-113978571D01*
X150277142Y-113978571D01*
X150420000Y-114050000D01*
X151705714Y-114907142D02*
X151562857Y-114978571D01*
X151277142Y-114978571D01*
X151134285Y-114907142D01*
X151062857Y-114764285D01*
X151062857Y-114192857D01*
X151134285Y-114050000D01*
X151277142Y-113978571D01*
X151562857Y-113978571D01*
X151705714Y-114050000D01*
X151777142Y-114192857D01*
X151777142Y-114335714D01*
X151062857Y-114478571D01*
X152062857Y-115121428D02*
X153205714Y-115121428D01*
X153562857Y-113478571D02*
X153562857Y-114692857D01*
X153634285Y-114835714D01*
X153705714Y-114907142D01*
X153848571Y-114978571D01*
X154134285Y-114978571D01*
X154277142Y-114907142D01*
X154348571Y-114835714D01*
X154420000Y-114692857D01*
X154420000Y-113478571D01*
X155134285Y-114978571D02*
X155134285Y-113978571D01*
X155134285Y-114264285D02*
X155205714Y-114121428D01*
X155277142Y-114050000D01*
X155420000Y-113978571D01*
X155562857Y-113978571D01*
X156062857Y-114978571D02*
X156062857Y-113478571D01*
X156062857Y-114050000D02*
X156205714Y-113978571D01*
X156491428Y-113978571D01*
X156634285Y-114050000D01*
X156705714Y-114121428D01*
X156777142Y-114264285D01*
X156777142Y-114692857D01*
X156705714Y-114835714D01*
X156634285Y-114907142D01*
X156491428Y-114978571D01*
X156205714Y-114978571D01*
X156062857Y-114907142D01*
X158062857Y-114978571D02*
X158062857Y-114192857D01*
X157991428Y-114050000D01*
X157848571Y-113978571D01*
X157562857Y-113978571D01*
X157420000Y-114050000D01*
X158062857Y-114907142D02*
X157920000Y-114978571D01*
X157562857Y-114978571D01*
X157420000Y-114907142D01*
X157348571Y-114764285D01*
X157348571Y-114621428D01*
X157420000Y-114478571D01*
X157562857Y-114407142D01*
X157920000Y-114407142D01*
X158062857Y-114335714D01*
X158777142Y-113978571D02*
X158777142Y-114978571D01*
X158777142Y-114121428D02*
X158848571Y-114050000D01*
X158991428Y-113978571D01*
X159205714Y-113978571D01*
X159348571Y-114050000D01*
X159420000Y-114192857D01*
X159420000Y-114978571D01*
X160062857Y-114907142D02*
X160277142Y-114978571D01*
X160634285Y-114978571D01*
X160777142Y-114907142D01*
X160848571Y-114835714D01*
X160920000Y-114692857D01*
X160920000Y-114550000D01*
X160848571Y-114407142D01*
X160777142Y-114335714D01*
X160634285Y-114264285D01*
X160348571Y-114192857D01*
X160205714Y-114121428D01*
X160134285Y-114050000D01*
X160062857Y-113907142D01*
X160062857Y-113764285D01*
X160134285Y-113621428D01*
X160205714Y-113550000D01*
X160348571Y-113478571D01*
X160705714Y-113478571D01*
X160920000Y-113550000D01*
X161348571Y-113978571D02*
X161920000Y-113978571D01*
X161562857Y-113478571D02*
X161562857Y-114764285D01*
X161634285Y-114907142D01*
X161777142Y-114978571D01*
X161920000Y-114978571D01*
X162991428Y-114907142D02*
X162848571Y-114978571D01*
X162562857Y-114978571D01*
X162420000Y-114907142D01*
X162348571Y-114764285D01*
X162348571Y-114192857D01*
X162420000Y-114050000D01*
X162562857Y-113978571D01*
X162848571Y-113978571D01*
X162991428Y-114050000D01*
X163062857Y-114192857D01*
X163062857Y-114335714D01*
X162348571Y-114478571D01*
X164277142Y-114907142D02*
X164134285Y-114978571D01*
X163848571Y-114978571D01*
X163705714Y-114907142D01*
X163634285Y-114764285D01*
X163634285Y-114192857D01*
X163705714Y-114050000D01*
X163848571Y-113978571D01*
X164134285Y-113978571D01*
X164277142Y-114050000D01*
X164348571Y-114192857D01*
X164348571Y-114335714D01*
X163634285Y-114478571D01*
X164991428Y-114978571D02*
X164991428Y-113978571D01*
X164991428Y-114264285D02*
X165062857Y-114121428D01*
X165134285Y-114050000D01*
X165277142Y-113978571D01*
X165420000Y-113978571D01*
X165920000Y-114978571D02*
X165920000Y-113978571D01*
X165920000Y-113478571D02*
X165848571Y-113550000D01*
X165920000Y-113621428D01*
X165991428Y-113550000D01*
X165920000Y-113478571D01*
X165920000Y-113621428D01*
X166634285Y-113978571D02*
X166634285Y-114978571D01*
X166634285Y-114121428D02*
X166705714Y-114050000D01*
X166848571Y-113978571D01*
X167062857Y-113978571D01*
X167205714Y-114050000D01*
X167277142Y-114192857D01*
X167277142Y-114978571D01*
X168634285Y-113978571D02*
X168634285Y-115192857D01*
X168562857Y-115335714D01*
X168491428Y-115407142D01*
X168348571Y-115478571D01*
X168134285Y-115478571D01*
X167991428Y-115407142D01*
X168634285Y-114907142D02*
X168491428Y-114978571D01*
X168205714Y-114978571D01*
X168062857Y-114907142D01*
X167991428Y-114835714D01*
X167920000Y-114692857D01*
X167920000Y-114264285D01*
X167991428Y-114121428D01*
X168062857Y-114050000D01*
X168205714Y-113978571D01*
X168491428Y-113978571D01*
X168634285Y-114050000D01*
X168991428Y-115121428D02*
X170134285Y-115121428D01*
X170277142Y-113478571D02*
X170777142Y-114978571D01*
X171277142Y-113478571D01*
X171634285Y-113478571D02*
X172562857Y-113478571D01*
X172062857Y-114050000D01*
X172277142Y-114050000D01*
X172420000Y-114121428D01*
X172491428Y-114192857D01*
X172562857Y-114335714D01*
X172562857Y-114692857D01*
X172491428Y-114835714D01*
X172420000Y-114907142D01*
X172277142Y-114978571D01*
X171848571Y-114978571D01*
X171705714Y-114907142D01*
X171634285Y-114835714D01*
X173205714Y-114835714D02*
X173277142Y-114907142D01*
X173205714Y-114978571D01*
X173134285Y-114907142D01*
X173205714Y-114835714D01*
X173205714Y-114978571D01*
X174205714Y-113478571D02*
X174348571Y-113478571D01*
X174491428Y-113550000D01*
X174562857Y-113621428D01*
X174634285Y-113764285D01*
X174705714Y-114050000D01*
X174705714Y-114407142D01*
X174634285Y-114692857D01*
X174562857Y-114835714D01*
X174491428Y-114907142D01*
X174348571Y-114978571D01*
X174205714Y-114978571D01*
X174062857Y-114907142D01*
X173991428Y-114835714D01*
X173920000Y-114692857D01*
X173848571Y-114407142D01*
X173848571Y-114050000D01*
X173920000Y-113764285D01*
X173991428Y-113621428D01*
X174062857Y-113550000D01*
X174205714Y-113478571D01*
D11*
X206189580Y-60152280D02*
X206189580Y-75392280D01*
X206189580Y-75392280D02*
X221429580Y-75392280D01*
X221429580Y-75392280D02*
X221429580Y-60152280D01*
X221429580Y-60152280D02*
X206189580Y-60152280D01*
X205445360Y-110940820D02*
X205445360Y-125940820D01*
X205445360Y-125940820D02*
X222245360Y-125940820D01*
X222245360Y-125940820D02*
X222245360Y-110940820D01*
X222245360Y-110940820D02*
X205445360Y-110940820D01*
X102306120Y-125502700D02*
X102306120Y-110502700D01*
X102306120Y-110502700D02*
X85506120Y-110502700D01*
X85506120Y-110502700D02*
X85506120Y-125502700D01*
X85506120Y-125502700D02*
X102306120Y-125502700D01*
X102229920Y-100666580D02*
X102229920Y-85666580D01*
X102229920Y-85666580D02*
X85429920Y-85666580D01*
X85429920Y-85666580D02*
X85429920Y-100666580D01*
X85429920Y-100666580D02*
X102229920Y-100666580D01*
X205595220Y-85751640D02*
X205595220Y-100751640D01*
X205595220Y-100751640D02*
X222395220Y-100751640D01*
X222395220Y-100751640D02*
X222395220Y-85751640D01*
X222395220Y-85751640D02*
X205595220Y-85751640D01*
X111442060Y-79344520D02*
G75*
G03*
X111442060Y-79344520I-2250000J0D01*
G01*
X111607160Y-87101680D02*
G75*
G03*
X111607160Y-87101680I-2250000J0D01*
G01*
X133806760Y-107792520D02*
G75*
G03*
X133806760Y-107792520I-2250000J0D01*
G01*
X140601260Y-107955080D02*
G75*
G03*
X140601260Y-107955080I-2250000J0D01*
G01*
X174428980Y-120192800D02*
G75*
G03*
X174428980Y-120192800I-2250000J0D01*
G01*
X174214000Y-107524000D02*
G75*
G03*
X174214000Y-107524000I-2250000J0D01*
G01*
D12*
X101853060Y-64249800D02*
X86053060Y-64249800D01*
X101853060Y-72249800D02*
X86053060Y-72249800D01*
D13*
X89253060Y-63249800D02*
X89253060Y-63249800D01*
X89253060Y-63049800D02*
X89253060Y-63049800D01*
X89253060Y-63249800D02*
G75*
G02*
X89253060Y-63049800I0J100000D01*
G01*
X89253060Y-63049800D02*
G75*
G02*
X89253060Y-63249800I0J-100000D01*
G01*
D14*
X204772380Y-79254047D02*
X204953809Y-79314523D01*
X205256190Y-79314523D01*
X205377142Y-79254047D01*
X205437619Y-79193571D01*
X205498095Y-79072619D01*
X205498095Y-78951666D01*
X205437619Y-78830714D01*
X205377142Y-78770238D01*
X205256190Y-78709761D01*
X205014285Y-78649285D01*
X204893333Y-78588809D01*
X204832857Y-78528333D01*
X204772380Y-78407380D01*
X204772380Y-78286428D01*
X204832857Y-78165476D01*
X204893333Y-78105000D01*
X205014285Y-78044523D01*
X205316666Y-78044523D01*
X205498095Y-78105000D01*
X206707619Y-79314523D02*
X205981904Y-79314523D01*
X206344761Y-79314523D02*
X206344761Y-78044523D01*
X206223809Y-78225952D01*
X206102857Y-78346904D01*
X205981904Y-78407380D01*
X217381666Y-79314523D02*
X217381666Y-78044523D01*
X217381666Y-78649285D02*
X218107380Y-78649285D01*
X218107380Y-79314523D02*
X218107380Y-78044523D01*
X218954047Y-78044523D02*
X219195952Y-78044523D01*
X219316904Y-78105000D01*
X219437857Y-78225952D01*
X219498333Y-78467857D01*
X219498333Y-78891190D01*
X219437857Y-79133095D01*
X219316904Y-79254047D01*
X219195952Y-79314523D01*
X218954047Y-79314523D01*
X218833095Y-79254047D01*
X218712142Y-79133095D01*
X218651666Y-78891190D01*
X218651666Y-78467857D01*
X218712142Y-78225952D01*
X218833095Y-78105000D01*
X218954047Y-78044523D01*
X220768333Y-79314523D02*
X220345000Y-78709761D01*
X220042619Y-79314523D02*
X220042619Y-78044523D01*
X220526428Y-78044523D01*
X220647380Y-78105000D01*
X220707857Y-78165476D01*
X220768333Y-78286428D01*
X220768333Y-78467857D01*
X220707857Y-78588809D01*
X220647380Y-78649285D01*
X220526428Y-78709761D01*
X220042619Y-78709761D01*
X221312619Y-79314523D02*
X221312619Y-78044523D01*
X222038333Y-79314523D01*
X222038333Y-78044523D01*
X204137380Y-128844523D02*
X204863095Y-128844523D01*
X204500238Y-130114523D02*
X204500238Y-128844523D01*
X205286428Y-130114523D02*
X205286428Y-128844523D01*
X205770238Y-128844523D01*
X205891190Y-128905000D01*
X205951666Y-128965476D01*
X206012142Y-129086428D01*
X206012142Y-129267857D01*
X205951666Y-129388809D01*
X205891190Y-129449285D01*
X205770238Y-129509761D01*
X205286428Y-129509761D01*
X206495952Y-128965476D02*
X206556428Y-128905000D01*
X206677380Y-128844523D01*
X206979761Y-128844523D01*
X207100714Y-128905000D01*
X207161190Y-128965476D01*
X207221666Y-129086428D01*
X207221666Y-129207380D01*
X207161190Y-129388809D01*
X206435476Y-130114523D01*
X207221666Y-130114523D01*
X215779047Y-130114523D02*
X215779047Y-128844523D01*
X215779047Y-129449285D02*
X216504761Y-129449285D01*
X216504761Y-130114523D02*
X216504761Y-128844523D01*
X217049047Y-129751666D02*
X217653809Y-129751666D01*
X216928095Y-130114523D02*
X217351428Y-128844523D01*
X217774761Y-130114523D01*
X218077142Y-128844523D02*
X218923809Y-128844523D01*
X218077142Y-130114523D01*
X218923809Y-130114523D01*
X219347142Y-129751666D02*
X219951904Y-129751666D01*
X219226190Y-130114523D02*
X219649523Y-128844523D01*
X220072857Y-130114523D01*
X221221904Y-130114523D02*
X220798571Y-129509761D01*
X220496190Y-130114523D02*
X220496190Y-128844523D01*
X220980000Y-128844523D01*
X221100952Y-128905000D01*
X221161428Y-128965476D01*
X221221904Y-129086428D01*
X221221904Y-129267857D01*
X221161428Y-129388809D01*
X221100952Y-129449285D01*
X220980000Y-129509761D01*
X220496190Y-129509761D01*
X221766190Y-130114523D02*
X221766190Y-128844523D01*
X222068571Y-128844523D01*
X222250000Y-128905000D01*
X222370952Y-129025952D01*
X222431428Y-129146904D01*
X222491904Y-129388809D01*
X222491904Y-129570238D01*
X222431428Y-129812142D01*
X222370952Y-129933095D01*
X222250000Y-130054047D01*
X222068571Y-130114523D01*
X221766190Y-130114523D01*
X222975714Y-130054047D02*
X223157142Y-130114523D01*
X223459523Y-130114523D01*
X223580476Y-130054047D01*
X223640952Y-129993571D01*
X223701428Y-129872619D01*
X223701428Y-129751666D01*
X223640952Y-129630714D01*
X223580476Y-129570238D01*
X223459523Y-129509761D01*
X223217619Y-129449285D01*
X223096666Y-129388809D01*
X223036190Y-129328333D01*
X222975714Y-129207380D01*
X222975714Y-129086428D01*
X223036190Y-128965476D01*
X223096666Y-128905000D01*
X223217619Y-128844523D01*
X223520000Y-128844523D01*
X223701428Y-128905000D01*
X84122380Y-130054047D02*
X84303809Y-130114523D01*
X84606190Y-130114523D01*
X84727142Y-130054047D01*
X84787619Y-129993571D01*
X84848095Y-129872619D01*
X84848095Y-129751666D01*
X84787619Y-129630714D01*
X84727142Y-129570238D01*
X84606190Y-129509761D01*
X84364285Y-129449285D01*
X84243333Y-129388809D01*
X84182857Y-129328333D01*
X84122380Y-129207380D01*
X84122380Y-129086428D01*
X84182857Y-128965476D01*
X84243333Y-128905000D01*
X84364285Y-128844523D01*
X84666666Y-128844523D01*
X84848095Y-128905000D01*
X85997142Y-128844523D02*
X85392380Y-128844523D01*
X85331904Y-129449285D01*
X85392380Y-129388809D01*
X85513333Y-129328333D01*
X85815714Y-129328333D01*
X85936666Y-129388809D01*
X85997142Y-129449285D01*
X86057619Y-129570238D01*
X86057619Y-129872619D01*
X85997142Y-129993571D01*
X85936666Y-130054047D01*
X85815714Y-130114523D01*
X85513333Y-130114523D01*
X85392380Y-130054047D01*
X85331904Y-129993571D01*
X98031904Y-130114523D02*
X97427142Y-130114523D01*
X97427142Y-128844523D01*
X98455238Y-130114523D02*
X98455238Y-128844523D01*
X99725238Y-128905000D02*
X99604285Y-128844523D01*
X99422857Y-128844523D01*
X99241428Y-128905000D01*
X99120476Y-129025952D01*
X99060000Y-129146904D01*
X98999523Y-129388809D01*
X98999523Y-129570238D01*
X99060000Y-129812142D01*
X99120476Y-129933095D01*
X99241428Y-130054047D01*
X99422857Y-130114523D01*
X99543809Y-130114523D01*
X99725238Y-130054047D01*
X99785714Y-129993571D01*
X99785714Y-129570238D01*
X99543809Y-129570238D01*
X100330000Y-130114523D02*
X100330000Y-128844523D01*
X100330000Y-129449285D02*
X101055714Y-129449285D01*
X101055714Y-130114523D02*
X101055714Y-128844523D01*
X101479047Y-128844523D02*
X102204761Y-128844523D01*
X101841904Y-130114523D02*
X101841904Y-128844523D01*
X102567619Y-130054047D02*
X102749047Y-130114523D01*
X103051428Y-130114523D01*
X103172380Y-130054047D01*
X103232857Y-129993571D01*
X103293333Y-129872619D01*
X103293333Y-129751666D01*
X103232857Y-129630714D01*
X103172380Y-129570238D01*
X103051428Y-129509761D01*
X102809523Y-129449285D01*
X102688571Y-129388809D01*
X102628095Y-129328333D01*
X102567619Y-129207380D01*
X102567619Y-129086428D01*
X102628095Y-128965476D01*
X102688571Y-128905000D01*
X102809523Y-128844523D01*
X103111904Y-128844523D01*
X103293333Y-128905000D01*
X84122380Y-104654047D02*
X84303809Y-104714523D01*
X84606190Y-104714523D01*
X84727142Y-104654047D01*
X84787619Y-104593571D01*
X84848095Y-104472619D01*
X84848095Y-104351666D01*
X84787619Y-104230714D01*
X84727142Y-104170238D01*
X84606190Y-104109761D01*
X84364285Y-104049285D01*
X84243333Y-103988809D01*
X84182857Y-103928333D01*
X84122380Y-103807380D01*
X84122380Y-103686428D01*
X84182857Y-103565476D01*
X84243333Y-103505000D01*
X84364285Y-103444523D01*
X84666666Y-103444523D01*
X84848095Y-103505000D01*
X85936666Y-103867857D02*
X85936666Y-104714523D01*
X85634285Y-103384047D02*
X85331904Y-104291190D01*
X86118095Y-104291190D01*
X97034047Y-103444523D02*
X97336428Y-104714523D01*
X97578333Y-103807380D01*
X97820238Y-104714523D01*
X98122619Y-103444523D01*
X98606428Y-104714523D02*
X98606428Y-103444523D01*
X99211190Y-104714523D02*
X99211190Y-103444523D01*
X99695000Y-103444523D01*
X99815952Y-103505000D01*
X99876428Y-103565476D01*
X99936904Y-103686428D01*
X99936904Y-103867857D01*
X99876428Y-103988809D01*
X99815952Y-104049285D01*
X99695000Y-104109761D01*
X99211190Y-104109761D01*
X100481190Y-104049285D02*
X100904523Y-104049285D01*
X101085952Y-104714523D02*
X100481190Y-104714523D01*
X100481190Y-103444523D01*
X101085952Y-103444523D01*
X102355952Y-104714523D02*
X101932619Y-104109761D01*
X101630238Y-104714523D02*
X101630238Y-103444523D01*
X102114047Y-103444523D01*
X102235000Y-103505000D01*
X102295476Y-103565476D01*
X102355952Y-103686428D01*
X102355952Y-103867857D01*
X102295476Y-103988809D01*
X102235000Y-104049285D01*
X102114047Y-104109761D01*
X101630238Y-104109761D01*
X102839761Y-104654047D02*
X103021190Y-104714523D01*
X103323571Y-104714523D01*
X103444523Y-104654047D01*
X103505000Y-104593571D01*
X103565476Y-104472619D01*
X103565476Y-104351666D01*
X103505000Y-104230714D01*
X103444523Y-104170238D01*
X103323571Y-104109761D01*
X103081666Y-104049285D01*
X102960714Y-103988809D01*
X102900238Y-103928333D01*
X102839761Y-103807380D01*
X102839761Y-103686428D01*
X102900238Y-103565476D01*
X102960714Y-103505000D01*
X103081666Y-103444523D01*
X103384047Y-103444523D01*
X103565476Y-103505000D01*
X204772380Y-104654047D02*
X204953809Y-104714523D01*
X205256190Y-104714523D01*
X205377142Y-104654047D01*
X205437619Y-104593571D01*
X205498095Y-104472619D01*
X205498095Y-104351666D01*
X205437619Y-104230714D01*
X205377142Y-104170238D01*
X205256190Y-104109761D01*
X205014285Y-104049285D01*
X204893333Y-103988809D01*
X204832857Y-103928333D01*
X204772380Y-103807380D01*
X204772380Y-103686428D01*
X204832857Y-103565476D01*
X204893333Y-103505000D01*
X205014285Y-103444523D01*
X205316666Y-103444523D01*
X205498095Y-103505000D01*
X205921428Y-103444523D02*
X206707619Y-103444523D01*
X206284285Y-103928333D01*
X206465714Y-103928333D01*
X206586666Y-103988809D01*
X206647142Y-104049285D01*
X206707619Y-104170238D01*
X206707619Y-104472619D01*
X206647142Y-104593571D01*
X206586666Y-104654047D01*
X206465714Y-104714523D01*
X206102857Y-104714523D01*
X205981904Y-104654047D01*
X205921428Y-104593571D01*
X215990714Y-104714523D02*
X215990714Y-103444523D01*
X217260714Y-103505000D02*
X217139761Y-103444523D01*
X216958333Y-103444523D01*
X216776904Y-103505000D01*
X216655952Y-103625952D01*
X216595476Y-103746904D01*
X216535000Y-103988809D01*
X216535000Y-104170238D01*
X216595476Y-104412142D01*
X216655952Y-104533095D01*
X216776904Y-104654047D01*
X216958333Y-104714523D01*
X217079285Y-104714523D01*
X217260714Y-104654047D01*
X217321190Y-104593571D01*
X217321190Y-104170238D01*
X217079285Y-104170238D01*
X217865476Y-104714523D02*
X217865476Y-103444523D01*
X218591190Y-104714523D01*
X218591190Y-103444523D01*
X219195952Y-104714523D02*
X219195952Y-103444523D01*
X219619285Y-103444523D02*
X220345000Y-103444523D01*
X219982142Y-104714523D02*
X219982142Y-103444523D01*
X220768333Y-104714523D02*
X220768333Y-103444523D01*
X221615000Y-103444523D02*
X221856904Y-103444523D01*
X221977857Y-103505000D01*
X222098809Y-103625952D01*
X222159285Y-103867857D01*
X222159285Y-104291190D01*
X222098809Y-104533095D01*
X221977857Y-104654047D01*
X221856904Y-104714523D01*
X221615000Y-104714523D01*
X221494047Y-104654047D01*
X221373095Y-104533095D01*
X221312619Y-104291190D01*
X221312619Y-103867857D01*
X221373095Y-103625952D01*
X221494047Y-103505000D01*
X221615000Y-103444523D01*
X222703571Y-104714523D02*
X222703571Y-103444523D01*
X223429285Y-104714523D01*
X223429285Y-103444523D01*
D15*
X108050095Y-74916380D02*
X108621523Y-74916380D01*
X108335809Y-75916380D02*
X108335809Y-74916380D01*
X108954857Y-75916380D02*
X108954857Y-74916380D01*
X109335809Y-74916380D01*
X109431047Y-74964000D01*
X109478666Y-75011619D01*
X109526285Y-75106857D01*
X109526285Y-75249714D01*
X109478666Y-75344952D01*
X109431047Y-75392571D01*
X109335809Y-75440190D01*
X108954857Y-75440190D01*
X109859619Y-74916380D02*
X110478666Y-74916380D01*
X110145333Y-75297333D01*
X110288190Y-75297333D01*
X110383428Y-75344952D01*
X110431047Y-75392571D01*
X110478666Y-75487809D01*
X110478666Y-75725904D01*
X110431047Y-75821142D01*
X110383428Y-75868761D01*
X110288190Y-75916380D01*
X110002476Y-75916380D01*
X109907238Y-75868761D01*
X109859619Y-75821142D01*
X108228095Y-83150380D02*
X108799523Y-83150380D01*
X108513809Y-84150380D02*
X108513809Y-83150380D01*
X109132857Y-84150380D02*
X109132857Y-83150380D01*
X109513809Y-83150380D01*
X109609047Y-83198000D01*
X109656666Y-83245619D01*
X109704285Y-83340857D01*
X109704285Y-83483714D01*
X109656666Y-83578952D01*
X109609047Y-83626571D01*
X109513809Y-83674190D01*
X109132857Y-83674190D01*
X110037619Y-83150380D02*
X110704285Y-83150380D01*
X110275714Y-84150380D01*
X130294855Y-110452380D02*
X130866283Y-110452380D01*
X130580569Y-111452380D02*
X130580569Y-110452380D01*
X131199617Y-111452380D02*
X131199617Y-110452380D01*
X131580569Y-110452380D01*
X131675807Y-110500000D01*
X131723426Y-110547619D01*
X131771045Y-110642857D01*
X131771045Y-110785714D01*
X131723426Y-110880952D01*
X131675807Y-110928571D01*
X131580569Y-110976190D01*
X131199617Y-110976190D01*
X132675807Y-110452380D02*
X132199617Y-110452380D01*
X132151998Y-110928571D01*
X132199617Y-110880952D01*
X132294855Y-110833333D01*
X132532950Y-110833333D01*
X132628188Y-110880952D01*
X132675807Y-110928571D01*
X132723426Y-111023809D01*
X132723426Y-111261904D01*
X132675807Y-111357142D01*
X132628188Y-111404761D01*
X132532950Y-111452380D01*
X132294855Y-111452380D01*
X132199617Y-111404761D01*
X132151998Y-111357142D01*
X137089355Y-110452380D02*
X137660783Y-110452380D01*
X137375069Y-111452380D02*
X137375069Y-110452380D01*
X137994117Y-111452380D02*
X137994117Y-110452380D01*
X138375069Y-110452380D01*
X138470307Y-110500000D01*
X138517926Y-110547619D01*
X138565545Y-110642857D01*
X138565545Y-110785714D01*
X138517926Y-110880952D01*
X138470307Y-110928571D01*
X138375069Y-110976190D01*
X137994117Y-110976190D01*
X139422688Y-110452380D02*
X139232212Y-110452380D01*
X139136974Y-110500000D01*
X139089355Y-110547619D01*
X138994117Y-110690476D01*
X138946498Y-110880952D01*
X138946498Y-111261904D01*
X138994117Y-111357142D01*
X139041736Y-111404761D01*
X139136974Y-111452380D01*
X139327450Y-111452380D01*
X139422688Y-111404761D01*
X139470307Y-111357142D01*
X139517926Y-111261904D01*
X139517926Y-111023809D01*
X139470307Y-110928571D01*
X139422688Y-110880952D01*
X139327450Y-110833333D01*
X139136974Y-110833333D01*
X139041736Y-110880952D01*
X138994117Y-110928571D01*
X138946498Y-111023809D01*
X170917075Y-116747180D02*
X171488503Y-116747180D01*
X171202789Y-117747180D02*
X171202789Y-116747180D01*
X171821837Y-117747180D02*
X171821837Y-116747180D01*
X172202789Y-116747180D01*
X172298027Y-116794800D01*
X172345646Y-116842419D01*
X172393265Y-116937657D01*
X172393265Y-117080514D01*
X172345646Y-117175752D01*
X172298027Y-117223371D01*
X172202789Y-117270990D01*
X171821837Y-117270990D01*
X173250408Y-117080514D02*
X173250408Y-117747180D01*
X173012313Y-116699561D02*
X172774218Y-117413847D01*
X173393265Y-117413847D01*
D16*
X116264714Y-91446047D02*
X116264714Y-92307833D01*
X116207261Y-92480190D01*
X116092357Y-92595095D01*
X115919999Y-92652547D01*
X115805095Y-92652547D01*
X117413761Y-91446047D02*
X116839238Y-91446047D01*
X116781785Y-92020571D01*
X116839238Y-91963119D01*
X116954142Y-91905666D01*
X117241404Y-91905666D01*
X117356309Y-91963119D01*
X117413761Y-92020571D01*
X117471214Y-92135476D01*
X117471214Y-92422738D01*
X117413761Y-92537642D01*
X117356309Y-92595095D01*
X117241404Y-92652547D01*
X116954142Y-92652547D01*
X116839238Y-92595095D01*
X116781785Y-92537642D01*
D15*
X195112735Y-64403120D02*
X195112735Y-63403120D01*
X195112735Y-63879311D02*
X195684163Y-63879311D01*
X195684163Y-64403120D02*
X195684163Y-63403120D01*
X196684163Y-64403120D02*
X196112735Y-64403120D01*
X196398449Y-64403120D02*
X196398449Y-63403120D01*
X196303211Y-63545978D01*
X196207973Y-63641216D01*
X196112735Y-63688835D01*
X195115275Y-106422340D02*
X195115275Y-105422340D01*
X195115275Y-105898531D02*
X195686703Y-105898531D01*
X195686703Y-106422340D02*
X195686703Y-105422340D01*
X196115275Y-105517579D02*
X196162894Y-105469960D01*
X196258132Y-105422340D01*
X196496227Y-105422340D01*
X196591465Y-105469960D01*
X196639084Y-105517579D01*
X196686703Y-105612817D01*
X196686703Y-105708055D01*
X196639084Y-105850912D01*
X196067656Y-106422340D01*
X196686703Y-106422340D01*
X111117475Y-106414720D02*
X111117475Y-105414720D01*
X111117475Y-105890911D02*
X111688903Y-105890911D01*
X111688903Y-106414720D02*
X111688903Y-105414720D01*
X112069856Y-105414720D02*
X112688903Y-105414720D01*
X112355570Y-105795673D01*
X112498427Y-105795673D01*
X112593665Y-105843292D01*
X112641284Y-105890911D01*
X112688903Y-105986149D01*
X112688903Y-106224244D01*
X112641284Y-106319482D01*
X112593665Y-106367101D01*
X112498427Y-106414720D01*
X112212713Y-106414720D01*
X112117475Y-106367101D01*
X112069856Y-106319482D01*
X111117475Y-64431060D02*
X111117475Y-63431060D01*
X111117475Y-63907251D02*
X111688903Y-63907251D01*
X111688903Y-64431060D02*
X111688903Y-63431060D01*
X112593665Y-63764394D02*
X112593665Y-64431060D01*
X112355570Y-63383441D02*
X112117475Y-64097727D01*
X112736522Y-64097727D01*
X122516995Y-60422940D02*
X122516995Y-59422940D01*
X122516995Y-59899131D02*
X123088423Y-59899131D01*
X123088423Y-60422940D02*
X123088423Y-59422940D01*
X124040804Y-59422940D02*
X123564614Y-59422940D01*
X123516995Y-59899131D01*
X123564614Y-59851512D01*
X123659852Y-59803893D01*
X123897947Y-59803893D01*
X123993185Y-59851512D01*
X124040804Y-59899131D01*
X124088423Y-59994369D01*
X124088423Y-60232464D01*
X124040804Y-60327702D01*
X123993185Y-60375321D01*
X123897947Y-60422940D01*
X123659852Y-60422940D01*
X123564614Y-60375321D01*
X123516995Y-60327702D01*
X183708135Y-94524980D02*
X183708135Y-93524980D01*
X183708135Y-94001171D02*
X184279563Y-94001171D01*
X184279563Y-94524980D02*
X184279563Y-93524980D01*
X185184325Y-93524980D02*
X184993849Y-93524980D01*
X184898611Y-93572600D01*
X184850992Y-93620219D01*
X184755754Y-93763076D01*
X184708135Y-93953552D01*
X184708135Y-94334504D01*
X184755754Y-94429742D01*
X184803373Y-94477361D01*
X184898611Y-94524980D01*
X185089087Y-94524980D01*
X185184325Y-94477361D01*
X185231944Y-94429742D01*
X185279563Y-94334504D01*
X185279563Y-94096409D01*
X185231944Y-94001171D01*
X185184325Y-93953552D01*
X185089087Y-93905933D01*
X184898611Y-93905933D01*
X184803373Y-93953552D01*
X184755754Y-94001171D01*
X184708135Y-94096409D01*
X122524615Y-94524980D02*
X122524615Y-93524980D01*
X122524615Y-94001171D02*
X123096043Y-94001171D01*
X123096043Y-94524980D02*
X123096043Y-93524980D01*
X123476996Y-93524980D02*
X124143662Y-93524980D01*
X123715091Y-94524980D01*
X183708135Y-60201960D02*
X183708135Y-59201960D01*
X183708135Y-59678151D02*
X184279563Y-59678151D01*
X184279563Y-60201960D02*
X184279563Y-59201960D01*
X184898611Y-59630532D02*
X184803373Y-59582913D01*
X184755754Y-59535294D01*
X184708135Y-59440056D01*
X184708135Y-59392437D01*
X184755754Y-59297199D01*
X184803373Y-59249580D01*
X184898611Y-59201960D01*
X185089087Y-59201960D01*
X185184325Y-59249580D01*
X185231944Y-59297199D01*
X185279563Y-59392437D01*
X185279563Y-59440056D01*
X185231944Y-59535294D01*
X185184325Y-59582913D01*
X185089087Y-59630532D01*
X184898611Y-59630532D01*
X184803373Y-59678151D01*
X184755754Y-59725770D01*
X184708135Y-59821008D01*
X184708135Y-60011484D01*
X184755754Y-60106722D01*
X184803373Y-60154341D01*
X184898611Y-60201960D01*
X185089087Y-60201960D01*
X185184325Y-60154341D01*
X185231944Y-60106722D01*
X185279563Y-60011484D01*
X185279563Y-59821008D01*
X185231944Y-59725770D01*
X185184325Y-59678151D01*
X185089087Y-59630532D01*
X170702095Y-104078380D02*
X171273523Y-104078380D01*
X170987809Y-105078380D02*
X170987809Y-104078380D01*
X171606857Y-105078380D02*
X171606857Y-104078380D01*
X171987809Y-104078380D01*
X172083047Y-104126000D01*
X172130666Y-104173619D01*
X172178285Y-104268857D01*
X172178285Y-104411714D01*
X172130666Y-104506952D01*
X172083047Y-104554571D01*
X171987809Y-104602190D01*
X171606857Y-104602190D01*
X173130666Y-105078380D02*
X172559238Y-105078380D01*
X172844952Y-105078380D02*
X172844952Y-104078380D01*
X172749714Y-104221238D01*
X172654476Y-104316476D01*
X172559238Y-104364095D01*
D14*
X84122380Y-75444047D02*
X84303809Y-75504523D01*
X84606190Y-75504523D01*
X84727142Y-75444047D01*
X84787619Y-75383571D01*
X84848095Y-75262619D01*
X84848095Y-75141666D01*
X84787619Y-75020714D01*
X84727142Y-74960238D01*
X84606190Y-74899761D01*
X84364285Y-74839285D01*
X84243333Y-74778809D01*
X84182857Y-74718333D01*
X84122380Y-74597380D01*
X84122380Y-74476428D01*
X84182857Y-74355476D01*
X84243333Y-74295000D01*
X84364285Y-74234523D01*
X84666666Y-74234523D01*
X84848095Y-74295000D01*
X85331904Y-74355476D02*
X85392380Y-74295000D01*
X85513333Y-74234523D01*
X85815714Y-74234523D01*
X85936666Y-74295000D01*
X85997142Y-74355476D01*
X86057619Y-74476428D01*
X86057619Y-74597380D01*
X85997142Y-74778809D01*
X85271428Y-75504523D01*
X86057619Y-75504523D01*
X93889285Y-75504523D02*
X93889285Y-74234523D01*
X94494047Y-75504523D02*
X94494047Y-74234523D01*
X95219761Y-75504523D01*
X95219761Y-74234523D01*
X95824523Y-75504523D02*
X95824523Y-74234523D01*
X96126904Y-74234523D01*
X96308333Y-74295000D01*
X96429285Y-74415952D01*
X96489761Y-74536904D01*
X96550238Y-74778809D01*
X96550238Y-74960238D01*
X96489761Y-75202142D01*
X96429285Y-75323095D01*
X96308333Y-75444047D01*
X96126904Y-75504523D01*
X95824523Y-75504523D01*
X97094523Y-75504523D02*
X97094523Y-74234523D01*
X98425000Y-75383571D02*
X98364523Y-75444047D01*
X98183095Y-75504523D01*
X98062142Y-75504523D01*
X97880714Y-75444047D01*
X97759761Y-75323095D01*
X97699285Y-75202142D01*
X97638809Y-74960238D01*
X97638809Y-74778809D01*
X97699285Y-74536904D01*
X97759761Y-74415952D01*
X97880714Y-74295000D01*
X98062142Y-74234523D01*
X98183095Y-74234523D01*
X98364523Y-74295000D01*
X98425000Y-74355476D01*
X98908809Y-75141666D02*
X99513571Y-75141666D01*
X98787857Y-75504523D02*
X99211190Y-74234523D01*
X99634523Y-75504523D01*
X99876428Y-74234523D02*
X100602142Y-74234523D01*
X100239285Y-75504523D02*
X100239285Y-74234523D01*
X101267380Y-74234523D02*
X101509285Y-74234523D01*
X101630238Y-74295000D01*
X101751190Y-74415952D01*
X101811666Y-74657857D01*
X101811666Y-75081190D01*
X101751190Y-75323095D01*
X101630238Y-75444047D01*
X101509285Y-75504523D01*
X101267380Y-75504523D01*
X101146428Y-75444047D01*
X101025476Y-75323095D01*
X100965000Y-75081190D01*
X100965000Y-74657857D01*
X101025476Y-74415952D01*
X101146428Y-74295000D01*
X101267380Y-74234523D01*
X103081666Y-75504523D02*
X102658333Y-74899761D01*
X102355952Y-75504523D02*
X102355952Y-74234523D01*
X102839761Y-74234523D01*
X102960714Y-74295000D01*
X103021190Y-74355476D01*
X103081666Y-74476428D01*
X103081666Y-74657857D01*
X103021190Y-74778809D01*
X102960714Y-74839285D01*
X102839761Y-74899761D01*
X102355952Y-74899761D01*
X103565476Y-75444047D02*
X103746904Y-75504523D01*
X104049285Y-75504523D01*
X104170238Y-75444047D01*
X104230714Y-75383571D01*
X104291190Y-75262619D01*
X104291190Y-75141666D01*
X104230714Y-75020714D01*
X104170238Y-74960238D01*
X104049285Y-74899761D01*
X103807380Y-74839285D01*
X103686428Y-74778809D01*
X103625952Y-74718333D01*
X103565476Y-74597380D01*
X103565476Y-74476428D01*
X103625952Y-74355476D01*
X103686428Y-74295000D01*
X103807380Y-74234523D01*
X104109761Y-74234523D01*
X104291190Y-74295000D01*
M02*
