G04 #@! TF.GenerationSoftware,KiCad,Pcbnew,(5.1.9-0-10_14)*
G04 #@! TF.CreationDate,2021-01-20T12:56:53-08:00*
G04 #@! TF.ProjectId,UrbanSteering,55726261-6e53-4746-9565-72696e672e6b,rev?*
G04 #@! TF.SameCoordinates,Original*
G04 #@! TF.FileFunction,Soldermask,Bot*
G04 #@! TF.FilePolarity,Negative*
%FSLAX46Y46*%
G04 Gerber Fmt 4.6, Leading zero omitted, Abs format (unit mm)*
G04 Created by KiCad (PCBNEW (5.1.9-0-10_14)) date 2021-01-20 12:56:53*
%MOMM*%
%LPD*%
G01*
G04 APERTURE LIST*
%ADD10C,1.511200*%
%ADD11C,3.760000*%
%ADD12R,1.650000X5.330000*%
%ADD13C,1.300000*%
%ADD14C,1.524000*%
%ADD15C,4.000000*%
%ADD16C,1.498600*%
%ADD17R,1.498600X1.498600*%
%ADD18C,6.400000*%
%ADD19C,2.250000*%
%ADD20C,2.700000*%
%ADD21R,1.100000X1.500000*%
G04 APERTURE END LIST*
G36*
G01*
X106553779Y-118397340D02*
X107103779Y-118397340D01*
G75*
G02*
X107303779Y-118597340I0J-200000D01*
G01*
X107303779Y-118997340D01*
G75*
G02*
X107103779Y-119197340I-200000J0D01*
G01*
X106553779Y-119197340D01*
G75*
G02*
X106353779Y-118997340I0J200000D01*
G01*
X106353779Y-118597340D01*
G75*
G02*
X106553779Y-118397340I200000J0D01*
G01*
G37*
G36*
G01*
X106553779Y-116747340D02*
X107103779Y-116747340D01*
G75*
G02*
X107303779Y-116947340I0J-200000D01*
G01*
X107303779Y-117347340D01*
G75*
G02*
X107103779Y-117547340I-200000J0D01*
G01*
X106553779Y-117547340D01*
G75*
G02*
X106353779Y-117347340I0J200000D01*
G01*
X106353779Y-116947340D01*
G75*
G02*
X106553779Y-116747340I200000J0D01*
G01*
G37*
G36*
G01*
X124192620Y-88151520D02*
X124742620Y-88151520D01*
G75*
G02*
X124942620Y-88351520I0J-200000D01*
G01*
X124942620Y-88751520D01*
G75*
G02*
X124742620Y-88951520I-200000J0D01*
G01*
X124192620Y-88951520D01*
G75*
G02*
X123992620Y-88751520I0J200000D01*
G01*
X123992620Y-88351520D01*
G75*
G02*
X124192620Y-88151520I200000J0D01*
G01*
G37*
G36*
G01*
X124192620Y-86501520D02*
X124742620Y-86501520D01*
G75*
G02*
X124942620Y-86701520I0J-200000D01*
G01*
X124942620Y-87101520D01*
G75*
G02*
X124742620Y-87301520I-200000J0D01*
G01*
X124192620Y-87301520D01*
G75*
G02*
X123992620Y-87101520I0J200000D01*
G01*
X123992620Y-86701520D01*
G75*
G02*
X124192620Y-86501520I200000J0D01*
G01*
G37*
G36*
G01*
X117784200Y-79615000D02*
X118334200Y-79615000D01*
G75*
G02*
X118534200Y-79815000I0J-200000D01*
G01*
X118534200Y-80215000D01*
G75*
G02*
X118334200Y-80415000I-200000J0D01*
G01*
X117784200Y-80415000D01*
G75*
G02*
X117584200Y-80215000I0J200000D01*
G01*
X117584200Y-79815000D01*
G75*
G02*
X117784200Y-79615000I200000J0D01*
G01*
G37*
G36*
G01*
X117784200Y-77965000D02*
X118334200Y-77965000D01*
G75*
G02*
X118534200Y-78165000I0J-200000D01*
G01*
X118534200Y-78565000D01*
G75*
G02*
X118334200Y-78765000I-200000J0D01*
G01*
X117784200Y-78765000D01*
G75*
G02*
X117584200Y-78565000I0J200000D01*
G01*
X117584200Y-78165000D01*
G75*
G02*
X117784200Y-77965000I200000J0D01*
G01*
G37*
D10*
X146281140Y-63825120D03*
X146281140Y-66365120D03*
X146281140Y-68905120D03*
X146281140Y-71445120D03*
X146281140Y-73985120D03*
X146281140Y-76525120D03*
X146281140Y-79065120D03*
X146281140Y-81605120D03*
X146281140Y-84145120D03*
X146281140Y-86685120D03*
X146281140Y-89225120D03*
X146281140Y-91765120D03*
X146281140Y-94305120D03*
X146281140Y-96845120D03*
X146281140Y-99385120D03*
X161521140Y-99385120D03*
X161521140Y-96845120D03*
X161521140Y-94305120D03*
X161521140Y-91765120D03*
X161521140Y-89225120D03*
X161521140Y-86685120D03*
X161521140Y-84145120D03*
X161521140Y-81605120D03*
X161521140Y-79065120D03*
X161521140Y-76525120D03*
X161521140Y-73985120D03*
X161521140Y-71445120D03*
X161521140Y-68905120D03*
X161521140Y-66365120D03*
G36*
G01*
X162276740Y-63171120D02*
X162276740Y-64479120D01*
G75*
G02*
X162175140Y-64580720I-101600J0D01*
G01*
X160867140Y-64580720D01*
G75*
G02*
X160765540Y-64479120I0J101600D01*
G01*
X160765540Y-63171120D01*
G75*
G02*
X160867140Y-63069520I101600J0D01*
G01*
X162175140Y-63069520D01*
G75*
G02*
X162276740Y-63171120I0J-101600D01*
G01*
G37*
D11*
X194411000Y-128548000D03*
X183991000Y-128548000D03*
D12*
X193011000Y-117858000D03*
X190471000Y-117858000D03*
X187931000Y-117858000D03*
X185391000Y-117858000D03*
D11*
X124205000Y-128606000D03*
X113785000Y-128606000D03*
D12*
X122805000Y-117916000D03*
X120265000Y-117916000D03*
X117725000Y-117916000D03*
X115185000Y-117916000D03*
X156606240Y-110020960D03*
X154066240Y-110020960D03*
X151526240Y-110020960D03*
D13*
X220159580Y-61422280D03*
X207459580Y-61422280D03*
X207459580Y-74122280D03*
X220159580Y-74122280D03*
D14*
X213809580Y-70312280D03*
X213809580Y-67772280D03*
X213809580Y-65232280D03*
X209309580Y-63962280D03*
X209309580Y-71582280D03*
D13*
X219415360Y-111970820D03*
X206715360Y-111970820D03*
X206715360Y-124670820D03*
X219415360Y-124670820D03*
D14*
X213065360Y-120860820D03*
X213065360Y-118320820D03*
X213065360Y-115780820D03*
X208565360Y-114510820D03*
X208565360Y-122130820D03*
D13*
X88336120Y-124472700D03*
X101036120Y-124472700D03*
X101036120Y-111772700D03*
X88336120Y-111772700D03*
D14*
X94686120Y-115582700D03*
X94686120Y-118122700D03*
X94686120Y-120662700D03*
X99186120Y-121932700D03*
X99186120Y-114312700D03*
D13*
X88259920Y-99636580D03*
X100959920Y-99636580D03*
X100959920Y-86936580D03*
X88259920Y-86936580D03*
D14*
X94609920Y-90746580D03*
X94609920Y-93286580D03*
X94609920Y-95826580D03*
X99109920Y-97096580D03*
X99109920Y-89476580D03*
D13*
X219565220Y-86781640D03*
X206865220Y-86781640D03*
X206865220Y-99481640D03*
X219565220Y-99481640D03*
D14*
X213215220Y-95671640D03*
X213215220Y-93131640D03*
X213215220Y-90591640D03*
X208715220Y-89321640D03*
X208715220Y-96941640D03*
D15*
X109192060Y-79344520D03*
X109357160Y-87101680D03*
X131556760Y-107792520D03*
X138351260Y-107955080D03*
X172178980Y-120192800D03*
D10*
X121785380Y-91384120D03*
X121785380Y-88844120D03*
X121785380Y-86304120D03*
X121785380Y-83764120D03*
X121785380Y-81224120D03*
X121785380Y-78684120D03*
X121785380Y-76144120D03*
X121785380Y-73604120D03*
G36*
G01*
X121029780Y-71718120D02*
X121029780Y-70410120D01*
G75*
G02*
X121131380Y-70308520I101600J0D01*
G01*
X122439380Y-70308520D01*
G75*
G02*
X122540980Y-70410120I0J-101600D01*
G01*
X122540980Y-71718120D01*
G75*
G02*
X122439380Y-71819720I-101600J0D01*
G01*
X121131380Y-71819720D01*
G75*
G02*
X121029780Y-71718120I0J101600D01*
G01*
G37*
D16*
X118207000Y-112336000D03*
X120747000Y-112336000D03*
X123287000Y-112336000D03*
X125827000Y-112336000D03*
X125827000Y-104716000D03*
X123287000Y-104716000D03*
X120747000Y-104716000D03*
D17*
X118207000Y-104716000D03*
D18*
X195874640Y-68150740D03*
X195877180Y-110169960D03*
X111879380Y-110162340D03*
X111879380Y-68178680D03*
X123278900Y-64170560D03*
X184470040Y-98272600D03*
X123286520Y-98272600D03*
X184470040Y-63949580D03*
D15*
X171964000Y-107524000D03*
D19*
X101853060Y-66649800D03*
X101853060Y-69849800D03*
X86053060Y-69849800D03*
X86053060Y-66649800D03*
D20*
X98653060Y-68249800D03*
X93953060Y-68249800D03*
X89253060Y-68249800D03*
D21*
X106842100Y-130997760D03*
X106842100Y-122097760D03*
M02*
