G04 #@! TF.GenerationSoftware,KiCad,Pcbnew,(5.1.9-0-10_14)*
G04 #@! TF.CreationDate,2021-01-20T12:56:53-08:00*
G04 #@! TF.ProjectId,UrbanSteering,55726261-6e53-4746-9565-72696e672e6b,rev?*
G04 #@! TF.SameCoordinates,Original*
G04 #@! TF.FileFunction,Legend,Bot*
G04 #@! TF.FilePolarity,Positive*
%FSLAX46Y46*%
G04 Gerber Fmt 4.6, Leading zero omitted, Abs format (unit mm)*
G04 Created by KiCad (PCBNEW (5.1.9-0-10_14)) date 2021-01-20 12:56:53*
%MOMM*%
%LPD*%
G01*
G04 APERTURE LIST*
%ADD10C,0.120000*%
%ADD11C,0.250000*%
%ADD12C,0.150000*%
%ADD13C,0.100000*%
%ADD14C,0.200000*%
%ADD15C,0.152400*%
%ADD16C,0.127000*%
%ADD17C,0.254000*%
G04 APERTURE END LIST*
D10*
X106306279Y-117735082D02*
X106306279Y-118209598D01*
X107351279Y-117735082D02*
X107351279Y-118209598D01*
X123945120Y-87489262D02*
X123945120Y-87963778D01*
X124990120Y-87489262D02*
X124990120Y-87963778D01*
X117536700Y-78952742D02*
X117536700Y-79427258D01*
X118581700Y-78952742D02*
X118581700Y-79427258D01*
X161521140Y-101925120D02*
X161521140Y-104465120D01*
X161521140Y-104465120D02*
X146281140Y-104465120D01*
X146281140Y-104465120D02*
X146281140Y-101925120D01*
D11*
X185521000Y-114608000D02*
G75*
G03*
X185521000Y-114608000I-125000J0D01*
G01*
D12*
X196571000Y-126293000D02*
X196571000Y-119058000D01*
X181831000Y-126293000D02*
X181831000Y-119058000D01*
X184191000Y-119058000D02*
X181831000Y-119058000D01*
X196571000Y-119058000D02*
X194211000Y-119058000D01*
D11*
X115315000Y-114666000D02*
G75*
G03*
X115315000Y-114666000I-125000J0D01*
G01*
D12*
X126365000Y-126351000D02*
X126365000Y-119116000D01*
X111625000Y-126351000D02*
X111625000Y-119116000D01*
X113985000Y-119116000D02*
X111625000Y-119116000D01*
X126365000Y-119116000D02*
X124005000Y-119116000D01*
D13*
X150126240Y-111110960D02*
X148341240Y-111110960D01*
X148341240Y-111110960D02*
X148341240Y-125010960D01*
X148341240Y-125010960D02*
X159791240Y-125010960D01*
X159791240Y-125010960D02*
X159791240Y-111110960D01*
X159791240Y-111110960D02*
X157926240Y-111110960D01*
D14*
X151466240Y-106715960D02*
X151466240Y-106715960D01*
X151666240Y-106715960D02*
X151666240Y-106715960D01*
X151466240Y-106715960D02*
G75*
G03*
X151666240Y-106715960I100000J0D01*
G01*
X151666240Y-106715960D02*
G75*
G03*
X151466240Y-106715960I-100000J0D01*
G01*
D15*
X117132439Y-112209000D02*
X116810000Y-112209000D01*
X119672439Y-112209000D02*
X119281561Y-112209000D01*
X122212439Y-112209000D02*
X121821561Y-112209000D01*
X124752439Y-112209000D02*
X124361561Y-112209000D01*
X126901561Y-104843000D02*
X127224000Y-104843000D01*
X124361561Y-104843000D02*
X124752439Y-104843000D01*
X121821561Y-104843000D02*
X122212439Y-104843000D01*
X119289040Y-104843000D02*
X119672439Y-104843000D01*
X116810000Y-104843000D02*
X117124960Y-104843000D01*
X116810000Y-112209000D02*
X116810000Y-104843000D01*
X127224000Y-112209000D02*
X126901561Y-112209000D01*
X127224000Y-104843000D02*
X127224000Y-112209000D01*
D14*
X106942100Y-120797760D02*
G75*
G03*
X106942100Y-120797760I-100000J0D01*
G01*
D16*
X108612100Y-123447760D02*
X105072100Y-123447760D01*
X108612100Y-129647760D02*
X108612100Y-123447760D01*
X105072100Y-129647760D02*
X108612100Y-129647760D01*
X105072100Y-123447760D02*
X105072100Y-129647760D01*
D12*
X105851159Y-117805673D02*
X105374969Y-117472340D01*
X105851159Y-117234244D02*
X104851159Y-117234244D01*
X104851159Y-117615197D01*
X104898779Y-117710435D01*
X104946398Y-117758054D01*
X105041636Y-117805673D01*
X105184493Y-117805673D01*
X105279731Y-117758054D01*
X105327350Y-117710435D01*
X105374969Y-117615197D01*
X105374969Y-117234244D01*
X104851159Y-118139006D02*
X104851159Y-118758054D01*
X105232112Y-118424720D01*
X105232112Y-118567578D01*
X105279731Y-118662816D01*
X105327350Y-118710435D01*
X105422588Y-118758054D01*
X105660683Y-118758054D01*
X105755921Y-118710435D01*
X105803540Y-118662816D01*
X105851159Y-118567578D01*
X105851159Y-118281863D01*
X105803540Y-118186625D01*
X105755921Y-118139006D01*
X123490000Y-87559853D02*
X123013810Y-87226520D01*
X123490000Y-86988424D02*
X122490000Y-86988424D01*
X122490000Y-87369377D01*
X122537620Y-87464615D01*
X122585239Y-87512234D01*
X122680477Y-87559853D01*
X122823334Y-87559853D01*
X122918572Y-87512234D01*
X122966191Y-87464615D01*
X123013810Y-87369377D01*
X123013810Y-86988424D01*
X122585239Y-87940805D02*
X122537620Y-87988424D01*
X122490000Y-88083662D01*
X122490000Y-88321758D01*
X122537620Y-88416996D01*
X122585239Y-88464615D01*
X122680477Y-88512234D01*
X122775715Y-88512234D01*
X122918572Y-88464615D01*
X123490000Y-87893186D01*
X123490000Y-88512234D01*
X117081580Y-79023333D02*
X116605390Y-78690000D01*
X117081580Y-78451904D02*
X116081580Y-78451904D01*
X116081580Y-78832857D01*
X116129200Y-78928095D01*
X116176819Y-78975714D01*
X116272057Y-79023333D01*
X116414914Y-79023333D01*
X116510152Y-78975714D01*
X116557771Y-78928095D01*
X116605390Y-78832857D01*
X116605390Y-78451904D01*
X117081580Y-79975714D02*
X117081580Y-79404285D01*
X117081580Y-79690000D02*
X116081580Y-79690000D01*
X116224438Y-79594761D01*
X116319676Y-79499523D01*
X116367295Y-79404285D01*
D14*
X164550952Y-57581904D02*
X164550952Y-58153333D01*
X164589047Y-58267619D01*
X164665238Y-58343809D01*
X164779523Y-58381904D01*
X164855714Y-58381904D01*
X163827142Y-57848571D02*
X163827142Y-58381904D01*
X164017619Y-57543809D02*
X164208095Y-58115238D01*
X163712857Y-58115238D01*
D12*
X174020238Y-61474047D02*
X173838809Y-61534523D01*
X173536428Y-61534523D01*
X173415476Y-61474047D01*
X173355000Y-61413571D01*
X173294523Y-61292619D01*
X173294523Y-61171666D01*
X173355000Y-61050714D01*
X173415476Y-60990238D01*
X173536428Y-60929761D01*
X173778333Y-60869285D01*
X173899285Y-60808809D01*
X173959761Y-60748333D01*
X174020238Y-60627380D01*
X174020238Y-60506428D01*
X173959761Y-60385476D01*
X173899285Y-60325000D01*
X173778333Y-60264523D01*
X173475952Y-60264523D01*
X173294523Y-60325000D01*
X172931666Y-60264523D02*
X172205952Y-60264523D01*
X172568809Y-61534523D02*
X172568809Y-60264523D01*
X171782619Y-61534523D02*
X171782619Y-60264523D01*
X171359285Y-61171666D01*
X170935952Y-60264523D01*
X170935952Y-61534523D01*
X170452142Y-60264523D02*
X169665952Y-60264523D01*
X170089285Y-60748333D01*
X169907857Y-60748333D01*
X169786904Y-60808809D01*
X169726428Y-60869285D01*
X169665952Y-60990238D01*
X169665952Y-61292619D01*
X169726428Y-61413571D01*
X169786904Y-61474047D01*
X169907857Y-61534523D01*
X170270714Y-61534523D01*
X170391666Y-61474047D01*
X170452142Y-61413571D01*
X169182142Y-60385476D02*
X169121666Y-60325000D01*
X169000714Y-60264523D01*
X168698333Y-60264523D01*
X168577380Y-60325000D01*
X168516904Y-60385476D01*
X168456428Y-60506428D01*
X168456428Y-60627380D01*
X168516904Y-60808809D01*
X169242619Y-61534523D01*
X168456428Y-61534523D01*
X167307380Y-61534523D02*
X167912142Y-61534523D01*
X167912142Y-60264523D01*
X166339761Y-60687857D02*
X166339761Y-61534523D01*
X166642142Y-60204047D02*
X166944523Y-61111190D01*
X166158333Y-61111190D01*
X165795476Y-60264523D02*
X165009285Y-60264523D01*
X165432619Y-60748333D01*
X165251190Y-60748333D01*
X165130238Y-60808809D01*
X165069761Y-60869285D01*
X165009285Y-60990238D01*
X165009285Y-61292619D01*
X165069761Y-61413571D01*
X165130238Y-61474047D01*
X165251190Y-61534523D01*
X165614047Y-61534523D01*
X165735000Y-61474047D01*
X165795476Y-61413571D01*
X164525476Y-60385476D02*
X164465000Y-60325000D01*
X164344047Y-60264523D01*
X164041666Y-60264523D01*
X163920714Y-60325000D01*
X163860238Y-60385476D01*
X163799761Y-60506428D01*
X163799761Y-60627380D01*
X163860238Y-60808809D01*
X164585952Y-61534523D01*
X163799761Y-61534523D01*
D17*
X199829661Y-128844523D02*
X199829661Y-129751666D01*
X199890138Y-129933095D01*
X200011090Y-130054047D01*
X200192519Y-130114523D01*
X200313471Y-130114523D01*
X199345852Y-128844523D02*
X198559661Y-128844523D01*
X198982995Y-129328333D01*
X198801566Y-129328333D01*
X198680614Y-129388809D01*
X198620138Y-129449285D01*
X198559661Y-129570238D01*
X198559661Y-129872619D01*
X198620138Y-129993571D01*
X198680614Y-130054047D01*
X198801566Y-130114523D01*
X199164423Y-130114523D01*
X199285376Y-130054047D01*
X199345852Y-129993571D01*
D12*
X213329761Y-131989285D02*
X213148333Y-132049761D01*
X213087857Y-132110238D01*
X213027380Y-132231190D01*
X213027380Y-132412619D01*
X213087857Y-132533571D01*
X213148333Y-132594047D01*
X213269285Y-132654523D01*
X213753095Y-132654523D01*
X213753095Y-131384523D01*
X213329761Y-131384523D01*
X213208809Y-131445000D01*
X213148333Y-131505476D01*
X213087857Y-131626428D01*
X213087857Y-131747380D01*
X213148333Y-131868333D01*
X213208809Y-131928809D01*
X213329761Y-131989285D01*
X213753095Y-131989285D01*
X211757380Y-132654523D02*
X212180714Y-132049761D01*
X212483095Y-132654523D02*
X212483095Y-131384523D01*
X211999285Y-131384523D01*
X211878333Y-131445000D01*
X211817857Y-131505476D01*
X211757380Y-131626428D01*
X211757380Y-131807857D01*
X211817857Y-131928809D01*
X211878333Y-131989285D01*
X211999285Y-132049761D01*
X212483095Y-132049761D01*
X211273571Y-132291666D02*
X210668809Y-132291666D01*
X211394523Y-132654523D02*
X210971190Y-131384523D01*
X210547857Y-132654523D01*
X210124523Y-132654523D02*
X210124523Y-131384523D01*
X209398809Y-132654523D02*
X209943095Y-131928809D01*
X209398809Y-131384523D02*
X210124523Y-132110238D01*
X208854523Y-131989285D02*
X208431190Y-131989285D01*
X208249761Y-132654523D02*
X208854523Y-132654523D01*
X208854523Y-131384523D01*
X208249761Y-131384523D01*
X207705476Y-132170714D02*
X206737857Y-132170714D01*
X207221666Y-132654523D02*
X207221666Y-131686904D01*
X206314523Y-131384523D02*
X205588809Y-131384523D01*
X205951666Y-132654523D02*
X205951666Y-131384523D01*
X205165476Y-132654523D02*
X205165476Y-131384523D01*
X205165476Y-131989285D02*
X204439761Y-131989285D01*
X204439761Y-132654523D02*
X204439761Y-131384523D01*
X203109285Y-132654523D02*
X203532619Y-132049761D01*
X203835000Y-132654523D02*
X203835000Y-131384523D01*
X203351190Y-131384523D01*
X203230238Y-131445000D01*
X203169761Y-131505476D01*
X203109285Y-131626428D01*
X203109285Y-131807857D01*
X203169761Y-131928809D01*
X203230238Y-131989285D01*
X203351190Y-132049761D01*
X203835000Y-132049761D01*
X202323095Y-131384523D02*
X202081190Y-131384523D01*
X201960238Y-131445000D01*
X201839285Y-131565952D01*
X201778809Y-131807857D01*
X201778809Y-132231190D01*
X201839285Y-132473095D01*
X201960238Y-132594047D01*
X202081190Y-132654523D01*
X202323095Y-132654523D01*
X202444047Y-132594047D01*
X202565000Y-132473095D01*
X202625476Y-132231190D01*
X202625476Y-131807857D01*
X202565000Y-131565952D01*
X202444047Y-131445000D01*
X202323095Y-131384523D01*
X201415952Y-131384523D02*
X200690238Y-131384523D01*
X201053095Y-132654523D02*
X201053095Y-131384523D01*
X200448333Y-131384523D02*
X199722619Y-131384523D01*
X200085476Y-132654523D02*
X200085476Y-131384523D01*
X198694523Y-132654523D02*
X199299285Y-132654523D01*
X199299285Y-131384523D01*
X198271190Y-131989285D02*
X197847857Y-131989285D01*
X197666428Y-132654523D02*
X198271190Y-132654523D01*
X198271190Y-131384523D01*
X197666428Y-131384523D01*
D17*
X129979661Y-119954523D02*
X129979661Y-120861666D01*
X130040138Y-121043095D01*
X130161090Y-121164047D01*
X130342519Y-121224523D01*
X130463471Y-121224523D01*
X129435376Y-120075476D02*
X129374900Y-120015000D01*
X129253947Y-119954523D01*
X128951566Y-119954523D01*
X128830614Y-120015000D01*
X128770138Y-120075476D01*
X128709661Y-120196428D01*
X128709661Y-120317380D01*
X128770138Y-120498809D01*
X129495852Y-121224523D01*
X128709661Y-121224523D01*
D12*
X136464523Y-123764523D02*
X136464523Y-122494523D01*
X136041190Y-123401666D01*
X135617857Y-122494523D01*
X135617857Y-123764523D01*
X135073571Y-123401666D02*
X134468809Y-123401666D01*
X135194523Y-123764523D02*
X134771190Y-122494523D01*
X134347857Y-123764523D01*
X133924523Y-123764523D02*
X133924523Y-122494523D01*
X133319761Y-123764523D02*
X133319761Y-122494523D01*
X132594047Y-123764523D01*
X132594047Y-122494523D01*
X131989285Y-123764523D02*
X131989285Y-122494523D01*
X131505476Y-122494523D01*
X131384523Y-122555000D01*
X131324047Y-122615476D01*
X131263571Y-122736428D01*
X131263571Y-122917857D01*
X131324047Y-123038809D01*
X131384523Y-123099285D01*
X131505476Y-123159761D01*
X131989285Y-123159761D01*
X130114523Y-123764523D02*
X130719285Y-123764523D01*
X130719285Y-122494523D01*
X129691190Y-122494523D02*
X129691190Y-123522619D01*
X129630714Y-123643571D01*
X129570238Y-123704047D01*
X129449285Y-123764523D01*
X129207380Y-123764523D01*
X129086428Y-123704047D01*
X129025952Y-123643571D01*
X128965476Y-123522619D01*
X128965476Y-122494523D01*
X127695476Y-122555000D02*
X127816428Y-122494523D01*
X127997857Y-122494523D01*
X128179285Y-122555000D01*
X128300238Y-122675952D01*
X128360714Y-122796904D01*
X128421190Y-123038809D01*
X128421190Y-123220238D01*
X128360714Y-123462142D01*
X128300238Y-123583095D01*
X128179285Y-123704047D01*
X127997857Y-123764523D01*
X127876904Y-123764523D01*
X127695476Y-123704047D01*
X127635000Y-123643571D01*
X127635000Y-123220238D01*
X127876904Y-123220238D01*
D17*
X164253333Y-119954523D02*
X164253333Y-120861666D01*
X164313809Y-121043095D01*
X164434761Y-121164047D01*
X164616190Y-121224523D01*
X164737142Y-121224523D01*
X162983333Y-121224523D02*
X163709047Y-121224523D01*
X163346190Y-121224523D02*
X163346190Y-119954523D01*
X163467142Y-120135952D01*
X163588095Y-120256904D01*
X163709047Y-120317380D01*
X165493095Y-123764523D02*
X165493095Y-122494523D01*
X165190714Y-122494523D01*
X165009285Y-122555000D01*
X164888333Y-122675952D01*
X164827857Y-122796904D01*
X164767380Y-123038809D01*
X164767380Y-123220238D01*
X164827857Y-123462142D01*
X164888333Y-123583095D01*
X165009285Y-123704047D01*
X165190714Y-123764523D01*
X165493095Y-123764523D01*
X164223095Y-123764523D02*
X164223095Y-122494523D01*
X163799761Y-123401666D01*
X163376428Y-122494523D01*
X163376428Y-123764523D01*
X162832142Y-123704047D02*
X162650714Y-123764523D01*
X162348333Y-123764523D01*
X162227380Y-123704047D01*
X162166904Y-123643571D01*
X162106428Y-123522619D01*
X162106428Y-123401666D01*
X162166904Y-123280714D01*
X162227380Y-123220238D01*
X162348333Y-123159761D01*
X162590238Y-123099285D01*
X162711190Y-123038809D01*
X162771666Y-122978333D01*
X162832142Y-122857380D01*
X162832142Y-122736428D01*
X162771666Y-122615476D01*
X162711190Y-122555000D01*
X162590238Y-122494523D01*
X162287857Y-122494523D01*
X162106428Y-122555000D01*
D12*
X117601904Y-102322380D02*
X117601904Y-103131904D01*
X117554285Y-103227142D01*
X117506666Y-103274761D01*
X117411428Y-103322380D01*
X117220952Y-103322380D01*
X117125714Y-103274761D01*
X117078095Y-103227142D01*
X117030476Y-103131904D01*
X117030476Y-102322380D01*
X116030476Y-103322380D02*
X116601904Y-103322380D01*
X116316190Y-103322380D02*
X116316190Y-102322380D01*
X116411428Y-102465238D01*
X116506666Y-102560476D01*
X116601904Y-102608095D01*
X128722380Y-100901904D02*
X127722380Y-100901904D01*
X128436666Y-101235238D01*
X127722380Y-101568571D01*
X128722380Y-101568571D01*
X128627142Y-102616190D02*
X128674761Y-102568571D01*
X128722380Y-102425714D01*
X128722380Y-102330476D01*
X128674761Y-102187619D01*
X128579523Y-102092380D01*
X128484285Y-102044761D01*
X128293809Y-101997142D01*
X128150952Y-101997142D01*
X127960476Y-102044761D01*
X127865238Y-102092380D01*
X127770000Y-102187619D01*
X127722380Y-102330476D01*
X127722380Y-102425714D01*
X127770000Y-102568571D01*
X127817619Y-102616190D01*
X128722380Y-103044761D02*
X127722380Y-103044761D01*
X127722380Y-103425714D01*
X127770000Y-103520952D01*
X127817619Y-103568571D01*
X127912857Y-103616190D01*
X128055714Y-103616190D01*
X128150952Y-103568571D01*
X128198571Y-103520952D01*
X128246190Y-103425714D01*
X128246190Y-103044761D01*
X127817619Y-103997142D02*
X127770000Y-104044761D01*
X127722380Y-104140000D01*
X127722380Y-104378095D01*
X127770000Y-104473333D01*
X127817619Y-104520952D01*
X127912857Y-104568571D01*
X128008095Y-104568571D01*
X128150952Y-104520952D01*
X128722380Y-103949523D01*
X128722380Y-104568571D01*
X127722380Y-105473333D02*
X127722380Y-104997142D01*
X128198571Y-104949523D01*
X128150952Y-104997142D01*
X128103333Y-105092380D01*
X128103333Y-105330476D01*
X128150952Y-105425714D01*
X128198571Y-105473333D01*
X128293809Y-105520952D01*
X128531904Y-105520952D01*
X128627142Y-105473333D01*
X128674761Y-105425714D01*
X128722380Y-105330476D01*
X128722380Y-105092380D01*
X128674761Y-104997142D01*
X128627142Y-104949523D01*
X127722380Y-106378095D02*
X127722380Y-106187619D01*
X127770000Y-106092380D01*
X127817619Y-106044761D01*
X127960476Y-105949523D01*
X128150952Y-105901904D01*
X128531904Y-105901904D01*
X128627142Y-105949523D01*
X128674761Y-105997142D01*
X128722380Y-106092380D01*
X128722380Y-106282857D01*
X128674761Y-106378095D01*
X128627142Y-106425714D01*
X128531904Y-106473333D01*
X128293809Y-106473333D01*
X128198571Y-106425714D01*
X128150952Y-106378095D01*
X128103333Y-106282857D01*
X128103333Y-106092380D01*
X128150952Y-105997142D01*
X128198571Y-105949523D01*
X128293809Y-105901904D01*
X127817619Y-106854285D02*
X127770000Y-106901904D01*
X127722380Y-106997142D01*
X127722380Y-107235238D01*
X127770000Y-107330476D01*
X127817619Y-107378095D01*
X127912857Y-107425714D01*
X128008095Y-107425714D01*
X128150952Y-107378095D01*
X128722380Y-106806666D01*
X128722380Y-107425714D01*
X116148080Y-104716000D02*
X116386176Y-104716000D01*
X116290938Y-104477904D02*
X116386176Y-104716000D01*
X116290938Y-104954095D01*
X116576652Y-104573142D02*
X116386176Y-104716000D01*
X116576652Y-104858857D01*
X116148080Y-104716000D02*
X116386176Y-104716000D01*
X116290938Y-104477904D02*
X116386176Y-104716000D01*
X116290938Y-104954095D01*
X116576652Y-104573142D02*
X116386176Y-104716000D01*
X116576652Y-104858857D01*
D11*
X104463052Y-125770379D02*
X104522576Y-125948950D01*
X104522576Y-126246569D01*
X104463052Y-126365617D01*
X104403528Y-126425140D01*
X104284480Y-126484664D01*
X104165433Y-126484664D01*
X104046385Y-126425140D01*
X103986861Y-126365617D01*
X103927338Y-126246569D01*
X103867814Y-126008474D01*
X103808290Y-125889426D01*
X103748766Y-125829902D01*
X103629719Y-125770379D01*
X103510671Y-125770379D01*
X103391623Y-125829902D01*
X103332100Y-125889426D01*
X103272576Y-126008474D01*
X103272576Y-126306093D01*
X103332100Y-126484664D01*
X103272576Y-127556093D02*
X103272576Y-127317998D01*
X103332100Y-127198950D01*
X103391623Y-127139426D01*
X103570195Y-127020379D01*
X103808290Y-126960855D01*
X104284480Y-126960855D01*
X104403528Y-127020379D01*
X104463052Y-127079902D01*
X104522576Y-127198950D01*
X104522576Y-127437045D01*
X104463052Y-127556093D01*
X104403528Y-127615617D01*
X104284480Y-127675140D01*
X103986861Y-127675140D01*
X103867814Y-127615617D01*
X103808290Y-127556093D01*
X103748766Y-127437045D01*
X103748766Y-127198950D01*
X103808290Y-127079902D01*
X103867814Y-127020379D01*
X103986861Y-126960855D01*
D13*
X110084242Y-119730000D02*
X110131861Y-119682380D01*
X110179480Y-119539523D01*
X110179480Y-119444285D01*
X110131861Y-119301428D01*
X110036623Y-119206190D01*
X109941385Y-119158571D01*
X109750909Y-119110952D01*
X109608052Y-119110952D01*
X109417576Y-119158571D01*
X109322338Y-119206190D01*
X109227100Y-119301428D01*
X109179480Y-119444285D01*
X109179480Y-119539523D01*
X109227100Y-119682380D01*
X109274719Y-119730000D01*
X109893766Y-120110952D02*
X109893766Y-120587142D01*
X110179480Y-120015714D02*
X109179480Y-120349047D01*
X110179480Y-120682380D01*
X110179480Y-121015714D02*
X109179480Y-121015714D01*
X110179480Y-121587142D01*
X109179480Y-121587142D01*
X110274719Y-121825238D02*
X110274719Y-122587142D01*
X110179480Y-123396666D02*
X109703290Y-123063333D01*
X110179480Y-122825238D02*
X109179480Y-122825238D01*
X109179480Y-123206190D01*
X109227100Y-123301428D01*
X109274719Y-123349047D01*
X109369957Y-123396666D01*
X109512814Y-123396666D01*
X109608052Y-123349047D01*
X109655671Y-123301428D01*
X109703290Y-123206190D01*
X109703290Y-122825238D01*
X109655671Y-123825238D02*
X109655671Y-124158571D01*
X110179480Y-124301428D02*
X110179480Y-123825238D01*
X109179480Y-123825238D01*
X109179480Y-124301428D01*
X110131861Y-124682380D02*
X110179480Y-124825238D01*
X110179480Y-125063333D01*
X110131861Y-125158571D01*
X110084242Y-125206190D01*
X109989004Y-125253809D01*
X109893766Y-125253809D01*
X109798528Y-125206190D01*
X109750909Y-125158571D01*
X109703290Y-125063333D01*
X109655671Y-124872857D01*
X109608052Y-124777619D01*
X109560433Y-124729999D01*
X109465195Y-124682380D01*
X109369957Y-124682380D01*
X109274719Y-124729999D01*
X109227100Y-124777619D01*
X109179480Y-124872857D01*
X109179480Y-125110952D01*
X109227100Y-125253809D01*
X110179480Y-125682380D02*
X109179480Y-125682380D01*
X110131861Y-126110952D02*
X110179480Y-126253809D01*
X110179480Y-126491904D01*
X110131861Y-126587142D01*
X110084242Y-126634761D01*
X109989004Y-126682380D01*
X109893766Y-126682380D01*
X109798528Y-126634761D01*
X109750909Y-126587142D01*
X109703290Y-126491904D01*
X109655671Y-126301428D01*
X109608052Y-126206190D01*
X109560433Y-126158571D01*
X109465195Y-126110952D01*
X109369957Y-126110952D01*
X109274719Y-126158571D01*
X109227100Y-126206190D01*
X109179480Y-126301428D01*
X109179480Y-126539523D01*
X109227100Y-126682380D01*
X109179480Y-126968095D02*
X109179480Y-127539523D01*
X110179480Y-127253809D02*
X109179480Y-127253809D01*
X109179480Y-128063333D02*
X109179480Y-128253809D01*
X109227100Y-128349047D01*
X109322338Y-128444285D01*
X109512814Y-128491904D01*
X109846147Y-128491904D01*
X110036623Y-128444285D01*
X110131861Y-128349047D01*
X110179480Y-128253809D01*
X110179480Y-128063333D01*
X110131861Y-127968095D01*
X110036623Y-127872857D01*
X109846147Y-127825238D01*
X109512814Y-127825238D01*
X109322338Y-127872857D01*
X109227100Y-127968095D01*
X109179480Y-128063333D01*
X110179480Y-129491904D02*
X109703290Y-129158571D01*
X110179480Y-128920476D02*
X109179480Y-128920476D01*
X109179480Y-129301428D01*
X109227100Y-129396666D01*
X109274719Y-129444285D01*
X109369957Y-129491904D01*
X109512814Y-129491904D01*
X109608052Y-129444285D01*
X109655671Y-129396666D01*
X109703290Y-129301428D01*
X109703290Y-128920476D01*
X110274719Y-129682380D02*
X110274719Y-130444285D01*
X110131861Y-130634761D02*
X110179480Y-130777619D01*
X110179480Y-131015714D01*
X110131861Y-131110952D01*
X110084242Y-131158571D01*
X109989004Y-131206190D01*
X109893766Y-131206190D01*
X109798528Y-131158571D01*
X109750909Y-131110952D01*
X109703290Y-131015714D01*
X109655671Y-130825238D01*
X109608052Y-130729999D01*
X109560433Y-130682380D01*
X109465195Y-130634761D01*
X109369957Y-130634761D01*
X109274719Y-130682380D01*
X109227100Y-130729999D01*
X109179480Y-130825238D01*
X109179480Y-131063333D01*
X109227100Y-131206190D01*
X109179480Y-131539523D02*
X110179480Y-131777619D01*
X109465195Y-131968095D01*
X110179480Y-132158571D01*
X109179480Y-132396666D01*
M02*
