M48
; DRILL file {KiCad (5.1.9-0-10_14)} date Wednesday, January 20, 2021 at 12:56:58 PM
; FORMAT={2:4/ absolute / inch / suppress leading zeros}
; #@! TF.CreationDate,2021-01-20T12:56:58-08:00
; #@! TF.GenerationSoftware,Kicad,Pcbnew,(5.1.9-0-10_14)
; #@! TF.FileFunction,Plated,1,2,PTH
FMAT,2
INCH,TZ
T1C0.0157
T2C0.0276
T3C0.0315
T4C0.0390
T5C0.0591
T6C0.0709
T7C0.0787
T8C0.1260
%
G90
G05
T1
X42069Y-45461
X45368Y-30132
X50317Y-47715
X51500Y-27000
X51832Y-37842
X51837Y-33901
X52643Y-38119
X52649Y-22772
X53852Y-30852
X54706Y-32932
X55374Y-34326
X59679Y-38203
X60584Y-40591
X62786Y-24249
X64192Y-41868
T2
X37248Y-35727
X37248Y-36727
X37248Y-37727
X37278Y-45505
X37278Y-46505
X37278Y-47505
X83884Y-45583
X83884Y-46583
X83884Y-47583
X83943Y-35666
X83943Y-36666
X83943Y-37666
X84177Y-25682
X84177Y-26682
X84177Y-27682
T3
X39020Y-35227
X39020Y-38227
X39050Y-45005
X39050Y-48005
X47947Y-27978
X47947Y-28978
X47947Y-29978
X47947Y-30978
X47947Y-31978
X47947Y-32978
X47947Y-33978
X47947Y-34978
X47947Y-35978
X57591Y-25128
X57591Y-26128
X57591Y-27128
X57591Y-28128
X57591Y-29128
X57591Y-30128
X57591Y-31128
X57591Y-32128
X57591Y-33128
X57591Y-34128
X57591Y-35128
X57591Y-36128
X57591Y-37128
X57591Y-38128
X57591Y-39128
X63591Y-25128
X63591Y-26128
X63591Y-27128
X63591Y-28128
X63591Y-29128
X63591Y-30128
X63591Y-31128
X63591Y-32128
X63591Y-33128
X63591Y-34128
X63591Y-35128
X63591Y-36128
X63591Y-37128
X63591Y-38128
X63591Y-39128
X82112Y-45083
X82112Y-48083
X82171Y-35166
X82171Y-38166
X82405Y-25182
X82405Y-28182
T4
X46538Y-41227
X46538Y-44227
X47538Y-41227
X47538Y-44227
X48538Y-41227
X48538Y-44227
X49538Y-41227
X49538Y-44227
T5
X33879Y-26240
X33879Y-27500
X40100Y-26240
X40100Y-27500
T6
X35139Y-26870
X36989Y-26870
X38840Y-26870
T7
X42989Y-31238
X43054Y-34292
X51794Y-42438
X54469Y-42502
X67702Y-42332
X67787Y-47320
T8
X44047Y-26842
X44047Y-43371
X48535Y-25264
X48538Y-38690
X72626Y-25177
X72626Y-38690
X77116Y-26831
X77117Y-43374
T0
M30
