M48
; DRILL file {KiCad (5.1.9-0-10_14)} date Wednesday, January 20, 2021 at 12:56:58 PM
; FORMAT={2:4/ absolute / inch / suppress leading zeros}
; #@! TF.CreationDate,2021-01-20T12:56:58-08:00
; #@! TF.GenerationSoftware,Kicad,Pcbnew,(5.1.9-0-10_14)
; #@! TF.FileFunction,NonPlated,1,2,NPTH
FMAT,2
INCH,TZ
T1C0.0512
T2C0.1480
T3C0.1500
%
G90
G05
T1
X34748Y-34227
X34748Y-39227
X34778Y-44005
X34778Y-49005
X39748Y-34227
X39748Y-39227
X39778Y-44005
X39778Y-49005
X81384Y-44083
X81384Y-49083
X81443Y-34166
X81443Y-39166
X81677Y-24182
X81677Y-29182
X86384Y-44083
X86384Y-49083
X86443Y-34166
X86443Y-39166
X86677Y-24182
X86677Y-29182
T2
X44797Y-50632
X48900Y-50632
X72437Y-50609
X76540Y-50609
T3
X59105Y-47524
X62207Y-47524
T0
M30
